M48
INCH,TZ
T1C0.016
T2C0.016
T3C0.030
T4C0.031
T5C0.039
T6C0.040
%
G90
G05
T1
X14300Y-10600
X14500Y-10000
X17500Y-20750
X18500Y-18250
X20750Y-15500
X21000Y-24000
X21250Y-9500
X22000Y-15500
X23500Y-19250
T2
X8250Y-8500
X8250Y-25750
X8500Y-19500
X9000Y-12000
X9000Y-16000
X12500Y-11500
X13250Y-22750
X13750Y-16500
X14500Y-19500
X15000Y-14750
X15500Y-10750
X16000Y-13250
X17000Y-12500
X17250Y-14500
X17500Y-25250
X18500Y-14000
X18500Y-15750
X18500Y-19750
X20750Y-18500
X21500Y-12000
X21500Y-22000
X21750Y-9000
X22250Y-25500
T3
X15793Y-22293
X15793Y-23707
X17207Y-22293
X17207Y-23707
T4
X13000Y-18713
X13000Y-20287
T5
X22500Y-16500
X22500Y-17500
X22500Y-18500
X22500Y-20500
X22500Y-21500
X22500Y-22500
X22500Y-23500
T6
X10500Y-10000
X10500Y-11000
X10500Y-12000
X10500Y-13000
X10500Y-14000
X10500Y-15000
X10500Y-16000
X10500Y-17000
X10500Y-18000
X10500Y-19000
X10500Y-20000
X10500Y-21000
X10500Y-22000
X10500Y-23000
X10500Y-24000
X19500Y-10000
X19500Y-11000
X19500Y-12000
X19500Y-13000
X19500Y-14000
X19500Y-15000
X19500Y-16000
X19500Y-17000
X19500Y-18000
X19500Y-19000
X19500Y-20000
X19500Y-21000
X19500Y-22000
X19500Y-23000
X19500Y-24000
T0
M30
