G04 #@! TF.FileFunction,Copper,L2,Bot,Signal*
%FSLAX46Y46*%
G04 Gerber Fmt 4.6, Leading zero omitted, Abs format (unit mm)*
G04 Created by KiCad (PCBNEW 4.0.5) date 04/16/17 14:29:44*
%MOMM*%
%LPD*%
G01*
G04 APERTURE LIST*
%ADD10C,0.100000*%
%ADD11C,0.812800*%
%ADD12R,1.700000X1.700000*%
%ADD13O,1.700000X1.700000*%
%ADD14O,2.000000X1.600000*%
%ADD15C,2.000000*%
%ADD16C,1.676400*%
%ADD17C,0.600000*%
%ADD18C,0.812400*%
%ADD19C,0.812800*%
%ADD20C,0.606900*%
%ADD21C,0.254000*%
G04 APERTURE END LIST*
D10*
D11*
X52705000Y-46990000D03*
X46990000Y-50165000D03*
X44450000Y-64135000D03*
X56515000Y-64770000D03*
X20955000Y-65405000D03*
X21590000Y-49530000D03*
X22860000Y-40640000D03*
X22860000Y-30480000D03*
X20955000Y-21590000D03*
X31750000Y-29210000D03*
X54610000Y-30480000D03*
X55245000Y-22860000D03*
X33655000Y-57785000D03*
X36830000Y-49530000D03*
X34925000Y-41910000D03*
X38100000Y-37465000D03*
X46990000Y-40005000D03*
X43815000Y-36830000D03*
X40640000Y-33655000D03*
X46990000Y-35560000D03*
X43180000Y-31750000D03*
X39370000Y-27305000D03*
X54610000Y-55880000D03*
D12*
X57150000Y-41910000D03*
D13*
X57150000Y-44450000D03*
X57150000Y-46990000D03*
D14*
X49530000Y-60960000D03*
X26670000Y-60960000D03*
X49530000Y-58420000D03*
X26670000Y-58420000D03*
X49530000Y-55880000D03*
X26670000Y-55880000D03*
X49530000Y-53340000D03*
X26670000Y-53340000D03*
X49530000Y-50800000D03*
X26670000Y-50800000D03*
X49530000Y-48260000D03*
X26670000Y-48260000D03*
X49530000Y-45720000D03*
X26670000Y-45720000D03*
X49530000Y-43180000D03*
X26670000Y-43180000D03*
X49530000Y-40640000D03*
X26670000Y-40640000D03*
X49530000Y-38100000D03*
X26670000Y-38100000D03*
X49530000Y-35560000D03*
X26670000Y-35560000D03*
X49530000Y-33020000D03*
X26670000Y-33020000D03*
X49530000Y-30480000D03*
X26670000Y-30480000D03*
X49530000Y-27940000D03*
X26670000Y-27940000D03*
X49530000Y-25400000D03*
X26670000Y-25400000D03*
D15*
X43706048Y-56623949D03*
X43706048Y-60216051D03*
X40113946Y-60216051D03*
X40113946Y-56623949D03*
D16*
X33020000Y-47531020D03*
X33020000Y-51528980D03*
D12*
X57150000Y-52070000D03*
D13*
X57150000Y-54610000D03*
X57150000Y-57150000D03*
X57150000Y-59690000D03*
D17*
X44450000Y-52705000D03*
X52705000Y-39370000D03*
X59690000Y-48895000D03*
X53340000Y-60960000D03*
X53975000Y-24130000D03*
X36830000Y-25400000D03*
X36322000Y-26924000D03*
X55880000Y-39370000D03*
X46990000Y-46355000D03*
D18*
X57150000Y-54610000D02*
X53848000Y-54610000D01*
X53848000Y-54610000D02*
X52578000Y-53340000D01*
X52578000Y-53340000D02*
X49530000Y-53340000D01*
X49530000Y-55880000D02*
X49730000Y-55880000D01*
X55947919Y-57150000D02*
X57150000Y-57150000D01*
X49730000Y-55880000D02*
X51000000Y-57150000D01*
X51000000Y-57150000D02*
X55947919Y-57150000D01*
X49530000Y-55880000D02*
X47625000Y-55880000D01*
X47625000Y-55880000D02*
X44450000Y-52705000D01*
X52070000Y-26127600D02*
X52070000Y-38735000D01*
X52070000Y-38735000D02*
X52705000Y-39370000D01*
X49530000Y-25400000D02*
X51342400Y-25400000D01*
X51342400Y-25400000D02*
X52070000Y-26127600D01*
D19*
X49276000Y-25654000D02*
X49530000Y-25400000D01*
D20*
X57785000Y-62230000D02*
X59690000Y-60325000D01*
X59690000Y-60325000D02*
X59690000Y-48895000D01*
X56761108Y-62230000D02*
X57785000Y-62230000D01*
X54610000Y-62230000D02*
X56761108Y-62230000D01*
X53639999Y-61259999D02*
X54610000Y-62230000D01*
X53340000Y-60960000D02*
X53639999Y-61259999D01*
D18*
X49330000Y-58420000D02*
X49530000Y-58420000D01*
X53975000Y-24130000D02*
X56515000Y-26670000D01*
X56515000Y-26670000D02*
X56515000Y-36830000D01*
X56515000Y-36830000D02*
X60325000Y-40640000D01*
X60325000Y-40640000D02*
X60325000Y-45085000D01*
X60325000Y-45085000D02*
X58420000Y-46990000D01*
X58420000Y-46990000D02*
X57150000Y-46990000D01*
D20*
X36830000Y-25400000D02*
X37129999Y-25699999D01*
X37129999Y-25699999D02*
X39469999Y-25699999D01*
X39469999Y-25699999D02*
X39787091Y-26017091D01*
X49530000Y-35560000D02*
X49330000Y-35560000D01*
X49330000Y-35560000D02*
X39787091Y-26017091D01*
X36322000Y-26924000D02*
X47498000Y-38100000D01*
X47498000Y-38100000D02*
X49530000Y-38100000D01*
X54610000Y-47326900D02*
X54610000Y-40640000D01*
X54610000Y-40640000D02*
X55880000Y-39370000D01*
X49530000Y-50800000D02*
X51136900Y-50800000D01*
X51136900Y-50800000D02*
X54610000Y-47326900D01*
X46990000Y-58620000D02*
X46990000Y-56672874D01*
X46990000Y-56672874D02*
X43440342Y-53123216D01*
X43440342Y-53123216D02*
X43440342Y-49904658D01*
X43440342Y-49904658D02*
X46990000Y-46355000D01*
X49530000Y-60960000D02*
X49330000Y-60960000D01*
X49330000Y-60960000D02*
X46990000Y-58620000D01*
D21*
G36*
X56488338Y-19821046D02*
X56902333Y-20097669D01*
X57178953Y-20511660D01*
X57290000Y-21069931D01*
X57290000Y-25991769D01*
X57251240Y-25933760D01*
X57251237Y-25933758D01*
X54711240Y-23393760D01*
X54373450Y-23168057D01*
X53975000Y-23088799D01*
X53576550Y-23168057D01*
X53238760Y-23393760D01*
X53013057Y-23731550D01*
X52933799Y-24130000D01*
X53013057Y-24528450D01*
X53238760Y-24866240D01*
X55473800Y-27101279D01*
X55473800Y-36829995D01*
X55473799Y-36830000D01*
X55553057Y-37228450D01*
X55778760Y-37566240D01*
X59283800Y-41071279D01*
X59283800Y-44653721D01*
X58090329Y-45847191D01*
X57899974Y-45720000D01*
X58229147Y-45500054D01*
X58551054Y-45018285D01*
X58664093Y-44450000D01*
X58551054Y-43881715D01*
X58229147Y-43399946D01*
X58185223Y-43370597D01*
X58359698Y-43298327D01*
X58538327Y-43119699D01*
X58635000Y-42886310D01*
X58635000Y-42195750D01*
X58476250Y-42037000D01*
X57277000Y-42037000D01*
X57277000Y-42057000D01*
X57023000Y-42057000D01*
X57023000Y-42037000D01*
X55823750Y-42037000D01*
X55665000Y-42195750D01*
X55665000Y-42886310D01*
X55761673Y-43119699D01*
X55940302Y-43298327D01*
X56114777Y-43370597D01*
X56070853Y-43399946D01*
X55748946Y-43881715D01*
X55635907Y-44450000D01*
X55748946Y-45018285D01*
X56070853Y-45500054D01*
X56400026Y-45720000D01*
X56070853Y-45939946D01*
X55748946Y-46421715D01*
X55635907Y-46990000D01*
X55748946Y-47558285D01*
X56070853Y-48040054D01*
X56552622Y-48361961D01*
X57120907Y-48475000D01*
X57179093Y-48475000D01*
X57747378Y-48361961D01*
X58229147Y-48040054D01*
X58235063Y-48031200D01*
X58419995Y-48031200D01*
X58420000Y-48031201D01*
X58818450Y-47951943D01*
X59156240Y-47726240D01*
X61061237Y-45821242D01*
X61061240Y-45821240D01*
X61286943Y-45483450D01*
X61320794Y-45313270D01*
X61366201Y-45085000D01*
X61366200Y-45084995D01*
X61366200Y-40640005D01*
X61366201Y-40640000D01*
X61286943Y-40241551D01*
X61286943Y-40241550D01*
X61061240Y-39903760D01*
X61061237Y-39903758D01*
X57556200Y-36398720D01*
X57556200Y-33629545D01*
X62290000Y-41203625D01*
X62290000Y-65930069D01*
X62178953Y-66488340D01*
X61902333Y-66902331D01*
X61488338Y-67178954D01*
X60930069Y-67290000D01*
X20069931Y-67290000D01*
X19511660Y-67178953D01*
X19097669Y-66902333D01*
X18821046Y-66488338D01*
X18710000Y-65930069D01*
X18710000Y-40640000D01*
X25002968Y-40640000D01*
X25112201Y-41189151D01*
X25423270Y-41654698D01*
X25805356Y-41910000D01*
X25423270Y-42165302D01*
X25112201Y-42630849D01*
X25002968Y-43180000D01*
X25112201Y-43729151D01*
X25423270Y-44194698D01*
X25805356Y-44450000D01*
X25423270Y-44705302D01*
X25112201Y-45170849D01*
X25002968Y-45720000D01*
X25112201Y-46269151D01*
X25423270Y-46734698D01*
X25805356Y-46990000D01*
X25423270Y-47245302D01*
X25112201Y-47710849D01*
X25002968Y-48260000D01*
X25112201Y-48809151D01*
X25423270Y-49274698D01*
X25805356Y-49530000D01*
X25423270Y-49785302D01*
X25112201Y-50250849D01*
X25002968Y-50800000D01*
X25112201Y-51349151D01*
X25423270Y-51814698D01*
X25805356Y-52070000D01*
X25423270Y-52325302D01*
X25112201Y-52790849D01*
X25002968Y-53340000D01*
X25112201Y-53889151D01*
X25423270Y-54354698D01*
X25805356Y-54610000D01*
X25423270Y-54865302D01*
X25112201Y-55330849D01*
X25002968Y-55880000D01*
X25112201Y-56429151D01*
X25423270Y-56894698D01*
X25805356Y-57150000D01*
X25423270Y-57405302D01*
X25112201Y-57870849D01*
X25002968Y-58420000D01*
X25112201Y-58969151D01*
X25423270Y-59434698D01*
X25805356Y-59690000D01*
X25423270Y-59945302D01*
X25112201Y-60410849D01*
X25002968Y-60960000D01*
X25112201Y-61509151D01*
X25423270Y-61974698D01*
X25888817Y-62285767D01*
X26437968Y-62395000D01*
X26902032Y-62395000D01*
X27451183Y-62285767D01*
X27916730Y-61974698D01*
X28227799Y-61509151D01*
X28337032Y-60960000D01*
X28253459Y-60539846D01*
X38478662Y-60539846D01*
X38727052Y-61140994D01*
X39186583Y-61601329D01*
X39787298Y-61850767D01*
X40437741Y-61851335D01*
X41038889Y-61602945D01*
X41499224Y-61143414D01*
X41748662Y-60542699D01*
X41748664Y-60539846D01*
X42070764Y-60539846D01*
X42319154Y-61140994D01*
X42778685Y-61601329D01*
X43379400Y-61850767D01*
X44029843Y-61851335D01*
X44630991Y-61602945D01*
X45091326Y-61143414D01*
X45340764Y-60542699D01*
X45341332Y-59892256D01*
X45092942Y-59291108D01*
X44633411Y-58830773D01*
X44032696Y-58581335D01*
X43382253Y-58580767D01*
X42781105Y-58829157D01*
X42320770Y-59288688D01*
X42071332Y-59889403D01*
X42070764Y-60539846D01*
X41748664Y-60539846D01*
X41749230Y-59892256D01*
X41500840Y-59291108D01*
X41041309Y-58830773D01*
X40440594Y-58581335D01*
X39790151Y-58580767D01*
X39189003Y-58829157D01*
X38728668Y-59288688D01*
X38479230Y-59889403D01*
X38478662Y-60539846D01*
X28253459Y-60539846D01*
X28227799Y-60410849D01*
X27916730Y-59945302D01*
X27534644Y-59690000D01*
X27916730Y-59434698D01*
X28227799Y-58969151D01*
X28337032Y-58420000D01*
X28227799Y-57870849D01*
X27916730Y-57405302D01*
X27534644Y-57150000D01*
X27745053Y-57009409D01*
X38492090Y-57009409D01*
X38763056Y-57600725D01*
X39239682Y-58043336D01*
X39728486Y-58245805D01*
X39986946Y-58126875D01*
X39986946Y-56750949D01*
X40240946Y-56750949D01*
X40240946Y-58126875D01*
X40499406Y-58245805D01*
X41090722Y-57974839D01*
X41533333Y-57498213D01*
X41735802Y-57009409D01*
X41707427Y-56947744D01*
X42070764Y-56947744D01*
X42319154Y-57548892D01*
X42778685Y-58009227D01*
X43379400Y-58258665D01*
X44029843Y-58259233D01*
X44630991Y-58010843D01*
X45091326Y-57551312D01*
X45340764Y-56950597D01*
X45341287Y-56351330D01*
X46051550Y-57061593D01*
X46051550Y-58620000D01*
X46111133Y-58919547D01*
X46122985Y-58979130D01*
X46326416Y-59283584D01*
X47886173Y-60843342D01*
X47862968Y-60960000D01*
X47972201Y-61509151D01*
X48283270Y-61974698D01*
X48748817Y-62285767D01*
X49297968Y-62395000D01*
X49762032Y-62395000D01*
X50311183Y-62285767D01*
X50776730Y-61974698D01*
X51087799Y-61509151D01*
X51197032Y-60960000D01*
X51087799Y-60410849D01*
X50776730Y-59945302D01*
X50394644Y-59690000D01*
X50776730Y-59434698D01*
X51087799Y-58969151D01*
X51197032Y-58420000D01*
X51151521Y-58191200D01*
X56064937Y-58191200D01*
X56070853Y-58200054D01*
X56400026Y-58420000D01*
X56070853Y-58639946D01*
X55748946Y-59121715D01*
X55635907Y-59690000D01*
X55748946Y-60258285D01*
X56070853Y-60740054D01*
X56552622Y-61061961D01*
X57120907Y-61175000D01*
X57179093Y-61175000D01*
X57595700Y-61092132D01*
X57396282Y-61291550D01*
X54998719Y-61291550D01*
X54303586Y-60596418D01*
X54303584Y-60596415D01*
X54003584Y-60296416D01*
X53988949Y-60286637D01*
X53870327Y-60167808D01*
X53713898Y-60102853D01*
X53699130Y-60092985D01*
X53681863Y-60089550D01*
X53526799Y-60025162D01*
X53357412Y-60025014D01*
X53340000Y-60021551D01*
X53322740Y-60024984D01*
X53154833Y-60024838D01*
X52998290Y-60089520D01*
X52980870Y-60092985D01*
X52966231Y-60102767D01*
X52811057Y-60166883D01*
X52691180Y-60286551D01*
X52676416Y-60296416D01*
X52666637Y-60311051D01*
X52547808Y-60429673D01*
X52482853Y-60586102D01*
X52472985Y-60600870D01*
X52469550Y-60618137D01*
X52405162Y-60773201D01*
X52405014Y-60942588D01*
X52401551Y-60960000D01*
X52404984Y-60977260D01*
X52404838Y-61145167D01*
X52469520Y-61301710D01*
X52472985Y-61319130D01*
X52482767Y-61333769D01*
X52546883Y-61488943D01*
X52666551Y-61608820D01*
X52676416Y-61623584D01*
X52976415Y-61923584D01*
X52976418Y-61923586D01*
X53946416Y-62893585D01*
X54250871Y-63097015D01*
X54610000Y-63168450D01*
X57785000Y-63168450D01*
X58084547Y-63108867D01*
X58144130Y-63097015D01*
X58448584Y-62893584D01*
X60353584Y-60988584D01*
X60557015Y-60684130D01*
X60628450Y-60325000D01*
X60628450Y-48895000D01*
X60625016Y-48877735D01*
X60625162Y-48709833D01*
X60560480Y-48553290D01*
X60557015Y-48535871D01*
X60547234Y-48521233D01*
X60483117Y-48366057D01*
X60363449Y-48246180D01*
X60353584Y-48231416D01*
X60338949Y-48221637D01*
X60220327Y-48102808D01*
X60063895Y-48037852D01*
X60049129Y-48027985D01*
X60031863Y-48024551D01*
X59876799Y-47960162D01*
X59707417Y-47960014D01*
X59690000Y-47956550D01*
X59672735Y-47959984D01*
X59504833Y-47959838D01*
X59348290Y-48024520D01*
X59330871Y-48027985D01*
X59316233Y-48037766D01*
X59161057Y-48101883D01*
X59041180Y-48221551D01*
X59026416Y-48231416D01*
X59016637Y-48246051D01*
X58897808Y-48364673D01*
X58832852Y-48521105D01*
X58822985Y-48535871D01*
X58819551Y-48553137D01*
X58755162Y-48708201D01*
X58755014Y-48877583D01*
X58751550Y-48895000D01*
X58751550Y-59936282D01*
X58581225Y-60106607D01*
X58664093Y-59690000D01*
X58551054Y-59121715D01*
X58229147Y-58639946D01*
X57899974Y-58420000D01*
X58229147Y-58200054D01*
X58551054Y-57718285D01*
X58664093Y-57150000D01*
X58551054Y-56581715D01*
X58229147Y-56099946D01*
X57899974Y-55880000D01*
X58229147Y-55660054D01*
X58551054Y-55178285D01*
X58664093Y-54610000D01*
X58551054Y-54041715D01*
X58229147Y-53559946D01*
X58185223Y-53530597D01*
X58359698Y-53458327D01*
X58538327Y-53279699D01*
X58635000Y-53046310D01*
X58635000Y-52355750D01*
X58476250Y-52197000D01*
X57277000Y-52197000D01*
X57277000Y-52217000D01*
X57023000Y-52217000D01*
X57023000Y-52197000D01*
X55823750Y-52197000D01*
X55665000Y-52355750D01*
X55665000Y-53046310D01*
X55761673Y-53279699D01*
X55940302Y-53458327D01*
X56114777Y-53530597D01*
X56070853Y-53559946D01*
X56064937Y-53568800D01*
X54279279Y-53568800D01*
X53314240Y-52603760D01*
X52976450Y-52378057D01*
X52578000Y-52298799D01*
X52577995Y-52298800D01*
X50737067Y-52298800D01*
X50394644Y-52070000D01*
X50776730Y-51814698D01*
X50827677Y-51738450D01*
X51136900Y-51738450D01*
X51436447Y-51678867D01*
X51496030Y-51667015D01*
X51800484Y-51463584D01*
X52170378Y-51093690D01*
X55665000Y-51093690D01*
X55665000Y-51784250D01*
X55823750Y-51943000D01*
X57023000Y-51943000D01*
X57023000Y-50743750D01*
X57277000Y-50743750D01*
X57277000Y-51943000D01*
X58476250Y-51943000D01*
X58635000Y-51784250D01*
X58635000Y-51093690D01*
X58538327Y-50860301D01*
X58359698Y-50681673D01*
X58126309Y-50585000D01*
X57435750Y-50585000D01*
X57277000Y-50743750D01*
X57023000Y-50743750D01*
X56864250Y-50585000D01*
X56173691Y-50585000D01*
X55940302Y-50681673D01*
X55761673Y-50860301D01*
X55665000Y-51093690D01*
X52170378Y-51093690D01*
X55273584Y-47990484D01*
X55477015Y-47686030D01*
X55502425Y-47558285D01*
X55548450Y-47326900D01*
X55548450Y-41028718D01*
X55680218Y-40896950D01*
X55665000Y-40933690D01*
X55665000Y-41624250D01*
X55823750Y-41783000D01*
X57023000Y-41783000D01*
X57023000Y-40583750D01*
X57277000Y-40583750D01*
X57277000Y-41783000D01*
X58476250Y-41783000D01*
X58635000Y-41624250D01*
X58635000Y-40933690D01*
X58538327Y-40700301D01*
X58359698Y-40521673D01*
X58126309Y-40425000D01*
X57435750Y-40425000D01*
X57277000Y-40583750D01*
X57023000Y-40583750D01*
X56864250Y-40425000D01*
X56173691Y-40425000D01*
X56136950Y-40440219D01*
X56543584Y-40033585D01*
X56553365Y-40018947D01*
X56672192Y-39900327D01*
X56737147Y-39743898D01*
X56747015Y-39729130D01*
X56750450Y-39711863D01*
X56814838Y-39556799D01*
X56814986Y-39387412D01*
X56818449Y-39370000D01*
X56815016Y-39352740D01*
X56815162Y-39184833D01*
X56750480Y-39028289D01*
X56747015Y-39010871D01*
X56737234Y-38996233D01*
X56673117Y-38841057D01*
X56553449Y-38721180D01*
X56543584Y-38706416D01*
X56528949Y-38696637D01*
X56410327Y-38577808D01*
X56253895Y-38512852D01*
X56239129Y-38502985D01*
X56221864Y-38499551D01*
X56066799Y-38435162D01*
X55897412Y-38435014D01*
X55880000Y-38431551D01*
X55862740Y-38434984D01*
X55694833Y-38434838D01*
X55538290Y-38499520D01*
X55520870Y-38502985D01*
X55506231Y-38512767D01*
X55351057Y-38576883D01*
X55231182Y-38696549D01*
X55216415Y-38706416D01*
X53946416Y-39976416D01*
X53742985Y-40280870D01*
X53742985Y-40280871D01*
X53671550Y-40640000D01*
X53671550Y-46938182D01*
X50795836Y-49813896D01*
X50776730Y-49785302D01*
X50394644Y-49530000D01*
X50776730Y-49274698D01*
X51087799Y-48809151D01*
X51197032Y-48260000D01*
X51087799Y-47710849D01*
X50776730Y-47245302D01*
X50396791Y-46991435D01*
X50419226Y-46984428D01*
X50850637Y-46624424D01*
X51111442Y-46126730D01*
X51121904Y-46069039D01*
X50999915Y-45847000D01*
X49657000Y-45847000D01*
X49657000Y-45867000D01*
X49403000Y-45867000D01*
X49403000Y-45847000D01*
X48060085Y-45847000D01*
X47938096Y-46069039D01*
X47948558Y-46126730D01*
X48209363Y-46624424D01*
X48640774Y-46984428D01*
X48663209Y-46991435D01*
X48283270Y-47245302D01*
X47972201Y-47710849D01*
X47862968Y-48260000D01*
X47972201Y-48809151D01*
X48283270Y-49274698D01*
X48665356Y-49530000D01*
X48283270Y-49785302D01*
X47972201Y-50250849D01*
X47862968Y-50800000D01*
X47972201Y-51349151D01*
X48283270Y-51814698D01*
X48665356Y-52070000D01*
X48283270Y-52325302D01*
X47972201Y-52790849D01*
X47862968Y-53340000D01*
X47972201Y-53889151D01*
X48283270Y-54354698D01*
X48665356Y-54610000D01*
X48322933Y-54838800D01*
X48056280Y-54838800D01*
X45186240Y-51968760D01*
X44848450Y-51743057D01*
X44450000Y-51663799D01*
X44378792Y-51677963D01*
X44378792Y-50293376D01*
X47653584Y-47018585D01*
X47663365Y-47003947D01*
X47782192Y-46885327D01*
X47847149Y-46728894D01*
X47857014Y-46714130D01*
X47860448Y-46696867D01*
X47924838Y-46541799D01*
X47924986Y-46372412D01*
X47928449Y-46355000D01*
X47925016Y-46337740D01*
X47925162Y-46169833D01*
X47860478Y-46013285D01*
X47857014Y-45995871D01*
X47847236Y-45981237D01*
X47783117Y-45826057D01*
X47663449Y-45706180D01*
X47653584Y-45691416D01*
X47638949Y-45681637D01*
X47520327Y-45562808D01*
X47363892Y-45497850D01*
X47349129Y-45487986D01*
X47331868Y-45484553D01*
X47176799Y-45420162D01*
X47007412Y-45420014D01*
X46990000Y-45416551D01*
X46972740Y-45419984D01*
X46804833Y-45419838D01*
X46648286Y-45484522D01*
X46630870Y-45487986D01*
X46616234Y-45497765D01*
X46461057Y-45561883D01*
X46341182Y-45681549D01*
X46326415Y-45691416D01*
X42776758Y-49241074D01*
X42573327Y-49545528D01*
X42573327Y-49545529D01*
X42501892Y-49904658D01*
X42501892Y-53123216D01*
X42545013Y-53340000D01*
X42573327Y-53482346D01*
X42776758Y-53786800D01*
X43979144Y-54989186D01*
X43382253Y-54988665D01*
X42781105Y-55237055D01*
X42320770Y-55696586D01*
X42071332Y-56297301D01*
X42070764Y-56947744D01*
X41707427Y-56947744D01*
X41616872Y-56750949D01*
X40240946Y-56750949D01*
X39986946Y-56750949D01*
X38611020Y-56750949D01*
X38492090Y-57009409D01*
X27745053Y-57009409D01*
X27916730Y-56894698D01*
X28227799Y-56429151D01*
X28265724Y-56238489D01*
X38492090Y-56238489D01*
X38611020Y-56496949D01*
X39986946Y-56496949D01*
X39986946Y-55121023D01*
X40240946Y-55121023D01*
X40240946Y-56496949D01*
X41616872Y-56496949D01*
X41735802Y-56238489D01*
X41464836Y-55647173D01*
X40988210Y-55204562D01*
X40499406Y-55002093D01*
X40240946Y-55121023D01*
X39986946Y-55121023D01*
X39728486Y-55002093D01*
X39137170Y-55273059D01*
X38694559Y-55749685D01*
X38492090Y-56238489D01*
X28265724Y-56238489D01*
X28337032Y-55880000D01*
X28227799Y-55330849D01*
X27916730Y-54865302D01*
X27534644Y-54610000D01*
X27916730Y-54354698D01*
X28227799Y-53889151D01*
X28337032Y-53340000D01*
X28227799Y-52790849D01*
X27916730Y-52325302D01*
X27534644Y-52070000D01*
X27907699Y-51820732D01*
X31546545Y-51820732D01*
X31770353Y-52362391D01*
X32184409Y-52777170D01*
X32725677Y-53001924D01*
X33311752Y-53002435D01*
X33853411Y-52778627D01*
X34268190Y-52364571D01*
X34492944Y-51823303D01*
X34493455Y-51237228D01*
X34269647Y-50695569D01*
X33855591Y-50280790D01*
X33314323Y-50056036D01*
X32728248Y-50055525D01*
X32186589Y-50279333D01*
X31771810Y-50693389D01*
X31547056Y-51234657D01*
X31546545Y-51820732D01*
X27907699Y-51820732D01*
X27916730Y-51814698D01*
X28227799Y-51349151D01*
X28337032Y-50800000D01*
X28227799Y-50250849D01*
X27916730Y-49785302D01*
X27534644Y-49530000D01*
X27916730Y-49274698D01*
X28227799Y-48809151D01*
X28337032Y-48260000D01*
X28250062Y-47822772D01*
X31546545Y-47822772D01*
X31770353Y-48364431D01*
X32184409Y-48779210D01*
X32725677Y-49003964D01*
X33311752Y-49004475D01*
X33853411Y-48780667D01*
X34268190Y-48366611D01*
X34492944Y-47825343D01*
X34493455Y-47239268D01*
X34269647Y-46697609D01*
X33855591Y-46282830D01*
X33314323Y-46058076D01*
X32728248Y-46057565D01*
X32186589Y-46281373D01*
X31771810Y-46695429D01*
X31547056Y-47236697D01*
X31546545Y-47822772D01*
X28250062Y-47822772D01*
X28227799Y-47710849D01*
X27916730Y-47245302D01*
X27534644Y-46990000D01*
X27916730Y-46734698D01*
X28227799Y-46269151D01*
X28337032Y-45720000D01*
X28227799Y-45170849D01*
X27916730Y-44705302D01*
X27534644Y-44450000D01*
X27916730Y-44194698D01*
X28227799Y-43729151D01*
X28337032Y-43180000D01*
X28227799Y-42630849D01*
X27916730Y-42165302D01*
X27534644Y-41910000D01*
X27916730Y-41654698D01*
X28227799Y-41189151D01*
X28337032Y-40640000D01*
X28227799Y-40090849D01*
X27916730Y-39625302D01*
X27536791Y-39371435D01*
X27559226Y-39364428D01*
X27990637Y-39004424D01*
X28251442Y-38506730D01*
X28261904Y-38449039D01*
X28139915Y-38227000D01*
X26797000Y-38227000D01*
X26797000Y-38247000D01*
X26543000Y-38247000D01*
X26543000Y-38227000D01*
X25200085Y-38227000D01*
X25078096Y-38449039D01*
X25088558Y-38506730D01*
X25349363Y-39004424D01*
X25780774Y-39364428D01*
X25803209Y-39371435D01*
X25423270Y-39625302D01*
X25112201Y-40090849D01*
X25002968Y-40640000D01*
X18710000Y-40640000D01*
X18710000Y-30480000D01*
X25002968Y-30480000D01*
X25112201Y-31029151D01*
X25423270Y-31494698D01*
X25805356Y-31750000D01*
X25423270Y-32005302D01*
X25112201Y-32470849D01*
X25002968Y-33020000D01*
X25112201Y-33569151D01*
X25423270Y-34034698D01*
X25805356Y-34290000D01*
X25423270Y-34545302D01*
X25112201Y-35010849D01*
X25002968Y-35560000D01*
X25112201Y-36109151D01*
X25423270Y-36574698D01*
X25803209Y-36828565D01*
X25780774Y-36835572D01*
X25349363Y-37195576D01*
X25088558Y-37693270D01*
X25078096Y-37750961D01*
X25200085Y-37973000D01*
X26543000Y-37973000D01*
X26543000Y-37953000D01*
X26797000Y-37953000D01*
X26797000Y-37973000D01*
X28139915Y-37973000D01*
X28261904Y-37750961D01*
X28251442Y-37693270D01*
X27990637Y-37195576D01*
X27559226Y-36835572D01*
X27536791Y-36828565D01*
X27916730Y-36574698D01*
X28227799Y-36109151D01*
X28337032Y-35560000D01*
X28227799Y-35010849D01*
X27916730Y-34545302D01*
X27534644Y-34290000D01*
X27916730Y-34034698D01*
X28227799Y-33569151D01*
X28337032Y-33020000D01*
X28227799Y-32470849D01*
X27916730Y-32005302D01*
X27534644Y-31750000D01*
X27916730Y-31494698D01*
X28227799Y-31029151D01*
X28337032Y-30480000D01*
X28227799Y-29930849D01*
X27916730Y-29465302D01*
X27536791Y-29211435D01*
X27559226Y-29204428D01*
X27990637Y-28844424D01*
X28251442Y-28346730D01*
X28261904Y-28289039D01*
X28139915Y-28067000D01*
X26797000Y-28067000D01*
X26797000Y-28087000D01*
X26543000Y-28087000D01*
X26543000Y-28067000D01*
X25200085Y-28067000D01*
X25078096Y-28289039D01*
X25088558Y-28346730D01*
X25349363Y-28844424D01*
X25780774Y-29204428D01*
X25803209Y-29211435D01*
X25423270Y-29465302D01*
X25112201Y-29930849D01*
X25002968Y-30480000D01*
X18710000Y-30480000D01*
X18710000Y-25400000D01*
X25002968Y-25400000D01*
X25112201Y-25949151D01*
X25423270Y-26414698D01*
X25803209Y-26668565D01*
X25780774Y-26675572D01*
X25349363Y-27035576D01*
X25088558Y-27533270D01*
X25078096Y-27590961D01*
X25200085Y-27813000D01*
X26543000Y-27813000D01*
X26543000Y-27793000D01*
X26797000Y-27793000D01*
X26797000Y-27813000D01*
X28139915Y-27813000D01*
X28261904Y-27590961D01*
X28251442Y-27533270D01*
X27990637Y-27035576D01*
X27856930Y-26924000D01*
X35383551Y-26924000D01*
X35386984Y-26941260D01*
X35386838Y-27109167D01*
X35451520Y-27265710D01*
X35454985Y-27283130D01*
X35464767Y-27297769D01*
X35528883Y-27452943D01*
X35648551Y-27572820D01*
X35658416Y-27587584D01*
X46834416Y-38763585D01*
X47138871Y-38967015D01*
X47498000Y-39038450D01*
X48232323Y-39038450D01*
X48283270Y-39114698D01*
X48665356Y-39370000D01*
X48283270Y-39625302D01*
X47972201Y-40090849D01*
X47862968Y-40640000D01*
X47972201Y-41189151D01*
X48283270Y-41654698D01*
X48665356Y-41910000D01*
X48283270Y-42165302D01*
X47972201Y-42630849D01*
X47862968Y-43180000D01*
X47972201Y-43729151D01*
X48283270Y-44194698D01*
X48663209Y-44448565D01*
X48640774Y-44455572D01*
X48209363Y-44815576D01*
X47948558Y-45313270D01*
X47938096Y-45370961D01*
X48060085Y-45593000D01*
X49403000Y-45593000D01*
X49403000Y-45573000D01*
X49657000Y-45573000D01*
X49657000Y-45593000D01*
X50999915Y-45593000D01*
X51121904Y-45370961D01*
X51111442Y-45313270D01*
X50850637Y-44815576D01*
X50419226Y-44455572D01*
X50396791Y-44448565D01*
X50776730Y-44194698D01*
X51087799Y-43729151D01*
X51197032Y-43180000D01*
X51087799Y-42630849D01*
X50776730Y-42165302D01*
X50394644Y-41910000D01*
X50776730Y-41654698D01*
X51087799Y-41189151D01*
X51197032Y-40640000D01*
X51087799Y-40090849D01*
X50776730Y-39625302D01*
X50394644Y-39370000D01*
X50776730Y-39114698D01*
X51029175Y-38736888D01*
X51108057Y-39133450D01*
X51333760Y-39471240D01*
X51968761Y-40106240D01*
X52306551Y-40331943D01*
X52705000Y-40411201D01*
X53103450Y-40331943D01*
X53441240Y-40106240D01*
X53666943Y-39768450D01*
X53746201Y-39370000D01*
X53666943Y-38971551D01*
X53441240Y-38633761D01*
X53111200Y-38303720D01*
X53111200Y-26127605D01*
X53111201Y-26127600D01*
X53031943Y-25729150D01*
X52984376Y-25657961D01*
X52806240Y-25391360D01*
X52806237Y-25391358D01*
X52078640Y-24663760D01*
X51740850Y-24438057D01*
X51342400Y-24358799D01*
X51342395Y-24358800D01*
X50737067Y-24358800D01*
X50311183Y-24074233D01*
X49762032Y-23965000D01*
X49297968Y-23965000D01*
X48748817Y-24074233D01*
X48283270Y-24385302D01*
X47972201Y-24850849D01*
X47862968Y-25400000D01*
X47972201Y-25949151D01*
X48283270Y-26414698D01*
X48663209Y-26668565D01*
X48640774Y-26675572D01*
X48209363Y-27035576D01*
X47948558Y-27533270D01*
X47938096Y-27590961D01*
X48060085Y-27813000D01*
X49403000Y-27813000D01*
X49403000Y-27793000D01*
X49657000Y-27793000D01*
X49657000Y-27813000D01*
X49677000Y-27813000D01*
X49677000Y-28067000D01*
X49657000Y-28067000D01*
X49657000Y-28087000D01*
X49403000Y-28087000D01*
X49403000Y-28067000D01*
X48060085Y-28067000D01*
X47938096Y-28289039D01*
X47948558Y-28346730D01*
X48209363Y-28844424D01*
X48640774Y-29204428D01*
X48663209Y-29211435D01*
X48283270Y-29465302D01*
X47972201Y-29930849D01*
X47862968Y-30480000D01*
X47972201Y-31029151D01*
X48283270Y-31494698D01*
X48665356Y-31750000D01*
X48283270Y-32005302D01*
X47972201Y-32470849D01*
X47905143Y-32807974D01*
X40450675Y-25353507D01*
X40133583Y-25036415D01*
X39829129Y-24832984D01*
X39769546Y-24821132D01*
X39469999Y-24761549D01*
X37518717Y-24761549D01*
X37493584Y-24736416D01*
X37478949Y-24726637D01*
X37360327Y-24607808D01*
X37203898Y-24542853D01*
X37189130Y-24532985D01*
X37171863Y-24529550D01*
X37016799Y-24465162D01*
X36847412Y-24465014D01*
X36830000Y-24461551D01*
X36812740Y-24464984D01*
X36644833Y-24464838D01*
X36488290Y-24529520D01*
X36470870Y-24532985D01*
X36456231Y-24542767D01*
X36301057Y-24606883D01*
X36181180Y-24726551D01*
X36166416Y-24736416D01*
X36156637Y-24751051D01*
X36037808Y-24869673D01*
X35972853Y-25026102D01*
X35962985Y-25040870D01*
X35959550Y-25058137D01*
X35895162Y-25213201D01*
X35895014Y-25382588D01*
X35891551Y-25400000D01*
X35894984Y-25417260D01*
X35894838Y-25585167D01*
X35959520Y-25741710D01*
X35962985Y-25759130D01*
X35972767Y-25773769D01*
X36036883Y-25928943D01*
X36108401Y-26000586D01*
X35980290Y-26053520D01*
X35962870Y-26056985D01*
X35948231Y-26066767D01*
X35793057Y-26130883D01*
X35673180Y-26250551D01*
X35658416Y-26260416D01*
X35648637Y-26275051D01*
X35529808Y-26393673D01*
X35464853Y-26550102D01*
X35454985Y-26564870D01*
X35451550Y-26582137D01*
X35387162Y-26737201D01*
X35387014Y-26906588D01*
X35383551Y-26924000D01*
X27856930Y-26924000D01*
X27559226Y-26675572D01*
X27536791Y-26668565D01*
X27916730Y-26414698D01*
X28227799Y-25949151D01*
X28337032Y-25400000D01*
X28227799Y-24850849D01*
X27916730Y-24385302D01*
X27451183Y-24074233D01*
X26902032Y-23965000D01*
X26437968Y-23965000D01*
X25888817Y-24074233D01*
X25423270Y-24385302D01*
X25112201Y-24850849D01*
X25002968Y-25400000D01*
X18710000Y-25400000D01*
X18710000Y-21069931D01*
X18821046Y-20511662D01*
X19097669Y-20097667D01*
X19511660Y-19821047D01*
X20069931Y-19710000D01*
X55930069Y-19710000D01*
X56488338Y-19821046D01*
X56488338Y-19821046D01*
G37*
X56488338Y-19821046D02*
X56902333Y-20097669D01*
X57178953Y-20511660D01*
X57290000Y-21069931D01*
X57290000Y-25991769D01*
X57251240Y-25933760D01*
X57251237Y-25933758D01*
X54711240Y-23393760D01*
X54373450Y-23168057D01*
X53975000Y-23088799D01*
X53576550Y-23168057D01*
X53238760Y-23393760D01*
X53013057Y-23731550D01*
X52933799Y-24130000D01*
X53013057Y-24528450D01*
X53238760Y-24866240D01*
X55473800Y-27101279D01*
X55473800Y-36829995D01*
X55473799Y-36830000D01*
X55553057Y-37228450D01*
X55778760Y-37566240D01*
X59283800Y-41071279D01*
X59283800Y-44653721D01*
X58090329Y-45847191D01*
X57899974Y-45720000D01*
X58229147Y-45500054D01*
X58551054Y-45018285D01*
X58664093Y-44450000D01*
X58551054Y-43881715D01*
X58229147Y-43399946D01*
X58185223Y-43370597D01*
X58359698Y-43298327D01*
X58538327Y-43119699D01*
X58635000Y-42886310D01*
X58635000Y-42195750D01*
X58476250Y-42037000D01*
X57277000Y-42037000D01*
X57277000Y-42057000D01*
X57023000Y-42057000D01*
X57023000Y-42037000D01*
X55823750Y-42037000D01*
X55665000Y-42195750D01*
X55665000Y-42886310D01*
X55761673Y-43119699D01*
X55940302Y-43298327D01*
X56114777Y-43370597D01*
X56070853Y-43399946D01*
X55748946Y-43881715D01*
X55635907Y-44450000D01*
X55748946Y-45018285D01*
X56070853Y-45500054D01*
X56400026Y-45720000D01*
X56070853Y-45939946D01*
X55748946Y-46421715D01*
X55635907Y-46990000D01*
X55748946Y-47558285D01*
X56070853Y-48040054D01*
X56552622Y-48361961D01*
X57120907Y-48475000D01*
X57179093Y-48475000D01*
X57747378Y-48361961D01*
X58229147Y-48040054D01*
X58235063Y-48031200D01*
X58419995Y-48031200D01*
X58420000Y-48031201D01*
X58818450Y-47951943D01*
X59156240Y-47726240D01*
X61061237Y-45821242D01*
X61061240Y-45821240D01*
X61286943Y-45483450D01*
X61320794Y-45313270D01*
X61366201Y-45085000D01*
X61366200Y-45084995D01*
X61366200Y-40640005D01*
X61366201Y-40640000D01*
X61286943Y-40241551D01*
X61286943Y-40241550D01*
X61061240Y-39903760D01*
X61061237Y-39903758D01*
X57556200Y-36398720D01*
X57556200Y-33629545D01*
X62290000Y-41203625D01*
X62290000Y-65930069D01*
X62178953Y-66488340D01*
X61902333Y-66902331D01*
X61488338Y-67178954D01*
X60930069Y-67290000D01*
X20069931Y-67290000D01*
X19511660Y-67178953D01*
X19097669Y-66902333D01*
X18821046Y-66488338D01*
X18710000Y-65930069D01*
X18710000Y-40640000D01*
X25002968Y-40640000D01*
X25112201Y-41189151D01*
X25423270Y-41654698D01*
X25805356Y-41910000D01*
X25423270Y-42165302D01*
X25112201Y-42630849D01*
X25002968Y-43180000D01*
X25112201Y-43729151D01*
X25423270Y-44194698D01*
X25805356Y-44450000D01*
X25423270Y-44705302D01*
X25112201Y-45170849D01*
X25002968Y-45720000D01*
X25112201Y-46269151D01*
X25423270Y-46734698D01*
X25805356Y-46990000D01*
X25423270Y-47245302D01*
X25112201Y-47710849D01*
X25002968Y-48260000D01*
X25112201Y-48809151D01*
X25423270Y-49274698D01*
X25805356Y-49530000D01*
X25423270Y-49785302D01*
X25112201Y-50250849D01*
X25002968Y-50800000D01*
X25112201Y-51349151D01*
X25423270Y-51814698D01*
X25805356Y-52070000D01*
X25423270Y-52325302D01*
X25112201Y-52790849D01*
X25002968Y-53340000D01*
X25112201Y-53889151D01*
X25423270Y-54354698D01*
X25805356Y-54610000D01*
X25423270Y-54865302D01*
X25112201Y-55330849D01*
X25002968Y-55880000D01*
X25112201Y-56429151D01*
X25423270Y-56894698D01*
X25805356Y-57150000D01*
X25423270Y-57405302D01*
X25112201Y-57870849D01*
X25002968Y-58420000D01*
X25112201Y-58969151D01*
X25423270Y-59434698D01*
X25805356Y-59690000D01*
X25423270Y-59945302D01*
X25112201Y-60410849D01*
X25002968Y-60960000D01*
X25112201Y-61509151D01*
X25423270Y-61974698D01*
X25888817Y-62285767D01*
X26437968Y-62395000D01*
X26902032Y-62395000D01*
X27451183Y-62285767D01*
X27916730Y-61974698D01*
X28227799Y-61509151D01*
X28337032Y-60960000D01*
X28253459Y-60539846D01*
X38478662Y-60539846D01*
X38727052Y-61140994D01*
X39186583Y-61601329D01*
X39787298Y-61850767D01*
X40437741Y-61851335D01*
X41038889Y-61602945D01*
X41499224Y-61143414D01*
X41748662Y-60542699D01*
X41748664Y-60539846D01*
X42070764Y-60539846D01*
X42319154Y-61140994D01*
X42778685Y-61601329D01*
X43379400Y-61850767D01*
X44029843Y-61851335D01*
X44630991Y-61602945D01*
X45091326Y-61143414D01*
X45340764Y-60542699D01*
X45341332Y-59892256D01*
X45092942Y-59291108D01*
X44633411Y-58830773D01*
X44032696Y-58581335D01*
X43382253Y-58580767D01*
X42781105Y-58829157D01*
X42320770Y-59288688D01*
X42071332Y-59889403D01*
X42070764Y-60539846D01*
X41748664Y-60539846D01*
X41749230Y-59892256D01*
X41500840Y-59291108D01*
X41041309Y-58830773D01*
X40440594Y-58581335D01*
X39790151Y-58580767D01*
X39189003Y-58829157D01*
X38728668Y-59288688D01*
X38479230Y-59889403D01*
X38478662Y-60539846D01*
X28253459Y-60539846D01*
X28227799Y-60410849D01*
X27916730Y-59945302D01*
X27534644Y-59690000D01*
X27916730Y-59434698D01*
X28227799Y-58969151D01*
X28337032Y-58420000D01*
X28227799Y-57870849D01*
X27916730Y-57405302D01*
X27534644Y-57150000D01*
X27745053Y-57009409D01*
X38492090Y-57009409D01*
X38763056Y-57600725D01*
X39239682Y-58043336D01*
X39728486Y-58245805D01*
X39986946Y-58126875D01*
X39986946Y-56750949D01*
X40240946Y-56750949D01*
X40240946Y-58126875D01*
X40499406Y-58245805D01*
X41090722Y-57974839D01*
X41533333Y-57498213D01*
X41735802Y-57009409D01*
X41707427Y-56947744D01*
X42070764Y-56947744D01*
X42319154Y-57548892D01*
X42778685Y-58009227D01*
X43379400Y-58258665D01*
X44029843Y-58259233D01*
X44630991Y-58010843D01*
X45091326Y-57551312D01*
X45340764Y-56950597D01*
X45341287Y-56351330D01*
X46051550Y-57061593D01*
X46051550Y-58620000D01*
X46111133Y-58919547D01*
X46122985Y-58979130D01*
X46326416Y-59283584D01*
X47886173Y-60843342D01*
X47862968Y-60960000D01*
X47972201Y-61509151D01*
X48283270Y-61974698D01*
X48748817Y-62285767D01*
X49297968Y-62395000D01*
X49762032Y-62395000D01*
X50311183Y-62285767D01*
X50776730Y-61974698D01*
X51087799Y-61509151D01*
X51197032Y-60960000D01*
X51087799Y-60410849D01*
X50776730Y-59945302D01*
X50394644Y-59690000D01*
X50776730Y-59434698D01*
X51087799Y-58969151D01*
X51197032Y-58420000D01*
X51151521Y-58191200D01*
X56064937Y-58191200D01*
X56070853Y-58200054D01*
X56400026Y-58420000D01*
X56070853Y-58639946D01*
X55748946Y-59121715D01*
X55635907Y-59690000D01*
X55748946Y-60258285D01*
X56070853Y-60740054D01*
X56552622Y-61061961D01*
X57120907Y-61175000D01*
X57179093Y-61175000D01*
X57595700Y-61092132D01*
X57396282Y-61291550D01*
X54998719Y-61291550D01*
X54303586Y-60596418D01*
X54303584Y-60596415D01*
X54003584Y-60296416D01*
X53988949Y-60286637D01*
X53870327Y-60167808D01*
X53713898Y-60102853D01*
X53699130Y-60092985D01*
X53681863Y-60089550D01*
X53526799Y-60025162D01*
X53357412Y-60025014D01*
X53340000Y-60021551D01*
X53322740Y-60024984D01*
X53154833Y-60024838D01*
X52998290Y-60089520D01*
X52980870Y-60092985D01*
X52966231Y-60102767D01*
X52811057Y-60166883D01*
X52691180Y-60286551D01*
X52676416Y-60296416D01*
X52666637Y-60311051D01*
X52547808Y-60429673D01*
X52482853Y-60586102D01*
X52472985Y-60600870D01*
X52469550Y-60618137D01*
X52405162Y-60773201D01*
X52405014Y-60942588D01*
X52401551Y-60960000D01*
X52404984Y-60977260D01*
X52404838Y-61145167D01*
X52469520Y-61301710D01*
X52472985Y-61319130D01*
X52482767Y-61333769D01*
X52546883Y-61488943D01*
X52666551Y-61608820D01*
X52676416Y-61623584D01*
X52976415Y-61923584D01*
X52976418Y-61923586D01*
X53946416Y-62893585D01*
X54250871Y-63097015D01*
X54610000Y-63168450D01*
X57785000Y-63168450D01*
X58084547Y-63108867D01*
X58144130Y-63097015D01*
X58448584Y-62893584D01*
X60353584Y-60988584D01*
X60557015Y-60684130D01*
X60628450Y-60325000D01*
X60628450Y-48895000D01*
X60625016Y-48877735D01*
X60625162Y-48709833D01*
X60560480Y-48553290D01*
X60557015Y-48535871D01*
X60547234Y-48521233D01*
X60483117Y-48366057D01*
X60363449Y-48246180D01*
X60353584Y-48231416D01*
X60338949Y-48221637D01*
X60220327Y-48102808D01*
X60063895Y-48037852D01*
X60049129Y-48027985D01*
X60031863Y-48024551D01*
X59876799Y-47960162D01*
X59707417Y-47960014D01*
X59690000Y-47956550D01*
X59672735Y-47959984D01*
X59504833Y-47959838D01*
X59348290Y-48024520D01*
X59330871Y-48027985D01*
X59316233Y-48037766D01*
X59161057Y-48101883D01*
X59041180Y-48221551D01*
X59026416Y-48231416D01*
X59016637Y-48246051D01*
X58897808Y-48364673D01*
X58832852Y-48521105D01*
X58822985Y-48535871D01*
X58819551Y-48553137D01*
X58755162Y-48708201D01*
X58755014Y-48877583D01*
X58751550Y-48895000D01*
X58751550Y-59936282D01*
X58581225Y-60106607D01*
X58664093Y-59690000D01*
X58551054Y-59121715D01*
X58229147Y-58639946D01*
X57899974Y-58420000D01*
X58229147Y-58200054D01*
X58551054Y-57718285D01*
X58664093Y-57150000D01*
X58551054Y-56581715D01*
X58229147Y-56099946D01*
X57899974Y-55880000D01*
X58229147Y-55660054D01*
X58551054Y-55178285D01*
X58664093Y-54610000D01*
X58551054Y-54041715D01*
X58229147Y-53559946D01*
X58185223Y-53530597D01*
X58359698Y-53458327D01*
X58538327Y-53279699D01*
X58635000Y-53046310D01*
X58635000Y-52355750D01*
X58476250Y-52197000D01*
X57277000Y-52197000D01*
X57277000Y-52217000D01*
X57023000Y-52217000D01*
X57023000Y-52197000D01*
X55823750Y-52197000D01*
X55665000Y-52355750D01*
X55665000Y-53046310D01*
X55761673Y-53279699D01*
X55940302Y-53458327D01*
X56114777Y-53530597D01*
X56070853Y-53559946D01*
X56064937Y-53568800D01*
X54279279Y-53568800D01*
X53314240Y-52603760D01*
X52976450Y-52378057D01*
X52578000Y-52298799D01*
X52577995Y-52298800D01*
X50737067Y-52298800D01*
X50394644Y-52070000D01*
X50776730Y-51814698D01*
X50827677Y-51738450D01*
X51136900Y-51738450D01*
X51436447Y-51678867D01*
X51496030Y-51667015D01*
X51800484Y-51463584D01*
X52170378Y-51093690D01*
X55665000Y-51093690D01*
X55665000Y-51784250D01*
X55823750Y-51943000D01*
X57023000Y-51943000D01*
X57023000Y-50743750D01*
X57277000Y-50743750D01*
X57277000Y-51943000D01*
X58476250Y-51943000D01*
X58635000Y-51784250D01*
X58635000Y-51093690D01*
X58538327Y-50860301D01*
X58359698Y-50681673D01*
X58126309Y-50585000D01*
X57435750Y-50585000D01*
X57277000Y-50743750D01*
X57023000Y-50743750D01*
X56864250Y-50585000D01*
X56173691Y-50585000D01*
X55940302Y-50681673D01*
X55761673Y-50860301D01*
X55665000Y-51093690D01*
X52170378Y-51093690D01*
X55273584Y-47990484D01*
X55477015Y-47686030D01*
X55502425Y-47558285D01*
X55548450Y-47326900D01*
X55548450Y-41028718D01*
X55680218Y-40896950D01*
X55665000Y-40933690D01*
X55665000Y-41624250D01*
X55823750Y-41783000D01*
X57023000Y-41783000D01*
X57023000Y-40583750D01*
X57277000Y-40583750D01*
X57277000Y-41783000D01*
X58476250Y-41783000D01*
X58635000Y-41624250D01*
X58635000Y-40933690D01*
X58538327Y-40700301D01*
X58359698Y-40521673D01*
X58126309Y-40425000D01*
X57435750Y-40425000D01*
X57277000Y-40583750D01*
X57023000Y-40583750D01*
X56864250Y-40425000D01*
X56173691Y-40425000D01*
X56136950Y-40440219D01*
X56543584Y-40033585D01*
X56553365Y-40018947D01*
X56672192Y-39900327D01*
X56737147Y-39743898D01*
X56747015Y-39729130D01*
X56750450Y-39711863D01*
X56814838Y-39556799D01*
X56814986Y-39387412D01*
X56818449Y-39370000D01*
X56815016Y-39352740D01*
X56815162Y-39184833D01*
X56750480Y-39028289D01*
X56747015Y-39010871D01*
X56737234Y-38996233D01*
X56673117Y-38841057D01*
X56553449Y-38721180D01*
X56543584Y-38706416D01*
X56528949Y-38696637D01*
X56410327Y-38577808D01*
X56253895Y-38512852D01*
X56239129Y-38502985D01*
X56221864Y-38499551D01*
X56066799Y-38435162D01*
X55897412Y-38435014D01*
X55880000Y-38431551D01*
X55862740Y-38434984D01*
X55694833Y-38434838D01*
X55538290Y-38499520D01*
X55520870Y-38502985D01*
X55506231Y-38512767D01*
X55351057Y-38576883D01*
X55231182Y-38696549D01*
X55216415Y-38706416D01*
X53946416Y-39976416D01*
X53742985Y-40280870D01*
X53742985Y-40280871D01*
X53671550Y-40640000D01*
X53671550Y-46938182D01*
X50795836Y-49813896D01*
X50776730Y-49785302D01*
X50394644Y-49530000D01*
X50776730Y-49274698D01*
X51087799Y-48809151D01*
X51197032Y-48260000D01*
X51087799Y-47710849D01*
X50776730Y-47245302D01*
X50396791Y-46991435D01*
X50419226Y-46984428D01*
X50850637Y-46624424D01*
X51111442Y-46126730D01*
X51121904Y-46069039D01*
X50999915Y-45847000D01*
X49657000Y-45847000D01*
X49657000Y-45867000D01*
X49403000Y-45867000D01*
X49403000Y-45847000D01*
X48060085Y-45847000D01*
X47938096Y-46069039D01*
X47948558Y-46126730D01*
X48209363Y-46624424D01*
X48640774Y-46984428D01*
X48663209Y-46991435D01*
X48283270Y-47245302D01*
X47972201Y-47710849D01*
X47862968Y-48260000D01*
X47972201Y-48809151D01*
X48283270Y-49274698D01*
X48665356Y-49530000D01*
X48283270Y-49785302D01*
X47972201Y-50250849D01*
X47862968Y-50800000D01*
X47972201Y-51349151D01*
X48283270Y-51814698D01*
X48665356Y-52070000D01*
X48283270Y-52325302D01*
X47972201Y-52790849D01*
X47862968Y-53340000D01*
X47972201Y-53889151D01*
X48283270Y-54354698D01*
X48665356Y-54610000D01*
X48322933Y-54838800D01*
X48056280Y-54838800D01*
X45186240Y-51968760D01*
X44848450Y-51743057D01*
X44450000Y-51663799D01*
X44378792Y-51677963D01*
X44378792Y-50293376D01*
X47653584Y-47018585D01*
X47663365Y-47003947D01*
X47782192Y-46885327D01*
X47847149Y-46728894D01*
X47857014Y-46714130D01*
X47860448Y-46696867D01*
X47924838Y-46541799D01*
X47924986Y-46372412D01*
X47928449Y-46355000D01*
X47925016Y-46337740D01*
X47925162Y-46169833D01*
X47860478Y-46013285D01*
X47857014Y-45995871D01*
X47847236Y-45981237D01*
X47783117Y-45826057D01*
X47663449Y-45706180D01*
X47653584Y-45691416D01*
X47638949Y-45681637D01*
X47520327Y-45562808D01*
X47363892Y-45497850D01*
X47349129Y-45487986D01*
X47331868Y-45484553D01*
X47176799Y-45420162D01*
X47007412Y-45420014D01*
X46990000Y-45416551D01*
X46972740Y-45419984D01*
X46804833Y-45419838D01*
X46648286Y-45484522D01*
X46630870Y-45487986D01*
X46616234Y-45497765D01*
X46461057Y-45561883D01*
X46341182Y-45681549D01*
X46326415Y-45691416D01*
X42776758Y-49241074D01*
X42573327Y-49545528D01*
X42573327Y-49545529D01*
X42501892Y-49904658D01*
X42501892Y-53123216D01*
X42545013Y-53340000D01*
X42573327Y-53482346D01*
X42776758Y-53786800D01*
X43979144Y-54989186D01*
X43382253Y-54988665D01*
X42781105Y-55237055D01*
X42320770Y-55696586D01*
X42071332Y-56297301D01*
X42070764Y-56947744D01*
X41707427Y-56947744D01*
X41616872Y-56750949D01*
X40240946Y-56750949D01*
X39986946Y-56750949D01*
X38611020Y-56750949D01*
X38492090Y-57009409D01*
X27745053Y-57009409D01*
X27916730Y-56894698D01*
X28227799Y-56429151D01*
X28265724Y-56238489D01*
X38492090Y-56238489D01*
X38611020Y-56496949D01*
X39986946Y-56496949D01*
X39986946Y-55121023D01*
X40240946Y-55121023D01*
X40240946Y-56496949D01*
X41616872Y-56496949D01*
X41735802Y-56238489D01*
X41464836Y-55647173D01*
X40988210Y-55204562D01*
X40499406Y-55002093D01*
X40240946Y-55121023D01*
X39986946Y-55121023D01*
X39728486Y-55002093D01*
X39137170Y-55273059D01*
X38694559Y-55749685D01*
X38492090Y-56238489D01*
X28265724Y-56238489D01*
X28337032Y-55880000D01*
X28227799Y-55330849D01*
X27916730Y-54865302D01*
X27534644Y-54610000D01*
X27916730Y-54354698D01*
X28227799Y-53889151D01*
X28337032Y-53340000D01*
X28227799Y-52790849D01*
X27916730Y-52325302D01*
X27534644Y-52070000D01*
X27907699Y-51820732D01*
X31546545Y-51820732D01*
X31770353Y-52362391D01*
X32184409Y-52777170D01*
X32725677Y-53001924D01*
X33311752Y-53002435D01*
X33853411Y-52778627D01*
X34268190Y-52364571D01*
X34492944Y-51823303D01*
X34493455Y-51237228D01*
X34269647Y-50695569D01*
X33855591Y-50280790D01*
X33314323Y-50056036D01*
X32728248Y-50055525D01*
X32186589Y-50279333D01*
X31771810Y-50693389D01*
X31547056Y-51234657D01*
X31546545Y-51820732D01*
X27907699Y-51820732D01*
X27916730Y-51814698D01*
X28227799Y-51349151D01*
X28337032Y-50800000D01*
X28227799Y-50250849D01*
X27916730Y-49785302D01*
X27534644Y-49530000D01*
X27916730Y-49274698D01*
X28227799Y-48809151D01*
X28337032Y-48260000D01*
X28250062Y-47822772D01*
X31546545Y-47822772D01*
X31770353Y-48364431D01*
X32184409Y-48779210D01*
X32725677Y-49003964D01*
X33311752Y-49004475D01*
X33853411Y-48780667D01*
X34268190Y-48366611D01*
X34492944Y-47825343D01*
X34493455Y-47239268D01*
X34269647Y-46697609D01*
X33855591Y-46282830D01*
X33314323Y-46058076D01*
X32728248Y-46057565D01*
X32186589Y-46281373D01*
X31771810Y-46695429D01*
X31547056Y-47236697D01*
X31546545Y-47822772D01*
X28250062Y-47822772D01*
X28227799Y-47710849D01*
X27916730Y-47245302D01*
X27534644Y-46990000D01*
X27916730Y-46734698D01*
X28227799Y-46269151D01*
X28337032Y-45720000D01*
X28227799Y-45170849D01*
X27916730Y-44705302D01*
X27534644Y-44450000D01*
X27916730Y-44194698D01*
X28227799Y-43729151D01*
X28337032Y-43180000D01*
X28227799Y-42630849D01*
X27916730Y-42165302D01*
X27534644Y-41910000D01*
X27916730Y-41654698D01*
X28227799Y-41189151D01*
X28337032Y-40640000D01*
X28227799Y-40090849D01*
X27916730Y-39625302D01*
X27536791Y-39371435D01*
X27559226Y-39364428D01*
X27990637Y-39004424D01*
X28251442Y-38506730D01*
X28261904Y-38449039D01*
X28139915Y-38227000D01*
X26797000Y-38227000D01*
X26797000Y-38247000D01*
X26543000Y-38247000D01*
X26543000Y-38227000D01*
X25200085Y-38227000D01*
X25078096Y-38449039D01*
X25088558Y-38506730D01*
X25349363Y-39004424D01*
X25780774Y-39364428D01*
X25803209Y-39371435D01*
X25423270Y-39625302D01*
X25112201Y-40090849D01*
X25002968Y-40640000D01*
X18710000Y-40640000D01*
X18710000Y-30480000D01*
X25002968Y-30480000D01*
X25112201Y-31029151D01*
X25423270Y-31494698D01*
X25805356Y-31750000D01*
X25423270Y-32005302D01*
X25112201Y-32470849D01*
X25002968Y-33020000D01*
X25112201Y-33569151D01*
X25423270Y-34034698D01*
X25805356Y-34290000D01*
X25423270Y-34545302D01*
X25112201Y-35010849D01*
X25002968Y-35560000D01*
X25112201Y-36109151D01*
X25423270Y-36574698D01*
X25803209Y-36828565D01*
X25780774Y-36835572D01*
X25349363Y-37195576D01*
X25088558Y-37693270D01*
X25078096Y-37750961D01*
X25200085Y-37973000D01*
X26543000Y-37973000D01*
X26543000Y-37953000D01*
X26797000Y-37953000D01*
X26797000Y-37973000D01*
X28139915Y-37973000D01*
X28261904Y-37750961D01*
X28251442Y-37693270D01*
X27990637Y-37195576D01*
X27559226Y-36835572D01*
X27536791Y-36828565D01*
X27916730Y-36574698D01*
X28227799Y-36109151D01*
X28337032Y-35560000D01*
X28227799Y-35010849D01*
X27916730Y-34545302D01*
X27534644Y-34290000D01*
X27916730Y-34034698D01*
X28227799Y-33569151D01*
X28337032Y-33020000D01*
X28227799Y-32470849D01*
X27916730Y-32005302D01*
X27534644Y-31750000D01*
X27916730Y-31494698D01*
X28227799Y-31029151D01*
X28337032Y-30480000D01*
X28227799Y-29930849D01*
X27916730Y-29465302D01*
X27536791Y-29211435D01*
X27559226Y-29204428D01*
X27990637Y-28844424D01*
X28251442Y-28346730D01*
X28261904Y-28289039D01*
X28139915Y-28067000D01*
X26797000Y-28067000D01*
X26797000Y-28087000D01*
X26543000Y-28087000D01*
X26543000Y-28067000D01*
X25200085Y-28067000D01*
X25078096Y-28289039D01*
X25088558Y-28346730D01*
X25349363Y-28844424D01*
X25780774Y-29204428D01*
X25803209Y-29211435D01*
X25423270Y-29465302D01*
X25112201Y-29930849D01*
X25002968Y-30480000D01*
X18710000Y-30480000D01*
X18710000Y-25400000D01*
X25002968Y-25400000D01*
X25112201Y-25949151D01*
X25423270Y-26414698D01*
X25803209Y-26668565D01*
X25780774Y-26675572D01*
X25349363Y-27035576D01*
X25088558Y-27533270D01*
X25078096Y-27590961D01*
X25200085Y-27813000D01*
X26543000Y-27813000D01*
X26543000Y-27793000D01*
X26797000Y-27793000D01*
X26797000Y-27813000D01*
X28139915Y-27813000D01*
X28261904Y-27590961D01*
X28251442Y-27533270D01*
X27990637Y-27035576D01*
X27856930Y-26924000D01*
X35383551Y-26924000D01*
X35386984Y-26941260D01*
X35386838Y-27109167D01*
X35451520Y-27265710D01*
X35454985Y-27283130D01*
X35464767Y-27297769D01*
X35528883Y-27452943D01*
X35648551Y-27572820D01*
X35658416Y-27587584D01*
X46834416Y-38763585D01*
X47138871Y-38967015D01*
X47498000Y-39038450D01*
X48232323Y-39038450D01*
X48283270Y-39114698D01*
X48665356Y-39370000D01*
X48283270Y-39625302D01*
X47972201Y-40090849D01*
X47862968Y-40640000D01*
X47972201Y-41189151D01*
X48283270Y-41654698D01*
X48665356Y-41910000D01*
X48283270Y-42165302D01*
X47972201Y-42630849D01*
X47862968Y-43180000D01*
X47972201Y-43729151D01*
X48283270Y-44194698D01*
X48663209Y-44448565D01*
X48640774Y-44455572D01*
X48209363Y-44815576D01*
X47948558Y-45313270D01*
X47938096Y-45370961D01*
X48060085Y-45593000D01*
X49403000Y-45593000D01*
X49403000Y-45573000D01*
X49657000Y-45573000D01*
X49657000Y-45593000D01*
X50999915Y-45593000D01*
X51121904Y-45370961D01*
X51111442Y-45313270D01*
X50850637Y-44815576D01*
X50419226Y-44455572D01*
X50396791Y-44448565D01*
X50776730Y-44194698D01*
X51087799Y-43729151D01*
X51197032Y-43180000D01*
X51087799Y-42630849D01*
X50776730Y-42165302D01*
X50394644Y-41910000D01*
X50776730Y-41654698D01*
X51087799Y-41189151D01*
X51197032Y-40640000D01*
X51087799Y-40090849D01*
X50776730Y-39625302D01*
X50394644Y-39370000D01*
X50776730Y-39114698D01*
X51029175Y-38736888D01*
X51108057Y-39133450D01*
X51333760Y-39471240D01*
X51968761Y-40106240D01*
X52306551Y-40331943D01*
X52705000Y-40411201D01*
X53103450Y-40331943D01*
X53441240Y-40106240D01*
X53666943Y-39768450D01*
X53746201Y-39370000D01*
X53666943Y-38971551D01*
X53441240Y-38633761D01*
X53111200Y-38303720D01*
X53111200Y-26127605D01*
X53111201Y-26127600D01*
X53031943Y-25729150D01*
X52984376Y-25657961D01*
X52806240Y-25391360D01*
X52806237Y-25391358D01*
X52078640Y-24663760D01*
X51740850Y-24438057D01*
X51342400Y-24358799D01*
X51342395Y-24358800D01*
X50737067Y-24358800D01*
X50311183Y-24074233D01*
X49762032Y-23965000D01*
X49297968Y-23965000D01*
X48748817Y-24074233D01*
X48283270Y-24385302D01*
X47972201Y-24850849D01*
X47862968Y-25400000D01*
X47972201Y-25949151D01*
X48283270Y-26414698D01*
X48663209Y-26668565D01*
X48640774Y-26675572D01*
X48209363Y-27035576D01*
X47948558Y-27533270D01*
X47938096Y-27590961D01*
X48060085Y-27813000D01*
X49403000Y-27813000D01*
X49403000Y-27793000D01*
X49657000Y-27793000D01*
X49657000Y-27813000D01*
X49677000Y-27813000D01*
X49677000Y-28067000D01*
X49657000Y-28067000D01*
X49657000Y-28087000D01*
X49403000Y-28087000D01*
X49403000Y-28067000D01*
X48060085Y-28067000D01*
X47938096Y-28289039D01*
X47948558Y-28346730D01*
X48209363Y-28844424D01*
X48640774Y-29204428D01*
X48663209Y-29211435D01*
X48283270Y-29465302D01*
X47972201Y-29930849D01*
X47862968Y-30480000D01*
X47972201Y-31029151D01*
X48283270Y-31494698D01*
X48665356Y-31750000D01*
X48283270Y-32005302D01*
X47972201Y-32470849D01*
X47905143Y-32807974D01*
X40450675Y-25353507D01*
X40133583Y-25036415D01*
X39829129Y-24832984D01*
X39769546Y-24821132D01*
X39469999Y-24761549D01*
X37518717Y-24761549D01*
X37493584Y-24736416D01*
X37478949Y-24726637D01*
X37360327Y-24607808D01*
X37203898Y-24542853D01*
X37189130Y-24532985D01*
X37171863Y-24529550D01*
X37016799Y-24465162D01*
X36847412Y-24465014D01*
X36830000Y-24461551D01*
X36812740Y-24464984D01*
X36644833Y-24464838D01*
X36488290Y-24529520D01*
X36470870Y-24532985D01*
X36456231Y-24542767D01*
X36301057Y-24606883D01*
X36181180Y-24726551D01*
X36166416Y-24736416D01*
X36156637Y-24751051D01*
X36037808Y-24869673D01*
X35972853Y-25026102D01*
X35962985Y-25040870D01*
X35959550Y-25058137D01*
X35895162Y-25213201D01*
X35895014Y-25382588D01*
X35891551Y-25400000D01*
X35894984Y-25417260D01*
X35894838Y-25585167D01*
X35959520Y-25741710D01*
X35962985Y-25759130D01*
X35972767Y-25773769D01*
X36036883Y-25928943D01*
X36108401Y-26000586D01*
X35980290Y-26053520D01*
X35962870Y-26056985D01*
X35948231Y-26066767D01*
X35793057Y-26130883D01*
X35673180Y-26250551D01*
X35658416Y-26260416D01*
X35648637Y-26275051D01*
X35529808Y-26393673D01*
X35464853Y-26550102D01*
X35454985Y-26564870D01*
X35451550Y-26582137D01*
X35387162Y-26737201D01*
X35387014Y-26906588D01*
X35383551Y-26924000D01*
X27856930Y-26924000D01*
X27559226Y-26675572D01*
X27536791Y-26668565D01*
X27916730Y-26414698D01*
X28227799Y-25949151D01*
X28337032Y-25400000D01*
X28227799Y-24850849D01*
X27916730Y-24385302D01*
X27451183Y-24074233D01*
X26902032Y-23965000D01*
X26437968Y-23965000D01*
X25888817Y-24074233D01*
X25423270Y-24385302D01*
X25112201Y-24850849D01*
X25002968Y-25400000D01*
X18710000Y-25400000D01*
X18710000Y-21069931D01*
X18821046Y-20511662D01*
X19097669Y-20097667D01*
X19511660Y-19821047D01*
X20069931Y-19710000D01*
X55930069Y-19710000D01*
X56488338Y-19821046D01*
G36*
X53111758Y-55346237D02*
X53111760Y-55346240D01*
X53314267Y-55481550D01*
X53449550Y-55571943D01*
X53848000Y-55651200D01*
X56064937Y-55651200D01*
X56070853Y-55660054D01*
X56400026Y-55880000D01*
X56070853Y-56099946D01*
X56064937Y-56108800D01*
X51431279Y-56108800D01*
X51195679Y-55873200D01*
X51087799Y-55330849D01*
X50776730Y-54865302D01*
X50394644Y-54610000D01*
X50737067Y-54381200D01*
X52146720Y-54381200D01*
X53111758Y-55346237D01*
X53111758Y-55346237D01*
G37*
X53111758Y-55346237D02*
X53111760Y-55346240D01*
X53314267Y-55481550D01*
X53449550Y-55571943D01*
X53848000Y-55651200D01*
X56064937Y-55651200D01*
X56070853Y-55660054D01*
X56400026Y-55880000D01*
X56070853Y-56099946D01*
X56064937Y-56108800D01*
X51431279Y-56108800D01*
X51195679Y-55873200D01*
X51087799Y-55330849D01*
X50776730Y-54865302D01*
X50394644Y-54610000D01*
X50737067Y-54381200D01*
X52146720Y-54381200D01*
X53111758Y-55346237D01*
G36*
X39123507Y-26680675D02*
X47886173Y-35443342D01*
X47862968Y-35560000D01*
X47972201Y-36109151D01*
X48283270Y-36574698D01*
X48665356Y-36830000D01*
X48283270Y-37085302D01*
X48232323Y-37161550D01*
X47886719Y-37161550D01*
X37363617Y-26638449D01*
X39081281Y-26638449D01*
X39123507Y-26680675D01*
X39123507Y-26680675D01*
G37*
X39123507Y-26680675D02*
X47886173Y-35443342D01*
X47862968Y-35560000D01*
X47972201Y-36109151D01*
X48283270Y-36574698D01*
X48665356Y-36830000D01*
X48283270Y-37085302D01*
X48232323Y-37161550D01*
X47886719Y-37161550D01*
X37363617Y-26638449D01*
X39081281Y-26638449D01*
X39123507Y-26680675D01*
M02*
