G75*
%MOIN*%
%OFA0B0*%
%FSLAX25Y25*%
%IPPOS*%
%LPD*%
%AMOC8*
5,1,8,0,0,1.08239X$1,22.5*
%
%ADD10C,0.01200*%
%ADD11C,0.00800*%
%ADD12R,0.03268X0.02480*%
%ADD13C,0.07400*%
%ADD14R,0.07087X0.06299*%
%ADD15R,0.06299X0.07087*%
%ADD16C,0.07600*%
%ADD17C,0.00000*%
%ADD18C,0.03500*%
%ADD19C,0.03200*%
%ADD20C,0.03200*%
%ADD21C,0.02400*%
D10*
X0032600Y0017600D02*
X0217600Y0017600D01*
X0217740Y0017602D01*
X0217880Y0017608D01*
X0218020Y0017618D01*
X0218160Y0017631D01*
X0218299Y0017649D01*
X0218438Y0017671D01*
X0218575Y0017696D01*
X0218713Y0017725D01*
X0218849Y0017758D01*
X0218984Y0017795D01*
X0219118Y0017836D01*
X0219251Y0017881D01*
X0219383Y0017929D01*
X0219513Y0017981D01*
X0219642Y0018036D01*
X0219769Y0018095D01*
X0219895Y0018158D01*
X0220019Y0018224D01*
X0220140Y0018293D01*
X0220260Y0018366D01*
X0220378Y0018443D01*
X0220493Y0018522D01*
X0220607Y0018605D01*
X0220717Y0018691D01*
X0220826Y0018780D01*
X0220932Y0018872D01*
X0221035Y0018967D01*
X0221136Y0019064D01*
X0221233Y0019165D01*
X0221328Y0019268D01*
X0221420Y0019374D01*
X0221509Y0019483D01*
X0221595Y0019593D01*
X0221678Y0019707D01*
X0221757Y0019822D01*
X0221834Y0019940D01*
X0221907Y0020060D01*
X0221976Y0020181D01*
X0222042Y0020305D01*
X0222105Y0020431D01*
X0222164Y0020558D01*
X0222219Y0020687D01*
X0222271Y0020817D01*
X0222319Y0020949D01*
X0222364Y0021082D01*
X0222405Y0021216D01*
X0222442Y0021351D01*
X0222475Y0021487D01*
X0222504Y0021625D01*
X0222529Y0021762D01*
X0222551Y0021901D01*
X0222569Y0022040D01*
X0222582Y0022180D01*
X0222592Y0022320D01*
X0222598Y0022460D01*
X0222600Y0022600D01*
X0222600Y0122600D01*
X0222598Y0122740D01*
X0222592Y0122880D01*
X0222582Y0123020D01*
X0222569Y0123160D01*
X0222551Y0123299D01*
X0222529Y0123438D01*
X0222504Y0123575D01*
X0222475Y0123713D01*
X0222442Y0123849D01*
X0222405Y0123984D01*
X0222364Y0124118D01*
X0222319Y0124251D01*
X0222271Y0124383D01*
X0222219Y0124513D01*
X0222164Y0124642D01*
X0222105Y0124769D01*
X0222042Y0124895D01*
X0221976Y0125019D01*
X0221907Y0125140D01*
X0221834Y0125260D01*
X0221757Y0125378D01*
X0221678Y0125493D01*
X0221595Y0125607D01*
X0221509Y0125717D01*
X0221420Y0125826D01*
X0221328Y0125932D01*
X0221233Y0126035D01*
X0221136Y0126136D01*
X0221035Y0126233D01*
X0220932Y0126328D01*
X0220826Y0126420D01*
X0220717Y0126509D01*
X0220607Y0126595D01*
X0220493Y0126678D01*
X0220378Y0126757D01*
X0220260Y0126834D01*
X0220140Y0126907D01*
X0220019Y0126976D01*
X0219895Y0127042D01*
X0219769Y0127105D01*
X0219642Y0127164D01*
X0219513Y0127219D01*
X0219383Y0127271D01*
X0219251Y0127319D01*
X0219118Y0127364D01*
X0218984Y0127405D01*
X0218849Y0127442D01*
X0218713Y0127475D01*
X0218575Y0127504D01*
X0218438Y0127529D01*
X0218299Y0127551D01*
X0218160Y0127569D01*
X0218020Y0127582D01*
X0217880Y0127592D01*
X0217740Y0127598D01*
X0217600Y0127600D01*
X0032600Y0127600D01*
X0032460Y0127598D01*
X0032320Y0127592D01*
X0032180Y0127582D01*
X0032040Y0127569D01*
X0031901Y0127551D01*
X0031762Y0127529D01*
X0031625Y0127504D01*
X0031487Y0127475D01*
X0031351Y0127442D01*
X0031216Y0127405D01*
X0031082Y0127364D01*
X0030949Y0127319D01*
X0030817Y0127271D01*
X0030687Y0127219D01*
X0030558Y0127164D01*
X0030431Y0127105D01*
X0030305Y0127042D01*
X0030181Y0126976D01*
X0030060Y0126907D01*
X0029940Y0126834D01*
X0029822Y0126757D01*
X0029707Y0126678D01*
X0029593Y0126595D01*
X0029483Y0126509D01*
X0029374Y0126420D01*
X0029268Y0126328D01*
X0029165Y0126233D01*
X0029064Y0126136D01*
X0028967Y0126035D01*
X0028872Y0125932D01*
X0028780Y0125826D01*
X0028691Y0125717D01*
X0028605Y0125607D01*
X0028522Y0125493D01*
X0028443Y0125378D01*
X0028366Y0125260D01*
X0028293Y0125140D01*
X0028224Y0125019D01*
X0028158Y0124895D01*
X0028095Y0124769D01*
X0028036Y0124642D01*
X0027981Y0124513D01*
X0027929Y0124383D01*
X0027881Y0124251D01*
X0027836Y0124118D01*
X0027795Y0123984D01*
X0027758Y0123849D01*
X0027725Y0123713D01*
X0027696Y0123575D01*
X0027671Y0123438D01*
X0027649Y0123299D01*
X0027631Y0123160D01*
X0027618Y0123020D01*
X0027608Y0122880D01*
X0027602Y0122740D01*
X0027600Y0122600D01*
X0027600Y0022600D01*
X0027602Y0022460D01*
X0027608Y0022320D01*
X0027618Y0022180D01*
X0027631Y0022040D01*
X0027649Y0021901D01*
X0027671Y0021762D01*
X0027696Y0021625D01*
X0027725Y0021487D01*
X0027758Y0021351D01*
X0027795Y0021216D01*
X0027836Y0021082D01*
X0027881Y0020949D01*
X0027929Y0020817D01*
X0027981Y0020687D01*
X0028036Y0020558D01*
X0028095Y0020431D01*
X0028158Y0020305D01*
X0028224Y0020181D01*
X0028293Y0020060D01*
X0028366Y0019940D01*
X0028443Y0019822D01*
X0028522Y0019707D01*
X0028605Y0019593D01*
X0028691Y0019483D01*
X0028780Y0019374D01*
X0028872Y0019268D01*
X0028967Y0019165D01*
X0029064Y0019064D01*
X0029165Y0018967D01*
X0029268Y0018872D01*
X0029374Y0018780D01*
X0029483Y0018691D01*
X0029593Y0018605D01*
X0029707Y0018522D01*
X0029822Y0018443D01*
X0029940Y0018366D01*
X0030060Y0018293D01*
X0030181Y0018224D01*
X0030305Y0018158D01*
X0030431Y0018095D01*
X0030558Y0018036D01*
X0030687Y0017981D01*
X0030817Y0017929D01*
X0030949Y0017881D01*
X0031082Y0017836D01*
X0031216Y0017795D01*
X0031351Y0017758D01*
X0031487Y0017725D01*
X0031625Y0017696D01*
X0031762Y0017671D01*
X0031901Y0017649D01*
X0032040Y0017631D01*
X0032180Y0017618D01*
X0032320Y0017608D01*
X0032460Y0017602D01*
X0032600Y0017600D01*
D11*
X0215496Y0046527D02*
X0219700Y0049330D01*
X0215496Y0049330D01*
X0217598Y0051131D02*
X0218999Y0051131D01*
X0219700Y0051832D01*
X0219700Y0053233D01*
X0218999Y0053934D01*
X0217598Y0053934D01*
X0216898Y0053233D01*
X0216898Y0051832D01*
X0217598Y0051131D01*
X0217598Y0055735D02*
X0216898Y0056436D01*
X0216898Y0058538D01*
X0215496Y0058538D02*
X0219700Y0058538D01*
X0219700Y0056436D01*
X0218999Y0055735D01*
X0217598Y0055735D01*
X0217598Y0060339D02*
X0216898Y0061040D01*
X0216898Y0062441D01*
X0217598Y0063142D01*
X0218299Y0063142D01*
X0218299Y0060339D01*
X0218999Y0060339D02*
X0217598Y0060339D01*
X0218999Y0060339D02*
X0219700Y0061040D01*
X0219700Y0062441D01*
X0219700Y0064943D02*
X0215496Y0064943D01*
X0216898Y0066344D01*
X0215496Y0067745D01*
X0219700Y0067745D01*
X0219700Y0069547D02*
X0219700Y0072349D01*
X0219700Y0074151D02*
X0215496Y0076953D01*
X0215496Y0074151D02*
X0219700Y0076953D01*
X0216898Y0083359D02*
X0219700Y0084760D01*
X0216898Y0086161D01*
X0216898Y0087963D02*
X0215496Y0089364D01*
X0219700Y0089364D01*
X0219700Y0087963D02*
X0219700Y0090765D01*
X0219700Y0092567D02*
X0219700Y0093267D01*
X0218999Y0093267D01*
X0218999Y0092567D01*
X0219700Y0092567D01*
X0218999Y0094869D02*
X0216197Y0094869D01*
X0215496Y0095569D01*
X0215496Y0096970D01*
X0216197Y0097671D01*
X0218999Y0094869D01*
X0219700Y0095569D01*
X0219700Y0096970D01*
X0218999Y0097671D01*
X0216197Y0097671D01*
X0215496Y0069547D02*
X0219700Y0069547D01*
X0219700Y0046527D02*
X0215496Y0046527D01*
D12*
X0052600Y0043072D03*
X0052600Y0052128D03*
D13*
X0127600Y0047600D03*
X0137600Y0047600D03*
X0147600Y0047600D03*
X0172600Y0047600D03*
X0182600Y0047600D03*
X0192600Y0047600D03*
X0192600Y0092600D03*
X0182600Y0092600D03*
X0172600Y0092600D03*
X0147600Y0092600D03*
X0137600Y0092600D03*
X0127600Y0092600D03*
D14*
X0097600Y0053112D03*
X0082600Y0053112D03*
X0082600Y0042088D03*
X0097600Y0042088D03*
X0037600Y0059588D03*
X0037600Y0070612D03*
D15*
X0127088Y0057600D03*
X0138112Y0057600D03*
X0172088Y0057600D03*
X0183112Y0057600D03*
X0182088Y0082600D03*
X0193112Y0082600D03*
X0148112Y0082600D03*
X0137088Y0082600D03*
D16*
X0137600Y0117600D03*
X0127600Y0117600D03*
X0117600Y0117600D03*
X0107600Y0117600D03*
X0097600Y0117600D03*
X0087600Y0117600D03*
X0077600Y0117600D03*
X0067600Y0117600D03*
X0057600Y0117600D03*
X0062600Y0082600D03*
X0052600Y0072600D03*
X0062600Y0062600D03*
X0072600Y0072600D03*
X0067600Y0027600D03*
X0057600Y0027600D03*
X0077600Y0027600D03*
X0087600Y0027600D03*
X0097600Y0027600D03*
X0107600Y0027600D03*
X0117600Y0027600D03*
X0127600Y0027600D03*
X0137600Y0027600D03*
X0147600Y0027600D03*
X0157600Y0027600D03*
X0167600Y0027600D03*
X0177600Y0027600D03*
X0187600Y0027600D03*
X0197600Y0027600D03*
X0197600Y0117600D03*
X0187600Y0117600D03*
X0177600Y0117600D03*
X0167600Y0117600D03*
X0157600Y0117600D03*
X0147600Y0117600D03*
D17*
X0206301Y0112600D02*
X0206303Y0112758D01*
X0206309Y0112916D01*
X0206319Y0113074D01*
X0206333Y0113232D01*
X0206351Y0113389D01*
X0206372Y0113546D01*
X0206398Y0113702D01*
X0206428Y0113858D01*
X0206461Y0114013D01*
X0206499Y0114166D01*
X0206540Y0114319D01*
X0206585Y0114471D01*
X0206634Y0114622D01*
X0206687Y0114771D01*
X0206743Y0114919D01*
X0206803Y0115065D01*
X0206867Y0115210D01*
X0206935Y0115353D01*
X0207006Y0115495D01*
X0207080Y0115635D01*
X0207158Y0115772D01*
X0207240Y0115908D01*
X0207324Y0116042D01*
X0207413Y0116173D01*
X0207504Y0116302D01*
X0207599Y0116429D01*
X0207696Y0116554D01*
X0207797Y0116676D01*
X0207901Y0116795D01*
X0208008Y0116912D01*
X0208118Y0117026D01*
X0208231Y0117137D01*
X0208346Y0117246D01*
X0208464Y0117351D01*
X0208585Y0117453D01*
X0208708Y0117553D01*
X0208834Y0117649D01*
X0208962Y0117742D01*
X0209092Y0117832D01*
X0209225Y0117918D01*
X0209360Y0118002D01*
X0209496Y0118081D01*
X0209635Y0118158D01*
X0209776Y0118230D01*
X0209918Y0118300D01*
X0210062Y0118365D01*
X0210208Y0118427D01*
X0210355Y0118485D01*
X0210504Y0118540D01*
X0210654Y0118591D01*
X0210805Y0118638D01*
X0210957Y0118681D01*
X0211110Y0118720D01*
X0211265Y0118756D01*
X0211420Y0118787D01*
X0211576Y0118815D01*
X0211732Y0118839D01*
X0211889Y0118859D01*
X0212047Y0118875D01*
X0212204Y0118887D01*
X0212363Y0118895D01*
X0212521Y0118899D01*
X0212679Y0118899D01*
X0212837Y0118895D01*
X0212996Y0118887D01*
X0213153Y0118875D01*
X0213311Y0118859D01*
X0213468Y0118839D01*
X0213624Y0118815D01*
X0213780Y0118787D01*
X0213935Y0118756D01*
X0214090Y0118720D01*
X0214243Y0118681D01*
X0214395Y0118638D01*
X0214546Y0118591D01*
X0214696Y0118540D01*
X0214845Y0118485D01*
X0214992Y0118427D01*
X0215138Y0118365D01*
X0215282Y0118300D01*
X0215424Y0118230D01*
X0215565Y0118158D01*
X0215704Y0118081D01*
X0215840Y0118002D01*
X0215975Y0117918D01*
X0216108Y0117832D01*
X0216238Y0117742D01*
X0216366Y0117649D01*
X0216492Y0117553D01*
X0216615Y0117453D01*
X0216736Y0117351D01*
X0216854Y0117246D01*
X0216969Y0117137D01*
X0217082Y0117026D01*
X0217192Y0116912D01*
X0217299Y0116795D01*
X0217403Y0116676D01*
X0217504Y0116554D01*
X0217601Y0116429D01*
X0217696Y0116302D01*
X0217787Y0116173D01*
X0217876Y0116042D01*
X0217960Y0115908D01*
X0218042Y0115772D01*
X0218120Y0115635D01*
X0218194Y0115495D01*
X0218265Y0115353D01*
X0218333Y0115210D01*
X0218397Y0115065D01*
X0218457Y0114919D01*
X0218513Y0114771D01*
X0218566Y0114622D01*
X0218615Y0114471D01*
X0218660Y0114319D01*
X0218701Y0114166D01*
X0218739Y0114013D01*
X0218772Y0113858D01*
X0218802Y0113702D01*
X0218828Y0113546D01*
X0218849Y0113389D01*
X0218867Y0113232D01*
X0218881Y0113074D01*
X0218891Y0112916D01*
X0218897Y0112758D01*
X0218899Y0112600D01*
X0218897Y0112442D01*
X0218891Y0112284D01*
X0218881Y0112126D01*
X0218867Y0111968D01*
X0218849Y0111811D01*
X0218828Y0111654D01*
X0218802Y0111498D01*
X0218772Y0111342D01*
X0218739Y0111187D01*
X0218701Y0111034D01*
X0218660Y0110881D01*
X0218615Y0110729D01*
X0218566Y0110578D01*
X0218513Y0110429D01*
X0218457Y0110281D01*
X0218397Y0110135D01*
X0218333Y0109990D01*
X0218265Y0109847D01*
X0218194Y0109705D01*
X0218120Y0109565D01*
X0218042Y0109428D01*
X0217960Y0109292D01*
X0217876Y0109158D01*
X0217787Y0109027D01*
X0217696Y0108898D01*
X0217601Y0108771D01*
X0217504Y0108646D01*
X0217403Y0108524D01*
X0217299Y0108405D01*
X0217192Y0108288D01*
X0217082Y0108174D01*
X0216969Y0108063D01*
X0216854Y0107954D01*
X0216736Y0107849D01*
X0216615Y0107747D01*
X0216492Y0107647D01*
X0216366Y0107551D01*
X0216238Y0107458D01*
X0216108Y0107368D01*
X0215975Y0107282D01*
X0215840Y0107198D01*
X0215704Y0107119D01*
X0215565Y0107042D01*
X0215424Y0106970D01*
X0215282Y0106900D01*
X0215138Y0106835D01*
X0214992Y0106773D01*
X0214845Y0106715D01*
X0214696Y0106660D01*
X0214546Y0106609D01*
X0214395Y0106562D01*
X0214243Y0106519D01*
X0214090Y0106480D01*
X0213935Y0106444D01*
X0213780Y0106413D01*
X0213624Y0106385D01*
X0213468Y0106361D01*
X0213311Y0106341D01*
X0213153Y0106325D01*
X0212996Y0106313D01*
X0212837Y0106305D01*
X0212679Y0106301D01*
X0212521Y0106301D01*
X0212363Y0106305D01*
X0212204Y0106313D01*
X0212047Y0106325D01*
X0211889Y0106341D01*
X0211732Y0106361D01*
X0211576Y0106385D01*
X0211420Y0106413D01*
X0211265Y0106444D01*
X0211110Y0106480D01*
X0210957Y0106519D01*
X0210805Y0106562D01*
X0210654Y0106609D01*
X0210504Y0106660D01*
X0210355Y0106715D01*
X0210208Y0106773D01*
X0210062Y0106835D01*
X0209918Y0106900D01*
X0209776Y0106970D01*
X0209635Y0107042D01*
X0209496Y0107119D01*
X0209360Y0107198D01*
X0209225Y0107282D01*
X0209092Y0107368D01*
X0208962Y0107458D01*
X0208834Y0107551D01*
X0208708Y0107647D01*
X0208585Y0107747D01*
X0208464Y0107849D01*
X0208346Y0107954D01*
X0208231Y0108063D01*
X0208118Y0108174D01*
X0208008Y0108288D01*
X0207901Y0108405D01*
X0207797Y0108524D01*
X0207696Y0108646D01*
X0207599Y0108771D01*
X0207504Y0108898D01*
X0207413Y0109027D01*
X0207324Y0109158D01*
X0207240Y0109292D01*
X0207158Y0109428D01*
X0207080Y0109565D01*
X0207006Y0109705D01*
X0206935Y0109847D01*
X0206867Y0109990D01*
X0206803Y0110135D01*
X0206743Y0110281D01*
X0206687Y0110429D01*
X0206634Y0110578D01*
X0206585Y0110729D01*
X0206540Y0110881D01*
X0206499Y0111034D01*
X0206461Y0111187D01*
X0206428Y0111342D01*
X0206398Y0111498D01*
X0206372Y0111654D01*
X0206351Y0111811D01*
X0206333Y0111968D01*
X0206319Y0112126D01*
X0206309Y0112284D01*
X0206303Y0112442D01*
X0206301Y0112600D01*
X0206301Y0032600D02*
X0206303Y0032758D01*
X0206309Y0032916D01*
X0206319Y0033074D01*
X0206333Y0033232D01*
X0206351Y0033389D01*
X0206372Y0033546D01*
X0206398Y0033702D01*
X0206428Y0033858D01*
X0206461Y0034013D01*
X0206499Y0034166D01*
X0206540Y0034319D01*
X0206585Y0034471D01*
X0206634Y0034622D01*
X0206687Y0034771D01*
X0206743Y0034919D01*
X0206803Y0035065D01*
X0206867Y0035210D01*
X0206935Y0035353D01*
X0207006Y0035495D01*
X0207080Y0035635D01*
X0207158Y0035772D01*
X0207240Y0035908D01*
X0207324Y0036042D01*
X0207413Y0036173D01*
X0207504Y0036302D01*
X0207599Y0036429D01*
X0207696Y0036554D01*
X0207797Y0036676D01*
X0207901Y0036795D01*
X0208008Y0036912D01*
X0208118Y0037026D01*
X0208231Y0037137D01*
X0208346Y0037246D01*
X0208464Y0037351D01*
X0208585Y0037453D01*
X0208708Y0037553D01*
X0208834Y0037649D01*
X0208962Y0037742D01*
X0209092Y0037832D01*
X0209225Y0037918D01*
X0209360Y0038002D01*
X0209496Y0038081D01*
X0209635Y0038158D01*
X0209776Y0038230D01*
X0209918Y0038300D01*
X0210062Y0038365D01*
X0210208Y0038427D01*
X0210355Y0038485D01*
X0210504Y0038540D01*
X0210654Y0038591D01*
X0210805Y0038638D01*
X0210957Y0038681D01*
X0211110Y0038720D01*
X0211265Y0038756D01*
X0211420Y0038787D01*
X0211576Y0038815D01*
X0211732Y0038839D01*
X0211889Y0038859D01*
X0212047Y0038875D01*
X0212204Y0038887D01*
X0212363Y0038895D01*
X0212521Y0038899D01*
X0212679Y0038899D01*
X0212837Y0038895D01*
X0212996Y0038887D01*
X0213153Y0038875D01*
X0213311Y0038859D01*
X0213468Y0038839D01*
X0213624Y0038815D01*
X0213780Y0038787D01*
X0213935Y0038756D01*
X0214090Y0038720D01*
X0214243Y0038681D01*
X0214395Y0038638D01*
X0214546Y0038591D01*
X0214696Y0038540D01*
X0214845Y0038485D01*
X0214992Y0038427D01*
X0215138Y0038365D01*
X0215282Y0038300D01*
X0215424Y0038230D01*
X0215565Y0038158D01*
X0215704Y0038081D01*
X0215840Y0038002D01*
X0215975Y0037918D01*
X0216108Y0037832D01*
X0216238Y0037742D01*
X0216366Y0037649D01*
X0216492Y0037553D01*
X0216615Y0037453D01*
X0216736Y0037351D01*
X0216854Y0037246D01*
X0216969Y0037137D01*
X0217082Y0037026D01*
X0217192Y0036912D01*
X0217299Y0036795D01*
X0217403Y0036676D01*
X0217504Y0036554D01*
X0217601Y0036429D01*
X0217696Y0036302D01*
X0217787Y0036173D01*
X0217876Y0036042D01*
X0217960Y0035908D01*
X0218042Y0035772D01*
X0218120Y0035635D01*
X0218194Y0035495D01*
X0218265Y0035353D01*
X0218333Y0035210D01*
X0218397Y0035065D01*
X0218457Y0034919D01*
X0218513Y0034771D01*
X0218566Y0034622D01*
X0218615Y0034471D01*
X0218660Y0034319D01*
X0218701Y0034166D01*
X0218739Y0034013D01*
X0218772Y0033858D01*
X0218802Y0033702D01*
X0218828Y0033546D01*
X0218849Y0033389D01*
X0218867Y0033232D01*
X0218881Y0033074D01*
X0218891Y0032916D01*
X0218897Y0032758D01*
X0218899Y0032600D01*
X0218897Y0032442D01*
X0218891Y0032284D01*
X0218881Y0032126D01*
X0218867Y0031968D01*
X0218849Y0031811D01*
X0218828Y0031654D01*
X0218802Y0031498D01*
X0218772Y0031342D01*
X0218739Y0031187D01*
X0218701Y0031034D01*
X0218660Y0030881D01*
X0218615Y0030729D01*
X0218566Y0030578D01*
X0218513Y0030429D01*
X0218457Y0030281D01*
X0218397Y0030135D01*
X0218333Y0029990D01*
X0218265Y0029847D01*
X0218194Y0029705D01*
X0218120Y0029565D01*
X0218042Y0029428D01*
X0217960Y0029292D01*
X0217876Y0029158D01*
X0217787Y0029027D01*
X0217696Y0028898D01*
X0217601Y0028771D01*
X0217504Y0028646D01*
X0217403Y0028524D01*
X0217299Y0028405D01*
X0217192Y0028288D01*
X0217082Y0028174D01*
X0216969Y0028063D01*
X0216854Y0027954D01*
X0216736Y0027849D01*
X0216615Y0027747D01*
X0216492Y0027647D01*
X0216366Y0027551D01*
X0216238Y0027458D01*
X0216108Y0027368D01*
X0215975Y0027282D01*
X0215840Y0027198D01*
X0215704Y0027119D01*
X0215565Y0027042D01*
X0215424Y0026970D01*
X0215282Y0026900D01*
X0215138Y0026835D01*
X0214992Y0026773D01*
X0214845Y0026715D01*
X0214696Y0026660D01*
X0214546Y0026609D01*
X0214395Y0026562D01*
X0214243Y0026519D01*
X0214090Y0026480D01*
X0213935Y0026444D01*
X0213780Y0026413D01*
X0213624Y0026385D01*
X0213468Y0026361D01*
X0213311Y0026341D01*
X0213153Y0026325D01*
X0212996Y0026313D01*
X0212837Y0026305D01*
X0212679Y0026301D01*
X0212521Y0026301D01*
X0212363Y0026305D01*
X0212204Y0026313D01*
X0212047Y0026325D01*
X0211889Y0026341D01*
X0211732Y0026361D01*
X0211576Y0026385D01*
X0211420Y0026413D01*
X0211265Y0026444D01*
X0211110Y0026480D01*
X0210957Y0026519D01*
X0210805Y0026562D01*
X0210654Y0026609D01*
X0210504Y0026660D01*
X0210355Y0026715D01*
X0210208Y0026773D01*
X0210062Y0026835D01*
X0209918Y0026900D01*
X0209776Y0026970D01*
X0209635Y0027042D01*
X0209496Y0027119D01*
X0209360Y0027198D01*
X0209225Y0027282D01*
X0209092Y0027368D01*
X0208962Y0027458D01*
X0208834Y0027551D01*
X0208708Y0027647D01*
X0208585Y0027747D01*
X0208464Y0027849D01*
X0208346Y0027954D01*
X0208231Y0028063D01*
X0208118Y0028174D01*
X0208008Y0028288D01*
X0207901Y0028405D01*
X0207797Y0028524D01*
X0207696Y0028646D01*
X0207599Y0028771D01*
X0207504Y0028898D01*
X0207413Y0029027D01*
X0207324Y0029158D01*
X0207240Y0029292D01*
X0207158Y0029428D01*
X0207080Y0029565D01*
X0207006Y0029705D01*
X0206935Y0029847D01*
X0206867Y0029990D01*
X0206803Y0030135D01*
X0206743Y0030281D01*
X0206687Y0030429D01*
X0206634Y0030578D01*
X0206585Y0030729D01*
X0206540Y0030881D01*
X0206499Y0031034D01*
X0206461Y0031187D01*
X0206428Y0031342D01*
X0206398Y0031498D01*
X0206372Y0031654D01*
X0206351Y0031811D01*
X0206333Y0031968D01*
X0206319Y0032126D01*
X0206309Y0032284D01*
X0206303Y0032442D01*
X0206301Y0032600D01*
X0036301Y0032600D02*
X0036303Y0032758D01*
X0036309Y0032916D01*
X0036319Y0033074D01*
X0036333Y0033232D01*
X0036351Y0033389D01*
X0036372Y0033546D01*
X0036398Y0033702D01*
X0036428Y0033858D01*
X0036461Y0034013D01*
X0036499Y0034166D01*
X0036540Y0034319D01*
X0036585Y0034471D01*
X0036634Y0034622D01*
X0036687Y0034771D01*
X0036743Y0034919D01*
X0036803Y0035065D01*
X0036867Y0035210D01*
X0036935Y0035353D01*
X0037006Y0035495D01*
X0037080Y0035635D01*
X0037158Y0035772D01*
X0037240Y0035908D01*
X0037324Y0036042D01*
X0037413Y0036173D01*
X0037504Y0036302D01*
X0037599Y0036429D01*
X0037696Y0036554D01*
X0037797Y0036676D01*
X0037901Y0036795D01*
X0038008Y0036912D01*
X0038118Y0037026D01*
X0038231Y0037137D01*
X0038346Y0037246D01*
X0038464Y0037351D01*
X0038585Y0037453D01*
X0038708Y0037553D01*
X0038834Y0037649D01*
X0038962Y0037742D01*
X0039092Y0037832D01*
X0039225Y0037918D01*
X0039360Y0038002D01*
X0039496Y0038081D01*
X0039635Y0038158D01*
X0039776Y0038230D01*
X0039918Y0038300D01*
X0040062Y0038365D01*
X0040208Y0038427D01*
X0040355Y0038485D01*
X0040504Y0038540D01*
X0040654Y0038591D01*
X0040805Y0038638D01*
X0040957Y0038681D01*
X0041110Y0038720D01*
X0041265Y0038756D01*
X0041420Y0038787D01*
X0041576Y0038815D01*
X0041732Y0038839D01*
X0041889Y0038859D01*
X0042047Y0038875D01*
X0042204Y0038887D01*
X0042363Y0038895D01*
X0042521Y0038899D01*
X0042679Y0038899D01*
X0042837Y0038895D01*
X0042996Y0038887D01*
X0043153Y0038875D01*
X0043311Y0038859D01*
X0043468Y0038839D01*
X0043624Y0038815D01*
X0043780Y0038787D01*
X0043935Y0038756D01*
X0044090Y0038720D01*
X0044243Y0038681D01*
X0044395Y0038638D01*
X0044546Y0038591D01*
X0044696Y0038540D01*
X0044845Y0038485D01*
X0044992Y0038427D01*
X0045138Y0038365D01*
X0045282Y0038300D01*
X0045424Y0038230D01*
X0045565Y0038158D01*
X0045704Y0038081D01*
X0045840Y0038002D01*
X0045975Y0037918D01*
X0046108Y0037832D01*
X0046238Y0037742D01*
X0046366Y0037649D01*
X0046492Y0037553D01*
X0046615Y0037453D01*
X0046736Y0037351D01*
X0046854Y0037246D01*
X0046969Y0037137D01*
X0047082Y0037026D01*
X0047192Y0036912D01*
X0047299Y0036795D01*
X0047403Y0036676D01*
X0047504Y0036554D01*
X0047601Y0036429D01*
X0047696Y0036302D01*
X0047787Y0036173D01*
X0047876Y0036042D01*
X0047960Y0035908D01*
X0048042Y0035772D01*
X0048120Y0035635D01*
X0048194Y0035495D01*
X0048265Y0035353D01*
X0048333Y0035210D01*
X0048397Y0035065D01*
X0048457Y0034919D01*
X0048513Y0034771D01*
X0048566Y0034622D01*
X0048615Y0034471D01*
X0048660Y0034319D01*
X0048701Y0034166D01*
X0048739Y0034013D01*
X0048772Y0033858D01*
X0048802Y0033702D01*
X0048828Y0033546D01*
X0048849Y0033389D01*
X0048867Y0033232D01*
X0048881Y0033074D01*
X0048891Y0032916D01*
X0048897Y0032758D01*
X0048899Y0032600D01*
X0048897Y0032442D01*
X0048891Y0032284D01*
X0048881Y0032126D01*
X0048867Y0031968D01*
X0048849Y0031811D01*
X0048828Y0031654D01*
X0048802Y0031498D01*
X0048772Y0031342D01*
X0048739Y0031187D01*
X0048701Y0031034D01*
X0048660Y0030881D01*
X0048615Y0030729D01*
X0048566Y0030578D01*
X0048513Y0030429D01*
X0048457Y0030281D01*
X0048397Y0030135D01*
X0048333Y0029990D01*
X0048265Y0029847D01*
X0048194Y0029705D01*
X0048120Y0029565D01*
X0048042Y0029428D01*
X0047960Y0029292D01*
X0047876Y0029158D01*
X0047787Y0029027D01*
X0047696Y0028898D01*
X0047601Y0028771D01*
X0047504Y0028646D01*
X0047403Y0028524D01*
X0047299Y0028405D01*
X0047192Y0028288D01*
X0047082Y0028174D01*
X0046969Y0028063D01*
X0046854Y0027954D01*
X0046736Y0027849D01*
X0046615Y0027747D01*
X0046492Y0027647D01*
X0046366Y0027551D01*
X0046238Y0027458D01*
X0046108Y0027368D01*
X0045975Y0027282D01*
X0045840Y0027198D01*
X0045704Y0027119D01*
X0045565Y0027042D01*
X0045424Y0026970D01*
X0045282Y0026900D01*
X0045138Y0026835D01*
X0044992Y0026773D01*
X0044845Y0026715D01*
X0044696Y0026660D01*
X0044546Y0026609D01*
X0044395Y0026562D01*
X0044243Y0026519D01*
X0044090Y0026480D01*
X0043935Y0026444D01*
X0043780Y0026413D01*
X0043624Y0026385D01*
X0043468Y0026361D01*
X0043311Y0026341D01*
X0043153Y0026325D01*
X0042996Y0026313D01*
X0042837Y0026305D01*
X0042679Y0026301D01*
X0042521Y0026301D01*
X0042363Y0026305D01*
X0042204Y0026313D01*
X0042047Y0026325D01*
X0041889Y0026341D01*
X0041732Y0026361D01*
X0041576Y0026385D01*
X0041420Y0026413D01*
X0041265Y0026444D01*
X0041110Y0026480D01*
X0040957Y0026519D01*
X0040805Y0026562D01*
X0040654Y0026609D01*
X0040504Y0026660D01*
X0040355Y0026715D01*
X0040208Y0026773D01*
X0040062Y0026835D01*
X0039918Y0026900D01*
X0039776Y0026970D01*
X0039635Y0027042D01*
X0039496Y0027119D01*
X0039360Y0027198D01*
X0039225Y0027282D01*
X0039092Y0027368D01*
X0038962Y0027458D01*
X0038834Y0027551D01*
X0038708Y0027647D01*
X0038585Y0027747D01*
X0038464Y0027849D01*
X0038346Y0027954D01*
X0038231Y0028063D01*
X0038118Y0028174D01*
X0038008Y0028288D01*
X0037901Y0028405D01*
X0037797Y0028524D01*
X0037696Y0028646D01*
X0037599Y0028771D01*
X0037504Y0028898D01*
X0037413Y0029027D01*
X0037324Y0029158D01*
X0037240Y0029292D01*
X0037158Y0029428D01*
X0037080Y0029565D01*
X0037006Y0029705D01*
X0036935Y0029847D01*
X0036867Y0029990D01*
X0036803Y0030135D01*
X0036743Y0030281D01*
X0036687Y0030429D01*
X0036634Y0030578D01*
X0036585Y0030729D01*
X0036540Y0030881D01*
X0036499Y0031034D01*
X0036461Y0031187D01*
X0036428Y0031342D01*
X0036398Y0031498D01*
X0036372Y0031654D01*
X0036351Y0031811D01*
X0036333Y0031968D01*
X0036319Y0032126D01*
X0036309Y0032284D01*
X0036303Y0032442D01*
X0036301Y0032600D01*
X0036301Y0112600D02*
X0036303Y0112758D01*
X0036309Y0112916D01*
X0036319Y0113074D01*
X0036333Y0113232D01*
X0036351Y0113389D01*
X0036372Y0113546D01*
X0036398Y0113702D01*
X0036428Y0113858D01*
X0036461Y0114013D01*
X0036499Y0114166D01*
X0036540Y0114319D01*
X0036585Y0114471D01*
X0036634Y0114622D01*
X0036687Y0114771D01*
X0036743Y0114919D01*
X0036803Y0115065D01*
X0036867Y0115210D01*
X0036935Y0115353D01*
X0037006Y0115495D01*
X0037080Y0115635D01*
X0037158Y0115772D01*
X0037240Y0115908D01*
X0037324Y0116042D01*
X0037413Y0116173D01*
X0037504Y0116302D01*
X0037599Y0116429D01*
X0037696Y0116554D01*
X0037797Y0116676D01*
X0037901Y0116795D01*
X0038008Y0116912D01*
X0038118Y0117026D01*
X0038231Y0117137D01*
X0038346Y0117246D01*
X0038464Y0117351D01*
X0038585Y0117453D01*
X0038708Y0117553D01*
X0038834Y0117649D01*
X0038962Y0117742D01*
X0039092Y0117832D01*
X0039225Y0117918D01*
X0039360Y0118002D01*
X0039496Y0118081D01*
X0039635Y0118158D01*
X0039776Y0118230D01*
X0039918Y0118300D01*
X0040062Y0118365D01*
X0040208Y0118427D01*
X0040355Y0118485D01*
X0040504Y0118540D01*
X0040654Y0118591D01*
X0040805Y0118638D01*
X0040957Y0118681D01*
X0041110Y0118720D01*
X0041265Y0118756D01*
X0041420Y0118787D01*
X0041576Y0118815D01*
X0041732Y0118839D01*
X0041889Y0118859D01*
X0042047Y0118875D01*
X0042204Y0118887D01*
X0042363Y0118895D01*
X0042521Y0118899D01*
X0042679Y0118899D01*
X0042837Y0118895D01*
X0042996Y0118887D01*
X0043153Y0118875D01*
X0043311Y0118859D01*
X0043468Y0118839D01*
X0043624Y0118815D01*
X0043780Y0118787D01*
X0043935Y0118756D01*
X0044090Y0118720D01*
X0044243Y0118681D01*
X0044395Y0118638D01*
X0044546Y0118591D01*
X0044696Y0118540D01*
X0044845Y0118485D01*
X0044992Y0118427D01*
X0045138Y0118365D01*
X0045282Y0118300D01*
X0045424Y0118230D01*
X0045565Y0118158D01*
X0045704Y0118081D01*
X0045840Y0118002D01*
X0045975Y0117918D01*
X0046108Y0117832D01*
X0046238Y0117742D01*
X0046366Y0117649D01*
X0046492Y0117553D01*
X0046615Y0117453D01*
X0046736Y0117351D01*
X0046854Y0117246D01*
X0046969Y0117137D01*
X0047082Y0117026D01*
X0047192Y0116912D01*
X0047299Y0116795D01*
X0047403Y0116676D01*
X0047504Y0116554D01*
X0047601Y0116429D01*
X0047696Y0116302D01*
X0047787Y0116173D01*
X0047876Y0116042D01*
X0047960Y0115908D01*
X0048042Y0115772D01*
X0048120Y0115635D01*
X0048194Y0115495D01*
X0048265Y0115353D01*
X0048333Y0115210D01*
X0048397Y0115065D01*
X0048457Y0114919D01*
X0048513Y0114771D01*
X0048566Y0114622D01*
X0048615Y0114471D01*
X0048660Y0114319D01*
X0048701Y0114166D01*
X0048739Y0114013D01*
X0048772Y0113858D01*
X0048802Y0113702D01*
X0048828Y0113546D01*
X0048849Y0113389D01*
X0048867Y0113232D01*
X0048881Y0113074D01*
X0048891Y0112916D01*
X0048897Y0112758D01*
X0048899Y0112600D01*
X0048897Y0112442D01*
X0048891Y0112284D01*
X0048881Y0112126D01*
X0048867Y0111968D01*
X0048849Y0111811D01*
X0048828Y0111654D01*
X0048802Y0111498D01*
X0048772Y0111342D01*
X0048739Y0111187D01*
X0048701Y0111034D01*
X0048660Y0110881D01*
X0048615Y0110729D01*
X0048566Y0110578D01*
X0048513Y0110429D01*
X0048457Y0110281D01*
X0048397Y0110135D01*
X0048333Y0109990D01*
X0048265Y0109847D01*
X0048194Y0109705D01*
X0048120Y0109565D01*
X0048042Y0109428D01*
X0047960Y0109292D01*
X0047876Y0109158D01*
X0047787Y0109027D01*
X0047696Y0108898D01*
X0047601Y0108771D01*
X0047504Y0108646D01*
X0047403Y0108524D01*
X0047299Y0108405D01*
X0047192Y0108288D01*
X0047082Y0108174D01*
X0046969Y0108063D01*
X0046854Y0107954D01*
X0046736Y0107849D01*
X0046615Y0107747D01*
X0046492Y0107647D01*
X0046366Y0107551D01*
X0046238Y0107458D01*
X0046108Y0107368D01*
X0045975Y0107282D01*
X0045840Y0107198D01*
X0045704Y0107119D01*
X0045565Y0107042D01*
X0045424Y0106970D01*
X0045282Y0106900D01*
X0045138Y0106835D01*
X0044992Y0106773D01*
X0044845Y0106715D01*
X0044696Y0106660D01*
X0044546Y0106609D01*
X0044395Y0106562D01*
X0044243Y0106519D01*
X0044090Y0106480D01*
X0043935Y0106444D01*
X0043780Y0106413D01*
X0043624Y0106385D01*
X0043468Y0106361D01*
X0043311Y0106341D01*
X0043153Y0106325D01*
X0042996Y0106313D01*
X0042837Y0106305D01*
X0042679Y0106301D01*
X0042521Y0106301D01*
X0042363Y0106305D01*
X0042204Y0106313D01*
X0042047Y0106325D01*
X0041889Y0106341D01*
X0041732Y0106361D01*
X0041576Y0106385D01*
X0041420Y0106413D01*
X0041265Y0106444D01*
X0041110Y0106480D01*
X0040957Y0106519D01*
X0040805Y0106562D01*
X0040654Y0106609D01*
X0040504Y0106660D01*
X0040355Y0106715D01*
X0040208Y0106773D01*
X0040062Y0106835D01*
X0039918Y0106900D01*
X0039776Y0106970D01*
X0039635Y0107042D01*
X0039496Y0107119D01*
X0039360Y0107198D01*
X0039225Y0107282D01*
X0039092Y0107368D01*
X0038962Y0107458D01*
X0038834Y0107551D01*
X0038708Y0107647D01*
X0038585Y0107747D01*
X0038464Y0107849D01*
X0038346Y0107954D01*
X0038231Y0108063D01*
X0038118Y0108174D01*
X0038008Y0108288D01*
X0037901Y0108405D01*
X0037797Y0108524D01*
X0037696Y0108646D01*
X0037599Y0108771D01*
X0037504Y0108898D01*
X0037413Y0109027D01*
X0037324Y0109158D01*
X0037240Y0109292D01*
X0037158Y0109428D01*
X0037080Y0109565D01*
X0037006Y0109705D01*
X0036935Y0109847D01*
X0036867Y0109990D01*
X0036803Y0110135D01*
X0036743Y0110281D01*
X0036687Y0110429D01*
X0036634Y0110578D01*
X0036585Y0110729D01*
X0036540Y0110881D01*
X0036499Y0111034D01*
X0036461Y0111187D01*
X0036428Y0111342D01*
X0036398Y0111498D01*
X0036372Y0111654D01*
X0036351Y0111811D01*
X0036333Y0111968D01*
X0036319Y0112126D01*
X0036309Y0112284D01*
X0036303Y0112442D01*
X0036301Y0112600D01*
D18*
X0037600Y0102600D03*
X0037600Y0092600D03*
D19*
X0041457Y0095177D02*
X0040177Y0096457D01*
X0038505Y0097150D01*
X0036695Y0097150D01*
X0035023Y0096457D01*
X0033743Y0095177D01*
X0033050Y0093505D01*
X0033050Y0091695D01*
X0033600Y0090367D01*
X0033600Y0087343D01*
X0034590Y0084954D01*
X0034590Y0084954D01*
X0034941Y0084602D01*
X0042543Y0077000D01*
X0038713Y0077000D01*
X0037654Y0076561D01*
X0033500Y0076561D01*
X0032471Y0076135D01*
X0031683Y0075347D01*
X0031257Y0074318D01*
X0031257Y0066905D01*
X0031683Y0065876D01*
X0032471Y0065088D01*
X0032733Y0064980D01*
X0032399Y0064757D01*
X0032037Y0064395D01*
X0031753Y0063969D01*
X0031557Y0063496D01*
X0031457Y0062994D01*
X0031457Y0059588D01*
X0031457Y0056182D01*
X0031557Y0055680D01*
X0031753Y0055207D01*
X0032037Y0054781D01*
X0032399Y0054419D01*
X0032825Y0054134D01*
X0033298Y0053938D01*
X0033801Y0053839D01*
X0037600Y0053839D01*
X0041399Y0053839D01*
X0041902Y0053938D01*
X0042375Y0054134D01*
X0042801Y0054419D01*
X0043163Y0054781D01*
X0043447Y0055207D01*
X0043643Y0055680D01*
X0043743Y0056182D01*
X0043743Y0059588D01*
X0037600Y0059588D01*
X0037600Y0053839D01*
X0037600Y0059588D01*
X0037600Y0059588D01*
X0037600Y0059588D01*
X0031457Y0059588D01*
X0037600Y0059588D01*
X0037600Y0059588D01*
X0043743Y0059588D01*
X0043743Y0062994D01*
X0043643Y0063496D01*
X0043447Y0063969D01*
X0043163Y0064395D01*
X0042801Y0064757D01*
X0042467Y0064980D01*
X0042729Y0065088D01*
X0043517Y0065876D01*
X0043943Y0066905D01*
X0043943Y0068200D01*
X0047666Y0068200D01*
X0048200Y0067666D01*
X0048200Y0054006D01*
X0048166Y0053925D01*
X0048166Y0050330D01*
X0048592Y0049301D01*
X0049380Y0048514D01*
X0050409Y0048087D01*
X0050856Y0048087D01*
X0051725Y0047728D01*
X0053475Y0047728D01*
X0054344Y0048087D01*
X0054791Y0048087D01*
X0055820Y0048514D01*
X0056608Y0049301D01*
X0057034Y0050330D01*
X0057034Y0053925D01*
X0057000Y0054006D01*
X0057000Y0059500D01*
X0057267Y0059037D01*
X0057778Y0058371D01*
X0058371Y0057778D01*
X0059037Y0057267D01*
X0059763Y0056848D01*
X0060538Y0056527D01*
X0061349Y0056310D01*
X0062181Y0056200D01*
X0062600Y0056200D01*
X0063019Y0056200D01*
X0063851Y0056310D01*
X0064662Y0056527D01*
X0065437Y0056848D01*
X0066163Y0057267D01*
X0066829Y0057778D01*
X0067422Y0058371D01*
X0067933Y0059037D01*
X0068352Y0059763D01*
X0068673Y0060538D01*
X0068890Y0061349D01*
X0069000Y0062181D01*
X0069000Y0062600D01*
X0069000Y0063019D01*
X0068890Y0063851D01*
X0068673Y0064662D01*
X0068352Y0065437D01*
X0067933Y0066163D01*
X0067422Y0066829D01*
X0066829Y0067422D01*
X0066163Y0067933D01*
X0065437Y0068352D01*
X0064662Y0068673D01*
X0063851Y0068890D01*
X0063019Y0069000D01*
X0062600Y0069000D01*
X0062600Y0062600D01*
X0062600Y0062600D01*
X0069000Y0062600D01*
X0062600Y0062600D01*
X0062600Y0062600D01*
X0062600Y0069000D01*
X0062181Y0069000D01*
X0061349Y0068890D01*
X0060538Y0068673D01*
X0059763Y0068352D01*
X0059037Y0067933D01*
X0058371Y0067422D01*
X0057778Y0066829D01*
X0057267Y0066163D01*
X0057000Y0065700D01*
X0057000Y0067666D01*
X0058195Y0068861D01*
X0059200Y0071287D01*
X0059200Y0073913D01*
X0058195Y0076339D01*
X0056339Y0078195D01*
X0053913Y0079200D01*
X0051657Y0079200D01*
X0041600Y0089257D01*
X0041600Y0090367D01*
X0042150Y0091695D01*
X0042150Y0093505D01*
X0041457Y0095177D01*
X0040873Y0095761D02*
X0122140Y0095761D01*
X0122212Y0095902D02*
X0121762Y0095018D01*
X0121455Y0094075D01*
X0121300Y0093096D01*
X0121300Y0092600D01*
X0127600Y0092600D01*
X0127600Y0092600D01*
X0127600Y0098900D01*
X0128096Y0098900D01*
X0129075Y0098745D01*
X0130018Y0098438D01*
X0130902Y0097988D01*
X0131704Y0097405D01*
X0132405Y0096704D01*
X0132450Y0096643D01*
X0133918Y0098110D01*
X0136307Y0099100D01*
X0138893Y0099100D01*
X0141282Y0098110D01*
X0142600Y0096792D01*
X0143918Y0098110D01*
X0146307Y0099100D01*
X0148893Y0099100D01*
X0151282Y0098110D01*
X0153110Y0096282D01*
X0154100Y0093893D01*
X0154100Y0091307D01*
X0153110Y0088918D01*
X0152750Y0088557D01*
X0152847Y0088517D01*
X0153635Y0087729D01*
X0154061Y0086700D01*
X0154061Y0078500D01*
X0153635Y0077471D01*
X0152847Y0076683D01*
X0152000Y0076332D01*
X0152000Y0074423D01*
X0152600Y0073823D01*
X0154375Y0075598D01*
X0154375Y0075598D01*
X0154727Y0075950D01*
X0154727Y0075950D01*
X0157263Y0077000D01*
X0177035Y0077000D01*
X0176565Y0077471D01*
X0176139Y0078500D01*
X0176139Y0086700D01*
X0176544Y0087678D01*
X0175902Y0087212D01*
X0175018Y0086762D01*
X0174075Y0086455D01*
X0173096Y0086300D01*
X0172600Y0086300D01*
X0172600Y0092600D01*
X0172600Y0092600D01*
X0172600Y0098900D01*
X0173096Y0098900D01*
X0174075Y0098745D01*
X0175018Y0098438D01*
X0175902Y0097988D01*
X0176704Y0097405D01*
X0177405Y0096704D01*
X0177450Y0096643D01*
X0178918Y0098110D01*
X0181307Y0099100D01*
X0183893Y0099100D01*
X0186282Y0098110D01*
X0187600Y0096792D01*
X0188918Y0098110D01*
X0191307Y0099100D01*
X0193893Y0099100D01*
X0196282Y0098110D01*
X0198110Y0096282D01*
X0199100Y0093893D01*
X0199100Y0091307D01*
X0198110Y0088918D01*
X0197750Y0088557D01*
X0197847Y0088517D01*
X0198635Y0087729D01*
X0199061Y0086700D01*
X0199061Y0078500D01*
X0198635Y0077471D01*
X0197847Y0076683D01*
X0197000Y0076332D01*
X0197000Y0052392D01*
X0198110Y0051282D01*
X0199100Y0048893D01*
X0199100Y0047323D01*
X0200092Y0046330D01*
X0201330Y0045092D01*
X0202000Y0043475D01*
X0202000Y0032534D01*
X0203195Y0031339D01*
X0204200Y0028913D01*
X0204200Y0026287D01*
X0203195Y0023861D01*
X0201339Y0022005D01*
X0198913Y0021000D01*
X0196287Y0021000D01*
X0193861Y0022005D01*
X0192454Y0023412D01*
X0192422Y0023371D01*
X0191829Y0022778D01*
X0191163Y0022267D01*
X0190437Y0021848D01*
X0189662Y0021527D01*
X0188851Y0021310D01*
X0188019Y0021200D01*
X0187600Y0021200D01*
X0187600Y0027600D01*
X0187600Y0027600D01*
X0187600Y0034000D01*
X0188019Y0034000D01*
X0188851Y0033890D01*
X0189662Y0033673D01*
X0190437Y0033352D01*
X0191163Y0032933D01*
X0191829Y0032422D01*
X0192422Y0031829D01*
X0192454Y0031788D01*
X0193200Y0032534D01*
X0193200Y0040777D01*
X0192877Y0041100D01*
X0191307Y0041100D01*
X0188918Y0042090D01*
X0187600Y0043408D01*
X0186282Y0042090D01*
X0183893Y0041100D01*
X0181307Y0041100D01*
X0178918Y0042090D01*
X0177450Y0043557D01*
X0177405Y0043496D01*
X0176704Y0042795D01*
X0175902Y0042212D01*
X0175018Y0041762D01*
X0174075Y0041455D01*
X0173096Y0041300D01*
X0172600Y0041300D01*
X0172600Y0047600D01*
X0172600Y0047600D01*
X0172600Y0041300D01*
X0172104Y0041300D01*
X0171125Y0041455D01*
X0170182Y0041762D01*
X0169298Y0042212D01*
X0168496Y0042795D01*
X0167795Y0043496D01*
X0167212Y0044298D01*
X0166762Y0045182D01*
X0166600Y0045679D01*
X0166600Y0041804D01*
X0165991Y0040334D01*
X0164866Y0039209D01*
X0159580Y0033923D01*
X0161339Y0033195D01*
X0162600Y0031934D01*
X0163861Y0033195D01*
X0166287Y0034200D01*
X0168913Y0034200D01*
X0171339Y0033195D01*
X0172600Y0031934D01*
X0173861Y0033195D01*
X0176287Y0034200D01*
X0178913Y0034200D01*
X0181339Y0033195D01*
X0182746Y0031788D01*
X0182778Y0031829D01*
X0183371Y0032422D01*
X0184037Y0032933D01*
X0184763Y0033352D01*
X0185538Y0033673D01*
X0186349Y0033890D01*
X0187181Y0034000D01*
X0187600Y0034000D01*
X0187600Y0027600D01*
X0187600Y0027600D01*
X0187600Y0021200D01*
X0187181Y0021200D01*
X0186349Y0021310D01*
X0185538Y0021527D01*
X0184763Y0021848D01*
X0184037Y0022267D01*
X0183371Y0022778D01*
X0182778Y0023371D01*
X0182746Y0023412D01*
X0181339Y0022005D01*
X0178913Y0021000D01*
X0176287Y0021000D01*
X0173861Y0022005D01*
X0172600Y0023266D01*
X0171339Y0022005D01*
X0168913Y0021000D01*
X0166287Y0021000D01*
X0163861Y0022005D01*
X0162600Y0023266D01*
X0161339Y0022005D01*
X0158913Y0021000D01*
X0156287Y0021000D01*
X0153861Y0022005D01*
X0152600Y0023266D01*
X0151339Y0022005D01*
X0148913Y0021000D01*
X0146287Y0021000D01*
X0143861Y0022005D01*
X0142600Y0023266D01*
X0141339Y0022005D01*
X0138913Y0021000D01*
X0136287Y0021000D01*
X0133861Y0022005D01*
X0132600Y0023266D01*
X0131339Y0022005D01*
X0128913Y0021000D01*
X0126287Y0021000D01*
X0123861Y0022005D01*
X0122454Y0023412D01*
X0122422Y0023371D01*
X0121829Y0022778D01*
X0121163Y0022267D01*
X0120437Y0021848D01*
X0119662Y0021527D01*
X0118851Y0021310D01*
X0118019Y0021200D01*
X0117600Y0021200D01*
X0117600Y0027600D01*
X0117600Y0027600D01*
X0117600Y0021200D01*
X0117181Y0021200D01*
X0116349Y0021310D01*
X0115538Y0021527D01*
X0114763Y0021848D01*
X0114037Y0022267D01*
X0113371Y0022778D01*
X0112778Y0023371D01*
X0112746Y0023412D01*
X0111339Y0022005D01*
X0108913Y0021000D01*
X0106287Y0021000D01*
X0103861Y0022005D01*
X0102600Y0023266D01*
X0101339Y0022005D01*
X0098913Y0021000D01*
X0096287Y0021000D01*
X0093861Y0022005D01*
X0092600Y0023266D01*
X0091339Y0022005D01*
X0088913Y0021000D01*
X0086287Y0021000D01*
X0083861Y0022005D01*
X0082600Y0023266D01*
X0081339Y0022005D01*
X0078913Y0021000D01*
X0076287Y0021000D01*
X0073861Y0022005D01*
X0072600Y0023266D01*
X0071339Y0022005D01*
X0068913Y0021000D01*
X0066287Y0021000D01*
X0063861Y0022005D01*
X0062600Y0023266D01*
X0061339Y0022005D01*
X0058913Y0021000D01*
X0056287Y0021000D01*
X0053861Y0022005D01*
X0052005Y0023861D01*
X0051000Y0026287D01*
X0051000Y0028913D01*
X0052005Y0031339D01*
X0053861Y0033195D01*
X0055299Y0033791D01*
X0055108Y0033870D01*
X0050108Y0038870D01*
X0049617Y0039360D01*
X0049380Y0039459D01*
X0048592Y0040246D01*
X0048166Y0041275D01*
X0048166Y0044870D01*
X0048592Y0045899D01*
X0049380Y0046686D01*
X0050409Y0047113D01*
X0050856Y0047113D01*
X0051725Y0047472D01*
X0053475Y0047472D01*
X0054344Y0047113D01*
X0054791Y0047113D01*
X0055820Y0046686D01*
X0056608Y0045899D01*
X0057034Y0044870D01*
X0057034Y0044389D01*
X0059423Y0042000D01*
X0063475Y0042000D01*
X0065092Y0041330D01*
X0066330Y0040092D01*
X0068200Y0038223D01*
X0068200Y0048475D01*
X0068870Y0050092D01*
X0073870Y0055092D01*
X0075108Y0056330D01*
X0076257Y0056806D01*
X0076257Y0056818D01*
X0076683Y0057847D01*
X0077471Y0058635D01*
X0078200Y0058937D01*
X0078200Y0068873D01*
X0078195Y0068861D01*
X0076339Y0067005D01*
X0073913Y0066000D01*
X0071287Y0066000D01*
X0068861Y0067005D01*
X0067005Y0068861D01*
X0066000Y0071287D01*
X0066000Y0073913D01*
X0067005Y0076339D01*
X0068861Y0078195D01*
X0068873Y0078200D01*
X0067534Y0078200D01*
X0066339Y0077005D01*
X0063913Y0076000D01*
X0061287Y0076000D01*
X0058861Y0077005D01*
X0057005Y0078861D01*
X0056000Y0081287D01*
X0056000Y0083913D01*
X0057005Y0086339D01*
X0058861Y0088195D01*
X0061287Y0089200D01*
X0063913Y0089200D01*
X0066339Y0088195D01*
X0067534Y0087000D01*
X0078475Y0087000D01*
X0080092Y0086330D01*
X0081330Y0085092D01*
X0086330Y0080092D01*
X0087000Y0078475D01*
X0087000Y0058937D01*
X0087729Y0058635D01*
X0088517Y0057847D01*
X0088943Y0056818D01*
X0088943Y0049405D01*
X0088517Y0048376D01*
X0087741Y0047600D01*
X0088517Y0046824D01*
X0088656Y0046488D01*
X0091544Y0046488D01*
X0091683Y0046824D01*
X0092459Y0047600D01*
X0091683Y0048376D01*
X0091257Y0049405D01*
X0091257Y0056818D01*
X0091683Y0057847D01*
X0092471Y0058635D01*
X0093200Y0058937D01*
X0093200Y0065777D01*
X0090108Y0068870D01*
X0090108Y0068870D01*
X0088870Y0070108D01*
X0088200Y0071725D01*
X0088200Y0073475D01*
X0088870Y0075092D01*
X0090108Y0076330D01*
X0091725Y0077000D01*
X0093475Y0077000D01*
X0095092Y0076330D01*
X0096330Y0075092D01*
X0096330Y0075092D01*
X0101330Y0070092D01*
X0102000Y0068475D01*
X0102000Y0058937D01*
X0102729Y0058635D01*
X0103517Y0057847D01*
X0103943Y0056818D01*
X0103943Y0055166D01*
X0105108Y0056330D01*
X0119375Y0070598D01*
X0119375Y0070598D01*
X0119727Y0070950D01*
X0119727Y0070950D01*
X0122263Y0072000D01*
X0124511Y0072000D01*
X0143200Y0072000D01*
X0143200Y0076859D01*
X0142600Y0077459D01*
X0141824Y0076683D01*
X0140795Y0076257D01*
X0133382Y0076257D01*
X0132353Y0076683D01*
X0131565Y0077471D01*
X0131139Y0078500D01*
X0131139Y0086700D01*
X0131544Y0087678D01*
X0130902Y0087212D01*
X0130018Y0086762D01*
X0129075Y0086455D01*
X0128096Y0086300D01*
X0127600Y0086300D01*
X0127600Y0092600D01*
X0127600Y0092600D01*
X0127600Y0092600D01*
X0127600Y0098900D01*
X0127104Y0098900D01*
X0126125Y0098745D01*
X0125182Y0098438D01*
X0124298Y0097988D01*
X0123496Y0097405D01*
X0122795Y0096704D01*
X0122212Y0095902D01*
X0121300Y0092600D02*
X0121300Y0092104D01*
X0121455Y0091125D01*
X0121762Y0090182D01*
X0122212Y0089298D01*
X0122795Y0088496D01*
X0123496Y0087795D01*
X0124298Y0087212D01*
X0125182Y0086762D01*
X0126125Y0086455D01*
X0127104Y0086300D01*
X0127600Y0086300D01*
X0127600Y0092600D01*
X0121300Y0092600D01*
X0121300Y0092563D02*
X0042150Y0092563D01*
X0041600Y0089364D02*
X0122178Y0089364D01*
X0127600Y0089364D02*
X0127600Y0089364D01*
X0131139Y0086166D02*
X0080257Y0086166D01*
X0083455Y0082967D02*
X0131139Y0082967D01*
X0131139Y0079769D02*
X0086464Y0079769D01*
X0087000Y0076570D02*
X0090687Y0076570D01*
X0094513Y0076570D02*
X0132625Y0076570D01*
X0141552Y0076570D02*
X0143200Y0076570D01*
X0143200Y0073372D02*
X0098051Y0073372D01*
X0101249Y0070173D02*
X0118951Y0070173D01*
X0123636Y0067600D02*
X0152600Y0067600D01*
X0147600Y0072600D01*
X0147600Y0081364D01*
X0147602Y0081445D01*
X0147607Y0081525D01*
X0147617Y0081605D01*
X0147630Y0081685D01*
X0147646Y0081764D01*
X0147667Y0081842D01*
X0147691Y0081919D01*
X0147718Y0081995D01*
X0147749Y0082070D01*
X0147783Y0082143D01*
X0147821Y0082214D01*
X0147862Y0082284D01*
X0147906Y0082351D01*
X0147953Y0082417D01*
X0148003Y0082480D01*
X0148056Y0082541D01*
X0148112Y0082599D01*
X0154061Y0082967D02*
X0176139Y0082967D01*
X0176139Y0086166D02*
X0154061Y0086166D01*
X0153295Y0089364D02*
X0167178Y0089364D01*
X0167212Y0089298D02*
X0167795Y0088496D01*
X0168496Y0087795D01*
X0169298Y0087212D01*
X0170182Y0086762D01*
X0171125Y0086455D01*
X0172104Y0086300D01*
X0172600Y0086300D01*
X0172600Y0092600D01*
X0172600Y0092600D01*
X0172600Y0092600D01*
X0166300Y0092600D01*
X0166300Y0093096D01*
X0166455Y0094075D01*
X0166762Y0095018D01*
X0167212Y0095902D01*
X0167795Y0096704D01*
X0168496Y0097405D01*
X0169298Y0097988D01*
X0170182Y0098438D01*
X0171125Y0098745D01*
X0172104Y0098900D01*
X0172600Y0098900D01*
X0172600Y0092600D01*
X0166300Y0092600D01*
X0166300Y0092104D01*
X0166455Y0091125D01*
X0166762Y0090182D01*
X0167212Y0089298D01*
X0172600Y0089364D02*
X0172600Y0089364D01*
X0172600Y0092563D02*
X0172600Y0092563D01*
X0172600Y0095761D02*
X0172600Y0095761D01*
X0167140Y0095761D02*
X0153326Y0095761D01*
X0154100Y0092563D02*
X0166300Y0092563D01*
X0180969Y0098960D02*
X0149231Y0098960D01*
X0145969Y0098960D02*
X0139231Y0098960D01*
X0135969Y0098960D02*
X0039990Y0098960D01*
X0039880Y0098880D02*
X0040434Y0099282D01*
X0040918Y0099766D01*
X0041320Y0100320D01*
X0041631Y0100930D01*
X0041843Y0101581D01*
X0041950Y0102258D01*
X0041950Y0102600D01*
X0041950Y0102942D01*
X0041862Y0103501D01*
X0044410Y0103501D01*
X0047754Y0104886D01*
X0050314Y0107446D01*
X0051699Y0110790D01*
X0051699Y0114410D01*
X0050314Y0117754D01*
X0047754Y0120314D01*
X0044410Y0121699D01*
X0040790Y0121699D01*
X0037446Y0120314D01*
X0034886Y0117754D01*
X0033501Y0114410D01*
X0033501Y0110790D01*
X0034886Y0107446D01*
X0035778Y0106554D01*
X0035320Y0106320D01*
X0034766Y0105918D01*
X0034282Y0105434D01*
X0033880Y0104880D01*
X0033569Y0104270D01*
X0033357Y0103619D01*
X0033250Y0102942D01*
X0033250Y0102600D01*
X0037600Y0102600D01*
X0041950Y0102600D01*
X0037600Y0102600D01*
X0037600Y0102600D01*
X0037600Y0102600D01*
X0037600Y0098250D01*
X0037942Y0098250D01*
X0038619Y0098357D01*
X0039270Y0098569D01*
X0039880Y0098880D01*
X0037600Y0098960D02*
X0037600Y0098960D01*
X0037600Y0098250D02*
X0037600Y0102600D01*
X0037600Y0102600D01*
X0033250Y0102600D01*
X0033250Y0102258D01*
X0033357Y0101581D01*
X0033569Y0100930D01*
X0033880Y0100320D01*
X0034282Y0099766D01*
X0034766Y0099282D01*
X0035320Y0098880D01*
X0035930Y0098569D01*
X0036581Y0098357D01*
X0037258Y0098250D01*
X0037600Y0098250D01*
X0035210Y0098960D02*
X0031000Y0098960D01*
X0031000Y0102158D02*
X0033266Y0102158D01*
X0037600Y0102158D02*
X0037600Y0102158D01*
X0041934Y0102158D02*
X0219200Y0102158D01*
X0219200Y0100871D02*
X0215560Y0100871D01*
X0214478Y0100423D01*
X0214384Y0100384D01*
X0214329Y0100328D01*
X0213843Y0099842D01*
X0213684Y0099683D01*
X0213684Y0099683D01*
X0213325Y0099325D01*
X0212784Y0098783D01*
X0212784Y0098783D01*
X0212784Y0098783D01*
X0212706Y0098595D01*
X0212296Y0097607D01*
X0212296Y0094933D01*
X0212694Y0093972D01*
X0212784Y0093757D01*
X0212784Y0093756D01*
X0213309Y0093231D01*
X0213684Y0092856D01*
X0213859Y0092681D01*
X0214235Y0092305D01*
X0213684Y0092077D01*
X0212784Y0091177D01*
X0212784Y0091177D01*
X0212504Y0090501D01*
X0212296Y0090000D01*
X0212296Y0088727D01*
X0212492Y0088254D01*
X0212784Y0087551D01*
X0213684Y0086651D01*
X0213722Y0086613D01*
X0213661Y0085753D01*
X0213992Y0084760D01*
X0213661Y0083767D01*
X0213751Y0082497D01*
X0214320Y0081358D01*
X0215282Y0080524D01*
X0216490Y0080122D01*
X0217759Y0080212D01*
X0219200Y0080932D01*
X0219200Y0080116D01*
X0218455Y0079969D01*
X0217598Y0079398D01*
X0216742Y0079969D01*
X0215493Y0080216D01*
X0214245Y0079966D01*
X0213187Y0079258D01*
X0212481Y0078199D01*
X0212234Y0076950D01*
X0212483Y0075702D01*
X0212583Y0075552D01*
X0212483Y0075403D01*
X0212234Y0074154D01*
X0212481Y0072905D01*
X0213187Y0071846D01*
X0213237Y0071813D01*
X0212784Y0071360D01*
X0212296Y0070184D01*
X0212296Y0068910D01*
X0212406Y0068646D01*
X0212296Y0068382D01*
X0212296Y0067109D01*
X0212492Y0066636D01*
X0212613Y0066344D01*
X0212504Y0066081D01*
X0212296Y0065580D01*
X0212296Y0064307D01*
X0212492Y0063833D01*
X0212784Y0063130D01*
X0213684Y0062230D01*
X0213698Y0062225D01*
X0213698Y0061256D01*
X0213684Y0061250D01*
X0212784Y0060350D01*
X0212296Y0059174D01*
X0212296Y0057901D01*
X0212784Y0056725D01*
X0213684Y0055825D01*
X0213698Y0055819D01*
X0213698Y0055799D01*
X0214097Y0054834D01*
X0213698Y0053870D01*
X0213698Y0052048D01*
X0213684Y0052043D01*
X0212784Y0051142D01*
X0212296Y0049966D01*
X0212296Y0048693D01*
X0212602Y0047956D01*
X0212483Y0047779D01*
X0212420Y0047462D01*
X0212296Y0047164D01*
X0212296Y0046844D01*
X0212234Y0046531D01*
X0212296Y0046214D01*
X0212296Y0045891D01*
X0212419Y0045596D01*
X0212481Y0045282D01*
X0212660Y0045013D01*
X0212784Y0044715D01*
X0213010Y0044489D01*
X0213187Y0044223D01*
X0213455Y0044043D01*
X0213684Y0043815D01*
X0213979Y0043692D01*
X0214245Y0043514D01*
X0214561Y0043451D01*
X0214860Y0043327D01*
X0215180Y0043327D01*
X0215493Y0043265D01*
X0215810Y0043327D01*
X0219200Y0043327D01*
X0219200Y0038868D01*
X0217754Y0040314D01*
X0214410Y0041699D01*
X0210790Y0041699D01*
X0207446Y0040314D01*
X0204886Y0037754D01*
X0203501Y0034410D01*
X0203501Y0030790D01*
X0204886Y0027446D01*
X0207446Y0024886D01*
X0210790Y0023501D01*
X0214410Y0023501D01*
X0217754Y0024886D01*
X0219200Y0026332D01*
X0219200Y0022600D01*
X0219169Y0022288D01*
X0218930Y0021711D01*
X0218489Y0021270D01*
X0217912Y0021031D01*
X0217600Y0021000D01*
X0032600Y0021000D01*
X0032288Y0021031D01*
X0031711Y0021270D01*
X0031270Y0021711D01*
X0031031Y0022288D01*
X0031000Y0022600D01*
X0031000Y0122600D01*
X0031031Y0122912D01*
X0031270Y0123489D01*
X0031711Y0123930D01*
X0032288Y0124169D01*
X0032600Y0124200D01*
X0217600Y0124200D01*
X0217912Y0124169D01*
X0218489Y0123930D01*
X0218930Y0123489D01*
X0219169Y0122912D01*
X0219200Y0122600D01*
X0219200Y0118868D01*
X0217754Y0120314D01*
X0214410Y0121699D01*
X0210790Y0121699D01*
X0207446Y0120314D01*
X0204886Y0117754D01*
X0203501Y0114410D01*
X0203501Y0110790D01*
X0204886Y0107446D01*
X0207446Y0104886D01*
X0210790Y0103501D01*
X0214410Y0103501D01*
X0217754Y0104886D01*
X0219200Y0106332D01*
X0219200Y0100871D01*
X0214384Y0100384D02*
X0214384Y0100384D01*
X0214384Y0100384D01*
X0212960Y0098960D02*
X0194231Y0098960D01*
X0190969Y0098960D02*
X0184231Y0098960D01*
X0182600Y0092600D02*
X0182600Y0083836D01*
X0182600Y0082600D02*
X0182600Y0092600D01*
X0198295Y0089364D02*
X0212296Y0089364D01*
X0213684Y0086651D02*
X0213684Y0086651D01*
X0213690Y0086166D02*
X0199061Y0086166D01*
X0199061Y0082967D02*
X0213717Y0082967D01*
X0213950Y0079769D02*
X0199061Y0079769D01*
X0197575Y0076570D02*
X0212310Y0076570D01*
X0212389Y0073372D02*
X0197000Y0073372D01*
X0197000Y0070173D02*
X0212296Y0070173D01*
X0212352Y0066975D02*
X0197000Y0066975D01*
X0197000Y0063776D02*
X0212516Y0063776D01*
X0213684Y0062230D02*
X0213684Y0062230D01*
X0213011Y0060578D02*
X0197000Y0060578D01*
X0192600Y0061564D02*
X0192600Y0047600D01*
X0197600Y0042600D01*
X0197600Y0027600D01*
X0203830Y0025394D02*
X0206938Y0025394D01*
X0204411Y0028593D02*
X0204200Y0028593D01*
X0203501Y0031791D02*
X0202743Y0031791D01*
X0202000Y0034990D02*
X0203741Y0034990D01*
X0205320Y0038188D02*
X0202000Y0038188D01*
X0202000Y0041387D02*
X0210035Y0041387D01*
X0212913Y0044585D02*
X0201540Y0044585D01*
X0199100Y0047784D02*
X0212486Y0047784D01*
X0212717Y0050982D02*
X0198235Y0050982D01*
X0197000Y0054181D02*
X0213826Y0054181D01*
X0212513Y0057379D02*
X0197000Y0057379D01*
X0192600Y0061564D02*
X0192598Y0061662D01*
X0192592Y0061760D01*
X0192583Y0061858D01*
X0192569Y0061955D01*
X0192552Y0062052D01*
X0192531Y0062148D01*
X0192506Y0062243D01*
X0192478Y0062337D01*
X0192445Y0062429D01*
X0192410Y0062521D01*
X0192370Y0062611D01*
X0192328Y0062699D01*
X0192281Y0062786D01*
X0192232Y0062870D01*
X0192179Y0062953D01*
X0192123Y0063033D01*
X0192063Y0063112D01*
X0192001Y0063188D01*
X0191936Y0063261D01*
X0191868Y0063332D01*
X0182600Y0072600D01*
X0158636Y0072600D01*
X0156868Y0071868D02*
X0152600Y0067600D01*
X0148332Y0063332D01*
X0147600Y0061564D02*
X0147600Y0047600D01*
X0153600Y0050100D02*
X0153110Y0051282D01*
X0152000Y0052392D01*
X0152000Y0060777D01*
X0155092Y0063870D01*
X0156330Y0065108D01*
X0159423Y0068200D01*
X0180777Y0068200D01*
X0185034Y0063943D01*
X0179405Y0063943D01*
X0178376Y0063517D01*
X0177588Y0062729D01*
X0177480Y0062467D01*
X0177257Y0062801D01*
X0176895Y0063163D01*
X0176469Y0063447D01*
X0175996Y0063643D01*
X0175494Y0063743D01*
X0172088Y0063743D01*
X0168682Y0063743D01*
X0168180Y0063643D01*
X0167707Y0063447D01*
X0167281Y0063163D01*
X0166919Y0062801D01*
X0166634Y0062375D01*
X0166527Y0062116D01*
X0166330Y0062592D01*
X0165092Y0063830D01*
X0163475Y0064500D01*
X0161725Y0064500D01*
X0160108Y0063830D01*
X0158870Y0062592D01*
X0158200Y0060975D01*
X0158200Y0059225D01*
X0158600Y0058259D01*
X0158600Y0056948D01*
X0158475Y0057000D01*
X0156725Y0057000D01*
X0155108Y0056330D01*
X0153870Y0055092D01*
X0153200Y0053475D01*
X0153200Y0051725D01*
X0153600Y0050759D01*
X0153600Y0050100D01*
X0153508Y0050982D02*
X0153235Y0050982D01*
X0153492Y0054181D02*
X0152000Y0054181D01*
X0152000Y0057379D02*
X0158600Y0057379D01*
X0158200Y0060578D02*
X0152000Y0060578D01*
X0147600Y0061564D02*
X0147602Y0061662D01*
X0147608Y0061760D01*
X0147617Y0061858D01*
X0147631Y0061955D01*
X0147648Y0062052D01*
X0147669Y0062148D01*
X0147694Y0062243D01*
X0147722Y0062337D01*
X0147755Y0062429D01*
X0147790Y0062521D01*
X0147830Y0062611D01*
X0147872Y0062699D01*
X0147919Y0062786D01*
X0147968Y0062870D01*
X0148021Y0062953D01*
X0148077Y0063033D01*
X0148137Y0063112D01*
X0148199Y0063188D01*
X0148264Y0063261D01*
X0148332Y0063332D01*
X0154999Y0063776D02*
X0160054Y0063776D01*
X0158197Y0066975D02*
X0182003Y0066975D01*
X0179002Y0063776D02*
X0165146Y0063776D01*
X0172088Y0063743D02*
X0172088Y0057600D01*
X0172088Y0057600D01*
X0172088Y0063743D01*
X0172088Y0060578D02*
X0172088Y0060578D01*
X0156330Y0065108D02*
X0156330Y0065108D01*
X0156868Y0071868D02*
X0156939Y0071936D01*
X0157012Y0072001D01*
X0157088Y0072063D01*
X0157167Y0072123D01*
X0157247Y0072179D01*
X0157330Y0072232D01*
X0157414Y0072281D01*
X0157501Y0072328D01*
X0157589Y0072370D01*
X0157679Y0072410D01*
X0157771Y0072445D01*
X0157863Y0072478D01*
X0157957Y0072506D01*
X0158052Y0072531D01*
X0158148Y0072552D01*
X0158245Y0072569D01*
X0158342Y0072583D01*
X0158440Y0072592D01*
X0158538Y0072598D01*
X0158636Y0072600D01*
X0156226Y0076570D02*
X0152575Y0076570D01*
X0154061Y0079769D02*
X0176139Y0079769D01*
X0182088Y0082601D02*
X0182144Y0082659D01*
X0182197Y0082720D01*
X0182247Y0082783D01*
X0182294Y0082849D01*
X0182338Y0082916D01*
X0182379Y0082986D01*
X0182417Y0083057D01*
X0182451Y0083130D01*
X0182482Y0083205D01*
X0182509Y0083281D01*
X0182533Y0083358D01*
X0182554Y0083436D01*
X0182570Y0083515D01*
X0182583Y0083595D01*
X0182593Y0083675D01*
X0182598Y0083755D01*
X0182600Y0083836D01*
X0192600Y0081364D02*
X0192600Y0062600D01*
X0191868Y0063332D01*
X0217042Y0079769D02*
X0218154Y0079769D01*
X0193112Y0082599D02*
X0193056Y0082541D01*
X0193003Y0082480D01*
X0192953Y0082417D01*
X0192906Y0082351D01*
X0192862Y0082284D01*
X0192821Y0082214D01*
X0192783Y0082143D01*
X0192749Y0082070D01*
X0192718Y0081995D01*
X0192691Y0081919D01*
X0192667Y0081842D01*
X0192646Y0081764D01*
X0192630Y0081685D01*
X0192617Y0081605D01*
X0192607Y0081525D01*
X0192602Y0081445D01*
X0192600Y0081364D01*
X0199100Y0092563D02*
X0213977Y0092563D01*
X0213684Y0092856D02*
X0213684Y0092856D01*
X0212784Y0093757D02*
X0212784Y0093757D01*
X0212296Y0095761D02*
X0198326Y0095761D01*
X0206975Y0105357D02*
X0048225Y0105357D01*
X0050774Y0108555D02*
X0204426Y0108555D01*
X0203501Y0111754D02*
X0200733Y0111754D01*
X0201339Y0112005D02*
X0198913Y0111000D01*
X0196287Y0111000D01*
X0193861Y0112005D01*
X0192454Y0113412D01*
X0192422Y0113371D01*
X0191829Y0112778D01*
X0191163Y0112267D01*
X0190437Y0111848D01*
X0189662Y0111527D01*
X0188851Y0111310D01*
X0188019Y0111200D01*
X0187600Y0111200D01*
X0187600Y0117600D01*
X0187600Y0117600D01*
X0187600Y0124000D01*
X0188019Y0124000D01*
X0188851Y0123890D01*
X0189662Y0123673D01*
X0190437Y0123352D01*
X0191163Y0122933D01*
X0191829Y0122422D01*
X0192422Y0121829D01*
X0192454Y0121788D01*
X0193861Y0123195D01*
X0196287Y0124200D01*
X0198913Y0124200D01*
X0201339Y0123195D01*
X0203195Y0121339D01*
X0204200Y0118913D01*
X0204200Y0116287D01*
X0203195Y0113861D01*
X0201339Y0112005D01*
X0203647Y0114952D02*
X0203725Y0114952D01*
X0204200Y0118151D02*
X0205283Y0118151D01*
X0203184Y0121349D02*
X0209946Y0121349D01*
X0215254Y0121349D02*
X0219200Y0121349D01*
X0194467Y0111754D02*
X0190210Y0111754D01*
X0187600Y0111754D02*
X0187600Y0111754D01*
X0187600Y0111200D02*
X0187600Y0117600D01*
X0187600Y0124000D01*
X0187181Y0124000D01*
X0186349Y0123890D01*
X0185538Y0123673D01*
X0184763Y0123352D01*
X0184037Y0122933D01*
X0183371Y0122422D01*
X0182778Y0121829D01*
X0182746Y0121788D01*
X0181339Y0123195D01*
X0178913Y0124200D01*
X0176287Y0124200D01*
X0173861Y0123195D01*
X0172600Y0121934D01*
X0171339Y0123195D01*
X0168913Y0124200D01*
X0166287Y0124200D01*
X0163861Y0123195D01*
X0162600Y0121934D01*
X0161339Y0123195D01*
X0158913Y0124200D01*
X0156287Y0124200D01*
X0153861Y0123195D01*
X0152454Y0121788D01*
X0152422Y0121829D01*
X0151829Y0122422D01*
X0151163Y0122933D01*
X0150437Y0123352D01*
X0149662Y0123673D01*
X0148851Y0123890D01*
X0148019Y0124000D01*
X0147600Y0124000D01*
X0147600Y0117600D01*
X0147600Y0117600D01*
X0147600Y0124000D01*
X0147181Y0124000D01*
X0146349Y0123890D01*
X0145538Y0123673D01*
X0144763Y0123352D01*
X0144037Y0122933D01*
X0143371Y0122422D01*
X0142778Y0121829D01*
X0142746Y0121788D01*
X0141339Y0123195D01*
X0138913Y0124200D01*
X0136287Y0124200D01*
X0133861Y0123195D01*
X0132600Y0121934D01*
X0131339Y0123195D01*
X0128913Y0124200D01*
X0126287Y0124200D01*
X0123861Y0123195D01*
X0122600Y0121934D01*
X0121339Y0123195D01*
X0118913Y0124200D01*
X0116287Y0124200D01*
X0113861Y0123195D01*
X0112600Y0121934D01*
X0111339Y0123195D01*
X0108913Y0124200D01*
X0106287Y0124200D01*
X0103861Y0123195D01*
X0102600Y0121934D01*
X0101339Y0123195D01*
X0098913Y0124200D01*
X0096287Y0124200D01*
X0093861Y0123195D01*
X0092600Y0121934D01*
X0091339Y0123195D01*
X0088913Y0124200D01*
X0086287Y0124200D01*
X0083861Y0123195D01*
X0082600Y0121934D01*
X0081339Y0123195D01*
X0078913Y0124200D01*
X0076287Y0124200D01*
X0073861Y0123195D01*
X0072600Y0121934D01*
X0071339Y0123195D01*
X0068913Y0124200D01*
X0066287Y0124200D01*
X0063861Y0123195D01*
X0062600Y0121934D01*
X0061339Y0123195D01*
X0058913Y0124200D01*
X0056287Y0124200D01*
X0053861Y0123195D01*
X0052005Y0121339D01*
X0051000Y0118913D01*
X0051000Y0116287D01*
X0052005Y0113861D01*
X0053861Y0112005D01*
X0056287Y0111000D01*
X0058913Y0111000D01*
X0061339Y0112005D01*
X0062600Y0113266D01*
X0063861Y0112005D01*
X0066287Y0111000D01*
X0068913Y0111000D01*
X0071339Y0112005D01*
X0072600Y0113266D01*
X0073861Y0112005D01*
X0076287Y0111000D01*
X0078913Y0111000D01*
X0081339Y0112005D01*
X0082600Y0113266D01*
X0083861Y0112005D01*
X0086287Y0111000D01*
X0088913Y0111000D01*
X0091339Y0112005D01*
X0092600Y0113266D01*
X0093861Y0112005D01*
X0096287Y0111000D01*
X0098913Y0111000D01*
X0101339Y0112005D01*
X0102600Y0113266D01*
X0103861Y0112005D01*
X0106287Y0111000D01*
X0108913Y0111000D01*
X0111339Y0112005D01*
X0112600Y0113266D01*
X0113861Y0112005D01*
X0116287Y0111000D01*
X0118913Y0111000D01*
X0121339Y0112005D01*
X0122600Y0113266D01*
X0123861Y0112005D01*
X0126287Y0111000D01*
X0128913Y0111000D01*
X0131339Y0112005D01*
X0132600Y0113266D01*
X0133861Y0112005D01*
X0136287Y0111000D01*
X0138913Y0111000D01*
X0141339Y0112005D01*
X0142746Y0113412D01*
X0142778Y0113371D01*
X0143371Y0112778D01*
X0144037Y0112267D01*
X0144763Y0111848D01*
X0145538Y0111527D01*
X0146349Y0111310D01*
X0147181Y0111200D01*
X0147600Y0111200D01*
X0148019Y0111200D01*
X0148851Y0111310D01*
X0149662Y0111527D01*
X0150437Y0111848D01*
X0151163Y0112267D01*
X0151829Y0112778D01*
X0152422Y0113371D01*
X0152454Y0113412D01*
X0153861Y0112005D01*
X0156287Y0111000D01*
X0158913Y0111000D01*
X0161339Y0112005D01*
X0162600Y0113266D01*
X0163861Y0112005D01*
X0166287Y0111000D01*
X0168913Y0111000D01*
X0171339Y0112005D01*
X0172600Y0113266D01*
X0173861Y0112005D01*
X0176287Y0111000D01*
X0178913Y0111000D01*
X0181339Y0112005D01*
X0182746Y0113412D01*
X0182778Y0113371D01*
X0183371Y0112778D01*
X0184037Y0112267D01*
X0184763Y0111848D01*
X0185538Y0111527D01*
X0186349Y0111310D01*
X0187181Y0111200D01*
X0187600Y0111200D01*
X0184990Y0111754D02*
X0180733Y0111754D01*
X0174467Y0111754D02*
X0170733Y0111754D01*
X0164467Y0111754D02*
X0160733Y0111754D01*
X0154467Y0111754D02*
X0150210Y0111754D01*
X0147600Y0111754D02*
X0147600Y0111754D01*
X0147600Y0111200D02*
X0147600Y0117600D01*
X0147600Y0117600D01*
X0147600Y0111200D01*
X0144990Y0111754D02*
X0140733Y0111754D01*
X0134467Y0111754D02*
X0130733Y0111754D01*
X0124467Y0111754D02*
X0120733Y0111754D01*
X0114467Y0111754D02*
X0110733Y0111754D01*
X0104467Y0111754D02*
X0100733Y0111754D01*
X0094467Y0111754D02*
X0090733Y0111754D01*
X0084467Y0111754D02*
X0080733Y0111754D01*
X0074467Y0111754D02*
X0070733Y0111754D01*
X0064467Y0111754D02*
X0060733Y0111754D01*
X0054467Y0111754D02*
X0051699Y0111754D01*
X0051553Y0114952D02*
X0051475Y0114952D01*
X0051000Y0118151D02*
X0049917Y0118151D01*
X0052016Y0121349D02*
X0045254Y0121349D01*
X0039946Y0121349D02*
X0031000Y0121349D01*
X0031000Y0118151D02*
X0035283Y0118151D01*
X0033725Y0114952D02*
X0031000Y0114952D01*
X0031000Y0111754D02*
X0033501Y0111754D01*
X0034426Y0108555D02*
X0031000Y0108555D01*
X0031000Y0105357D02*
X0034226Y0105357D01*
X0034327Y0095761D02*
X0031000Y0095761D01*
X0031000Y0092563D02*
X0033050Y0092563D01*
X0033600Y0089364D02*
X0031000Y0089364D01*
X0031000Y0086166D02*
X0034087Y0086166D01*
X0034941Y0084602D02*
X0034941Y0084602D01*
X0036576Y0082967D02*
X0031000Y0082967D01*
X0031000Y0079769D02*
X0039774Y0079769D01*
X0037675Y0076570D02*
X0031000Y0076570D01*
X0031000Y0073372D02*
X0031257Y0073372D01*
X0031257Y0070173D02*
X0031000Y0070173D01*
X0031000Y0066975D02*
X0031257Y0066975D01*
X0031000Y0063776D02*
X0031673Y0063776D01*
X0031457Y0060578D02*
X0031000Y0060578D01*
X0031000Y0057379D02*
X0031457Y0057379D01*
X0031000Y0054181D02*
X0032756Y0054181D01*
X0031000Y0050982D02*
X0048166Y0050982D01*
X0048200Y0054181D02*
X0042444Y0054181D01*
X0043743Y0057379D02*
X0048200Y0057379D01*
X0048200Y0060578D02*
X0043743Y0060578D01*
X0043527Y0063776D02*
X0048200Y0063776D01*
X0048200Y0066975D02*
X0043943Y0066975D01*
X0039588Y0072600D02*
X0037600Y0070612D01*
X0039588Y0072600D02*
X0052600Y0072600D01*
X0052600Y0052128D01*
X0057034Y0050982D02*
X0069760Y0050982D01*
X0068200Y0047784D02*
X0053611Y0047784D01*
X0051589Y0047784D02*
X0031000Y0047784D01*
X0031000Y0044585D02*
X0048166Y0044585D01*
X0048166Y0041387D02*
X0045165Y0041387D01*
X0044410Y0041699D02*
X0040790Y0041699D01*
X0037446Y0040314D01*
X0034886Y0037754D01*
X0033501Y0034410D01*
X0033501Y0030790D01*
X0034886Y0027446D01*
X0037446Y0024886D01*
X0040790Y0023501D01*
X0044410Y0023501D01*
X0047754Y0024886D01*
X0050314Y0027446D01*
X0051699Y0030790D01*
X0051699Y0034410D01*
X0050314Y0037754D01*
X0047754Y0040314D01*
X0044410Y0041699D01*
X0040035Y0041387D02*
X0031000Y0041387D01*
X0031000Y0038188D02*
X0035320Y0038188D01*
X0033741Y0034990D02*
X0031000Y0034990D01*
X0031000Y0031791D02*
X0033501Y0031791D01*
X0034411Y0028593D02*
X0031000Y0028593D01*
X0031000Y0025394D02*
X0036938Y0025394D01*
X0031069Y0022196D02*
X0053671Y0022196D01*
X0051370Y0025394D02*
X0048262Y0025394D01*
X0050789Y0028593D02*
X0051000Y0028593D01*
X0051699Y0031791D02*
X0052457Y0031791D01*
X0051459Y0034990D02*
X0053988Y0034990D01*
X0057600Y0037600D02*
X0052600Y0042600D01*
X0052600Y0043072D01*
X0057034Y0044585D02*
X0068200Y0044585D01*
X0068200Y0041387D02*
X0064956Y0041387D01*
X0062600Y0037600D02*
X0057600Y0037600D01*
X0062600Y0037600D02*
X0067600Y0032600D01*
X0067600Y0027600D01*
X0071529Y0022196D02*
X0073671Y0022196D01*
X0081529Y0022196D02*
X0083671Y0022196D01*
X0091529Y0022196D02*
X0093671Y0022196D01*
X0101529Y0022196D02*
X0103671Y0022196D01*
X0111529Y0022196D02*
X0114161Y0022196D01*
X0117600Y0022196D02*
X0117600Y0022196D01*
X0121039Y0022196D02*
X0123671Y0022196D01*
X0117600Y0025394D02*
X0117600Y0025394D01*
X0131529Y0022196D02*
X0133671Y0022196D01*
X0141529Y0022196D02*
X0143671Y0022196D01*
X0151529Y0022196D02*
X0153671Y0022196D01*
X0161529Y0022196D02*
X0163671Y0022196D01*
X0171529Y0022196D02*
X0173671Y0022196D01*
X0181529Y0022196D02*
X0184161Y0022196D01*
X0187600Y0022196D02*
X0187600Y0022196D01*
X0191039Y0022196D02*
X0193671Y0022196D01*
X0187600Y0025394D02*
X0187600Y0025394D01*
X0187600Y0028593D02*
X0187600Y0028593D01*
X0187600Y0031791D02*
X0187600Y0031791D01*
X0182749Y0031791D02*
X0182743Y0031791D01*
X0192451Y0031791D02*
X0192457Y0031791D01*
X0193200Y0034990D02*
X0160646Y0034990D01*
X0163845Y0038188D02*
X0193200Y0038188D01*
X0190615Y0041387D02*
X0184585Y0041387D01*
X0180615Y0041387D02*
X0173643Y0041387D01*
X0172600Y0041387D02*
X0172600Y0041387D01*
X0171557Y0041387D02*
X0166427Y0041387D01*
X0166600Y0044585D02*
X0167065Y0044585D01*
X0172600Y0044585D02*
X0172600Y0044585D01*
X0201529Y0022196D02*
X0219131Y0022196D01*
X0219200Y0025394D02*
X0218262Y0025394D01*
X0219200Y0041387D02*
X0215165Y0041387D01*
X0127600Y0047600D02*
X0121300Y0047600D01*
X0127600Y0047600D01*
X0127600Y0047600D01*
X0122795Y0043496D02*
X0123496Y0042795D01*
X0124298Y0042212D01*
X0125182Y0041762D01*
X0125679Y0041600D01*
X0107823Y0041600D01*
X0110598Y0044375D01*
X0110598Y0044375D01*
X0110950Y0044727D01*
X0112000Y0047263D01*
X0112000Y0050777D01*
X0121339Y0060116D01*
X0121339Y0057600D01*
X0121339Y0053801D01*
X0121438Y0053298D01*
X0121634Y0052825D01*
X0121919Y0052399D01*
X0122281Y0052037D01*
X0122707Y0051753D01*
X0122803Y0051713D01*
X0122795Y0051704D01*
X0122212Y0050902D01*
X0121762Y0050018D01*
X0121455Y0049075D01*
X0121300Y0048096D01*
X0121300Y0047600D01*
X0121300Y0047104D01*
X0121455Y0046125D01*
X0121762Y0045182D01*
X0122212Y0044298D01*
X0122795Y0043496D01*
X0122065Y0044585D02*
X0110808Y0044585D01*
X0110950Y0044727D02*
X0110950Y0044727D01*
X0106868Y0046868D02*
X0102600Y0042600D01*
X0098836Y0042600D01*
X0097600Y0042088D02*
X0082600Y0042088D01*
X0087925Y0047784D02*
X0092275Y0047784D01*
X0091257Y0050982D02*
X0088943Y0050982D01*
X0088943Y0054181D02*
X0091257Y0054181D01*
X0091489Y0057379D02*
X0088711Y0057379D01*
X0087000Y0060578D02*
X0093200Y0060578D01*
X0093200Y0063776D02*
X0087000Y0063776D01*
X0087000Y0066975D02*
X0092003Y0066975D01*
X0097600Y0067600D02*
X0092600Y0072600D01*
X0088843Y0070173D02*
X0087000Y0070173D01*
X0087000Y0073372D02*
X0088200Y0073372D01*
X0082600Y0077600D02*
X0077600Y0082600D01*
X0062600Y0082600D01*
X0056629Y0079769D02*
X0051088Y0079769D01*
X0047890Y0082967D02*
X0056000Y0082967D01*
X0056933Y0086166D02*
X0044691Y0086166D01*
X0057964Y0076570D02*
X0059911Y0076570D01*
X0059200Y0073372D02*
X0066000Y0073372D01*
X0066461Y0070173D02*
X0058739Y0070173D01*
X0057924Y0066975D02*
X0057000Y0066975D01*
X0062600Y0066975D02*
X0062600Y0066975D01*
X0062600Y0063776D02*
X0062600Y0063776D01*
X0062600Y0062600D02*
X0062600Y0056200D01*
X0062600Y0062600D01*
X0062600Y0062600D01*
X0062600Y0060578D02*
X0062600Y0060578D01*
X0062600Y0057379D02*
X0062600Y0057379D01*
X0058891Y0057379D02*
X0057000Y0057379D01*
X0057000Y0054181D02*
X0072958Y0054181D01*
X0076489Y0057379D02*
X0066309Y0057379D01*
X0068684Y0060578D02*
X0078200Y0060578D01*
X0078200Y0063776D02*
X0068900Y0063776D01*
X0068934Y0066975D02*
X0067276Y0066975D01*
X0076266Y0066975D02*
X0078200Y0066975D01*
X0067236Y0076570D02*
X0065289Y0076570D01*
X0082600Y0077600D02*
X0082600Y0053112D01*
X0082088Y0052600D01*
X0077600Y0052600D01*
X0072600Y0047600D01*
X0072600Y0037600D01*
X0077600Y0032600D01*
X0077600Y0027600D01*
X0063671Y0022196D02*
X0061529Y0022196D01*
X0050789Y0038188D02*
X0049880Y0038188D01*
X0037600Y0054181D02*
X0037600Y0054181D01*
X0037600Y0057379D02*
X0037600Y0057379D01*
X0097600Y0053112D02*
X0097600Y0067600D01*
X0102000Y0066975D02*
X0115752Y0066975D01*
X0112554Y0063776D02*
X0102000Y0063776D01*
X0102000Y0060578D02*
X0109355Y0060578D01*
X0106157Y0057379D02*
X0103711Y0057379D01*
X0107600Y0052600D02*
X0107600Y0048636D01*
X0107598Y0048538D01*
X0107592Y0048440D01*
X0107583Y0048342D01*
X0107569Y0048245D01*
X0107552Y0048148D01*
X0107531Y0048052D01*
X0107506Y0047957D01*
X0107478Y0047863D01*
X0107445Y0047771D01*
X0107410Y0047679D01*
X0107370Y0047589D01*
X0107328Y0047501D01*
X0107281Y0047414D01*
X0107232Y0047330D01*
X0107179Y0047247D01*
X0107123Y0047167D01*
X0107063Y0047088D01*
X0107001Y0047012D01*
X0106936Y0046939D01*
X0106868Y0046868D01*
X0112000Y0047784D02*
X0121300Y0047784D01*
X0122270Y0050982D02*
X0112205Y0050982D01*
X0115403Y0054181D02*
X0121339Y0054181D01*
X0121339Y0057379D02*
X0118602Y0057379D01*
X0121339Y0057600D02*
X0127088Y0057600D01*
X0127088Y0057600D01*
X0121339Y0057600D01*
X0121868Y0066868D02*
X0121939Y0066936D01*
X0122012Y0067001D01*
X0122088Y0067063D01*
X0122167Y0067123D01*
X0122247Y0067179D01*
X0122330Y0067232D01*
X0122414Y0067281D01*
X0122501Y0067328D01*
X0122589Y0067370D01*
X0122679Y0067410D01*
X0122771Y0067445D01*
X0122863Y0067478D01*
X0122957Y0067506D01*
X0123052Y0067531D01*
X0123148Y0067552D01*
X0123245Y0067569D01*
X0123342Y0067583D01*
X0123440Y0067592D01*
X0123538Y0067598D01*
X0123636Y0067600D01*
X0121868Y0066868D02*
X0107600Y0052600D01*
X0098836Y0042600D02*
X0098755Y0042598D01*
X0098675Y0042593D01*
X0098595Y0042583D01*
X0098515Y0042570D01*
X0098436Y0042554D01*
X0098358Y0042533D01*
X0098281Y0042509D01*
X0098205Y0042482D01*
X0098130Y0042451D01*
X0098057Y0042417D01*
X0097986Y0042379D01*
X0097916Y0042338D01*
X0097849Y0042294D01*
X0097783Y0042247D01*
X0097720Y0042197D01*
X0097659Y0042144D01*
X0097601Y0042088D01*
X0127600Y0092563D02*
X0127600Y0092563D01*
X0127600Y0095761D02*
X0127600Y0095761D01*
X0147600Y0114952D02*
X0147600Y0114952D01*
X0147600Y0118151D02*
X0147600Y0118151D01*
X0147600Y0121349D02*
X0147600Y0121349D01*
X0187600Y0121349D02*
X0187600Y0121349D01*
X0187600Y0118151D02*
X0187600Y0118151D01*
X0187600Y0117600D02*
X0187600Y0117600D01*
X0187600Y0114952D02*
X0187600Y0114952D01*
X0218225Y0105357D02*
X0219200Y0105357D01*
D20*
X0162600Y0082600D03*
X0177600Y0067600D03*
X0162600Y0060100D03*
X0157600Y0062600D03*
X0157600Y0052600D03*
X0117600Y0052600D03*
X0112600Y0072600D03*
X0092600Y0072600D03*
X0047600Y0102600D03*
X0032600Y0042600D03*
X0202600Y0072600D03*
D21*
X0193112Y0082601D02*
X0193056Y0082659D01*
X0193003Y0082720D01*
X0192953Y0082783D01*
X0192906Y0082849D01*
X0192862Y0082916D01*
X0192821Y0082986D01*
X0192783Y0083057D01*
X0192749Y0083130D01*
X0192718Y0083205D01*
X0192691Y0083281D01*
X0192667Y0083358D01*
X0192646Y0083436D01*
X0192630Y0083515D01*
X0192617Y0083595D01*
X0192607Y0083675D01*
X0192602Y0083755D01*
X0192600Y0083836D01*
X0192600Y0092600D01*
X0148112Y0082601D02*
X0148056Y0082659D01*
X0148003Y0082720D01*
X0147953Y0082783D01*
X0147906Y0082849D01*
X0147862Y0082916D01*
X0147821Y0082986D01*
X0147783Y0083057D01*
X0147749Y0083130D01*
X0147718Y0083205D01*
X0147691Y0083281D01*
X0147667Y0083358D01*
X0147646Y0083436D01*
X0147630Y0083515D01*
X0147617Y0083595D01*
X0147607Y0083675D01*
X0147602Y0083755D01*
X0147600Y0083836D01*
X0147600Y0092600D01*
X0137600Y0092600D02*
X0137600Y0083836D01*
X0137598Y0083755D01*
X0137593Y0083675D01*
X0137583Y0083595D01*
X0137570Y0083515D01*
X0137554Y0083436D01*
X0137533Y0083358D01*
X0137509Y0083281D01*
X0137482Y0083205D01*
X0137451Y0083130D01*
X0137417Y0083057D01*
X0137379Y0082986D01*
X0137338Y0082916D01*
X0137294Y0082849D01*
X0137247Y0082783D01*
X0137197Y0082720D01*
X0137144Y0082659D01*
X0137088Y0082601D01*
X0147600Y0083836D02*
X0147602Y0083755D01*
X0147607Y0083675D01*
X0147617Y0083595D01*
X0147630Y0083515D01*
X0147646Y0083436D01*
X0147667Y0083358D01*
X0147691Y0083281D01*
X0147718Y0083205D01*
X0147749Y0083130D01*
X0147783Y0083057D01*
X0147821Y0082986D01*
X0147862Y0082916D01*
X0147906Y0082849D01*
X0147953Y0082783D01*
X0148003Y0082720D01*
X0148056Y0082659D01*
X0148112Y0082601D01*
X0162600Y0060100D02*
X0162600Y0042600D01*
X0147600Y0027600D01*
X0138332Y0030832D02*
X0138264Y0030761D01*
X0138199Y0030688D01*
X0138137Y0030612D01*
X0138077Y0030533D01*
X0138021Y0030453D01*
X0137968Y0030370D01*
X0137919Y0030286D01*
X0137872Y0030199D01*
X0137830Y0030111D01*
X0137790Y0030021D01*
X0137755Y0029929D01*
X0137722Y0029837D01*
X0137694Y0029743D01*
X0137669Y0029648D01*
X0137648Y0029552D01*
X0137631Y0029455D01*
X0137617Y0029358D01*
X0137608Y0029260D01*
X0137602Y0029162D01*
X0137600Y0029064D01*
X0137600Y0027600D01*
X0138332Y0030832D02*
X0145100Y0037600D01*
X0149064Y0037600D01*
X0150832Y0038332D02*
X0157600Y0045100D01*
X0157600Y0052600D01*
X0138112Y0057599D02*
X0138056Y0057541D01*
X0138003Y0057480D01*
X0137953Y0057417D01*
X0137906Y0057351D01*
X0137862Y0057284D01*
X0137821Y0057214D01*
X0137783Y0057143D01*
X0137749Y0057070D01*
X0137718Y0056995D01*
X0137691Y0056919D01*
X0137667Y0056842D01*
X0137646Y0056764D01*
X0137630Y0056685D01*
X0137617Y0056605D01*
X0137607Y0056525D01*
X0137602Y0056445D01*
X0137600Y0056364D01*
X0137600Y0047600D01*
X0137600Y0042600D01*
X0133332Y0038332D01*
X0131564Y0037600D02*
X0107600Y0037600D01*
X0097600Y0027600D01*
X0131564Y0037600D02*
X0131662Y0037602D01*
X0131760Y0037608D01*
X0131858Y0037617D01*
X0131955Y0037631D01*
X0132052Y0037648D01*
X0132148Y0037669D01*
X0132243Y0037694D01*
X0132337Y0037722D01*
X0132429Y0037755D01*
X0132521Y0037790D01*
X0132611Y0037830D01*
X0132699Y0037872D01*
X0132786Y0037919D01*
X0132870Y0037968D01*
X0132953Y0038021D01*
X0133033Y0038077D01*
X0133112Y0038137D01*
X0133188Y0038199D01*
X0133261Y0038264D01*
X0133332Y0038332D01*
X0149064Y0037600D02*
X0149162Y0037602D01*
X0149260Y0037608D01*
X0149358Y0037617D01*
X0149455Y0037631D01*
X0149552Y0037648D01*
X0149648Y0037669D01*
X0149743Y0037694D01*
X0149837Y0037722D01*
X0149929Y0037755D01*
X0150021Y0037790D01*
X0150111Y0037830D01*
X0150199Y0037872D01*
X0150286Y0037919D01*
X0150370Y0037968D01*
X0150453Y0038021D01*
X0150533Y0038077D01*
X0150612Y0038137D01*
X0150688Y0038199D01*
X0150761Y0038264D01*
X0150832Y0038332D01*
X0182600Y0047600D02*
X0182600Y0056364D01*
X0182599Y0056365D02*
X0182655Y0056423D01*
X0182708Y0056484D01*
X0182758Y0056547D01*
X0182805Y0056613D01*
X0182849Y0056680D01*
X0182890Y0056750D01*
X0182928Y0056821D01*
X0182962Y0056894D01*
X0182993Y0056969D01*
X0183020Y0057045D01*
X0183044Y0057122D01*
X0183065Y0057200D01*
X0183081Y0057279D01*
X0183094Y0057359D01*
X0183104Y0057439D01*
X0183109Y0057519D01*
X0183111Y0057600D01*
X0052600Y0072600D02*
X0038332Y0086868D01*
X0037600Y0088636D02*
X0037600Y0092600D01*
X0037600Y0088636D02*
X0037602Y0088538D01*
X0037608Y0088440D01*
X0037617Y0088342D01*
X0037631Y0088245D01*
X0037648Y0088148D01*
X0037669Y0088052D01*
X0037694Y0087957D01*
X0037722Y0087863D01*
X0037755Y0087771D01*
X0037790Y0087679D01*
X0037830Y0087589D01*
X0037872Y0087501D01*
X0037919Y0087414D01*
X0037968Y0087330D01*
X0038021Y0087247D01*
X0038077Y0087167D01*
X0038137Y0087088D01*
X0038199Y0087012D01*
X0038264Y0086939D01*
X0038332Y0086868D01*
M02*
