G04 #@! TF.FileFunction,Soldermask,Bot*
%FSLAX46Y46*%
G04 Gerber Fmt 4.6, Leading zero omitted, Abs format (unit mm)*
G04 Created by KiCad (PCBNEW 4.0.5) date 04/16/17 14:29:44*
%MOMM*%
%LPD*%
G01*
G04 APERTURE LIST*
%ADD10C,0.100000*%
%ADD11R,2.100000X2.100000*%
%ADD12O,2.100000X2.100000*%
%ADD13O,2.400000X2.000000*%
%ADD14C,2.400000*%
G04 APERTURE END LIST*
D10*
D11*
X57150000Y-41910000D03*
D12*
X57150000Y-44450000D03*
X57150000Y-46990000D03*
D13*
X49530000Y-60960000D03*
X26670000Y-60960000D03*
X49530000Y-58420000D03*
X26670000Y-58420000D03*
X49530000Y-55880000D03*
X26670000Y-55880000D03*
X49530000Y-53340000D03*
X26670000Y-53340000D03*
X49530000Y-50800000D03*
X26670000Y-50800000D03*
X49530000Y-48260000D03*
X26670000Y-48260000D03*
X49530000Y-45720000D03*
X26670000Y-45720000D03*
X49530000Y-43180000D03*
X26670000Y-43180000D03*
X49530000Y-40640000D03*
X26670000Y-40640000D03*
X49530000Y-38100000D03*
X26670000Y-38100000D03*
X49530000Y-35560000D03*
X26670000Y-35560000D03*
X49530000Y-33020000D03*
X26670000Y-33020000D03*
X49530000Y-30480000D03*
X26670000Y-30480000D03*
X49530000Y-27940000D03*
X26670000Y-27940000D03*
X49530000Y-25400000D03*
X26670000Y-25400000D03*
D14*
X43706048Y-56623949D03*
X43706048Y-60216051D03*
X40113946Y-60216051D03*
X40113946Y-56623949D03*
D11*
X57150000Y-52070000D03*
D12*
X57150000Y-54610000D03*
X57150000Y-57150000D03*
X57150000Y-59690000D03*
M02*
