G04 #@! TF.FileFunction,Legend,Top*
%FSLAX46Y46*%
G04 Gerber Fmt 4.6, Leading zero omitted, Abs format (unit mm)*
G04 Created by KiCad (PCBNEW 4.0.5) date 04/16/17 14:29:44*
%MOMM*%
%LPD*%
G01*
G04 APERTURE LIST*
%ADD10C,0.100000*%
%ADD11C,0.250000*%
%ADD12C,0.200000*%
%ADD13C,0.120000*%
%ADD14C,0.150000*%
%ADD15C,0.203200*%
%ADD16C,0.127000*%
%ADD17C,0.101600*%
%ADD18C,0.010000*%
%ADD19C,0.076200*%
G04 APERTURE END LIST*
D10*
D11*
X19547619Y-28357143D02*
X19547619Y-27880952D01*
X20547619Y-27880952D01*
X19595238Y-29071429D02*
X19547619Y-28976191D01*
X19547619Y-28785714D01*
X19595238Y-28690476D01*
X19690476Y-28642857D01*
X20071429Y-28642857D01*
X20166667Y-28690476D01*
X20214286Y-28785714D01*
X20214286Y-28976191D01*
X20166667Y-29071429D01*
X20071429Y-29119048D01*
X19976190Y-29119048D01*
X19880952Y-28642857D01*
X19595238Y-29928572D02*
X19547619Y-29833334D01*
X19547619Y-29642857D01*
X19595238Y-29547619D01*
X19690476Y-29500000D01*
X20071429Y-29500000D01*
X20166667Y-29547619D01*
X20214286Y-29642857D01*
X20214286Y-29833334D01*
X20166667Y-29928572D01*
X20071429Y-29976191D01*
X19976190Y-29976191D01*
X19880952Y-29500000D01*
X20214286Y-30404762D02*
X19547619Y-30404762D01*
X20119048Y-30404762D02*
X20166667Y-30452381D01*
X20214286Y-30547619D01*
X20214286Y-30690477D01*
X20166667Y-30785715D01*
X20071429Y-30833334D01*
X19547619Y-30833334D01*
X19547619Y-31309524D02*
X20214286Y-31309524D01*
X20547619Y-31309524D02*
X20500000Y-31261905D01*
X20452381Y-31309524D01*
X20500000Y-31357143D01*
X20547619Y-31309524D01*
X20452381Y-31309524D01*
X19547619Y-31690476D02*
X20214286Y-32214286D01*
X20214286Y-31690476D02*
X19547619Y-32214286D01*
X20452381Y-52927857D02*
X20500000Y-52975476D01*
X20547619Y-53070714D01*
X20547619Y-53308810D01*
X20500000Y-53404048D01*
X20452381Y-53451667D01*
X20357143Y-53499286D01*
X20261905Y-53499286D01*
X20119048Y-53451667D01*
X19547619Y-52880238D01*
X19547619Y-53499286D01*
X20547619Y-54118333D02*
X20547619Y-54213572D01*
X20500000Y-54308810D01*
X20452381Y-54356429D01*
X20357143Y-54404048D01*
X20166667Y-54451667D01*
X19928571Y-54451667D01*
X19738095Y-54404048D01*
X19642857Y-54356429D01*
X19595238Y-54308810D01*
X19547619Y-54213572D01*
X19547619Y-54118333D01*
X19595238Y-54023095D01*
X19642857Y-53975476D01*
X19738095Y-53927857D01*
X19928571Y-53880238D01*
X20166667Y-53880238D01*
X20357143Y-53927857D01*
X20452381Y-53975476D01*
X20500000Y-54023095D01*
X20547619Y-54118333D01*
X19547619Y-55404048D02*
X19547619Y-54832619D01*
X19547619Y-55118333D02*
X20547619Y-55118333D01*
X20404762Y-55023095D01*
X20309524Y-54927857D01*
X20261905Y-54832619D01*
X20547619Y-55737381D02*
X20547619Y-56404048D01*
X19547619Y-55975476D01*
X19928571Y-56785000D02*
X19928571Y-57546905D01*
X20547619Y-58213571D02*
X20547619Y-58308810D01*
X20500000Y-58404048D01*
X20452381Y-58451667D01*
X20357143Y-58499286D01*
X20166667Y-58546905D01*
X19928571Y-58546905D01*
X19738095Y-58499286D01*
X19642857Y-58451667D01*
X19595238Y-58404048D01*
X19547619Y-58308810D01*
X19547619Y-58213571D01*
X19595238Y-58118333D01*
X19642857Y-58070714D01*
X19738095Y-58023095D01*
X19928571Y-57975476D01*
X20166667Y-57975476D01*
X20357143Y-58023095D01*
X20452381Y-58070714D01*
X20500000Y-58118333D01*
X20547619Y-58213571D01*
X20547619Y-58880238D02*
X20547619Y-59499286D01*
X20166667Y-59165952D01*
X20166667Y-59308810D01*
X20119048Y-59404048D01*
X20071429Y-59451667D01*
X19976190Y-59499286D01*
X19738095Y-59499286D01*
X19642857Y-59451667D01*
X19595238Y-59404048D01*
X19547619Y-59308810D01*
X19547619Y-59023095D01*
X19595238Y-58927857D01*
X19642857Y-58880238D01*
X19928571Y-59927857D02*
X19928571Y-60689762D01*
X19547619Y-61689762D02*
X19547619Y-61118333D01*
X19547619Y-61404047D02*
X20547619Y-61404047D01*
X20404762Y-61308809D01*
X20309524Y-61213571D01*
X20261905Y-61118333D01*
X20547619Y-62023095D02*
X20547619Y-62689762D01*
X19547619Y-62261190D01*
X22407619Y-53189761D02*
X23407619Y-53189761D01*
X22407619Y-53761190D02*
X22979048Y-53332618D01*
X23407619Y-53761190D02*
X22836190Y-53189761D01*
X22407619Y-54618333D02*
X22931429Y-54618333D01*
X23026667Y-54570714D01*
X23074286Y-54475476D01*
X23074286Y-54284999D01*
X23026667Y-54189761D01*
X22455238Y-54618333D02*
X22407619Y-54523095D01*
X22407619Y-54284999D01*
X22455238Y-54189761D01*
X22550476Y-54142142D01*
X22645714Y-54142142D01*
X22740952Y-54189761D01*
X22788571Y-54284999D01*
X22788571Y-54523095D01*
X22836190Y-54618333D01*
X22407619Y-55094523D02*
X23074286Y-55094523D01*
X22883810Y-55094523D02*
X22979048Y-55142142D01*
X23026667Y-55189761D01*
X23074286Y-55284999D01*
X23074286Y-55380238D01*
X22407619Y-55856428D02*
X22455238Y-55761190D01*
X22550476Y-55713571D01*
X23407619Y-55713571D01*
X22407619Y-56999286D02*
X23407619Y-56999286D01*
X22693333Y-57332620D01*
X23407619Y-57665953D01*
X22407619Y-57665953D01*
X22407619Y-58285000D02*
X22455238Y-58189762D01*
X22502857Y-58142143D01*
X22598095Y-58094524D01*
X22883810Y-58094524D01*
X22979048Y-58142143D01*
X23026667Y-58189762D01*
X23074286Y-58285000D01*
X23074286Y-58427858D01*
X23026667Y-58523096D01*
X22979048Y-58570715D01*
X22883810Y-58618334D01*
X22598095Y-58618334D01*
X22502857Y-58570715D01*
X22455238Y-58523096D01*
X22407619Y-58427858D01*
X22407619Y-58285000D01*
X22407619Y-59046905D02*
X23407619Y-59046905D01*
X22407619Y-59475477D02*
X22931429Y-59475477D01*
X23026667Y-59427858D01*
X23074286Y-59332620D01*
X23074286Y-59189762D01*
X23026667Y-59094524D01*
X22979048Y-59046905D01*
X22407619Y-59951667D02*
X23074286Y-59951667D01*
X22883810Y-59951667D02*
X22979048Y-59999286D01*
X23026667Y-60046905D01*
X23074286Y-60142143D01*
X23074286Y-60237382D01*
X22407619Y-60570715D02*
X23074286Y-60570715D01*
X23407619Y-60570715D02*
X23360000Y-60523096D01*
X23312381Y-60570715D01*
X23360000Y-60618334D01*
X23407619Y-60570715D01*
X23312381Y-60570715D01*
X23074286Y-61046905D02*
X22407619Y-61046905D01*
X22979048Y-61046905D02*
X23026667Y-61094524D01*
X23074286Y-61189762D01*
X23074286Y-61332620D01*
X23026667Y-61427858D01*
X22931429Y-61475477D01*
X22407619Y-61475477D01*
X23074286Y-62380239D02*
X22264762Y-62380239D01*
X22169524Y-62332620D01*
X22121905Y-62285001D01*
X22074286Y-62189762D01*
X22074286Y-62046905D01*
X22121905Y-61951667D01*
X22455238Y-62380239D02*
X22407619Y-62285001D01*
X22407619Y-62094524D01*
X22455238Y-61999286D01*
X22502857Y-61951667D01*
X22598095Y-61904048D01*
X22883810Y-61904048D01*
X22979048Y-61951667D01*
X23026667Y-61999286D01*
X23074286Y-62094524D01*
X23074286Y-62285001D01*
X23026667Y-62380239D01*
X19547619Y-35976190D02*
X20547619Y-35976190D01*
X19547619Y-36547619D01*
X20547619Y-36547619D01*
X19547619Y-37166666D02*
X19595238Y-37071428D01*
X19642857Y-37023809D01*
X19738095Y-36976190D01*
X20023810Y-36976190D01*
X20119048Y-37023809D01*
X20166667Y-37071428D01*
X20214286Y-37166666D01*
X20214286Y-37309524D01*
X20166667Y-37404762D01*
X20119048Y-37452381D01*
X20023810Y-37500000D01*
X19738095Y-37500000D01*
X19642857Y-37452381D01*
X19595238Y-37404762D01*
X19547619Y-37309524D01*
X19547619Y-37166666D01*
X19547619Y-38357143D02*
X20547619Y-38357143D01*
X19595238Y-38357143D02*
X19547619Y-38261905D01*
X19547619Y-38071428D01*
X19595238Y-37976190D01*
X19642857Y-37928571D01*
X19738095Y-37880952D01*
X20023810Y-37880952D01*
X20119048Y-37928571D01*
X20166667Y-37976190D01*
X20214286Y-38071428D01*
X20214286Y-38261905D01*
X20166667Y-38357143D01*
X19595238Y-39214286D02*
X19547619Y-39119048D01*
X19547619Y-38928571D01*
X19595238Y-38833333D01*
X19690476Y-38785714D01*
X20071429Y-38785714D01*
X20166667Y-38833333D01*
X20214286Y-38928571D01*
X20214286Y-39119048D01*
X20166667Y-39214286D01*
X20071429Y-39261905D01*
X19976190Y-39261905D01*
X19880952Y-38785714D01*
X19547619Y-39690476D02*
X20547619Y-39690476D01*
X19833333Y-40023810D01*
X20547619Y-40357143D01*
X19547619Y-40357143D01*
X19547619Y-41309524D02*
X19547619Y-40833333D01*
X20547619Y-40833333D01*
X20547619Y-41547619D02*
X19547619Y-42214286D01*
X20547619Y-42214286D02*
X19547619Y-41547619D01*
X20214286Y-43261905D02*
X19547619Y-43500000D01*
X20214286Y-43738096D01*
X19547619Y-44642858D02*
X19547619Y-44071429D01*
X19547619Y-44357143D02*
X20547619Y-44357143D01*
X20404762Y-44261905D01*
X20309524Y-44166667D01*
X20261905Y-44071429D01*
X19642857Y-45071429D02*
X19595238Y-45119048D01*
X19547619Y-45071429D01*
X19595238Y-45023810D01*
X19642857Y-45071429D01*
X19547619Y-45071429D01*
X20452381Y-45500000D02*
X20500000Y-45547619D01*
X20547619Y-45642857D01*
X20547619Y-45880953D01*
X20500000Y-45976191D01*
X20452381Y-46023810D01*
X20357143Y-46071429D01*
X20261905Y-46071429D01*
X20119048Y-46023810D01*
X19547619Y-45452381D01*
X19547619Y-46071429D01*
D12*
X56619048Y-40071429D02*
X57380953Y-40071429D01*
X56619048Y-49071429D02*
X57380953Y-49071429D01*
X57000001Y-49452381D02*
X57000001Y-48690476D01*
X53213096Y-51570000D02*
X53117858Y-51522381D01*
X52975001Y-51522381D01*
X52832143Y-51570000D01*
X52736905Y-51665238D01*
X52689286Y-51760476D01*
X52641667Y-51950952D01*
X52641667Y-52093810D01*
X52689286Y-52284286D01*
X52736905Y-52379524D01*
X52832143Y-52474762D01*
X52975001Y-52522381D01*
X53070239Y-52522381D01*
X53213096Y-52474762D01*
X53260715Y-52427143D01*
X53260715Y-52093810D01*
X53070239Y-52093810D01*
X53689286Y-52522381D02*
X53689286Y-51522381D01*
X54260715Y-52522381D01*
X54260715Y-51522381D01*
X54736905Y-52522381D02*
X54736905Y-51522381D01*
X54975000Y-51522381D01*
X55117858Y-51570000D01*
X55213096Y-51665238D01*
X55260715Y-51760476D01*
X55308334Y-51950952D01*
X55308334Y-52093810D01*
X55260715Y-52284286D01*
X55213096Y-52379524D01*
X55117858Y-52474762D01*
X54975000Y-52522381D01*
X54736905Y-52522381D01*
X52784524Y-55014762D02*
X52927381Y-55062381D01*
X53165477Y-55062381D01*
X53260715Y-55014762D01*
X53308334Y-54967143D01*
X53355953Y-54871905D01*
X53355953Y-54776667D01*
X53308334Y-54681429D01*
X53260715Y-54633810D01*
X53165477Y-54586190D01*
X52975000Y-54538571D01*
X52879762Y-54490952D01*
X52832143Y-54443333D01*
X52784524Y-54348095D01*
X52784524Y-54252857D01*
X52832143Y-54157619D01*
X52879762Y-54110000D01*
X52975000Y-54062381D01*
X53213096Y-54062381D01*
X53355953Y-54110000D01*
X54355953Y-54967143D02*
X54308334Y-55014762D01*
X54165477Y-55062381D01*
X54070239Y-55062381D01*
X53927381Y-55014762D01*
X53832143Y-54919524D01*
X53784524Y-54824286D01*
X53736905Y-54633810D01*
X53736905Y-54490952D01*
X53784524Y-54300476D01*
X53832143Y-54205238D01*
X53927381Y-54110000D01*
X54070239Y-54062381D01*
X54165477Y-54062381D01*
X54308334Y-54110000D01*
X54355953Y-54157619D01*
X55260715Y-55062381D02*
X54784524Y-55062381D01*
X54784524Y-54062381D01*
X52760714Y-57554762D02*
X52903571Y-57602381D01*
X53141667Y-57602381D01*
X53236905Y-57554762D01*
X53284524Y-57507143D01*
X53332143Y-57411905D01*
X53332143Y-57316667D01*
X53284524Y-57221429D01*
X53236905Y-57173810D01*
X53141667Y-57126190D01*
X52951190Y-57078571D01*
X52855952Y-57030952D01*
X52808333Y-56983333D01*
X52760714Y-56888095D01*
X52760714Y-56792857D01*
X52808333Y-56697619D01*
X52855952Y-56650000D01*
X52951190Y-56602381D01*
X53189286Y-56602381D01*
X53332143Y-56650000D01*
X53760714Y-57602381D02*
X53760714Y-56602381D01*
X53998809Y-56602381D01*
X54141667Y-56650000D01*
X54236905Y-56745238D01*
X54284524Y-56840476D01*
X54332143Y-57030952D01*
X54332143Y-57173810D01*
X54284524Y-57364286D01*
X54236905Y-57459524D01*
X54141667Y-57554762D01*
X53998809Y-57602381D01*
X53760714Y-57602381D01*
X54713095Y-57316667D02*
X55189286Y-57316667D01*
X54617857Y-57602381D02*
X54951190Y-56602381D01*
X55284524Y-57602381D01*
X52736905Y-59142381D02*
X53355953Y-59142381D01*
X53022619Y-59523333D01*
X53165477Y-59523333D01*
X53260715Y-59570952D01*
X53308334Y-59618571D01*
X53355953Y-59713810D01*
X53355953Y-59951905D01*
X53308334Y-60047143D01*
X53260715Y-60094762D01*
X53165477Y-60142381D01*
X52879762Y-60142381D01*
X52784524Y-60094762D01*
X52736905Y-60047143D01*
X53641667Y-59142381D02*
X53975000Y-60142381D01*
X54308334Y-59142381D01*
X54546429Y-59142381D02*
X55165477Y-59142381D01*
X54832143Y-59523333D01*
X54975001Y-59523333D01*
X55070239Y-59570952D01*
X55117858Y-59618571D01*
X55165477Y-59713810D01*
X55165477Y-59951905D01*
X55117858Y-60047143D01*
X55070239Y-60094762D01*
X54975001Y-60142381D01*
X54689286Y-60142381D01*
X54594048Y-60094762D01*
X54546429Y-60047143D01*
D13*
X33945000Y-65040000D02*
X33945000Y-67040000D01*
X33945000Y-67040000D02*
X37845000Y-67040000D01*
X33945000Y-65040000D02*
X37845000Y-65040000D01*
X58430000Y-40520000D02*
X58430000Y-43180000D01*
X58430000Y-43180000D02*
X61170000Y-43180000D01*
X61170000Y-43180000D02*
X61170000Y-40520000D01*
X61170000Y-40520000D02*
X58430000Y-40520000D01*
X61170000Y-41470000D02*
X61170000Y-42350000D01*
X61170000Y-42350000D02*
X67170000Y-42350000D01*
X67170000Y-42350000D02*
X67170000Y-41470000D01*
X67170000Y-41470000D02*
X61170000Y-41470000D01*
X58120000Y-41470000D02*
X58430000Y-41470000D01*
X58120000Y-42350000D02*
X58430000Y-42350000D01*
X61170000Y-41590000D02*
X67170000Y-41590000D01*
X61170000Y-41710000D02*
X67170000Y-41710000D01*
X61170000Y-41830000D02*
X67170000Y-41830000D01*
X61170000Y-41950000D02*
X67170000Y-41950000D01*
X61170000Y-42070000D02*
X67170000Y-42070000D01*
X61170000Y-42190000D02*
X67170000Y-42190000D01*
X61170000Y-42310000D02*
X67170000Y-42310000D01*
X58430000Y-43180000D02*
X58430000Y-45720000D01*
X58430000Y-45720000D02*
X61170000Y-45720000D01*
X61170000Y-45720000D02*
X61170000Y-43180000D01*
X61170000Y-43180000D02*
X58430000Y-43180000D01*
X61170000Y-44010000D02*
X61170000Y-44890000D01*
X61170000Y-44890000D02*
X67170000Y-44890000D01*
X67170000Y-44890000D02*
X67170000Y-44010000D01*
X67170000Y-44010000D02*
X61170000Y-44010000D01*
X58120000Y-44010000D02*
X58430000Y-44010000D01*
X58120000Y-44890000D02*
X58430000Y-44890000D01*
X58430000Y-45720000D02*
X58430000Y-48380000D01*
X58430000Y-48380000D02*
X61170000Y-48380000D01*
X61170000Y-48380000D02*
X61170000Y-45720000D01*
X61170000Y-45720000D02*
X58430000Y-45720000D01*
X61170000Y-46550000D02*
X61170000Y-47430000D01*
X61170000Y-47430000D02*
X67170000Y-47430000D01*
X67170000Y-47430000D02*
X67170000Y-46550000D01*
X67170000Y-46550000D02*
X61170000Y-46550000D01*
X58120000Y-46550000D02*
X58430000Y-46550000D01*
X58120000Y-47430000D02*
X58430000Y-47430000D01*
X55880000Y-41910000D02*
X55880000Y-40640000D01*
X55880000Y-40640000D02*
X57150000Y-40640000D01*
D14*
X54415000Y-42180000D02*
X54415000Y-44180000D01*
X52265000Y-44180000D02*
X52265000Y-42180000D01*
D13*
X33060000Y-61985000D02*
X35060000Y-61985000D01*
X35060000Y-59935000D02*
X33060000Y-59935000D01*
D14*
X43375000Y-50530000D02*
X43375000Y-48530000D01*
X45525000Y-48530000D02*
X45525000Y-50530000D01*
X38295000Y-50530000D02*
X38295000Y-48530000D01*
X40445000Y-48530000D02*
X40445000Y-50530000D01*
X46795000Y-29480000D02*
X46795000Y-31480000D01*
X44645000Y-31480000D02*
X44645000Y-29480000D01*
X32750000Y-55685000D02*
X30750000Y-55685000D01*
X30750000Y-53535000D02*
X32750000Y-53535000D01*
X46989998Y-58420000D02*
G75*
G03X46989998Y-58420000I-5080001J0D01*
G01*
X41909997Y-57149999D02*
X41274997Y-57785000D01*
X41274997Y-57149999D02*
X41909997Y-57149999D01*
X41274997Y-57785000D02*
X41274997Y-57149999D01*
X41274997Y-57785000D02*
X41909997Y-57149999D01*
X42544997Y-59690000D02*
X41274997Y-59690000D01*
X42544997Y-57149999D02*
X42544997Y-59690000D01*
X41274997Y-57149999D02*
X42544997Y-57149999D01*
X41274997Y-59690000D02*
X41274997Y-57149999D01*
X42544997Y-52070000D02*
X41274997Y-52070000D01*
X42544997Y-53340000D02*
X42544997Y-52070000D01*
X41274997Y-53340000D02*
X41274997Y-52070000D01*
D15*
X35018980Y-48531780D02*
X35018980Y-50528220D01*
X31021020Y-50528220D02*
X31021020Y-48531780D01*
X35019465Y-48529752D02*
G75*
G03X33919160Y-47231300I-1435585J-101088D01*
G01*
X31020535Y-50530248D02*
G75*
G03X32120840Y-51828700I1435585J101088D01*
G01*
X33920948Y-51827627D02*
G75*
G03X35018980Y-50528220I-337068J1398467D01*
G01*
X32119052Y-47232373D02*
G75*
G03X31021020Y-48531780I337068J-1398467D01*
G01*
D16*
X30180280Y-24671020D02*
X29182060Y-24671020D01*
X29182060Y-24671020D02*
X29182060Y-39771320D01*
X29182060Y-39771320D02*
X43180000Y-39771320D01*
X43180000Y-39771320D02*
X43180000Y-25369520D01*
X43180000Y-25369520D02*
X42181780Y-25369520D01*
X41480740Y-26271220D02*
X31780480Y-26271220D01*
X41582340Y-23911560D02*
X32382460Y-23911560D01*
X41582340Y-23009860D02*
X32382460Y-23009860D01*
X41582340Y-19210020D02*
X32382460Y-19210020D01*
X41483280Y-26271220D02*
G75*
G03X42181780Y-25369520I-101600J800100D01*
G01*
X30180280Y-24671020D02*
G75*
G03X31780480Y-26271220I1600200J0D01*
G01*
X42781220Y-25110440D02*
G75*
G03X41582340Y-23911560I-1198880J0D01*
G01*
X32379920Y-23911560D02*
G75*
G03X31081980Y-25011380I-99060J-1198880D01*
G01*
X42783760Y-24211280D02*
G75*
G03X41582340Y-23009860I-1201420J0D01*
G01*
X32382460Y-23012400D02*
G75*
G03X31081980Y-24109680I-101600J-1198880D01*
G01*
X42783760Y-20411440D02*
G75*
G03X41582340Y-19210020I-1201420J0D01*
G01*
X32382460Y-19212560D02*
G75*
G03X31081980Y-20309840I-101600J-1198880D01*
G01*
D14*
X55610000Y-37905000D02*
X53610000Y-37905000D01*
X53610000Y-35755000D02*
X55610000Y-35755000D01*
X43450000Y-43375000D02*
X45450000Y-43375000D01*
X45450000Y-45525000D02*
X43450000Y-45525000D01*
D15*
X52070000Y-28940760D02*
X53070760Y-27940000D01*
X53370480Y-27940000D02*
X55880000Y-27940000D01*
X56149240Y-27940000D02*
X57150000Y-28940760D01*
X57150000Y-28940760D02*
X57150000Y-32019240D01*
X57150000Y-32019240D02*
X56149240Y-33020000D01*
X55849520Y-33020000D02*
X53370480Y-33020000D01*
X53070760Y-33020000D02*
X52070000Y-32019240D01*
X52070000Y-32019240D02*
X52070000Y-28940760D01*
D16*
X55880000Y-32385000D02*
X55054500Y-32385000D01*
X55054500Y-32385000D02*
X54602380Y-32639000D01*
X54381400Y-32385000D02*
X53497480Y-32385000D01*
D17*
X55508026Y-30480000D02*
G75*
G03X55508026Y-30480000I-898026J0D01*
G01*
D13*
X58430000Y-50680000D02*
X58430000Y-53340000D01*
X58430000Y-53340000D02*
X61170000Y-53340000D01*
X61170000Y-53340000D02*
X61170000Y-50680000D01*
X61170000Y-50680000D02*
X58430000Y-50680000D01*
X61170000Y-51630000D02*
X61170000Y-52510000D01*
X61170000Y-52510000D02*
X67170000Y-52510000D01*
X67170000Y-52510000D02*
X67170000Y-51630000D01*
X67170000Y-51630000D02*
X61170000Y-51630000D01*
X58120000Y-51630000D02*
X58430000Y-51630000D01*
X58120000Y-52510000D02*
X58430000Y-52510000D01*
X61170000Y-51750000D02*
X67170000Y-51750000D01*
X61170000Y-51870000D02*
X67170000Y-51870000D01*
X61170000Y-51990000D02*
X67170000Y-51990000D01*
X61170000Y-52110000D02*
X67170000Y-52110000D01*
X61170000Y-52230000D02*
X67170000Y-52230000D01*
X61170000Y-52350000D02*
X67170000Y-52350000D01*
X61170000Y-52470000D02*
X67170000Y-52470000D01*
X58430000Y-53340000D02*
X58430000Y-55880000D01*
X58430000Y-55880000D02*
X61170000Y-55880000D01*
X61170000Y-55880000D02*
X61170000Y-53340000D01*
X61170000Y-53340000D02*
X58430000Y-53340000D01*
X61170000Y-54170000D02*
X61170000Y-55050000D01*
X61170000Y-55050000D02*
X67170000Y-55050000D01*
X67170000Y-55050000D02*
X67170000Y-54170000D01*
X67170000Y-54170000D02*
X61170000Y-54170000D01*
X58120000Y-54170000D02*
X58430000Y-54170000D01*
X58120000Y-55050000D02*
X58430000Y-55050000D01*
X58430000Y-55880000D02*
X58430000Y-58420000D01*
X58430000Y-58420000D02*
X61170000Y-58420000D01*
X61170000Y-58420000D02*
X61170000Y-55880000D01*
X61170000Y-55880000D02*
X58430000Y-55880000D01*
X61170000Y-56710000D02*
X61170000Y-57590000D01*
X61170000Y-57590000D02*
X67170000Y-57590000D01*
X67170000Y-57590000D02*
X67170000Y-56710000D01*
X67170000Y-56710000D02*
X61170000Y-56710000D01*
X58120000Y-56710000D02*
X58430000Y-56710000D01*
X58120000Y-57590000D02*
X58430000Y-57590000D01*
X58430000Y-58420000D02*
X58430000Y-61080000D01*
X58430000Y-61080000D02*
X61170000Y-61080000D01*
X61170000Y-61080000D02*
X61170000Y-58420000D01*
X61170000Y-58420000D02*
X58430000Y-58420000D01*
X61170000Y-59250000D02*
X61170000Y-60130000D01*
X61170000Y-60130000D02*
X67170000Y-60130000D01*
X67170000Y-60130000D02*
X67170000Y-59250000D01*
X67170000Y-59250000D02*
X61170000Y-59250000D01*
X58120000Y-59250000D02*
X58430000Y-59250000D01*
X58120000Y-60130000D02*
X58430000Y-60130000D01*
X55880000Y-52070000D02*
X55880000Y-50800000D01*
X55880000Y-50800000D02*
X57150000Y-50800000D01*
X35600000Y-43600000D02*
X35600000Y-45300000D01*
X35650000Y-45300000D02*
X39700000Y-45300000D01*
X35650000Y-43600000D02*
X39700000Y-43600000D01*
X39660000Y-65040000D02*
X39660000Y-67040000D01*
X39660000Y-67040000D02*
X43560000Y-67040000D01*
X39660000Y-65040000D02*
X43560000Y-65040000D01*
D18*
G36*
X24704975Y-30588015D02*
X24689961Y-30739790D01*
X24662818Y-30890322D01*
X24623578Y-31038904D01*
X24572278Y-31184828D01*
X24525007Y-31294024D01*
X24455994Y-31426198D01*
X24376330Y-31552131D01*
X24286725Y-31671256D01*
X24187888Y-31783007D01*
X24080531Y-31886819D01*
X23965362Y-31982124D01*
X23843093Y-32068357D01*
X23714433Y-32144951D01*
X23580092Y-32211341D01*
X23440780Y-32266959D01*
X23297208Y-32311240D01*
X23228300Y-32328010D01*
X23135504Y-32345588D01*
X23035520Y-32358985D01*
X22932143Y-32367950D01*
X22829168Y-32372233D01*
X22730390Y-32371583D01*
X22646348Y-32366401D01*
X22490921Y-32345640D01*
X22339476Y-32312947D01*
X22192494Y-32268598D01*
X22050455Y-32212870D01*
X21913841Y-32146040D01*
X21783133Y-32068383D01*
X21658811Y-31980175D01*
X21541358Y-31881694D01*
X21431254Y-31773215D01*
X21328980Y-31655015D01*
X21268238Y-31574922D01*
X21235031Y-31526480D01*
X21201561Y-31473375D01*
X21168580Y-31417160D01*
X21136836Y-31359383D01*
X21107081Y-31301596D01*
X21080064Y-31245348D01*
X21056535Y-31192191D01*
X21037244Y-31143673D01*
X21022941Y-31101345D01*
X21014377Y-31066757D01*
X21012160Y-31045625D01*
X21017794Y-31015000D01*
X21032875Y-30986192D01*
X21052292Y-30966226D01*
X21056591Y-30963324D01*
X21061638Y-30960867D01*
X21068498Y-30958806D01*
X21078235Y-30957090D01*
X21091917Y-30955668D01*
X21110608Y-30954491D01*
X21135374Y-30953507D01*
X21167280Y-30952667D01*
X21207392Y-30951920D01*
X21256775Y-30951215D01*
X21316494Y-30950502D01*
X21387615Y-30949731D01*
X21404717Y-30949550D01*
X21479714Y-30948724D01*
X21543143Y-30947925D01*
X21596140Y-30947108D01*
X21639836Y-30946227D01*
X21675364Y-30945236D01*
X21703859Y-30944091D01*
X21726452Y-30942745D01*
X21744278Y-30941153D01*
X21758469Y-30939269D01*
X21770158Y-30937048D01*
X21780479Y-30934444D01*
X21780500Y-30934438D01*
X21842110Y-30913113D01*
X21897886Y-30885828D01*
X21940433Y-30857404D01*
X21976541Y-30829043D01*
X21980404Y-30859309D01*
X21985235Y-30891101D01*
X21992479Y-30931298D01*
X22001331Y-30976022D01*
X22010983Y-31021392D01*
X22020630Y-31063529D01*
X22029467Y-31098552D01*
X22031985Y-31107599D01*
X22045882Y-31149987D01*
X22064290Y-31197624D01*
X22085255Y-31245972D01*
X22106823Y-31290498D01*
X22124646Y-31322742D01*
X22177773Y-31399012D01*
X22239988Y-31466588D01*
X22311003Y-31525339D01*
X22390528Y-31575135D01*
X22478274Y-31615847D01*
X22573952Y-31647342D01*
X22677273Y-31669493D01*
X22787947Y-31682168D01*
X22905685Y-31685237D01*
X22928848Y-31684723D01*
X22986461Y-31682209D01*
X23034908Y-31677995D01*
X23077681Y-31671439D01*
X23118268Y-31661899D01*
X23160160Y-31648733D01*
X23195749Y-31635626D01*
X23243635Y-31614293D01*
X23294072Y-31586911D01*
X23342174Y-31556367D01*
X23383052Y-31525546D01*
X23385088Y-31523819D01*
X23419944Y-31494041D01*
X23452710Y-31504022D01*
X23529869Y-31521539D01*
X23612566Y-31529285D01*
X23698218Y-31527248D01*
X23784240Y-31515419D01*
X23827927Y-31505481D01*
X23856532Y-31497577D01*
X23882393Y-31489592D01*
X23901751Y-31482725D01*
X23908304Y-31479838D01*
X23918114Y-31473982D01*
X23923653Y-31466872D01*
X23926138Y-31455035D01*
X23926784Y-31434999D01*
X23926800Y-31427002D01*
X23921811Y-31369751D01*
X23907033Y-31305529D01*
X23882754Y-31235096D01*
X23849261Y-31159212D01*
X23806842Y-31078638D01*
X23774522Y-31023953D01*
X23730897Y-30953075D01*
X23743031Y-30902275D01*
X23760512Y-30818264D01*
X23774848Y-30727407D01*
X23785458Y-30634571D01*
X23791763Y-30544623D01*
X23793319Y-30480000D01*
X23791544Y-30412450D01*
X23786517Y-30338592D01*
X23778689Y-30262198D01*
X23768510Y-30187040D01*
X23756429Y-30116892D01*
X23742898Y-30055526D01*
X23742499Y-30053957D01*
X23729998Y-30004996D01*
X23768812Y-29943242D01*
X23795738Y-29897857D01*
X23822972Y-29847397D01*
X23849025Y-29794985D01*
X23872404Y-29743745D01*
X23891620Y-29696803D01*
X23905065Y-29657675D01*
X23916185Y-29612873D01*
X23921661Y-29569924D01*
X23922796Y-29540882D01*
X23923625Y-29481240D01*
X23888700Y-29469049D01*
X23817147Y-29448489D01*
X23741795Y-29434860D01*
X23665392Y-29428253D01*
X23590687Y-29428764D01*
X23520430Y-29436486D01*
X23457369Y-29451512D01*
X23449606Y-29454088D01*
X23422893Y-29463292D01*
X23393041Y-29438299D01*
X23320421Y-29385514D01*
X23239784Y-29341551D01*
X23152914Y-29307155D01*
X23061596Y-29283074D01*
X22997849Y-29272970D01*
X22935029Y-29268718D01*
X22863977Y-29269138D01*
X22788135Y-29273901D01*
X22710946Y-29282680D01*
X22635853Y-29295146D01*
X22566297Y-29310971D01*
X22549010Y-29315750D01*
X22504382Y-29330855D01*
X22454605Y-29351369D01*
X22404271Y-29375148D01*
X22357973Y-29400046D01*
X22326265Y-29419778D01*
X22256044Y-29475122D01*
X22193185Y-29540721D01*
X22137769Y-29616420D01*
X22089880Y-29702065D01*
X22049599Y-29797505D01*
X22017009Y-29902585D01*
X21992191Y-30017153D01*
X21986347Y-30052871D01*
X21974685Y-30129482D01*
X21945855Y-30103836D01*
X21911317Y-30078567D01*
X21867569Y-30055072D01*
X21818103Y-30035029D01*
X21777556Y-30022813D01*
X21753451Y-30016215D01*
X21734142Y-30010085D01*
X21722937Y-30005502D01*
X21721689Y-30004628D01*
X21715416Y-29993728D01*
X21707571Y-29973433D01*
X21699062Y-29946805D01*
X21690802Y-29916904D01*
X21683701Y-29886790D01*
X21678817Y-29860512D01*
X21673977Y-29790256D01*
X21681033Y-29722808D01*
X21699787Y-29659156D01*
X21730042Y-29600288D01*
X21730983Y-29598827D01*
X21759487Y-29560857D01*
X21795233Y-29524621D01*
X21840084Y-29488393D01*
X21880059Y-29460688D01*
X21938602Y-29416766D01*
X21987455Y-29368706D01*
X22025995Y-29317463D01*
X22053596Y-29263992D01*
X22069635Y-29209246D01*
X22073721Y-29164743D01*
X22071003Y-29128396D01*
X22063023Y-29102325D01*
X22050042Y-29087095D01*
X22036106Y-29083097D01*
X22025694Y-29087576D01*
X22010390Y-29099365D01*
X21993077Y-29115729D01*
X21976638Y-29133935D01*
X21963954Y-29151250D01*
X21963572Y-29151876D01*
X21933874Y-29194657D01*
X21898488Y-29233471D01*
X21855863Y-29269564D01*
X21804444Y-29304180D01*
X21742678Y-29338565D01*
X21710975Y-29354352D01*
X21673769Y-29372556D01*
X21645559Y-29387156D01*
X21623787Y-29399823D01*
X21605898Y-29412229D01*
X21589333Y-29426045D01*
X21571537Y-29442945D01*
X21563977Y-29450466D01*
X21517754Y-29505713D01*
X21481259Y-29569020D01*
X21454669Y-29640075D01*
X21453282Y-29644975D01*
X21447349Y-29674711D01*
X21442912Y-29713843D01*
X21440050Y-29759143D01*
X21438838Y-29807387D01*
X21439354Y-29855349D01*
X21441673Y-29899802D01*
X21445873Y-29937522D01*
X21446268Y-29940002D01*
X21450351Y-29965882D01*
X21453316Y-29986449D01*
X21454779Y-29998920D01*
X21454781Y-30001355D01*
X21448353Y-30001747D01*
X21430805Y-30002237D01*
X21403718Y-30002796D01*
X21368670Y-30003396D01*
X21327241Y-30004008D01*
X21281012Y-30004603D01*
X21266150Y-30004777D01*
X21212273Y-30005357D01*
X21169575Y-30005669D01*
X21136541Y-30005635D01*
X21111651Y-30005178D01*
X21093389Y-30004219D01*
X21080236Y-30002680D01*
X21070674Y-30000484D01*
X21063186Y-29997552D01*
X21056600Y-29994008D01*
X21033202Y-29973448D01*
X21017899Y-29945189D01*
X21012471Y-29912556D01*
X21012477Y-29911675D01*
X21014825Y-29894307D01*
X21020840Y-29869436D01*
X21029425Y-29841333D01*
X21033704Y-29829125D01*
X21092009Y-29688174D01*
X21162208Y-29551143D01*
X21243916Y-29418715D01*
X21336744Y-29291578D01*
X21337265Y-29290919D01*
X21366725Y-29255714D01*
X21403478Y-29214922D01*
X21445095Y-29170986D01*
X21489149Y-29126351D01*
X21533213Y-29083462D01*
X21574859Y-29044762D01*
X21611660Y-29012697D01*
X21621750Y-29004450D01*
X21691422Y-28951942D01*
X21769350Y-28898986D01*
X21851453Y-28848157D01*
X21933652Y-28802028D01*
X21980525Y-28778067D01*
X22122557Y-28715320D01*
X22267673Y-28664727D01*
X22415243Y-28626296D01*
X22564635Y-28600038D01*
X22715217Y-28585963D01*
X22866358Y-28584079D01*
X23017427Y-28594397D01*
X23167792Y-28616925D01*
X23316822Y-28651673D01*
X23463884Y-28698651D01*
X23599103Y-28753671D01*
X23731000Y-28819981D01*
X23858191Y-28897574D01*
X23979692Y-28985590D01*
X24094519Y-29083169D01*
X24201691Y-29189452D01*
X24300222Y-29303580D01*
X24389131Y-29424692D01*
X24418917Y-29470350D01*
X24447032Y-29517595D01*
X24477454Y-29573374D01*
X24508481Y-29634194D01*
X24538409Y-29696566D01*
X24565537Y-29756997D01*
X24588163Y-29811996D01*
X24596863Y-29835272D01*
X24643025Y-29982644D01*
X24676883Y-30132312D01*
X24698470Y-30283569D01*
X24707823Y-30435706D01*
X24704975Y-30588015D01*
X24704975Y-30588015D01*
G37*
X24704975Y-30588015D02*
X24689961Y-30739790D01*
X24662818Y-30890322D01*
X24623578Y-31038904D01*
X24572278Y-31184828D01*
X24525007Y-31294024D01*
X24455994Y-31426198D01*
X24376330Y-31552131D01*
X24286725Y-31671256D01*
X24187888Y-31783007D01*
X24080531Y-31886819D01*
X23965362Y-31982124D01*
X23843093Y-32068357D01*
X23714433Y-32144951D01*
X23580092Y-32211341D01*
X23440780Y-32266959D01*
X23297208Y-32311240D01*
X23228300Y-32328010D01*
X23135504Y-32345588D01*
X23035520Y-32358985D01*
X22932143Y-32367950D01*
X22829168Y-32372233D01*
X22730390Y-32371583D01*
X22646348Y-32366401D01*
X22490921Y-32345640D01*
X22339476Y-32312947D01*
X22192494Y-32268598D01*
X22050455Y-32212870D01*
X21913841Y-32146040D01*
X21783133Y-32068383D01*
X21658811Y-31980175D01*
X21541358Y-31881694D01*
X21431254Y-31773215D01*
X21328980Y-31655015D01*
X21268238Y-31574922D01*
X21235031Y-31526480D01*
X21201561Y-31473375D01*
X21168580Y-31417160D01*
X21136836Y-31359383D01*
X21107081Y-31301596D01*
X21080064Y-31245348D01*
X21056535Y-31192191D01*
X21037244Y-31143673D01*
X21022941Y-31101345D01*
X21014377Y-31066757D01*
X21012160Y-31045625D01*
X21017794Y-31015000D01*
X21032875Y-30986192D01*
X21052292Y-30966226D01*
X21056591Y-30963324D01*
X21061638Y-30960867D01*
X21068498Y-30958806D01*
X21078235Y-30957090D01*
X21091917Y-30955668D01*
X21110608Y-30954491D01*
X21135374Y-30953507D01*
X21167280Y-30952667D01*
X21207392Y-30951920D01*
X21256775Y-30951215D01*
X21316494Y-30950502D01*
X21387615Y-30949731D01*
X21404717Y-30949550D01*
X21479714Y-30948724D01*
X21543143Y-30947925D01*
X21596140Y-30947108D01*
X21639836Y-30946227D01*
X21675364Y-30945236D01*
X21703859Y-30944091D01*
X21726452Y-30942745D01*
X21744278Y-30941153D01*
X21758469Y-30939269D01*
X21770158Y-30937048D01*
X21780479Y-30934444D01*
X21780500Y-30934438D01*
X21842110Y-30913113D01*
X21897886Y-30885828D01*
X21940433Y-30857404D01*
X21976541Y-30829043D01*
X21980404Y-30859309D01*
X21985235Y-30891101D01*
X21992479Y-30931298D01*
X22001331Y-30976022D01*
X22010983Y-31021392D01*
X22020630Y-31063529D01*
X22029467Y-31098552D01*
X22031985Y-31107599D01*
X22045882Y-31149987D01*
X22064290Y-31197624D01*
X22085255Y-31245972D01*
X22106823Y-31290498D01*
X22124646Y-31322742D01*
X22177773Y-31399012D01*
X22239988Y-31466588D01*
X22311003Y-31525339D01*
X22390528Y-31575135D01*
X22478274Y-31615847D01*
X22573952Y-31647342D01*
X22677273Y-31669493D01*
X22787947Y-31682168D01*
X22905685Y-31685237D01*
X22928848Y-31684723D01*
X22986461Y-31682209D01*
X23034908Y-31677995D01*
X23077681Y-31671439D01*
X23118268Y-31661899D01*
X23160160Y-31648733D01*
X23195749Y-31635626D01*
X23243635Y-31614293D01*
X23294072Y-31586911D01*
X23342174Y-31556367D01*
X23383052Y-31525546D01*
X23385088Y-31523819D01*
X23419944Y-31494041D01*
X23452710Y-31504022D01*
X23529869Y-31521539D01*
X23612566Y-31529285D01*
X23698218Y-31527248D01*
X23784240Y-31515419D01*
X23827927Y-31505481D01*
X23856532Y-31497577D01*
X23882393Y-31489592D01*
X23901751Y-31482725D01*
X23908304Y-31479838D01*
X23918114Y-31473982D01*
X23923653Y-31466872D01*
X23926138Y-31455035D01*
X23926784Y-31434999D01*
X23926800Y-31427002D01*
X23921811Y-31369751D01*
X23907033Y-31305529D01*
X23882754Y-31235096D01*
X23849261Y-31159212D01*
X23806842Y-31078638D01*
X23774522Y-31023953D01*
X23730897Y-30953075D01*
X23743031Y-30902275D01*
X23760512Y-30818264D01*
X23774848Y-30727407D01*
X23785458Y-30634571D01*
X23791763Y-30544623D01*
X23793319Y-30480000D01*
X23791544Y-30412450D01*
X23786517Y-30338592D01*
X23778689Y-30262198D01*
X23768510Y-30187040D01*
X23756429Y-30116892D01*
X23742898Y-30055526D01*
X23742499Y-30053957D01*
X23729998Y-30004996D01*
X23768812Y-29943242D01*
X23795738Y-29897857D01*
X23822972Y-29847397D01*
X23849025Y-29794985D01*
X23872404Y-29743745D01*
X23891620Y-29696803D01*
X23905065Y-29657675D01*
X23916185Y-29612873D01*
X23921661Y-29569924D01*
X23922796Y-29540882D01*
X23923625Y-29481240D01*
X23888700Y-29469049D01*
X23817147Y-29448489D01*
X23741795Y-29434860D01*
X23665392Y-29428253D01*
X23590687Y-29428764D01*
X23520430Y-29436486D01*
X23457369Y-29451512D01*
X23449606Y-29454088D01*
X23422893Y-29463292D01*
X23393041Y-29438299D01*
X23320421Y-29385514D01*
X23239784Y-29341551D01*
X23152914Y-29307155D01*
X23061596Y-29283074D01*
X22997849Y-29272970D01*
X22935029Y-29268718D01*
X22863977Y-29269138D01*
X22788135Y-29273901D01*
X22710946Y-29282680D01*
X22635853Y-29295146D01*
X22566297Y-29310971D01*
X22549010Y-29315750D01*
X22504382Y-29330855D01*
X22454605Y-29351369D01*
X22404271Y-29375148D01*
X22357973Y-29400046D01*
X22326265Y-29419778D01*
X22256044Y-29475122D01*
X22193185Y-29540721D01*
X22137769Y-29616420D01*
X22089880Y-29702065D01*
X22049599Y-29797505D01*
X22017009Y-29902585D01*
X21992191Y-30017153D01*
X21986347Y-30052871D01*
X21974685Y-30129482D01*
X21945855Y-30103836D01*
X21911317Y-30078567D01*
X21867569Y-30055072D01*
X21818103Y-30035029D01*
X21777556Y-30022813D01*
X21753451Y-30016215D01*
X21734142Y-30010085D01*
X21722937Y-30005502D01*
X21721689Y-30004628D01*
X21715416Y-29993728D01*
X21707571Y-29973433D01*
X21699062Y-29946805D01*
X21690802Y-29916904D01*
X21683701Y-29886790D01*
X21678817Y-29860512D01*
X21673977Y-29790256D01*
X21681033Y-29722808D01*
X21699787Y-29659156D01*
X21730042Y-29600288D01*
X21730983Y-29598827D01*
X21759487Y-29560857D01*
X21795233Y-29524621D01*
X21840084Y-29488393D01*
X21880059Y-29460688D01*
X21938602Y-29416766D01*
X21987455Y-29368706D01*
X22025995Y-29317463D01*
X22053596Y-29263992D01*
X22069635Y-29209246D01*
X22073721Y-29164743D01*
X22071003Y-29128396D01*
X22063023Y-29102325D01*
X22050042Y-29087095D01*
X22036106Y-29083097D01*
X22025694Y-29087576D01*
X22010390Y-29099365D01*
X21993077Y-29115729D01*
X21976638Y-29133935D01*
X21963954Y-29151250D01*
X21963572Y-29151876D01*
X21933874Y-29194657D01*
X21898488Y-29233471D01*
X21855863Y-29269564D01*
X21804444Y-29304180D01*
X21742678Y-29338565D01*
X21710975Y-29354352D01*
X21673769Y-29372556D01*
X21645559Y-29387156D01*
X21623787Y-29399823D01*
X21605898Y-29412229D01*
X21589333Y-29426045D01*
X21571537Y-29442945D01*
X21563977Y-29450466D01*
X21517754Y-29505713D01*
X21481259Y-29569020D01*
X21454669Y-29640075D01*
X21453282Y-29644975D01*
X21447349Y-29674711D01*
X21442912Y-29713843D01*
X21440050Y-29759143D01*
X21438838Y-29807387D01*
X21439354Y-29855349D01*
X21441673Y-29899802D01*
X21445873Y-29937522D01*
X21446268Y-29940002D01*
X21450351Y-29965882D01*
X21453316Y-29986449D01*
X21454779Y-29998920D01*
X21454781Y-30001355D01*
X21448353Y-30001747D01*
X21430805Y-30002237D01*
X21403718Y-30002796D01*
X21368670Y-30003396D01*
X21327241Y-30004008D01*
X21281012Y-30004603D01*
X21266150Y-30004777D01*
X21212273Y-30005357D01*
X21169575Y-30005669D01*
X21136541Y-30005635D01*
X21111651Y-30005178D01*
X21093389Y-30004219D01*
X21080236Y-30002680D01*
X21070674Y-30000484D01*
X21063186Y-29997552D01*
X21056600Y-29994008D01*
X21033202Y-29973448D01*
X21017899Y-29945189D01*
X21012471Y-29912556D01*
X21012477Y-29911675D01*
X21014825Y-29894307D01*
X21020840Y-29869436D01*
X21029425Y-29841333D01*
X21033704Y-29829125D01*
X21092009Y-29688174D01*
X21162208Y-29551143D01*
X21243916Y-29418715D01*
X21336744Y-29291578D01*
X21337265Y-29290919D01*
X21366725Y-29255714D01*
X21403478Y-29214922D01*
X21445095Y-29170986D01*
X21489149Y-29126351D01*
X21533213Y-29083462D01*
X21574859Y-29044762D01*
X21611660Y-29012697D01*
X21621750Y-29004450D01*
X21691422Y-28951942D01*
X21769350Y-28898986D01*
X21851453Y-28848157D01*
X21933652Y-28802028D01*
X21980525Y-28778067D01*
X22122557Y-28715320D01*
X22267673Y-28664727D01*
X22415243Y-28626296D01*
X22564635Y-28600038D01*
X22715217Y-28585963D01*
X22866358Y-28584079D01*
X23017427Y-28594397D01*
X23167792Y-28616925D01*
X23316822Y-28651673D01*
X23463884Y-28698651D01*
X23599103Y-28753671D01*
X23731000Y-28819981D01*
X23858191Y-28897574D01*
X23979692Y-28985590D01*
X24094519Y-29083169D01*
X24201691Y-29189452D01*
X24300222Y-29303580D01*
X24389131Y-29424692D01*
X24418917Y-29470350D01*
X24447032Y-29517595D01*
X24477454Y-29573374D01*
X24508481Y-29634194D01*
X24538409Y-29696566D01*
X24565537Y-29756997D01*
X24588163Y-29811996D01*
X24596863Y-29835272D01*
X24643025Y-29982644D01*
X24676883Y-30132312D01*
X24698470Y-30283569D01*
X24707823Y-30435706D01*
X24704975Y-30588015D01*
G36*
X21637109Y-29830170D02*
X21627769Y-29844230D01*
X21615386Y-29850807D01*
X21602563Y-29847924D01*
X21597639Y-29843376D01*
X21589028Y-29825088D01*
X21586942Y-29803113D01*
X21589735Y-29790320D01*
X21600229Y-29776145D01*
X21613482Y-29772188D01*
X21626594Y-29777296D01*
X21636666Y-29790318D01*
X21640798Y-29810102D01*
X21640800Y-29810605D01*
X21637109Y-29830170D01*
X21637109Y-29830170D01*
G37*
X21637109Y-29830170D02*
X21627769Y-29844230D01*
X21615386Y-29850807D01*
X21602563Y-29847924D01*
X21597639Y-29843376D01*
X21589028Y-29825088D01*
X21586942Y-29803113D01*
X21589735Y-29790320D01*
X21600229Y-29776145D01*
X21613482Y-29772188D01*
X21626594Y-29777296D01*
X21636666Y-29790318D01*
X21640798Y-29810102D01*
X21640800Y-29810605D01*
X21637109Y-29830170D01*
G36*
X21656096Y-29976521D02*
X21647027Y-29990467D01*
X21635930Y-29997287D01*
X21634458Y-29997400D01*
X21625678Y-29992234D01*
X21615437Y-29979790D01*
X21606820Y-29964652D01*
X21602910Y-29951400D01*
X21602894Y-29950506D01*
X21606153Y-29933748D01*
X21609559Y-29925962D01*
X21620444Y-29916228D01*
X21633519Y-29916478D01*
X21646180Y-29924937D01*
X21655823Y-29939829D01*
X21659843Y-29959379D01*
X21659850Y-29960259D01*
X21656096Y-29976521D01*
X21656096Y-29976521D01*
G37*
X21656096Y-29976521D02*
X21647027Y-29990467D01*
X21635930Y-29997287D01*
X21634458Y-29997400D01*
X21625678Y-29992234D01*
X21615437Y-29979790D01*
X21606820Y-29964652D01*
X21602910Y-29951400D01*
X21602894Y-29950506D01*
X21606153Y-29933748D01*
X21609559Y-29925962D01*
X21620444Y-29916228D01*
X21633519Y-29916478D01*
X21646180Y-29924937D01*
X21655823Y-29939829D01*
X21659843Y-29959379D01*
X21659850Y-29960259D01*
X21656096Y-29976521D01*
G36*
X21660434Y-29670949D02*
X21648657Y-29687163D01*
X21641096Y-29692441D01*
X21628322Y-29695087D01*
X21619016Y-29688958D01*
X21610054Y-29671905D01*
X21612128Y-29651574D01*
X21624541Y-29631041D01*
X21636203Y-29619651D01*
X21645150Y-29617429D01*
X21651528Y-29620215D01*
X21662460Y-29633382D01*
X21665232Y-29651658D01*
X21660434Y-29670949D01*
X21660434Y-29670949D01*
G37*
X21660434Y-29670949D02*
X21648657Y-29687163D01*
X21641096Y-29692441D01*
X21628322Y-29695087D01*
X21619016Y-29688958D01*
X21610054Y-29671905D01*
X21612128Y-29651574D01*
X21624541Y-29631041D01*
X21636203Y-29619651D01*
X21645150Y-29617429D01*
X21651528Y-29620215D01*
X21662460Y-29633382D01*
X21665232Y-29651658D01*
X21660434Y-29670949D01*
G36*
X21743886Y-29528464D02*
X21731945Y-29544495D01*
X21716903Y-29556086D01*
X21705859Y-29559250D01*
X21691167Y-29554780D01*
X21680823Y-29544261D01*
X21678900Y-29537167D01*
X21682270Y-29527214D01*
X21688751Y-29516262D01*
X21703873Y-29500618D01*
X21720259Y-29492488D01*
X21735074Y-29492057D01*
X21745483Y-29499509D01*
X21748750Y-29512341D01*
X21743886Y-29528464D01*
X21743886Y-29528464D01*
G37*
X21743886Y-29528464D02*
X21731945Y-29544495D01*
X21716903Y-29556086D01*
X21705859Y-29559250D01*
X21691167Y-29554780D01*
X21680823Y-29544261D01*
X21678900Y-29537167D01*
X21682270Y-29527214D01*
X21688751Y-29516262D01*
X21703873Y-29500618D01*
X21720259Y-29492488D01*
X21735074Y-29492057D01*
X21745483Y-29499509D01*
X21748750Y-29512341D01*
X21743886Y-29528464D01*
G36*
X21851150Y-29437204D02*
X21837415Y-29449425D01*
X21819872Y-29456803D01*
X21812250Y-29457650D01*
X21798607Y-29455913D01*
X21793628Y-29448653D01*
X21793200Y-29442228D01*
X21797019Y-29426101D01*
X21802763Y-29417244D01*
X21819064Y-29406357D01*
X21835730Y-29403368D01*
X21849312Y-29407879D01*
X21856362Y-29419487D01*
X21856700Y-29423502D01*
X21851150Y-29437204D01*
X21851150Y-29437204D01*
G37*
X21851150Y-29437204D02*
X21837415Y-29449425D01*
X21819872Y-29456803D01*
X21812250Y-29457650D01*
X21798607Y-29455913D01*
X21793628Y-29448653D01*
X21793200Y-29442228D01*
X21797019Y-29426101D01*
X21802763Y-29417244D01*
X21819064Y-29406357D01*
X21835730Y-29403368D01*
X21849312Y-29407879D01*
X21856362Y-29419487D01*
X21856700Y-29423502D01*
X21851150Y-29437204D01*
G36*
X21948405Y-29360713D02*
X21940338Y-29370940D01*
X21924518Y-29380329D01*
X21910471Y-29380969D01*
X21901109Y-29374294D01*
X21899344Y-29361737D01*
X21902857Y-29352491D01*
X21915225Y-29336851D01*
X21931900Y-29331016D01*
X21937663Y-29330747D01*
X21948564Y-29335307D01*
X21952230Y-29346592D01*
X21948405Y-29360713D01*
X21948405Y-29360713D01*
G37*
X21948405Y-29360713D02*
X21940338Y-29370940D01*
X21924518Y-29380329D01*
X21910471Y-29380969D01*
X21901109Y-29374294D01*
X21899344Y-29361737D01*
X21902857Y-29352491D01*
X21915225Y-29336851D01*
X21931900Y-29331016D01*
X21937663Y-29330747D01*
X21948564Y-29335307D01*
X21952230Y-29346592D01*
X21948405Y-29360713D01*
G36*
X22016677Y-29282679D02*
X22008362Y-29294097D01*
X21995428Y-29297824D01*
X21994868Y-29297752D01*
X21982038Y-29291556D01*
X21979399Y-29279331D01*
X21987229Y-29262993D01*
X21989374Y-29260245D01*
X21998816Y-29250247D01*
X22005600Y-29249576D01*
X22012127Y-29254937D01*
X22018542Y-29268112D01*
X22016677Y-29282679D01*
X22016677Y-29282679D01*
G37*
X22016677Y-29282679D02*
X22008362Y-29294097D01*
X21995428Y-29297824D01*
X21994868Y-29297752D01*
X21982038Y-29291556D01*
X21979399Y-29279331D01*
X21987229Y-29262993D01*
X21989374Y-29260245D01*
X21998816Y-29250247D01*
X22005600Y-29249576D01*
X22012127Y-29254937D01*
X22018542Y-29268112D01*
X22016677Y-29282679D01*
G36*
X24322839Y-49960660D02*
X24275542Y-50241450D01*
X24202871Y-50508198D01*
X24106020Y-50756115D01*
X23986184Y-50980411D01*
X23907738Y-51096277D01*
X23832058Y-51178143D01*
X23737462Y-51242077D01*
X23620476Y-51289202D01*
X23477626Y-51320646D01*
X23305440Y-51337534D01*
X23151629Y-51341327D01*
X23078916Y-51341105D01*
X23017575Y-51339767D01*
X22961344Y-51336347D01*
X22903961Y-51329878D01*
X22839163Y-51319391D01*
X22760689Y-51303919D01*
X22662274Y-51282495D01*
X22537658Y-51254151D01*
X22436666Y-51230872D01*
X22421493Y-51231054D01*
X22434638Y-51243972D01*
X22470291Y-51266518D01*
X22522636Y-51295588D01*
X22585861Y-51328077D01*
X22654152Y-51360878D01*
X22721696Y-51390886D01*
X22778414Y-51413442D01*
X22960011Y-51464333D01*
X23172666Y-51495283D01*
X23414543Y-51506153D01*
X23593778Y-51506751D01*
X23460158Y-51635311D01*
X23254912Y-51816540D01*
X23052081Y-51962025D01*
X22848660Y-52073261D01*
X22641647Y-52151740D01*
X22428036Y-52198957D01*
X22299210Y-52212655D01*
X22098031Y-52210392D01*
X21912216Y-52175105D01*
X21740283Y-52106038D01*
X21580753Y-52002432D01*
X21432143Y-51863531D01*
X21303220Y-51703111D01*
X21259088Y-51643996D01*
X21233202Y-51616504D01*
X21225544Y-51620916D01*
X21236095Y-51657517D01*
X21264838Y-51726588D01*
X21297067Y-51797185D01*
X21394084Y-51966153D01*
X21513350Y-52104846D01*
X21655228Y-52213529D01*
X21820081Y-52292466D01*
X22008272Y-52341919D01*
X22057915Y-52349560D01*
X22163852Y-52363797D01*
X21994518Y-52390430D01*
X21903977Y-52400953D01*
X21784075Y-52409242D01*
X21643035Y-52414883D01*
X21489083Y-52417459D01*
X21458296Y-52417568D01*
X21314280Y-52416965D01*
X21200365Y-52413837D01*
X21109045Y-52406870D01*
X21032810Y-52394755D01*
X20964154Y-52376178D01*
X20895567Y-52349830D01*
X20819542Y-52314397D01*
X20793376Y-52301406D01*
X20662231Y-52215280D01*
X20541628Y-52094184D01*
X20432488Y-51939531D01*
X20335729Y-51752728D01*
X20252272Y-51535187D01*
X20216003Y-51415989D01*
X20193038Y-51335322D01*
X20173678Y-51269409D01*
X20160189Y-51225834D01*
X20155063Y-51212051D01*
X20152184Y-51225288D01*
X20151671Y-51268020D01*
X20153140Y-51332211D01*
X20156212Y-51409825D01*
X20160505Y-51492827D01*
X20165638Y-51573183D01*
X20171230Y-51642856D01*
X20176900Y-51693813D01*
X20178358Y-51703111D01*
X20217835Y-51854652D01*
X20282278Y-52011492D01*
X20337447Y-52113449D01*
X20401900Y-52220483D01*
X20313913Y-52170438D01*
X20118573Y-52051474D01*
X19960261Y-51937817D01*
X19838777Y-51829301D01*
X19753920Y-51725758D01*
X19728545Y-51682532D01*
X19684611Y-51568317D01*
X19653799Y-51427572D01*
X19636552Y-51269195D01*
X19633315Y-51102085D01*
X19644533Y-50935142D01*
X19670651Y-50777265D01*
X19681155Y-50734148D01*
X19720783Y-50570043D01*
X19744342Y-50436387D01*
X19751825Y-50329603D01*
X19743228Y-50246111D01*
X19718545Y-50182332D01*
X19680232Y-50136778D01*
X19618017Y-50103424D01*
X19543560Y-50092063D01*
X19470817Y-50102608D01*
X19413748Y-50134975D01*
X19410361Y-50138416D01*
X19370145Y-50206233D01*
X19346754Y-50302954D01*
X19340093Y-50423875D01*
X19350067Y-50564288D01*
X19376582Y-50719486D01*
X19419544Y-50884764D01*
X19425736Y-50904847D01*
X19448496Y-50980282D01*
X19465167Y-51041101D01*
X19473636Y-51079250D01*
X19473814Y-51088013D01*
X19459020Y-51079231D01*
X19430667Y-51045256D01*
X19393891Y-50993554D01*
X19353826Y-50931587D01*
X19315608Y-50866823D01*
X19294430Y-50827238D01*
X19258171Y-50747373D01*
X19224253Y-50658935D01*
X19209792Y-50614177D01*
X19192110Y-50558299D01*
X19177778Y-50521874D01*
X19170782Y-50513020D01*
X19169488Y-50535197D01*
X19174888Y-50586237D01*
X19185550Y-50658263D01*
X19200042Y-50743397D01*
X19216931Y-50833762D01*
X19234784Y-50921478D01*
X19252170Y-50998670D01*
X19267656Y-51057458D01*
X19272565Y-51072815D01*
X19296713Y-51138908D01*
X19329659Y-51224309D01*
X19365455Y-51313702D01*
X19376746Y-51341146D01*
X19406315Y-51413528D01*
X19429446Y-51472213D01*
X19442947Y-51508989D01*
X19445111Y-51516933D01*
X19434416Y-51510501D01*
X19405600Y-51480248D01*
X19363571Y-51432116D01*
X19313232Y-51372046D01*
X19259491Y-51305980D01*
X19207251Y-51239859D01*
X19161420Y-51179624D01*
X19128017Y-51132873D01*
X19045928Y-51004817D01*
X18979881Y-50888012D01*
X18932178Y-50787161D01*
X18905123Y-50706965D01*
X18899695Y-50666691D01*
X18902652Y-50619345D01*
X18910544Y-50545103D01*
X18922162Y-50454193D01*
X18936093Y-50358188D01*
X18949368Y-50269079D01*
X18959597Y-50194637D01*
X18965854Y-50142069D01*
X18967209Y-50118582D01*
X18966997Y-50118059D01*
X18958505Y-50132193D01*
X18939599Y-50174547D01*
X18913266Y-50238178D01*
X18888730Y-50300063D01*
X18858551Y-50375711D01*
X18833323Y-50435597D01*
X18816049Y-50472800D01*
X18809963Y-50481568D01*
X18802703Y-50462244D01*
X18787516Y-50414394D01*
X18766779Y-50345686D01*
X18747660Y-50280413D01*
X18698355Y-50061918D01*
X18680908Y-49896889D01*
X18670680Y-49708741D01*
X18828422Y-49599799D01*
X18741732Y-49550788D01*
X18683150Y-49511015D01*
X18658279Y-49476061D01*
X18656983Y-49464148D01*
X18659936Y-49430987D01*
X18666472Y-49369624D01*
X18675586Y-49289208D01*
X18684914Y-49210148D01*
X18699988Y-49104553D01*
X18719138Y-48999816D01*
X18740600Y-48903117D01*
X18762606Y-48821639D01*
X18783394Y-48762563D01*
X18801196Y-48733071D01*
X18802378Y-48732242D01*
X18813464Y-48745266D01*
X18832154Y-48787746D01*
X18855783Y-48852937D01*
X18880197Y-48929167D01*
X18905458Y-49009668D01*
X18927311Y-49074009D01*
X18943335Y-49115409D01*
X18950938Y-49127334D01*
X18951176Y-49106757D01*
X18946052Y-49056193D01*
X18936434Y-48982764D01*
X18923191Y-48893595D01*
X18919904Y-48872741D01*
X18905047Y-48774656D01*
X18892771Y-48684477D01*
X18884261Y-48611591D01*
X18880704Y-48565386D01*
X18880666Y-48562329D01*
X18894683Y-48477852D01*
X18935847Y-48371156D01*
X19002830Y-48244618D01*
X19094304Y-48100619D01*
X19208939Y-47941536D01*
X19274526Y-47857082D01*
X19334454Y-47782482D01*
X19385173Y-47720964D01*
X19422630Y-47677318D01*
X19442774Y-47656328D01*
X19445111Y-47655573D01*
X19437298Y-47679300D01*
X19417774Y-47722495D01*
X19409777Y-47738638D01*
X19359454Y-47850640D01*
X19308353Y-47986131D01*
X19261007Y-48131346D01*
X19221950Y-48272521D01*
X19198340Y-48380780D01*
X19178424Y-48497134D01*
X19167372Y-48576973D01*
X19165192Y-48620350D01*
X19171890Y-48627322D01*
X19187472Y-48597946D01*
X19211945Y-48532275D01*
X19215030Y-48523279D01*
X19237762Y-48466867D01*
X19271057Y-48396953D01*
X19311055Y-48320230D01*
X19353896Y-48243394D01*
X19395718Y-48173138D01*
X19432663Y-48116158D01*
X19460869Y-48079148D01*
X19476476Y-48068802D01*
X19476899Y-48069146D01*
X19474318Y-48088522D01*
X19461695Y-48133140D01*
X19444142Y-48186357D01*
X19396221Y-48343195D01*
X19360903Y-48498840D01*
X19338909Y-48646664D01*
X19330961Y-48780037D01*
X19337781Y-48892329D01*
X19358457Y-48973108D01*
X19405753Y-49045451D01*
X19470807Y-49086735D01*
X19547784Y-49095218D01*
X19630850Y-49069158D01*
X19647839Y-49059551D01*
X19691464Y-49025162D01*
X19721650Y-48980685D01*
X19738552Y-48921978D01*
X19742323Y-48844896D01*
X19733117Y-48745297D01*
X19711087Y-48619036D01*
X19676387Y-48461970D01*
X19670874Y-48438741D01*
X19645813Y-48330441D01*
X19629281Y-48247078D01*
X19620004Y-48177259D01*
X19616705Y-48109592D01*
X19618111Y-48032683D01*
X19620223Y-47986323D01*
X19636774Y-47800151D01*
X19666980Y-47644940D01*
X19712442Y-47516001D01*
X19774759Y-47408650D01*
X19844977Y-47328157D01*
X19907476Y-47274492D01*
X19992736Y-47210161D01*
X20090364Y-47142294D01*
X20189962Y-47078016D01*
X20281136Y-47024457D01*
X20311096Y-47008558D01*
X20393560Y-46966488D01*
X20361502Y-47011170D01*
X20275438Y-47154075D01*
X20212688Y-47312550D01*
X20171634Y-47492095D01*
X20150657Y-47698211D01*
X20149088Y-47733179D01*
X20139780Y-47977778D01*
X20206689Y-47753996D01*
X20246949Y-47623733D01*
X20282605Y-47520227D01*
X20317762Y-47433629D01*
X20356523Y-47354086D01*
X20402990Y-47271749D01*
X20417935Y-47246861D01*
X20526063Y-47094113D01*
X20647812Y-46973477D01*
X20789229Y-46880204D01*
X20956362Y-46809546D01*
X20987926Y-46799393D01*
X21053978Y-46780831D01*
X21116968Y-46768267D01*
X21186986Y-46760610D01*
X21274117Y-46756769D01*
X21388451Y-46755652D01*
X21392444Y-46755649D01*
X21482572Y-46757055D01*
X21584054Y-46761004D01*
X21690673Y-46766971D01*
X21796214Y-46774429D01*
X21894459Y-46782852D01*
X21979193Y-46791712D01*
X22044198Y-46800483D01*
X22083259Y-46808639D01*
X22091272Y-46814851D01*
X22069966Y-46822618D01*
X22022065Y-46835006D01*
X21957890Y-46849348D01*
X21957170Y-46849499D01*
X21772023Y-46905139D01*
X21610668Y-46989747D01*
X21472798Y-47103604D01*
X21358108Y-47246989D01*
X21266293Y-47420179D01*
X21230351Y-47513707D01*
X21212647Y-47567394D01*
X21202797Y-47601821D01*
X21202444Y-47609421D01*
X21216206Y-47590946D01*
X21244859Y-47550108D01*
X21282221Y-47495720D01*
X21282507Y-47495300D01*
X21419216Y-47319360D01*
X21566288Y-47178990D01*
X21725658Y-47073083D01*
X21899264Y-47000534D01*
X22089042Y-46960239D01*
X22237021Y-46950574D01*
X22399964Y-46956676D01*
X22554843Y-46980090D01*
X22705832Y-47022854D01*
X22857103Y-47087003D01*
X23012831Y-47174574D01*
X23177189Y-47287601D01*
X23354350Y-47428123D01*
X23529891Y-47581316D01*
X23576121Y-47624224D01*
X23605923Y-47654157D01*
X23613905Y-47665638D01*
X23612592Y-47665315D01*
X23588374Y-47653701D01*
X23539409Y-47629129D01*
X23474355Y-47595964D01*
X23441026Y-47578825D01*
X23288396Y-47506164D01*
X23155468Y-47456823D01*
X23034457Y-47428426D01*
X22917580Y-47418593D01*
X22916658Y-47418583D01*
X22842090Y-47421016D01*
X22763684Y-47428713D01*
X22690361Y-47440108D01*
X22631042Y-47453637D01*
X22594647Y-47467732D01*
X22587506Y-47476358D01*
X22603514Y-47489721D01*
X22644725Y-47511947D01*
X22690495Y-47533033D01*
X22849220Y-47613029D01*
X23004759Y-47712356D01*
X23150222Y-47825223D01*
X23278721Y-47945845D01*
X23383367Y-48068431D01*
X23448425Y-48169870D01*
X23527023Y-48356808D01*
X23571697Y-48554075D01*
X23582951Y-48756810D01*
X23561289Y-48960157D01*
X23507217Y-49159255D01*
X23421238Y-49349248D01*
X23308229Y-49519737D01*
X23266316Y-49570789D01*
X23233607Y-49606260D01*
X23216410Y-49619386D01*
X23215617Y-49619074D01*
X23215466Y-49598115D01*
X23222538Y-49550143D01*
X23235362Y-49484757D01*
X23238216Y-49471656D01*
X23254840Y-49367924D01*
X23265889Y-49235975D01*
X23270612Y-49084913D01*
X23270659Y-49078444D01*
X23267148Y-48908373D01*
X23252219Y-48766083D01*
X23222899Y-48642686D01*
X23176213Y-48529295D01*
X23109185Y-48417021D01*
X23018842Y-48296975D01*
X23002411Y-48276920D01*
X22858571Y-48130306D01*
X22696514Y-48016529D01*
X22516047Y-47935504D01*
X22316977Y-47887141D01*
X22107407Y-47871360D01*
X21967601Y-47877676D01*
X21842787Y-47899855D01*
X21721973Y-47941319D01*
X21594167Y-48005490D01*
X21505988Y-48058562D01*
X21430857Y-48105990D01*
X21599799Y-48150803D01*
X21820564Y-48227085D01*
X22017560Y-48332529D01*
X22190843Y-48467183D01*
X22340469Y-48631095D01*
X22466497Y-48824313D01*
X22518991Y-48928273D01*
X22581928Y-49064150D01*
X22582066Y-49063755D01*
X22582066Y-49397094D01*
X22537068Y-49463314D01*
X22484868Y-49548916D01*
X22461162Y-49610299D01*
X22465899Y-49647762D01*
X22499029Y-49661606D01*
X22503478Y-49661704D01*
X22546469Y-49644711D01*
X22578391Y-49599727D01*
X22595118Y-49535745D01*
X22593252Y-49466021D01*
X22582066Y-49397094D01*
X22582066Y-49063755D01*
X22603371Y-49002638D01*
X22623139Y-48899595D01*
X22620742Y-48771679D01*
X22596547Y-48624154D01*
X22569649Y-48521392D01*
X22547328Y-48443738D01*
X22530661Y-48380719D01*
X22521638Y-48340186D01*
X22520983Y-48329338D01*
X22534910Y-48339541D01*
X22565307Y-48372522D01*
X22605693Y-48421233D01*
X22607197Y-48423122D01*
X22685337Y-48538048D01*
X22757343Y-48674366D01*
X22815273Y-48815884D01*
X22840591Y-48898953D01*
X22864531Y-49048280D01*
X22866568Y-49213064D01*
X22848108Y-49381325D01*
X22810558Y-49541086D01*
X22755327Y-49680367D01*
X22746919Y-49696349D01*
X22647641Y-49841613D01*
X22518465Y-49971999D01*
X22365838Y-50082372D01*
X22196211Y-50167592D01*
X22121422Y-50194657D01*
X22021105Y-50226331D01*
X21952431Y-50245869D01*
X21911404Y-50253213D01*
X21894029Y-50248304D01*
X21896309Y-50231082D01*
X21914250Y-50201490D01*
X21921020Y-50191714D01*
X21953672Y-50137941D01*
X21995205Y-50059395D01*
X22040764Y-49966332D01*
X22085490Y-49869012D01*
X22124528Y-49777692D01*
X22153021Y-49702630D01*
X22154134Y-49699333D01*
X22186515Y-49574440D01*
X22204297Y-49443400D01*
X22206796Y-49318030D01*
X22193331Y-49210149D01*
X22184297Y-49177428D01*
X22128339Y-49066517D01*
X22042700Y-48973478D01*
X21932478Y-48901808D01*
X21802768Y-48855006D01*
X21689759Y-48837910D01*
X21569948Y-48841193D01*
X21468319Y-48871206D01*
X21373244Y-48932069D01*
X21338152Y-48962538D01*
X21291280Y-49014596D01*
X21234348Y-49091135D01*
X21173564Y-49182703D01*
X21115134Y-49279847D01*
X21065265Y-49373117D01*
X21056230Y-49391817D01*
X21002238Y-49506130D01*
X21118894Y-49645065D01*
X21167868Y-49706588D01*
X21231630Y-49791395D01*
X21304257Y-49891349D01*
X21379824Y-49998316D01*
X21442639Y-50089699D01*
X21555837Y-50250431D01*
X21658578Y-50380882D01*
X21755762Y-50485122D01*
X21852292Y-50567223D01*
X21953069Y-50631257D01*
X22062994Y-50681293D01*
X22186968Y-50721403D01*
X22210889Y-50727814D01*
X22317791Y-50747032D01*
X22447572Y-50757230D01*
X22586579Y-50758423D01*
X22721163Y-50750629D01*
X22837672Y-50733862D01*
X22867283Y-50727027D01*
X23037463Y-50664703D01*
X23208316Y-50566027D01*
X23378207Y-50432206D01*
X23545500Y-50264448D01*
X23632541Y-50162203D01*
X23764356Y-49987406D01*
X23867408Y-49821833D01*
X23945796Y-49656376D01*
X24003618Y-49481925D01*
X24044976Y-49289373D01*
X24055364Y-49222710D01*
X24063580Y-49141836D01*
X24069773Y-49033814D01*
X24073810Y-48909079D01*
X24075556Y-48778065D01*
X24074876Y-48651207D01*
X24071637Y-48538940D01*
X24065704Y-48451697D01*
X24065331Y-48448148D01*
X24053193Y-48335259D01*
X24085141Y-48391487D01*
X24139220Y-48504684D01*
X24191122Y-48646944D01*
X24238659Y-48809697D01*
X24279644Y-48984376D01*
X24311890Y-49162412D01*
X24333208Y-49335238D01*
X24336537Y-49376117D01*
X24343569Y-49670620D01*
X24322839Y-49960660D01*
X24322839Y-49960660D01*
G37*
X24322839Y-49960660D02*
X24275542Y-50241450D01*
X24202871Y-50508198D01*
X24106020Y-50756115D01*
X23986184Y-50980411D01*
X23907738Y-51096277D01*
X23832058Y-51178143D01*
X23737462Y-51242077D01*
X23620476Y-51289202D01*
X23477626Y-51320646D01*
X23305440Y-51337534D01*
X23151629Y-51341327D01*
X23078916Y-51341105D01*
X23017575Y-51339767D01*
X22961344Y-51336347D01*
X22903961Y-51329878D01*
X22839163Y-51319391D01*
X22760689Y-51303919D01*
X22662274Y-51282495D01*
X22537658Y-51254151D01*
X22436666Y-51230872D01*
X22421493Y-51231054D01*
X22434638Y-51243972D01*
X22470291Y-51266518D01*
X22522636Y-51295588D01*
X22585861Y-51328077D01*
X22654152Y-51360878D01*
X22721696Y-51390886D01*
X22778414Y-51413442D01*
X22960011Y-51464333D01*
X23172666Y-51495283D01*
X23414543Y-51506153D01*
X23593778Y-51506751D01*
X23460158Y-51635311D01*
X23254912Y-51816540D01*
X23052081Y-51962025D01*
X22848660Y-52073261D01*
X22641647Y-52151740D01*
X22428036Y-52198957D01*
X22299210Y-52212655D01*
X22098031Y-52210392D01*
X21912216Y-52175105D01*
X21740283Y-52106038D01*
X21580753Y-52002432D01*
X21432143Y-51863531D01*
X21303220Y-51703111D01*
X21259088Y-51643996D01*
X21233202Y-51616504D01*
X21225544Y-51620916D01*
X21236095Y-51657517D01*
X21264838Y-51726588D01*
X21297067Y-51797185D01*
X21394084Y-51966153D01*
X21513350Y-52104846D01*
X21655228Y-52213529D01*
X21820081Y-52292466D01*
X22008272Y-52341919D01*
X22057915Y-52349560D01*
X22163852Y-52363797D01*
X21994518Y-52390430D01*
X21903977Y-52400953D01*
X21784075Y-52409242D01*
X21643035Y-52414883D01*
X21489083Y-52417459D01*
X21458296Y-52417568D01*
X21314280Y-52416965D01*
X21200365Y-52413837D01*
X21109045Y-52406870D01*
X21032810Y-52394755D01*
X20964154Y-52376178D01*
X20895567Y-52349830D01*
X20819542Y-52314397D01*
X20793376Y-52301406D01*
X20662231Y-52215280D01*
X20541628Y-52094184D01*
X20432488Y-51939531D01*
X20335729Y-51752728D01*
X20252272Y-51535187D01*
X20216003Y-51415989D01*
X20193038Y-51335322D01*
X20173678Y-51269409D01*
X20160189Y-51225834D01*
X20155063Y-51212051D01*
X20152184Y-51225288D01*
X20151671Y-51268020D01*
X20153140Y-51332211D01*
X20156212Y-51409825D01*
X20160505Y-51492827D01*
X20165638Y-51573183D01*
X20171230Y-51642856D01*
X20176900Y-51693813D01*
X20178358Y-51703111D01*
X20217835Y-51854652D01*
X20282278Y-52011492D01*
X20337447Y-52113449D01*
X20401900Y-52220483D01*
X20313913Y-52170438D01*
X20118573Y-52051474D01*
X19960261Y-51937817D01*
X19838777Y-51829301D01*
X19753920Y-51725758D01*
X19728545Y-51682532D01*
X19684611Y-51568317D01*
X19653799Y-51427572D01*
X19636552Y-51269195D01*
X19633315Y-51102085D01*
X19644533Y-50935142D01*
X19670651Y-50777265D01*
X19681155Y-50734148D01*
X19720783Y-50570043D01*
X19744342Y-50436387D01*
X19751825Y-50329603D01*
X19743228Y-50246111D01*
X19718545Y-50182332D01*
X19680232Y-50136778D01*
X19618017Y-50103424D01*
X19543560Y-50092063D01*
X19470817Y-50102608D01*
X19413748Y-50134975D01*
X19410361Y-50138416D01*
X19370145Y-50206233D01*
X19346754Y-50302954D01*
X19340093Y-50423875D01*
X19350067Y-50564288D01*
X19376582Y-50719486D01*
X19419544Y-50884764D01*
X19425736Y-50904847D01*
X19448496Y-50980282D01*
X19465167Y-51041101D01*
X19473636Y-51079250D01*
X19473814Y-51088013D01*
X19459020Y-51079231D01*
X19430667Y-51045256D01*
X19393891Y-50993554D01*
X19353826Y-50931587D01*
X19315608Y-50866823D01*
X19294430Y-50827238D01*
X19258171Y-50747373D01*
X19224253Y-50658935D01*
X19209792Y-50614177D01*
X19192110Y-50558299D01*
X19177778Y-50521874D01*
X19170782Y-50513020D01*
X19169488Y-50535197D01*
X19174888Y-50586237D01*
X19185550Y-50658263D01*
X19200042Y-50743397D01*
X19216931Y-50833762D01*
X19234784Y-50921478D01*
X19252170Y-50998670D01*
X19267656Y-51057458D01*
X19272565Y-51072815D01*
X19296713Y-51138908D01*
X19329659Y-51224309D01*
X19365455Y-51313702D01*
X19376746Y-51341146D01*
X19406315Y-51413528D01*
X19429446Y-51472213D01*
X19442947Y-51508989D01*
X19445111Y-51516933D01*
X19434416Y-51510501D01*
X19405600Y-51480248D01*
X19363571Y-51432116D01*
X19313232Y-51372046D01*
X19259491Y-51305980D01*
X19207251Y-51239859D01*
X19161420Y-51179624D01*
X19128017Y-51132873D01*
X19045928Y-51004817D01*
X18979881Y-50888012D01*
X18932178Y-50787161D01*
X18905123Y-50706965D01*
X18899695Y-50666691D01*
X18902652Y-50619345D01*
X18910544Y-50545103D01*
X18922162Y-50454193D01*
X18936093Y-50358188D01*
X18949368Y-50269079D01*
X18959597Y-50194637D01*
X18965854Y-50142069D01*
X18967209Y-50118582D01*
X18966997Y-50118059D01*
X18958505Y-50132193D01*
X18939599Y-50174547D01*
X18913266Y-50238178D01*
X18888730Y-50300063D01*
X18858551Y-50375711D01*
X18833323Y-50435597D01*
X18816049Y-50472800D01*
X18809963Y-50481568D01*
X18802703Y-50462244D01*
X18787516Y-50414394D01*
X18766779Y-50345686D01*
X18747660Y-50280413D01*
X18698355Y-50061918D01*
X18680908Y-49896889D01*
X18670680Y-49708741D01*
X18828422Y-49599799D01*
X18741732Y-49550788D01*
X18683150Y-49511015D01*
X18658279Y-49476061D01*
X18656983Y-49464148D01*
X18659936Y-49430987D01*
X18666472Y-49369624D01*
X18675586Y-49289208D01*
X18684914Y-49210148D01*
X18699988Y-49104553D01*
X18719138Y-48999816D01*
X18740600Y-48903117D01*
X18762606Y-48821639D01*
X18783394Y-48762563D01*
X18801196Y-48733071D01*
X18802378Y-48732242D01*
X18813464Y-48745266D01*
X18832154Y-48787746D01*
X18855783Y-48852937D01*
X18880197Y-48929167D01*
X18905458Y-49009668D01*
X18927311Y-49074009D01*
X18943335Y-49115409D01*
X18950938Y-49127334D01*
X18951176Y-49106757D01*
X18946052Y-49056193D01*
X18936434Y-48982764D01*
X18923191Y-48893595D01*
X18919904Y-48872741D01*
X18905047Y-48774656D01*
X18892771Y-48684477D01*
X18884261Y-48611591D01*
X18880704Y-48565386D01*
X18880666Y-48562329D01*
X18894683Y-48477852D01*
X18935847Y-48371156D01*
X19002830Y-48244618D01*
X19094304Y-48100619D01*
X19208939Y-47941536D01*
X19274526Y-47857082D01*
X19334454Y-47782482D01*
X19385173Y-47720964D01*
X19422630Y-47677318D01*
X19442774Y-47656328D01*
X19445111Y-47655573D01*
X19437298Y-47679300D01*
X19417774Y-47722495D01*
X19409777Y-47738638D01*
X19359454Y-47850640D01*
X19308353Y-47986131D01*
X19261007Y-48131346D01*
X19221950Y-48272521D01*
X19198340Y-48380780D01*
X19178424Y-48497134D01*
X19167372Y-48576973D01*
X19165192Y-48620350D01*
X19171890Y-48627322D01*
X19187472Y-48597946D01*
X19211945Y-48532275D01*
X19215030Y-48523279D01*
X19237762Y-48466867D01*
X19271057Y-48396953D01*
X19311055Y-48320230D01*
X19353896Y-48243394D01*
X19395718Y-48173138D01*
X19432663Y-48116158D01*
X19460869Y-48079148D01*
X19476476Y-48068802D01*
X19476899Y-48069146D01*
X19474318Y-48088522D01*
X19461695Y-48133140D01*
X19444142Y-48186357D01*
X19396221Y-48343195D01*
X19360903Y-48498840D01*
X19338909Y-48646664D01*
X19330961Y-48780037D01*
X19337781Y-48892329D01*
X19358457Y-48973108D01*
X19405753Y-49045451D01*
X19470807Y-49086735D01*
X19547784Y-49095218D01*
X19630850Y-49069158D01*
X19647839Y-49059551D01*
X19691464Y-49025162D01*
X19721650Y-48980685D01*
X19738552Y-48921978D01*
X19742323Y-48844896D01*
X19733117Y-48745297D01*
X19711087Y-48619036D01*
X19676387Y-48461970D01*
X19670874Y-48438741D01*
X19645813Y-48330441D01*
X19629281Y-48247078D01*
X19620004Y-48177259D01*
X19616705Y-48109592D01*
X19618111Y-48032683D01*
X19620223Y-47986323D01*
X19636774Y-47800151D01*
X19666980Y-47644940D01*
X19712442Y-47516001D01*
X19774759Y-47408650D01*
X19844977Y-47328157D01*
X19907476Y-47274492D01*
X19992736Y-47210161D01*
X20090364Y-47142294D01*
X20189962Y-47078016D01*
X20281136Y-47024457D01*
X20311096Y-47008558D01*
X20393560Y-46966488D01*
X20361502Y-47011170D01*
X20275438Y-47154075D01*
X20212688Y-47312550D01*
X20171634Y-47492095D01*
X20150657Y-47698211D01*
X20149088Y-47733179D01*
X20139780Y-47977778D01*
X20206689Y-47753996D01*
X20246949Y-47623733D01*
X20282605Y-47520227D01*
X20317762Y-47433629D01*
X20356523Y-47354086D01*
X20402990Y-47271749D01*
X20417935Y-47246861D01*
X20526063Y-47094113D01*
X20647812Y-46973477D01*
X20789229Y-46880204D01*
X20956362Y-46809546D01*
X20987926Y-46799393D01*
X21053978Y-46780831D01*
X21116968Y-46768267D01*
X21186986Y-46760610D01*
X21274117Y-46756769D01*
X21388451Y-46755652D01*
X21392444Y-46755649D01*
X21482572Y-46757055D01*
X21584054Y-46761004D01*
X21690673Y-46766971D01*
X21796214Y-46774429D01*
X21894459Y-46782852D01*
X21979193Y-46791712D01*
X22044198Y-46800483D01*
X22083259Y-46808639D01*
X22091272Y-46814851D01*
X22069966Y-46822618D01*
X22022065Y-46835006D01*
X21957890Y-46849348D01*
X21957170Y-46849499D01*
X21772023Y-46905139D01*
X21610668Y-46989747D01*
X21472798Y-47103604D01*
X21358108Y-47246989D01*
X21266293Y-47420179D01*
X21230351Y-47513707D01*
X21212647Y-47567394D01*
X21202797Y-47601821D01*
X21202444Y-47609421D01*
X21216206Y-47590946D01*
X21244859Y-47550108D01*
X21282221Y-47495720D01*
X21282507Y-47495300D01*
X21419216Y-47319360D01*
X21566288Y-47178990D01*
X21725658Y-47073083D01*
X21899264Y-47000534D01*
X22089042Y-46960239D01*
X22237021Y-46950574D01*
X22399964Y-46956676D01*
X22554843Y-46980090D01*
X22705832Y-47022854D01*
X22857103Y-47087003D01*
X23012831Y-47174574D01*
X23177189Y-47287601D01*
X23354350Y-47428123D01*
X23529891Y-47581316D01*
X23576121Y-47624224D01*
X23605923Y-47654157D01*
X23613905Y-47665638D01*
X23612592Y-47665315D01*
X23588374Y-47653701D01*
X23539409Y-47629129D01*
X23474355Y-47595964D01*
X23441026Y-47578825D01*
X23288396Y-47506164D01*
X23155468Y-47456823D01*
X23034457Y-47428426D01*
X22917580Y-47418593D01*
X22916658Y-47418583D01*
X22842090Y-47421016D01*
X22763684Y-47428713D01*
X22690361Y-47440108D01*
X22631042Y-47453637D01*
X22594647Y-47467732D01*
X22587506Y-47476358D01*
X22603514Y-47489721D01*
X22644725Y-47511947D01*
X22690495Y-47533033D01*
X22849220Y-47613029D01*
X23004759Y-47712356D01*
X23150222Y-47825223D01*
X23278721Y-47945845D01*
X23383367Y-48068431D01*
X23448425Y-48169870D01*
X23527023Y-48356808D01*
X23571697Y-48554075D01*
X23582951Y-48756810D01*
X23561289Y-48960157D01*
X23507217Y-49159255D01*
X23421238Y-49349248D01*
X23308229Y-49519737D01*
X23266316Y-49570789D01*
X23233607Y-49606260D01*
X23216410Y-49619386D01*
X23215617Y-49619074D01*
X23215466Y-49598115D01*
X23222538Y-49550143D01*
X23235362Y-49484757D01*
X23238216Y-49471656D01*
X23254840Y-49367924D01*
X23265889Y-49235975D01*
X23270612Y-49084913D01*
X23270659Y-49078444D01*
X23267148Y-48908373D01*
X23252219Y-48766083D01*
X23222899Y-48642686D01*
X23176213Y-48529295D01*
X23109185Y-48417021D01*
X23018842Y-48296975D01*
X23002411Y-48276920D01*
X22858571Y-48130306D01*
X22696514Y-48016529D01*
X22516047Y-47935504D01*
X22316977Y-47887141D01*
X22107407Y-47871360D01*
X21967601Y-47877676D01*
X21842787Y-47899855D01*
X21721973Y-47941319D01*
X21594167Y-48005490D01*
X21505988Y-48058562D01*
X21430857Y-48105990D01*
X21599799Y-48150803D01*
X21820564Y-48227085D01*
X22017560Y-48332529D01*
X22190843Y-48467183D01*
X22340469Y-48631095D01*
X22466497Y-48824313D01*
X22518991Y-48928273D01*
X22581928Y-49064150D01*
X22582066Y-49063755D01*
X22582066Y-49397094D01*
X22537068Y-49463314D01*
X22484868Y-49548916D01*
X22461162Y-49610299D01*
X22465899Y-49647762D01*
X22499029Y-49661606D01*
X22503478Y-49661704D01*
X22546469Y-49644711D01*
X22578391Y-49599727D01*
X22595118Y-49535745D01*
X22593252Y-49466021D01*
X22582066Y-49397094D01*
X22582066Y-49063755D01*
X22603371Y-49002638D01*
X22623139Y-48899595D01*
X22620742Y-48771679D01*
X22596547Y-48624154D01*
X22569649Y-48521392D01*
X22547328Y-48443738D01*
X22530661Y-48380719D01*
X22521638Y-48340186D01*
X22520983Y-48329338D01*
X22534910Y-48339541D01*
X22565307Y-48372522D01*
X22605693Y-48421233D01*
X22607197Y-48423122D01*
X22685337Y-48538048D01*
X22757343Y-48674366D01*
X22815273Y-48815884D01*
X22840591Y-48898953D01*
X22864531Y-49048280D01*
X22866568Y-49213064D01*
X22848108Y-49381325D01*
X22810558Y-49541086D01*
X22755327Y-49680367D01*
X22746919Y-49696349D01*
X22647641Y-49841613D01*
X22518465Y-49971999D01*
X22365838Y-50082372D01*
X22196211Y-50167592D01*
X22121422Y-50194657D01*
X22021105Y-50226331D01*
X21952431Y-50245869D01*
X21911404Y-50253213D01*
X21894029Y-50248304D01*
X21896309Y-50231082D01*
X21914250Y-50201490D01*
X21921020Y-50191714D01*
X21953672Y-50137941D01*
X21995205Y-50059395D01*
X22040764Y-49966332D01*
X22085490Y-49869012D01*
X22124528Y-49777692D01*
X22153021Y-49702630D01*
X22154134Y-49699333D01*
X22186515Y-49574440D01*
X22204297Y-49443400D01*
X22206796Y-49318030D01*
X22193331Y-49210149D01*
X22184297Y-49177428D01*
X22128339Y-49066517D01*
X22042700Y-48973478D01*
X21932478Y-48901808D01*
X21802768Y-48855006D01*
X21689759Y-48837910D01*
X21569948Y-48841193D01*
X21468319Y-48871206D01*
X21373244Y-48932069D01*
X21338152Y-48962538D01*
X21291280Y-49014596D01*
X21234348Y-49091135D01*
X21173564Y-49182703D01*
X21115134Y-49279847D01*
X21065265Y-49373117D01*
X21056230Y-49391817D01*
X21002238Y-49506130D01*
X21118894Y-49645065D01*
X21167868Y-49706588D01*
X21231630Y-49791395D01*
X21304257Y-49891349D01*
X21379824Y-49998316D01*
X21442639Y-50089699D01*
X21555837Y-50250431D01*
X21658578Y-50380882D01*
X21755762Y-50485122D01*
X21852292Y-50567223D01*
X21953069Y-50631257D01*
X22062994Y-50681293D01*
X22186968Y-50721403D01*
X22210889Y-50727814D01*
X22317791Y-50747032D01*
X22447572Y-50757230D01*
X22586579Y-50758423D01*
X22721163Y-50750629D01*
X22837672Y-50733862D01*
X22867283Y-50727027D01*
X23037463Y-50664703D01*
X23208316Y-50566027D01*
X23378207Y-50432206D01*
X23545500Y-50264448D01*
X23632541Y-50162203D01*
X23764356Y-49987406D01*
X23867408Y-49821833D01*
X23945796Y-49656376D01*
X24003618Y-49481925D01*
X24044976Y-49289373D01*
X24055364Y-49222710D01*
X24063580Y-49141836D01*
X24069773Y-49033814D01*
X24073810Y-48909079D01*
X24075556Y-48778065D01*
X24074876Y-48651207D01*
X24071637Y-48538940D01*
X24065704Y-48451697D01*
X24065331Y-48448148D01*
X24053193Y-48335259D01*
X24085141Y-48391487D01*
X24139220Y-48504684D01*
X24191122Y-48646944D01*
X24238659Y-48809697D01*
X24279644Y-48984376D01*
X24311890Y-49162412D01*
X24333208Y-49335238D01*
X24336537Y-49376117D01*
X24343569Y-49670620D01*
X24322839Y-49960660D01*
G36*
X25044355Y-40751434D02*
X25044044Y-40826793D01*
X25043200Y-40882845D01*
X25041562Y-40922638D01*
X25038862Y-40949217D01*
X25034838Y-40965630D01*
X25029224Y-40974924D01*
X25021756Y-40980145D01*
X25015825Y-40982779D01*
X24995392Y-40988476D01*
X24953937Y-40997787D01*
X24895449Y-41009897D01*
X24823918Y-41023990D01*
X24743334Y-41039253D01*
X24702018Y-41046863D01*
X24619231Y-41062263D01*
X24544265Y-41076763D01*
X24480932Y-41089583D01*
X24433044Y-41099938D01*
X24404413Y-41107047D01*
X24398459Y-41109168D01*
X24388990Y-41123098D01*
X24372159Y-41156094D01*
X24349913Y-41203589D01*
X24324204Y-41261018D01*
X24296979Y-41323814D01*
X24270187Y-41387411D01*
X24245778Y-41447244D01*
X24225701Y-41498745D01*
X24211904Y-41537350D01*
X24206337Y-41558492D01*
X24206306Y-41559335D01*
X24213246Y-41573315D01*
X24232703Y-41605159D01*
X24262720Y-41651855D01*
X24301341Y-41710396D01*
X24346607Y-41777771D01*
X24384106Y-41832820D01*
X24433094Y-41904862D01*
X24476911Y-41970329D01*
X24513602Y-42026217D01*
X24541213Y-42069519D01*
X24557787Y-42097230D01*
X24561800Y-42106006D01*
X24553044Y-42119604D01*
X24528800Y-42147576D01*
X24492111Y-42186921D01*
X24446018Y-42234637D01*
X24393561Y-42287723D01*
X24337781Y-42343177D01*
X24281720Y-42397999D01*
X24228417Y-42449186D01*
X24180915Y-42493739D01*
X24142254Y-42528655D01*
X24115474Y-42550932D01*
X24104142Y-42557700D01*
X24088015Y-42551874D01*
X24056072Y-42534027D01*
X24007457Y-42503601D01*
X23941315Y-42460038D01*
X23856790Y-42402781D01*
X23753026Y-42331274D01*
X23702266Y-42295996D01*
X23653649Y-42263255D01*
X23611357Y-42236832D01*
X23580415Y-42219741D01*
X23566875Y-42214800D01*
X23550710Y-42219603D01*
X23515838Y-42232737D01*
X23466797Y-42252286D01*
X23408123Y-42276336D01*
X23344351Y-42302972D01*
X23280019Y-42330279D01*
X23219662Y-42356341D01*
X23167816Y-42379245D01*
X23129018Y-42397076D01*
X23107804Y-42407917D01*
X23105513Y-42409553D01*
X23101411Y-42423390D01*
X23093460Y-42458662D01*
X23082389Y-42511820D01*
X23068926Y-42579314D01*
X23053798Y-42657597D01*
X23043805Y-42710506D01*
X23027934Y-42794519D01*
X23013270Y-42870703D01*
X23000553Y-42935334D01*
X22990522Y-42984685D01*
X22983916Y-43015030D01*
X22981898Y-43022579D01*
X22975705Y-43028157D01*
X22960135Y-43032479D01*
X22932502Y-43035690D01*
X22890121Y-43037933D01*
X22830305Y-43039353D01*
X22750368Y-43040094D01*
X22651705Y-43040299D01*
X22552364Y-43040181D01*
X22475487Y-43039695D01*
X22418142Y-43038643D01*
X22377393Y-43036827D01*
X22350305Y-43034051D01*
X22333945Y-43030115D01*
X22325378Y-43024824D01*
X22321698Y-43018075D01*
X22316587Y-42996063D01*
X22308543Y-42956100D01*
X22298966Y-42905258D01*
X22294679Y-42881550D01*
X22272319Y-42757801D01*
X22253469Y-42657073D01*
X22237665Y-42577298D01*
X22224443Y-42516409D01*
X22213339Y-42472339D01*
X22203890Y-42443020D01*
X22195631Y-42426385D01*
X22191584Y-42422009D01*
X22174767Y-42413299D01*
X22139218Y-42397362D01*
X22089411Y-42376022D01*
X22029822Y-42351098D01*
X21964926Y-42324411D01*
X21899198Y-42297782D01*
X21837113Y-42273034D01*
X21783147Y-42251985D01*
X21741776Y-42236458D01*
X21717473Y-42228274D01*
X21713474Y-42227464D01*
X21700616Y-42234376D01*
X21669962Y-42253738D01*
X21624588Y-42283520D01*
X21567568Y-42321690D01*
X21501974Y-42366219D01*
X21463480Y-42392600D01*
X21393630Y-42439945D01*
X21329703Y-42481988D01*
X21274982Y-42516672D01*
X21232752Y-42541942D01*
X21206296Y-42555740D01*
X21199831Y-42557700D01*
X21184064Y-42548866D01*
X21153072Y-42523770D01*
X21109172Y-42484515D01*
X21054681Y-42433210D01*
X20991917Y-42371957D01*
X20956592Y-42336686D01*
X20888203Y-42267690D01*
X20835919Y-42214215D01*
X20797808Y-42173900D01*
X20771936Y-42144384D01*
X20756371Y-42123305D01*
X20749179Y-42108303D01*
X20748428Y-42097016D01*
X20752183Y-42087084D01*
X20752208Y-42087038D01*
X20763852Y-42068193D01*
X20787538Y-42032068D01*
X20820851Y-41982264D01*
X20861378Y-41922386D01*
X20906702Y-41856038D01*
X20918417Y-41838983D01*
X20963496Y-41772693D01*
X21003202Y-41712898D01*
X21035397Y-41662937D01*
X21057940Y-41626146D01*
X21068693Y-41605865D01*
X21069300Y-41603542D01*
X21063751Y-41586001D01*
X21048809Y-41551705D01*
X21027033Y-41506310D01*
X21010891Y-41474429D01*
X20986167Y-41423464D01*
X20969456Y-41382639D01*
X20962530Y-41356612D01*
X20963608Y-41350212D01*
X20977747Y-41342727D01*
X21012407Y-41326899D01*
X21064605Y-41304015D01*
X21131361Y-41275363D01*
X21209691Y-41242229D01*
X21296613Y-41205901D01*
X21329993Y-41192058D01*
X21428130Y-41151417D01*
X21526742Y-41110535D01*
X21621119Y-41071366D01*
X21706551Y-41035866D01*
X21778328Y-41005992D01*
X21831743Y-40983698D01*
X21835287Y-40982215D01*
X21893340Y-40958446D01*
X21943760Y-40938801D01*
X21981502Y-40925174D01*
X22001522Y-40919463D01*
X22002447Y-40919400D01*
X22017565Y-40929106D01*
X22041970Y-40954784D01*
X22070862Y-40991272D01*
X22076301Y-40998775D01*
X22167865Y-41109563D01*
X22267312Y-41196364D01*
X22375293Y-41259538D01*
X22492458Y-41299446D01*
X22619459Y-41316450D01*
X22650450Y-41317160D01*
X22777465Y-41306578D01*
X22894164Y-41273408D01*
X23002612Y-41216826D01*
X23104869Y-41136010D01*
X23105547Y-41135377D01*
X23189495Y-41040425D01*
X23252157Y-40934542D01*
X23293403Y-40820851D01*
X23313105Y-40702475D01*
X23311134Y-40582536D01*
X23287362Y-40464157D01*
X23241660Y-40350460D01*
X23173899Y-40244569D01*
X23143740Y-40208580D01*
X23048532Y-40120196D01*
X22942458Y-40054755D01*
X22825929Y-40012439D01*
X22699355Y-39993431D01*
X22658131Y-39992300D01*
X22531248Y-40001355D01*
X22417489Y-40029459D01*
X22314210Y-40078017D01*
X22218772Y-40148438D01*
X22128530Y-40242126D01*
X22085087Y-40297388D01*
X22053461Y-40337429D01*
X22025574Y-40368054D01*
X22005939Y-40384477D01*
X22001510Y-40386000D01*
X21985912Y-40381292D01*
X21949712Y-40367917D01*
X21895744Y-40346999D01*
X21826845Y-40319659D01*
X21745849Y-40287021D01*
X21655592Y-40250207D01*
X21580437Y-40219254D01*
X21480517Y-40177958D01*
X21383842Y-40138057D01*
X21294004Y-40101029D01*
X21214595Y-40068352D01*
X21149206Y-40041506D01*
X21101431Y-40021968D01*
X21082000Y-40014081D01*
X21023336Y-39990060D01*
X20985895Y-39970971D01*
X20967615Y-39951597D01*
X20966435Y-39926721D01*
X20980294Y-39891127D01*
X21007129Y-39839596D01*
X21010527Y-39833214D01*
X21035663Y-39784373D01*
X21055433Y-39742932D01*
X21067191Y-39714603D01*
X21069300Y-39706276D01*
X21062410Y-39691473D01*
X21043088Y-39658956D01*
X21013359Y-39611899D01*
X20975248Y-39553472D01*
X20930781Y-39486849D01*
X20904200Y-39447645D01*
X20857192Y-39378318D01*
X20815392Y-39315957D01*
X20780810Y-39263619D01*
X20755458Y-39224365D01*
X20741345Y-39201252D01*
X20739100Y-39196483D01*
X20747688Y-39185354D01*
X20771822Y-39158851D01*
X20809060Y-39119532D01*
X20856959Y-39069954D01*
X20913077Y-39012675D01*
X20957701Y-38967597D01*
X21019328Y-38906482D01*
X21076045Y-38851896D01*
X21125134Y-38806322D01*
X21163880Y-38772240D01*
X21189566Y-38752132D01*
X21198381Y-38747699D01*
X21214826Y-38754670D01*
X21248769Y-38774204D01*
X21296943Y-38804240D01*
X21356081Y-38842714D01*
X21422916Y-38887562D01*
X21459206Y-38912427D01*
X21528329Y-38959678D01*
X21590981Y-39001668D01*
X21643993Y-39036341D01*
X21684196Y-39061641D01*
X21708421Y-39075512D01*
X21713674Y-39077527D01*
X21731719Y-39072991D01*
X21768556Y-39060271D01*
X21819636Y-39041204D01*
X21880410Y-39017629D01*
X21946332Y-38991383D01*
X22012853Y-38964305D01*
X22075425Y-38938232D01*
X22129500Y-38915002D01*
X22170530Y-38896453D01*
X22193967Y-38884424D01*
X22197109Y-38882157D01*
X22204072Y-38865451D01*
X22214462Y-38827493D01*
X22227420Y-38772068D01*
X22242084Y-38702961D01*
X22257595Y-38623955D01*
X22265482Y-38581463D01*
X22280918Y-38498930D01*
X22295637Y-38424392D01*
X22308830Y-38361627D01*
X22319688Y-38314412D01*
X22327402Y-38286525D01*
X22329854Y-38280975D01*
X22346438Y-38275447D01*
X22383816Y-38270980D01*
X22437808Y-38267563D01*
X22504235Y-38265185D01*
X22578915Y-38263836D01*
X22657669Y-38263505D01*
X22736318Y-38264182D01*
X22810681Y-38265856D01*
X22876578Y-38268518D01*
X22929830Y-38272156D01*
X22966256Y-38276760D01*
X22981677Y-38282320D01*
X22981816Y-38282606D01*
X22985967Y-38299628D01*
X22993979Y-38337910D01*
X23005116Y-38393735D01*
X23018643Y-38463380D01*
X23033824Y-38543127D01*
X23043542Y-38594921D01*
X23059502Y-38678493D01*
X23074571Y-38753730D01*
X23087967Y-38817026D01*
X23098913Y-38864774D01*
X23106628Y-38893368D01*
X23109450Y-38899899D01*
X23126097Y-38909510D01*
X23161559Y-38926424D01*
X23211182Y-38948692D01*
X23270312Y-38974362D01*
X23334296Y-39001484D01*
X23398479Y-39028107D01*
X23458209Y-39052281D01*
X23508832Y-39072054D01*
X23545694Y-39085475D01*
X23564142Y-39090595D01*
X23564369Y-39090600D01*
X23580860Y-39083654D01*
X23614911Y-39064177D01*
X23663278Y-39034206D01*
X23722717Y-38995781D01*
X23789982Y-38950941D01*
X23829776Y-38923844D01*
X23900169Y-38875954D01*
X23964607Y-38832872D01*
X24019814Y-38796729D01*
X24062513Y-38769654D01*
X24089429Y-38753776D01*
X24096311Y-38750590D01*
X24109132Y-38753378D01*
X24131095Y-38767577D01*
X24163846Y-38794629D01*
X24209031Y-38835977D01*
X24268294Y-38893063D01*
X24340786Y-38964834D01*
X24401902Y-39026493D01*
X24456537Y-39082800D01*
X24502237Y-39131127D01*
X24536547Y-39168847D01*
X24557013Y-39193332D01*
X24561800Y-39201384D01*
X24554850Y-39215877D01*
X24535332Y-39248099D01*
X24505246Y-39294972D01*
X24466590Y-39353416D01*
X24421364Y-39420355D01*
X24388521Y-39468220D01*
X24339713Y-39539399D01*
X24295788Y-39604355D01*
X24258818Y-39659951D01*
X24230876Y-39703047D01*
X24214035Y-39730505D01*
X24210015Y-39738509D01*
X24212996Y-39755778D01*
X24224178Y-39791718D01*
X24241724Y-39841663D01*
X24263798Y-39900950D01*
X24288566Y-39964916D01*
X24314192Y-40028898D01*
X24338838Y-40088232D01*
X24360671Y-40138254D01*
X24377853Y-40174300D01*
X24388333Y-40191493D01*
X24404465Y-40197907D01*
X24442020Y-40207971D01*
X24497410Y-40220877D01*
X24567052Y-40235817D01*
X24647360Y-40251986D01*
X24711956Y-40264343D01*
X24797637Y-40280575D01*
X24875142Y-40295634D01*
X24940937Y-40308804D01*
X24991485Y-40319366D01*
X25023249Y-40326603D01*
X25032631Y-40329424D01*
X25036023Y-40343811D01*
X25038990Y-40380489D01*
X25041418Y-40436352D01*
X25043194Y-40508294D01*
X25044206Y-40593208D01*
X25044400Y-40653721D01*
X25044355Y-40751434D01*
X25044355Y-40751434D01*
G37*
X25044355Y-40751434D02*
X25044044Y-40826793D01*
X25043200Y-40882845D01*
X25041562Y-40922638D01*
X25038862Y-40949217D01*
X25034838Y-40965630D01*
X25029224Y-40974924D01*
X25021756Y-40980145D01*
X25015825Y-40982779D01*
X24995392Y-40988476D01*
X24953937Y-40997787D01*
X24895449Y-41009897D01*
X24823918Y-41023990D01*
X24743334Y-41039253D01*
X24702018Y-41046863D01*
X24619231Y-41062263D01*
X24544265Y-41076763D01*
X24480932Y-41089583D01*
X24433044Y-41099938D01*
X24404413Y-41107047D01*
X24398459Y-41109168D01*
X24388990Y-41123098D01*
X24372159Y-41156094D01*
X24349913Y-41203589D01*
X24324204Y-41261018D01*
X24296979Y-41323814D01*
X24270187Y-41387411D01*
X24245778Y-41447244D01*
X24225701Y-41498745D01*
X24211904Y-41537350D01*
X24206337Y-41558492D01*
X24206306Y-41559335D01*
X24213246Y-41573315D01*
X24232703Y-41605159D01*
X24262720Y-41651855D01*
X24301341Y-41710396D01*
X24346607Y-41777771D01*
X24384106Y-41832820D01*
X24433094Y-41904862D01*
X24476911Y-41970329D01*
X24513602Y-42026217D01*
X24541213Y-42069519D01*
X24557787Y-42097230D01*
X24561800Y-42106006D01*
X24553044Y-42119604D01*
X24528800Y-42147576D01*
X24492111Y-42186921D01*
X24446018Y-42234637D01*
X24393561Y-42287723D01*
X24337781Y-42343177D01*
X24281720Y-42397999D01*
X24228417Y-42449186D01*
X24180915Y-42493739D01*
X24142254Y-42528655D01*
X24115474Y-42550932D01*
X24104142Y-42557700D01*
X24088015Y-42551874D01*
X24056072Y-42534027D01*
X24007457Y-42503601D01*
X23941315Y-42460038D01*
X23856790Y-42402781D01*
X23753026Y-42331274D01*
X23702266Y-42295996D01*
X23653649Y-42263255D01*
X23611357Y-42236832D01*
X23580415Y-42219741D01*
X23566875Y-42214800D01*
X23550710Y-42219603D01*
X23515838Y-42232737D01*
X23466797Y-42252286D01*
X23408123Y-42276336D01*
X23344351Y-42302972D01*
X23280019Y-42330279D01*
X23219662Y-42356341D01*
X23167816Y-42379245D01*
X23129018Y-42397076D01*
X23107804Y-42407917D01*
X23105513Y-42409553D01*
X23101411Y-42423390D01*
X23093460Y-42458662D01*
X23082389Y-42511820D01*
X23068926Y-42579314D01*
X23053798Y-42657597D01*
X23043805Y-42710506D01*
X23027934Y-42794519D01*
X23013270Y-42870703D01*
X23000553Y-42935334D01*
X22990522Y-42984685D01*
X22983916Y-43015030D01*
X22981898Y-43022579D01*
X22975705Y-43028157D01*
X22960135Y-43032479D01*
X22932502Y-43035690D01*
X22890121Y-43037933D01*
X22830305Y-43039353D01*
X22750368Y-43040094D01*
X22651705Y-43040299D01*
X22552364Y-43040181D01*
X22475487Y-43039695D01*
X22418142Y-43038643D01*
X22377393Y-43036827D01*
X22350305Y-43034051D01*
X22333945Y-43030115D01*
X22325378Y-43024824D01*
X22321698Y-43018075D01*
X22316587Y-42996063D01*
X22308543Y-42956100D01*
X22298966Y-42905258D01*
X22294679Y-42881550D01*
X22272319Y-42757801D01*
X22253469Y-42657073D01*
X22237665Y-42577298D01*
X22224443Y-42516409D01*
X22213339Y-42472339D01*
X22203890Y-42443020D01*
X22195631Y-42426385D01*
X22191584Y-42422009D01*
X22174767Y-42413299D01*
X22139218Y-42397362D01*
X22089411Y-42376022D01*
X22029822Y-42351098D01*
X21964926Y-42324411D01*
X21899198Y-42297782D01*
X21837113Y-42273034D01*
X21783147Y-42251985D01*
X21741776Y-42236458D01*
X21717473Y-42228274D01*
X21713474Y-42227464D01*
X21700616Y-42234376D01*
X21669962Y-42253738D01*
X21624588Y-42283520D01*
X21567568Y-42321690D01*
X21501974Y-42366219D01*
X21463480Y-42392600D01*
X21393630Y-42439945D01*
X21329703Y-42481988D01*
X21274982Y-42516672D01*
X21232752Y-42541942D01*
X21206296Y-42555740D01*
X21199831Y-42557700D01*
X21184064Y-42548866D01*
X21153072Y-42523770D01*
X21109172Y-42484515D01*
X21054681Y-42433210D01*
X20991917Y-42371957D01*
X20956592Y-42336686D01*
X20888203Y-42267690D01*
X20835919Y-42214215D01*
X20797808Y-42173900D01*
X20771936Y-42144384D01*
X20756371Y-42123305D01*
X20749179Y-42108303D01*
X20748428Y-42097016D01*
X20752183Y-42087084D01*
X20752208Y-42087038D01*
X20763852Y-42068193D01*
X20787538Y-42032068D01*
X20820851Y-41982264D01*
X20861378Y-41922386D01*
X20906702Y-41856038D01*
X20918417Y-41838983D01*
X20963496Y-41772693D01*
X21003202Y-41712898D01*
X21035397Y-41662937D01*
X21057940Y-41626146D01*
X21068693Y-41605865D01*
X21069300Y-41603542D01*
X21063751Y-41586001D01*
X21048809Y-41551705D01*
X21027033Y-41506310D01*
X21010891Y-41474429D01*
X20986167Y-41423464D01*
X20969456Y-41382639D01*
X20962530Y-41356612D01*
X20963608Y-41350212D01*
X20977747Y-41342727D01*
X21012407Y-41326899D01*
X21064605Y-41304015D01*
X21131361Y-41275363D01*
X21209691Y-41242229D01*
X21296613Y-41205901D01*
X21329993Y-41192058D01*
X21428130Y-41151417D01*
X21526742Y-41110535D01*
X21621119Y-41071366D01*
X21706551Y-41035866D01*
X21778328Y-41005992D01*
X21831743Y-40983698D01*
X21835287Y-40982215D01*
X21893340Y-40958446D01*
X21943760Y-40938801D01*
X21981502Y-40925174D01*
X22001522Y-40919463D01*
X22002447Y-40919400D01*
X22017565Y-40929106D01*
X22041970Y-40954784D01*
X22070862Y-40991272D01*
X22076301Y-40998775D01*
X22167865Y-41109563D01*
X22267312Y-41196364D01*
X22375293Y-41259538D01*
X22492458Y-41299446D01*
X22619459Y-41316450D01*
X22650450Y-41317160D01*
X22777465Y-41306578D01*
X22894164Y-41273408D01*
X23002612Y-41216826D01*
X23104869Y-41136010D01*
X23105547Y-41135377D01*
X23189495Y-41040425D01*
X23252157Y-40934542D01*
X23293403Y-40820851D01*
X23313105Y-40702475D01*
X23311134Y-40582536D01*
X23287362Y-40464157D01*
X23241660Y-40350460D01*
X23173899Y-40244569D01*
X23143740Y-40208580D01*
X23048532Y-40120196D01*
X22942458Y-40054755D01*
X22825929Y-40012439D01*
X22699355Y-39993431D01*
X22658131Y-39992300D01*
X22531248Y-40001355D01*
X22417489Y-40029459D01*
X22314210Y-40078017D01*
X22218772Y-40148438D01*
X22128530Y-40242126D01*
X22085087Y-40297388D01*
X22053461Y-40337429D01*
X22025574Y-40368054D01*
X22005939Y-40384477D01*
X22001510Y-40386000D01*
X21985912Y-40381292D01*
X21949712Y-40367917D01*
X21895744Y-40346999D01*
X21826845Y-40319659D01*
X21745849Y-40287021D01*
X21655592Y-40250207D01*
X21580437Y-40219254D01*
X21480517Y-40177958D01*
X21383842Y-40138057D01*
X21294004Y-40101029D01*
X21214595Y-40068352D01*
X21149206Y-40041506D01*
X21101431Y-40021968D01*
X21082000Y-40014081D01*
X21023336Y-39990060D01*
X20985895Y-39970971D01*
X20967615Y-39951597D01*
X20966435Y-39926721D01*
X20980294Y-39891127D01*
X21007129Y-39839596D01*
X21010527Y-39833214D01*
X21035663Y-39784373D01*
X21055433Y-39742932D01*
X21067191Y-39714603D01*
X21069300Y-39706276D01*
X21062410Y-39691473D01*
X21043088Y-39658956D01*
X21013359Y-39611899D01*
X20975248Y-39553472D01*
X20930781Y-39486849D01*
X20904200Y-39447645D01*
X20857192Y-39378318D01*
X20815392Y-39315957D01*
X20780810Y-39263619D01*
X20755458Y-39224365D01*
X20741345Y-39201252D01*
X20739100Y-39196483D01*
X20747688Y-39185354D01*
X20771822Y-39158851D01*
X20809060Y-39119532D01*
X20856959Y-39069954D01*
X20913077Y-39012675D01*
X20957701Y-38967597D01*
X21019328Y-38906482D01*
X21076045Y-38851896D01*
X21125134Y-38806322D01*
X21163880Y-38772240D01*
X21189566Y-38752132D01*
X21198381Y-38747699D01*
X21214826Y-38754670D01*
X21248769Y-38774204D01*
X21296943Y-38804240D01*
X21356081Y-38842714D01*
X21422916Y-38887562D01*
X21459206Y-38912427D01*
X21528329Y-38959678D01*
X21590981Y-39001668D01*
X21643993Y-39036341D01*
X21684196Y-39061641D01*
X21708421Y-39075512D01*
X21713674Y-39077527D01*
X21731719Y-39072991D01*
X21768556Y-39060271D01*
X21819636Y-39041204D01*
X21880410Y-39017629D01*
X21946332Y-38991383D01*
X22012853Y-38964305D01*
X22075425Y-38938232D01*
X22129500Y-38915002D01*
X22170530Y-38896453D01*
X22193967Y-38884424D01*
X22197109Y-38882157D01*
X22204072Y-38865451D01*
X22214462Y-38827493D01*
X22227420Y-38772068D01*
X22242084Y-38702961D01*
X22257595Y-38623955D01*
X22265482Y-38581463D01*
X22280918Y-38498930D01*
X22295637Y-38424392D01*
X22308830Y-38361627D01*
X22319688Y-38314412D01*
X22327402Y-38286525D01*
X22329854Y-38280975D01*
X22346438Y-38275447D01*
X22383816Y-38270980D01*
X22437808Y-38267563D01*
X22504235Y-38265185D01*
X22578915Y-38263836D01*
X22657669Y-38263505D01*
X22736318Y-38264182D01*
X22810681Y-38265856D01*
X22876578Y-38268518D01*
X22929830Y-38272156D01*
X22966256Y-38276760D01*
X22981677Y-38282320D01*
X22981816Y-38282606D01*
X22985967Y-38299628D01*
X22993979Y-38337910D01*
X23005116Y-38393735D01*
X23018643Y-38463380D01*
X23033824Y-38543127D01*
X23043542Y-38594921D01*
X23059502Y-38678493D01*
X23074571Y-38753730D01*
X23087967Y-38817026D01*
X23098913Y-38864774D01*
X23106628Y-38893368D01*
X23109450Y-38899899D01*
X23126097Y-38909510D01*
X23161559Y-38926424D01*
X23211182Y-38948692D01*
X23270312Y-38974362D01*
X23334296Y-39001484D01*
X23398479Y-39028107D01*
X23458209Y-39052281D01*
X23508832Y-39072054D01*
X23545694Y-39085475D01*
X23564142Y-39090595D01*
X23564369Y-39090600D01*
X23580860Y-39083654D01*
X23614911Y-39064177D01*
X23663278Y-39034206D01*
X23722717Y-38995781D01*
X23789982Y-38950941D01*
X23829776Y-38923844D01*
X23900169Y-38875954D01*
X23964607Y-38832872D01*
X24019814Y-38796729D01*
X24062513Y-38769654D01*
X24089429Y-38753776D01*
X24096311Y-38750590D01*
X24109132Y-38753378D01*
X24131095Y-38767577D01*
X24163846Y-38794629D01*
X24209031Y-38835977D01*
X24268294Y-38893063D01*
X24340786Y-38964834D01*
X24401902Y-39026493D01*
X24456537Y-39082800D01*
X24502237Y-39131127D01*
X24536547Y-39168847D01*
X24557013Y-39193332D01*
X24561800Y-39201384D01*
X24554850Y-39215877D01*
X24535332Y-39248099D01*
X24505246Y-39294972D01*
X24466590Y-39353416D01*
X24421364Y-39420355D01*
X24388521Y-39468220D01*
X24339713Y-39539399D01*
X24295788Y-39604355D01*
X24258818Y-39659951D01*
X24230876Y-39703047D01*
X24214035Y-39730505D01*
X24210015Y-39738509D01*
X24212996Y-39755778D01*
X24224178Y-39791718D01*
X24241724Y-39841663D01*
X24263798Y-39900950D01*
X24288566Y-39964916D01*
X24314192Y-40028898D01*
X24338838Y-40088232D01*
X24360671Y-40138254D01*
X24377853Y-40174300D01*
X24388333Y-40191493D01*
X24404465Y-40197907D01*
X24442020Y-40207971D01*
X24497410Y-40220877D01*
X24567052Y-40235817D01*
X24647360Y-40251986D01*
X24711956Y-40264343D01*
X24797637Y-40280575D01*
X24875142Y-40295634D01*
X24940937Y-40308804D01*
X24991485Y-40319366D01*
X25023249Y-40326603D01*
X25032631Y-40329424D01*
X25036023Y-40343811D01*
X25038990Y-40380489D01*
X25041418Y-40436352D01*
X25043194Y-40508294D01*
X25044206Y-40593208D01*
X25044400Y-40653721D01*
X25044355Y-40751434D01*
D14*
X36853905Y-64460381D02*
X36853905Y-63460381D01*
X37092000Y-63460381D01*
X37234858Y-63508000D01*
X37330096Y-63603238D01*
X37377715Y-63698476D01*
X37425334Y-63888952D01*
X37425334Y-64031810D01*
X37377715Y-64222286D01*
X37330096Y-64317524D01*
X37234858Y-64412762D01*
X37092000Y-64460381D01*
X36853905Y-64460381D01*
X38377715Y-64460381D02*
X37806286Y-64460381D01*
X38092000Y-64460381D02*
X38092000Y-63460381D01*
X37996762Y-63603238D01*
X37901524Y-63698476D01*
X37806286Y-63746095D01*
X58690000Y-39822381D02*
X58690000Y-38822381D01*
X59070953Y-38822381D01*
X59166191Y-38870000D01*
X59213810Y-38917619D01*
X59261429Y-39012857D01*
X59261429Y-39155714D01*
X59213810Y-39250952D01*
X59166191Y-39298571D01*
X59070953Y-39346190D01*
X58690000Y-39346190D01*
X59690000Y-39822381D02*
X59690000Y-38822381D01*
X60737619Y-39822381D02*
X60404285Y-39346190D01*
X60166190Y-39822381D02*
X60166190Y-38822381D01*
X60547143Y-38822381D01*
X60642381Y-38870000D01*
X60690000Y-38917619D01*
X60737619Y-39012857D01*
X60737619Y-39155714D01*
X60690000Y-39250952D01*
X60642381Y-39298571D01*
X60547143Y-39346190D01*
X60166190Y-39346190D01*
X53173334Y-40457381D02*
X52840000Y-39981190D01*
X52601905Y-40457381D02*
X52601905Y-39457381D01*
X52982858Y-39457381D01*
X53078096Y-39505000D01*
X53125715Y-39552619D01*
X53173334Y-39647857D01*
X53173334Y-39790714D01*
X53125715Y-39885952D01*
X53078096Y-39933571D01*
X52982858Y-39981190D01*
X52601905Y-39981190D01*
X54125715Y-40457381D02*
X53554286Y-40457381D01*
X53840000Y-40457381D02*
X53840000Y-39457381D01*
X53744762Y-39600238D01*
X53649524Y-39695476D01*
X53554286Y-39743095D01*
X33893334Y-63617143D02*
X33845715Y-63664762D01*
X33702858Y-63712381D01*
X33607620Y-63712381D01*
X33464762Y-63664762D01*
X33369524Y-63569524D01*
X33321905Y-63474286D01*
X33274286Y-63283810D01*
X33274286Y-63140952D01*
X33321905Y-62950476D01*
X33369524Y-62855238D01*
X33464762Y-62760000D01*
X33607620Y-62712381D01*
X33702858Y-62712381D01*
X33845715Y-62760000D01*
X33893334Y-62807619D01*
X34845715Y-63712381D02*
X34274286Y-63712381D01*
X34560000Y-63712381D02*
X34560000Y-62712381D01*
X34464762Y-62855238D01*
X34369524Y-62950476D01*
X34274286Y-62998095D01*
X44283334Y-47061381D02*
X43950000Y-46585190D01*
X43711905Y-47061381D02*
X43711905Y-46061381D01*
X44092858Y-46061381D01*
X44188096Y-46109000D01*
X44235715Y-46156619D01*
X44283334Y-46251857D01*
X44283334Y-46394714D01*
X44235715Y-46489952D01*
X44188096Y-46537571D01*
X44092858Y-46585190D01*
X43711905Y-46585190D01*
X44664286Y-46156619D02*
X44711905Y-46109000D01*
X44807143Y-46061381D01*
X45045239Y-46061381D01*
X45140477Y-46109000D01*
X45188096Y-46156619D01*
X45235715Y-46251857D01*
X45235715Y-46347095D01*
X45188096Y-46489952D01*
X44616667Y-47061381D01*
X45235715Y-47061381D01*
X39203334Y-47061381D02*
X38870000Y-46585190D01*
X38631905Y-47061381D02*
X38631905Y-46061381D01*
X39012858Y-46061381D01*
X39108096Y-46109000D01*
X39155715Y-46156619D01*
X39203334Y-46251857D01*
X39203334Y-46394714D01*
X39155715Y-46489952D01*
X39108096Y-46537571D01*
X39012858Y-46585190D01*
X38631905Y-46585190D01*
X39536667Y-46061381D02*
X40155715Y-46061381D01*
X39822381Y-46442333D01*
X39965239Y-46442333D01*
X40060477Y-46489952D01*
X40108096Y-46537571D01*
X40155715Y-46632810D01*
X40155715Y-46870905D01*
X40108096Y-46966143D01*
X40060477Y-47013762D01*
X39965239Y-47061381D01*
X39679524Y-47061381D01*
X39584286Y-47013762D01*
X39536667Y-46966143D01*
X45299334Y-28138381D02*
X44966000Y-27662190D01*
X44727905Y-28138381D02*
X44727905Y-27138381D01*
X45108858Y-27138381D01*
X45204096Y-27186000D01*
X45251715Y-27233619D01*
X45299334Y-27328857D01*
X45299334Y-27471714D01*
X45251715Y-27566952D01*
X45204096Y-27614571D01*
X45108858Y-27662190D01*
X44727905Y-27662190D01*
X46156477Y-27471714D02*
X46156477Y-28138381D01*
X45918381Y-27090762D02*
X45680286Y-27805048D01*
X46299334Y-27805048D01*
X34885334Y-53792381D02*
X34552000Y-53316190D01*
X34313905Y-53792381D02*
X34313905Y-52792381D01*
X34694858Y-52792381D01*
X34790096Y-52840000D01*
X34837715Y-52887619D01*
X34885334Y-52982857D01*
X34885334Y-53125714D01*
X34837715Y-53220952D01*
X34790096Y-53268571D01*
X34694858Y-53316190D01*
X34313905Y-53316190D01*
X35742477Y-52792381D02*
X35552000Y-52792381D01*
X35456762Y-52840000D01*
X35409143Y-52887619D01*
X35313905Y-53030476D01*
X35266286Y-53220952D01*
X35266286Y-53601905D01*
X35313905Y-53697143D01*
X35361524Y-53744762D01*
X35456762Y-53792381D01*
X35647239Y-53792381D01*
X35742477Y-53744762D01*
X35790096Y-53697143D01*
X35837715Y-53601905D01*
X35837715Y-53363810D01*
X35790096Y-53268571D01*
X35742477Y-53220952D01*
X35647239Y-53173333D01*
X35456762Y-53173333D01*
X35361524Y-53220952D01*
X35313905Y-53268571D01*
X35266286Y-53363810D01*
X31535000Y-67566667D02*
X31535000Y-66866667D01*
X31768333Y-67366667D01*
X32001666Y-66866667D01*
X32001666Y-67566667D01*
X32668333Y-67566667D02*
X32335000Y-67566667D01*
X32335000Y-66866667D01*
X32835000Y-66866667D02*
X33301667Y-67566667D01*
X33301667Y-66866667D02*
X32835000Y-67566667D01*
X27686096Y-65540000D02*
X27590858Y-65492381D01*
X27448001Y-65492381D01*
X27305143Y-65540000D01*
X27209905Y-65635238D01*
X27162286Y-65730476D01*
X27114667Y-65920952D01*
X27114667Y-66063810D01*
X27162286Y-66254286D01*
X27209905Y-66349524D01*
X27305143Y-66444762D01*
X27448001Y-66492381D01*
X27543239Y-66492381D01*
X27686096Y-66444762D01*
X27733715Y-66397143D01*
X27733715Y-66063810D01*
X27543239Y-66063810D01*
X28162286Y-66492381D02*
X28162286Y-65492381D01*
X28733715Y-66492381D01*
X28733715Y-65492381D01*
X29209905Y-66492381D02*
X29209905Y-65492381D01*
X29448000Y-65492381D01*
X29590858Y-65540000D01*
X29686096Y-65635238D01*
X29733715Y-65730476D01*
X29781334Y-65920952D01*
X29781334Y-66063810D01*
X29733715Y-66254286D01*
X29686096Y-66349524D01*
X29590858Y-66444762D01*
X29448000Y-66492381D01*
X29209905Y-66492381D01*
X37338095Y-52792381D02*
X37338095Y-53601905D01*
X37385714Y-53697143D01*
X37433333Y-53744762D01*
X37528571Y-53792381D01*
X37719048Y-53792381D01*
X37814286Y-53744762D01*
X37861905Y-53697143D01*
X37909524Y-53601905D01*
X37909524Y-52792381D01*
X38338095Y-52887619D02*
X38385714Y-52840000D01*
X38480952Y-52792381D01*
X38719048Y-52792381D01*
X38814286Y-52840000D01*
X38861905Y-52887619D01*
X38909524Y-52982857D01*
X38909524Y-53078095D01*
X38861905Y-53220952D01*
X38290476Y-53792381D01*
X38909524Y-53792381D01*
X48204381Y-61761238D02*
X47204381Y-61761238D01*
X47918667Y-61427904D01*
X47204381Y-61094571D01*
X48204381Y-61094571D01*
X48204381Y-60142190D02*
X48204381Y-60618381D01*
X47204381Y-60618381D01*
X47204381Y-59904095D02*
X48204381Y-59237428D01*
X47204381Y-59237428D02*
X48204381Y-59904095D01*
X48204381Y-58808857D02*
X48204381Y-58618381D01*
X48156762Y-58523142D01*
X48109143Y-58475523D01*
X47966286Y-58380285D01*
X47775810Y-58332666D01*
X47394857Y-58332666D01*
X47299619Y-58380285D01*
X47252000Y-58427904D01*
X47204381Y-58523142D01*
X47204381Y-58713619D01*
X47252000Y-58808857D01*
X47299619Y-58856476D01*
X47394857Y-58904095D01*
X47632952Y-58904095D01*
X47728190Y-58856476D01*
X47775810Y-58808857D01*
X47823429Y-58713619D01*
X47823429Y-58523142D01*
X47775810Y-58427904D01*
X47728190Y-58380285D01*
X47632952Y-58332666D01*
X47204381Y-57713619D02*
X47204381Y-57618380D01*
X47252000Y-57523142D01*
X47299619Y-57475523D01*
X47394857Y-57427904D01*
X47585333Y-57380285D01*
X47823429Y-57380285D01*
X48013905Y-57427904D01*
X48109143Y-57475523D01*
X48156762Y-57523142D01*
X48204381Y-57618380D01*
X48204381Y-57713619D01*
X48156762Y-57808857D01*
X48109143Y-57856476D01*
X48013905Y-57904095D01*
X47823429Y-57951714D01*
X47585333Y-57951714D01*
X47394857Y-57904095D01*
X47299619Y-57856476D01*
X47252000Y-57808857D01*
X47204381Y-57713619D01*
X47204381Y-56523142D02*
X47204381Y-56713619D01*
X47252000Y-56808857D01*
X47299619Y-56856476D01*
X47442476Y-56951714D01*
X47632952Y-56999333D01*
X48013905Y-56999333D01*
X48109143Y-56951714D01*
X48156762Y-56904095D01*
X48204381Y-56808857D01*
X48204381Y-56618380D01*
X48156762Y-56523142D01*
X48109143Y-56475523D01*
X48013905Y-56427904D01*
X47775810Y-56427904D01*
X47680571Y-56475523D01*
X47632952Y-56523142D01*
X47585333Y-56618380D01*
X47585333Y-56808857D01*
X47632952Y-56904095D01*
X47680571Y-56951714D01*
X47775810Y-56999333D01*
X47299619Y-56046952D02*
X47252000Y-55999333D01*
X47204381Y-55904095D01*
X47204381Y-55665999D01*
X47252000Y-55570761D01*
X47299619Y-55523142D01*
X47394857Y-55475523D01*
X47490095Y-55475523D01*
X47632952Y-55523142D01*
X48204381Y-56094571D01*
X48204381Y-55475523D01*
X48204381Y-54523142D02*
X48204381Y-55094571D01*
X48204381Y-54808857D02*
X47204381Y-54808857D01*
X47347238Y-54904095D01*
X47442476Y-54999333D01*
X47490095Y-55094571D01*
X41671902Y-55014762D02*
X41576664Y-55062381D01*
X41386187Y-55062381D01*
X41290949Y-55014762D01*
X41243330Y-54967143D01*
X41195711Y-54871905D01*
X41195711Y-54586190D01*
X41243330Y-54490952D01*
X41290949Y-54443333D01*
X41386187Y-54395714D01*
X41576664Y-54395714D01*
X41671902Y-54443333D01*
X42290949Y-54062381D02*
X42386188Y-54062381D01*
X42481426Y-54110000D01*
X42529045Y-54157619D01*
X42576664Y-54252857D01*
X42624283Y-54443333D01*
X42624283Y-54681429D01*
X42576664Y-54871905D01*
X42529045Y-54967143D01*
X42481426Y-55014762D01*
X42386188Y-55062381D01*
X42290949Y-55062381D01*
X42195711Y-55014762D01*
X42148092Y-54967143D01*
X42100473Y-54871905D01*
X42052854Y-54681429D01*
X42052854Y-54443333D01*
X42100473Y-54252857D01*
X42148092Y-54157619D01*
X42195711Y-54110000D01*
X42290949Y-54062381D01*
X41195712Y-62634762D02*
X41100474Y-62682381D01*
X40909997Y-62682381D01*
X40814759Y-62634762D01*
X40767140Y-62587143D01*
X40719521Y-62491905D01*
X40719521Y-62206190D01*
X40767140Y-62110952D01*
X40814759Y-62063333D01*
X40909997Y-62015714D01*
X41100474Y-62015714D01*
X41195712Y-62063333D01*
X42148093Y-62682381D02*
X41576664Y-62682381D01*
X41862378Y-62682381D02*
X41862378Y-61682381D01*
X41767140Y-61825238D01*
X41671902Y-61920476D01*
X41576664Y-61968095D01*
X43052855Y-61682381D02*
X42576664Y-61682381D01*
X42529045Y-62158571D01*
X42576664Y-62110952D01*
X42671902Y-62063333D01*
X42909998Y-62063333D01*
X43005236Y-62110952D01*
X43052855Y-62158571D01*
X43100474Y-62253810D01*
X43100474Y-62491905D01*
X43052855Y-62587143D01*
X43005236Y-62634762D01*
X42909998Y-62682381D01*
X42671902Y-62682381D01*
X42576664Y-62634762D01*
X42529045Y-62587143D01*
X38552378Y-58967619D02*
X37885711Y-58967619D01*
X38076187Y-58967619D02*
X37980949Y-58920000D01*
X37933330Y-58872381D01*
X37885711Y-58777143D01*
X37885711Y-58681904D01*
X37552378Y-58158095D02*
X37552378Y-58062856D01*
X37599997Y-57967618D01*
X37647616Y-57919999D01*
X37742854Y-57872380D01*
X37933330Y-57824761D01*
X38171426Y-57824761D01*
X38361902Y-57872380D01*
X38457140Y-57919999D01*
X38504759Y-57967618D01*
X38552378Y-58062856D01*
X38552378Y-58158095D01*
X38504759Y-58253333D01*
X38457140Y-58300952D01*
X38361902Y-58348571D01*
X38171426Y-58396190D01*
X37933330Y-58396190D01*
X37742854Y-58348571D01*
X37647616Y-58300952D01*
X37599997Y-58253333D01*
X37552378Y-58158095D01*
X46172378Y-58967619D02*
X45505711Y-58967619D01*
X45696187Y-58967619D02*
X45600949Y-58920000D01*
X45553330Y-58872381D01*
X45505711Y-58777143D01*
X45505711Y-58681904D01*
X45172378Y-58443809D02*
X45172378Y-57824761D01*
X45553330Y-58158095D01*
X45553330Y-58015237D01*
X45600949Y-57919999D01*
X45648568Y-57872380D01*
X45743807Y-57824761D01*
X45981902Y-57824761D01*
X46077140Y-57872380D01*
X46124759Y-57919999D01*
X46172378Y-58015237D01*
X46172378Y-58300952D01*
X46124759Y-58396190D01*
X46077140Y-58443809D01*
D19*
X32884534Y-49897695D02*
X32613601Y-49510648D01*
X32420077Y-49897695D02*
X32420077Y-49084895D01*
X32729715Y-49084895D01*
X32807124Y-49123600D01*
X32845829Y-49162305D01*
X32884534Y-49239714D01*
X32884534Y-49355829D01*
X32845829Y-49433238D01*
X32807124Y-49471943D01*
X32729715Y-49510648D01*
X32420077Y-49510648D01*
X33619924Y-49084895D02*
X33232877Y-49084895D01*
X33194172Y-49471943D01*
X33232877Y-49433238D01*
X33310286Y-49394533D01*
X33503810Y-49394533D01*
X33581220Y-49433238D01*
X33619924Y-49471943D01*
X33658629Y-49549352D01*
X33658629Y-49742876D01*
X33619924Y-49820286D01*
X33581220Y-49858990D01*
X33503810Y-49897695D01*
X33310286Y-49897695D01*
X33232877Y-49858990D01*
X33194172Y-49820286D01*
D17*
X35166905Y-37208944D02*
X35166905Y-35938944D01*
X35590238Y-36846087D01*
X36013572Y-35938944D01*
X36013572Y-37208944D01*
X37283572Y-37208944D02*
X36557858Y-37208944D01*
X36920715Y-37208944D02*
X36920715Y-35938944D01*
X36799763Y-36120372D01*
X36678810Y-36241325D01*
X36557858Y-36301801D01*
D14*
X29609143Y-33709429D02*
X29609143Y-32185429D01*
X30117143Y-33274000D01*
X30625143Y-32185429D01*
X30625143Y-33709429D01*
X31350857Y-33709429D02*
X31350857Y-32185429D01*
X32947428Y-33564286D02*
X32874857Y-33636857D01*
X32657143Y-33709429D01*
X32512000Y-33709429D01*
X32294285Y-33636857D01*
X32149143Y-33491714D01*
X32076571Y-33346571D01*
X32004000Y-33056286D01*
X32004000Y-32838571D01*
X32076571Y-32548286D01*
X32149143Y-32403143D01*
X32294285Y-32258000D01*
X32512000Y-32185429D01*
X32657143Y-32185429D01*
X32874857Y-32258000D01*
X32947428Y-32330571D01*
X34471428Y-33709429D02*
X33963428Y-32983714D01*
X33600571Y-33709429D02*
X33600571Y-32185429D01*
X34181143Y-32185429D01*
X34326285Y-32258000D01*
X34398857Y-32330571D01*
X34471428Y-32475714D01*
X34471428Y-32693429D01*
X34398857Y-32838571D01*
X34326285Y-32911143D01*
X34181143Y-32983714D01*
X33600571Y-32983714D01*
X35414857Y-32185429D02*
X35705143Y-32185429D01*
X35850285Y-32258000D01*
X35995428Y-32403143D01*
X36068000Y-32693429D01*
X36068000Y-33201429D01*
X35995428Y-33491714D01*
X35850285Y-33636857D01*
X35705143Y-33709429D01*
X35414857Y-33709429D01*
X35269714Y-33636857D01*
X35124571Y-33491714D01*
X35052000Y-33201429D01*
X35052000Y-32693429D01*
X35124571Y-32403143D01*
X35269714Y-32258000D01*
X35414857Y-32185429D01*
X36648571Y-33636857D02*
X36866285Y-33709429D01*
X37229142Y-33709429D01*
X37374285Y-33636857D01*
X37446856Y-33564286D01*
X37519428Y-33419143D01*
X37519428Y-33274000D01*
X37446856Y-33128857D01*
X37374285Y-33056286D01*
X37229142Y-32983714D01*
X36938856Y-32911143D01*
X36793714Y-32838571D01*
X36721142Y-32766000D01*
X36648571Y-32620857D01*
X36648571Y-32475714D01*
X36721142Y-32330571D01*
X36793714Y-32258000D01*
X36938856Y-32185429D01*
X37301714Y-32185429D01*
X37519428Y-32258000D01*
X38172571Y-33709429D02*
X38172571Y-32185429D01*
X38535428Y-32185429D01*
X38753143Y-32258000D01*
X38898285Y-32403143D01*
X38970857Y-32548286D01*
X39043428Y-32838571D01*
X39043428Y-33056286D01*
X38970857Y-33346571D01*
X38898285Y-33491714D01*
X38753143Y-33636857D01*
X38535428Y-33709429D01*
X38172571Y-33709429D01*
X54443334Y-34982381D02*
X54110000Y-34506190D01*
X53871905Y-34982381D02*
X53871905Y-33982381D01*
X54252858Y-33982381D01*
X54348096Y-34030000D01*
X54395715Y-34077619D01*
X54443334Y-34172857D01*
X54443334Y-34315714D01*
X54395715Y-34410952D01*
X54348096Y-34458571D01*
X54252858Y-34506190D01*
X53871905Y-34506190D01*
X54776667Y-33982381D02*
X55443334Y-33982381D01*
X55014762Y-34982381D01*
X42505334Y-42870381D02*
X42172000Y-42394190D01*
X41933905Y-42870381D02*
X41933905Y-41870381D01*
X42314858Y-41870381D01*
X42410096Y-41918000D01*
X42457715Y-41965619D01*
X42505334Y-42060857D01*
X42505334Y-42203714D01*
X42457715Y-42298952D01*
X42410096Y-42346571D01*
X42314858Y-42394190D01*
X41933905Y-42394190D01*
X43076762Y-42298952D02*
X42981524Y-42251333D01*
X42933905Y-42203714D01*
X42886286Y-42108476D01*
X42886286Y-42060857D01*
X42933905Y-41965619D01*
X42981524Y-41918000D01*
X43076762Y-41870381D01*
X43267239Y-41870381D01*
X43362477Y-41918000D01*
X43410096Y-41965619D01*
X43457715Y-42060857D01*
X43457715Y-42108476D01*
X43410096Y-42203714D01*
X43362477Y-42251333D01*
X43267239Y-42298952D01*
X43076762Y-42298952D01*
X42981524Y-42346571D01*
X42933905Y-42394190D01*
X42886286Y-42489429D01*
X42886286Y-42679905D01*
X42933905Y-42775143D01*
X42981524Y-42822762D01*
X43076762Y-42870381D01*
X43267239Y-42870381D01*
X43362477Y-42822762D01*
X43410096Y-42775143D01*
X43457715Y-42679905D01*
X43457715Y-42489429D01*
X43410096Y-42394190D01*
X43362477Y-42346571D01*
X43267239Y-42298952D01*
D12*
X56764762Y-31368905D02*
X56812381Y-31226048D01*
X56812381Y-30987952D01*
X56764762Y-30892714D01*
X56717143Y-30845095D01*
X56621905Y-30797476D01*
X56526667Y-30797476D01*
X56431429Y-30845095D01*
X56383810Y-30892714D01*
X56336190Y-30987952D01*
X56288571Y-31178429D01*
X56240952Y-31273667D01*
X56193333Y-31321286D01*
X56098095Y-31368905D01*
X56002857Y-31368905D01*
X55907619Y-31321286D01*
X55860000Y-31273667D01*
X55812381Y-31178429D01*
X55812381Y-30940333D01*
X55860000Y-30797476D01*
X56812381Y-29845095D02*
X56812381Y-30416524D01*
X56812381Y-30130810D02*
X55812381Y-30130810D01*
X55955238Y-30226048D01*
X56050476Y-30321286D01*
X56098095Y-30416524D01*
D14*
X61131667Y-49252381D02*
X61131667Y-49966667D01*
X61084047Y-50109524D01*
X60988809Y-50204762D01*
X60845952Y-50252381D01*
X60750714Y-50252381D01*
X62131667Y-50252381D02*
X61560238Y-50252381D01*
X61845952Y-50252381D02*
X61845952Y-49252381D01*
X61750714Y-49395238D01*
X61655476Y-49490476D01*
X61560238Y-49538095D01*
X37361905Y-43302381D02*
X37361905Y-42302381D01*
X37600000Y-42302381D01*
X37742858Y-42350000D01*
X37838096Y-42445238D01*
X37885715Y-42540476D01*
X37933334Y-42730952D01*
X37933334Y-42873810D01*
X37885715Y-43064286D01*
X37838096Y-43159524D01*
X37742858Y-43254762D01*
X37600000Y-43302381D01*
X37361905Y-43302381D01*
X38314286Y-42397619D02*
X38361905Y-42350000D01*
X38457143Y-42302381D01*
X38695239Y-42302381D01*
X38790477Y-42350000D01*
X38838096Y-42397619D01*
X38885715Y-42492857D01*
X38885715Y-42588095D01*
X38838096Y-42730952D01*
X38266667Y-43302381D01*
X38885715Y-43302381D01*
X44473905Y-66492381D02*
X44473905Y-65492381D01*
X44712000Y-65492381D01*
X44854858Y-65540000D01*
X44950096Y-65635238D01*
X44997715Y-65730476D01*
X45045334Y-65920952D01*
X45045334Y-66063810D01*
X44997715Y-66254286D01*
X44950096Y-66349524D01*
X44854858Y-66444762D01*
X44712000Y-66492381D01*
X44473905Y-66492381D01*
X45378667Y-65492381D02*
X45997715Y-65492381D01*
X45664381Y-65873333D01*
X45807239Y-65873333D01*
X45902477Y-65920952D01*
X45950096Y-65968571D01*
X45997715Y-66063810D01*
X45997715Y-66301905D01*
X45950096Y-66397143D01*
X45902477Y-66444762D01*
X45807239Y-66492381D01*
X45521524Y-66492381D01*
X45426286Y-66444762D01*
X45378667Y-66397143D01*
M02*
