G04 #@! TF.FileFunction,Copper,L1,Top,Signal*
%FSLAX46Y46*%
G04 Gerber Fmt 4.6, Leading zero omitted, Abs format (unit mm)*
G04 Created by KiCad (PCBNEW 4.0.5) date 04/16/17 14:29:44*
%MOMM*%
%LPD*%
G01*
G04 APERTURE LIST*
%ADD10C,0.100000*%
%ADD11C,0.812800*%
%ADD12R,0.900000X1.200000*%
%ADD13R,1.700000X1.700000*%
%ADD14O,1.700000X1.700000*%
%ADD15R,1.700000X0.900000*%
%ADD16O,2.000000X1.600000*%
%ADD17R,1.000000X1.600000*%
%ADD18R,0.900000X1.700000*%
%ADD19R,0.508000X0.508000*%
%ADD20C,2.000000*%
%ADD21C,1.676400*%
%ADD22R,0.698500X1.498600*%
%ADD23R,1.798320X1.399540*%
%ADD24R,1.399540X1.899920*%
%ADD25R,0.762000X1.524000*%
%ADD26R,1.500000X1.500000*%
%ADD27C,0.600000*%
%ADD28C,0.812800*%
%ADD29C,0.812400*%
%ADD30C,0.606900*%
%ADD31C,0.304800*%
%ADD32C,0.254000*%
G04 APERTURE END LIST*
D10*
D11*
X52705000Y-46990000D03*
X46990000Y-50165000D03*
X44450000Y-64135000D03*
X56515000Y-64770000D03*
X20955000Y-65405000D03*
X21590000Y-49530000D03*
X22860000Y-40640000D03*
X22860000Y-30480000D03*
X20955000Y-21590000D03*
X31750000Y-29210000D03*
X54610000Y-30480000D03*
X55245000Y-22860000D03*
X33655000Y-57785000D03*
X36830000Y-49530000D03*
X34925000Y-41910000D03*
X38100000Y-37465000D03*
X46990000Y-40005000D03*
X43815000Y-36830000D03*
X40640000Y-33655000D03*
X46990000Y-35560000D03*
X43180000Y-31750000D03*
X39370000Y-27305000D03*
X54610000Y-55880000D03*
D12*
X34545000Y-66040000D03*
X37845000Y-66040000D03*
D13*
X57150000Y-41910000D03*
D14*
X57150000Y-44450000D03*
X57150000Y-46990000D03*
D15*
X53340000Y-44630000D03*
X53340000Y-41730000D03*
D16*
X49530000Y-60960000D03*
X26670000Y-60960000D03*
X49530000Y-58420000D03*
X26670000Y-58420000D03*
X49530000Y-55880000D03*
X26670000Y-55880000D03*
X49530000Y-53340000D03*
X26670000Y-53340000D03*
X49530000Y-50800000D03*
X26670000Y-50800000D03*
X49530000Y-48260000D03*
X26670000Y-48260000D03*
X49530000Y-45720000D03*
X26670000Y-45720000D03*
X49530000Y-43180000D03*
X26670000Y-43180000D03*
X49530000Y-40640000D03*
X26670000Y-40640000D03*
X49530000Y-38100000D03*
X26670000Y-38100000D03*
X49530000Y-35560000D03*
X26670000Y-35560000D03*
X49530000Y-33020000D03*
X26670000Y-33020000D03*
X49530000Y-30480000D03*
X26670000Y-30480000D03*
X49530000Y-27940000D03*
X26670000Y-27940000D03*
X49530000Y-25400000D03*
X26670000Y-25400000D03*
D17*
X35560000Y-60960000D03*
X32560000Y-60960000D03*
D15*
X44450000Y-48080000D03*
X44450000Y-50980000D03*
X39370000Y-48080000D03*
X39370000Y-50980000D03*
X45720000Y-31930000D03*
X45720000Y-29030000D03*
D18*
X30300000Y-54610000D03*
X33200000Y-54610000D03*
D19*
X32385000Y-66040000D03*
X30480000Y-66040000D03*
D20*
X43706048Y-56623949D03*
X43706048Y-60216051D03*
X40113946Y-60216051D03*
X40113946Y-56623949D03*
D21*
X33020000Y-47531020D03*
X33020000Y-51528980D03*
D22*
X34180780Y-29171900D03*
X35280600Y-29570680D03*
X36380420Y-29171900D03*
X37480240Y-28770580D03*
X38580060Y-29171900D03*
X39682420Y-28770580D03*
X40782240Y-29171900D03*
X41882060Y-29171900D03*
D23*
X41181020Y-39370000D03*
X35181540Y-39370000D03*
D24*
X42781220Y-26271220D03*
X29580840Y-25369520D03*
D18*
X53160000Y-36830000D03*
X56060000Y-36830000D03*
X45900000Y-44450000D03*
X43000000Y-44450000D03*
D25*
X56515000Y-27686000D03*
X56515000Y-33274000D03*
X52705000Y-27686000D03*
X52705000Y-33274000D03*
D13*
X57150000Y-52070000D03*
D14*
X57150000Y-54610000D03*
X57150000Y-57150000D03*
X57150000Y-59690000D03*
D26*
X39750000Y-44450000D03*
X36450000Y-44450000D03*
D12*
X40260000Y-66040000D03*
X43560000Y-66040000D03*
D27*
X44450000Y-52705000D03*
X52705000Y-39370000D03*
X59690000Y-48895000D03*
X53340000Y-60960000D03*
X53975000Y-24130000D03*
X36830000Y-25400000D03*
X36322000Y-26924000D03*
X55880000Y-39370000D03*
X46990000Y-46355000D03*
D28*
X34545000Y-63880000D02*
X35560000Y-62865000D01*
X35560000Y-62865000D02*
X35560000Y-60960000D01*
X34545000Y-66040000D02*
X34545000Y-63880000D01*
X35560000Y-60960000D02*
X39369997Y-60960000D01*
X39369997Y-60960000D02*
X40113946Y-60216051D01*
X34545000Y-66040000D02*
X32385000Y-66040000D01*
D29*
X40260000Y-60362105D02*
X40113946Y-60216051D01*
D30*
X40335200Y-60437305D02*
X40113946Y-60216051D01*
X39682420Y-32697420D02*
X40640000Y-33655000D01*
X39682420Y-28770580D02*
X39682420Y-32697420D01*
X43180000Y-31750000D02*
X43180000Y-26670000D01*
X43180000Y-26670000D02*
X42781220Y-26271220D01*
X39682420Y-28770580D02*
X39682420Y-27414380D01*
X39682420Y-27414380D02*
X40825580Y-26271220D01*
X40825580Y-26271220D02*
X41474550Y-26271220D01*
X41474550Y-26271220D02*
X42781220Y-26271220D01*
X39682420Y-28770580D02*
X39682420Y-27617420D01*
X39682420Y-27617420D02*
X39370000Y-27305000D01*
X52705000Y-27686000D02*
X52705000Y-33274000D01*
D29*
X39370000Y-50980000D02*
X39370000Y-52287901D01*
X39370000Y-52287901D02*
X43706048Y-56623949D01*
X46989997Y-53340000D02*
X49530000Y-53340000D01*
X43706048Y-56623949D02*
X46989997Y-53340000D01*
D31*
X39370000Y-50980000D02*
X39770000Y-50980000D01*
D29*
X44450000Y-52705000D02*
X44450000Y-50980000D01*
X43706048Y-60216051D02*
X45193949Y-60216051D01*
X45193949Y-60216051D02*
X49530000Y-55880000D01*
X52705000Y-39370000D02*
X52705000Y-37285000D01*
X52705000Y-37285000D02*
X53160000Y-36830000D01*
D28*
X49530000Y-25400000D02*
X50165000Y-26035000D01*
X52705000Y-64135000D02*
X57150000Y-59690000D01*
D29*
X57150000Y-59690000D02*
X54677919Y-59690000D01*
X54677919Y-59690000D02*
X52578000Y-57590081D01*
X52578000Y-57590081D02*
X52578000Y-51108000D01*
X52578000Y-51108000D02*
X49730000Y-48260000D01*
X49730000Y-48260000D02*
X49530000Y-48260000D01*
D28*
X37436071Y-27238088D02*
X37436071Y-28726411D01*
X37436071Y-28726411D02*
X37480240Y-28770580D01*
X49330000Y-25400000D02*
X49530000Y-25400000D01*
X31813500Y-35560000D02*
X32362392Y-35560000D01*
X47717200Y-23787200D02*
X49330000Y-25400000D01*
X40886959Y-23787200D02*
X47717200Y-23787200D01*
X37436071Y-27238088D02*
X40886959Y-23787200D01*
X32362392Y-35560000D02*
X37436071Y-30486321D01*
X37436071Y-30486321D02*
X37436071Y-27238088D01*
D29*
X44450000Y-48080000D02*
X49350000Y-48080000D01*
X49350000Y-48080000D02*
X49530000Y-48260000D01*
X39370000Y-48080000D02*
X44450000Y-48080000D01*
X33020000Y-47531020D02*
X38821020Y-47531020D01*
X38821020Y-47531020D02*
X39370000Y-48080000D01*
X33020000Y-47531020D02*
X33020000Y-36766500D01*
X33020000Y-36766500D02*
X31813500Y-35560000D01*
D28*
X26670000Y-35560000D02*
X31813500Y-35560000D01*
X49530000Y-25400000D02*
X50165000Y-25400000D01*
X46803000Y-64135000D02*
X52705000Y-64135000D01*
X44898000Y-66040000D02*
X46803000Y-64135000D01*
X43635200Y-66040000D02*
X44898000Y-66040000D01*
X43484800Y-66014600D02*
X43484800Y-66040000D01*
D30*
X59690000Y-45085000D02*
X59055000Y-44450000D01*
X59055000Y-44450000D02*
X57150000Y-44450000D01*
X59690000Y-48895000D02*
X59690000Y-45085000D01*
X49530000Y-58420000D02*
X50800000Y-58420000D01*
X50800000Y-58420000D02*
X53340000Y-60960000D01*
X57150000Y-44450000D02*
X53520000Y-44450000D01*
X53520000Y-44450000D02*
X53340000Y-44630000D01*
D31*
X49330000Y-58420000D02*
X49530000Y-58420000D01*
D29*
X51435000Y-21590000D02*
X53975000Y-24130000D01*
X30680000Y-21590000D02*
X51435000Y-21590000D01*
X26670000Y-25400000D02*
X26870000Y-25400000D01*
X26870000Y-25400000D02*
X30680000Y-21590000D01*
D30*
X36405736Y-25400000D02*
X36830000Y-25400000D01*
X35280600Y-26525136D02*
X36405736Y-25400000D01*
X35280600Y-29131260D02*
X35280600Y-26525136D01*
X49530000Y-35560000D02*
X49350000Y-35560000D01*
X49350000Y-35560000D02*
X45720000Y-31930000D01*
D31*
X46120000Y-31930000D02*
X45720000Y-31930000D01*
X49530000Y-35560000D02*
X49330000Y-35560000D01*
X45720000Y-31950000D02*
X45720000Y-31930000D01*
D30*
X36380420Y-28732480D02*
X36380420Y-26982420D01*
X36380420Y-26982420D02*
X36322000Y-26924000D01*
D31*
X36380420Y-29132530D02*
X36380420Y-28732480D01*
D30*
X48260000Y-43180000D02*
X49530000Y-43180000D01*
X38580060Y-33500060D02*
X48260000Y-43180000D01*
X38580060Y-28732480D02*
X38580060Y-33500060D01*
X40782240Y-28732480D02*
X40782240Y-32092240D01*
X40782240Y-32092240D02*
X49330000Y-40640000D01*
X49330000Y-40640000D02*
X49530000Y-40640000D01*
X33020000Y-51528980D02*
X33020000Y-51890000D01*
X33020000Y-51890000D02*
X30300000Y-54610000D01*
X26670000Y-60960000D02*
X28276900Y-60960000D01*
X28276900Y-60960000D02*
X30300000Y-58936900D01*
X30300000Y-56066900D02*
X30300000Y-54610000D01*
X30300000Y-58936900D02*
X30300000Y-56066900D01*
D31*
X30300000Y-54610000D02*
X30300000Y-54210000D01*
X32981020Y-51528980D02*
X33020000Y-51528980D01*
D30*
X55880000Y-39370000D02*
X55880000Y-37010000D01*
X55880000Y-37010000D02*
X56060000Y-36830000D01*
D29*
X56515000Y-33274000D02*
X56515000Y-36375000D01*
X56515000Y-36375000D02*
X56060000Y-36830000D01*
D28*
X56515000Y-27305000D02*
X56515000Y-27686000D01*
X56515000Y-27686000D02*
X56515000Y-33274000D01*
D30*
X46990000Y-46355000D02*
X46990000Y-45540000D01*
X46990000Y-45540000D02*
X45900000Y-44450000D01*
X43000000Y-44450000D02*
X39750000Y-44450000D01*
D29*
X40260000Y-66040000D02*
X37845000Y-66040000D01*
D32*
G36*
X56488338Y-19821046D02*
X56902333Y-20097669D01*
X57178953Y-20511660D01*
X57290000Y-21069931D01*
X57290000Y-26424669D01*
X57147890Y-26327569D01*
X56896000Y-26276560D01*
X56580154Y-26276560D01*
X56515000Y-26263600D01*
X56449846Y-26276560D01*
X56134000Y-26276560D01*
X55898683Y-26320838D01*
X55682559Y-26459910D01*
X55537569Y-26672110D01*
X55486560Y-26924000D01*
X55486560Y-27239846D01*
X55473600Y-27305000D01*
X55473600Y-33274000D01*
X55473800Y-33275005D01*
X55473800Y-35358188D01*
X55374683Y-35376838D01*
X55158559Y-35515910D01*
X55013569Y-35728110D01*
X54962560Y-35980000D01*
X54962560Y-36904375D01*
X54941550Y-37010000D01*
X54941550Y-39370000D01*
X54944984Y-39387265D01*
X54944838Y-39555167D01*
X55009520Y-39711710D01*
X55012985Y-39729129D01*
X55022766Y-39743767D01*
X55086883Y-39898943D01*
X55206551Y-40018820D01*
X55216416Y-40033584D01*
X55231051Y-40043363D01*
X55349673Y-40162192D01*
X55506105Y-40227148D01*
X55520871Y-40237015D01*
X55538137Y-40240449D01*
X55693201Y-40304838D01*
X55862583Y-40304986D01*
X55880000Y-40308450D01*
X55897265Y-40305016D01*
X56065167Y-40305162D01*
X56221710Y-40240480D01*
X56239129Y-40237015D01*
X56253767Y-40227234D01*
X56408943Y-40163117D01*
X56528820Y-40043449D01*
X56543584Y-40033584D01*
X56553363Y-40018949D01*
X56672192Y-39900327D01*
X56737148Y-39743895D01*
X56747015Y-39729129D01*
X56750449Y-39711863D01*
X56814838Y-39556799D01*
X56814986Y-39387417D01*
X56818450Y-39370000D01*
X56818450Y-38236102D01*
X56961441Y-38144090D01*
X57106431Y-37931890D01*
X57157440Y-37680000D01*
X57157440Y-37205039D01*
X57251237Y-37111242D01*
X57251240Y-37111240D01*
X57476943Y-36773450D01*
X57556200Y-36375000D01*
X57556200Y-33629545D01*
X62290000Y-41203625D01*
X62290000Y-65930069D01*
X62178953Y-66488340D01*
X61902333Y-66902331D01*
X61488338Y-67178954D01*
X60930069Y-67290000D01*
X20069931Y-67290000D01*
X19511660Y-67178953D01*
X19097669Y-66902333D01*
X18821046Y-66488338D01*
X18788706Y-66325750D01*
X29591000Y-66325750D01*
X29591000Y-66420310D01*
X29687673Y-66653699D01*
X29866302Y-66832327D01*
X30099691Y-66929000D01*
X30194250Y-66929000D01*
X30353000Y-66770250D01*
X30353000Y-66167000D01*
X29749750Y-66167000D01*
X29591000Y-66325750D01*
X18788706Y-66325750D01*
X18710000Y-65930069D01*
X18710000Y-65659690D01*
X29591000Y-65659690D01*
X29591000Y-65754250D01*
X29749750Y-65913000D01*
X30353000Y-65913000D01*
X30353000Y-65309750D01*
X30607000Y-65309750D01*
X30607000Y-65913000D01*
X30627000Y-65913000D01*
X30627000Y-66167000D01*
X30607000Y-66167000D01*
X30607000Y-66770250D01*
X30765750Y-66929000D01*
X30860309Y-66929000D01*
X31093698Y-66832327D01*
X31272327Y-66653699D01*
X31369000Y-66420310D01*
X31369000Y-66325750D01*
X31210252Y-66167002D01*
X31368862Y-66167002D01*
X31422872Y-66438527D01*
X31648619Y-66776381D01*
X31986473Y-67002128D01*
X32385000Y-67081400D01*
X33624449Y-67081400D01*
X33630910Y-67091441D01*
X33843110Y-67236431D01*
X34095000Y-67287440D01*
X34995000Y-67287440D01*
X35230317Y-67243162D01*
X35446441Y-67104090D01*
X35591431Y-66891890D01*
X35642440Y-66640000D01*
X35642440Y-65440000D01*
X36747560Y-65440000D01*
X36747560Y-66640000D01*
X36791838Y-66875317D01*
X36930910Y-67091441D01*
X37143110Y-67236431D01*
X37395000Y-67287440D01*
X38295000Y-67287440D01*
X38530317Y-67243162D01*
X38746441Y-67104090D01*
X38762081Y-67081200D01*
X39339320Y-67081200D01*
X39345910Y-67091441D01*
X39558110Y-67236431D01*
X39810000Y-67287440D01*
X40710000Y-67287440D01*
X40945317Y-67243162D01*
X41161441Y-67104090D01*
X41306431Y-66891890D01*
X41357440Y-66640000D01*
X41357440Y-65440000D01*
X41313162Y-65204683D01*
X41174090Y-64988559D01*
X40961890Y-64843569D01*
X40710000Y-64792560D01*
X39810000Y-64792560D01*
X39574683Y-64836838D01*
X39358559Y-64975910D01*
X39342919Y-64998800D01*
X38765680Y-64998800D01*
X38759090Y-64988559D01*
X38546890Y-64843569D01*
X38295000Y-64792560D01*
X37395000Y-64792560D01*
X37159683Y-64836838D01*
X36943559Y-64975910D01*
X36798569Y-65188110D01*
X36747560Y-65440000D01*
X35642440Y-65440000D01*
X35598162Y-65204683D01*
X35586400Y-65186404D01*
X35586400Y-64311362D01*
X36296381Y-63601381D01*
X36522129Y-63263526D01*
X36601400Y-62865000D01*
X36601400Y-62092431D01*
X36656431Y-62011890D01*
X36658555Y-62001400D01*
X39369997Y-62001400D01*
X39768524Y-61922128D01*
X39875208Y-61850844D01*
X40437741Y-61851335D01*
X41038889Y-61602945D01*
X41499224Y-61143414D01*
X41748662Y-60542699D01*
X41749230Y-59892256D01*
X41500840Y-59291108D01*
X41041309Y-58830773D01*
X40440594Y-58581335D01*
X39790151Y-58580767D01*
X39189003Y-58829157D01*
X38728668Y-59288688D01*
X38479230Y-59889403D01*
X38479205Y-59918600D01*
X36659248Y-59918600D01*
X36524090Y-59708559D01*
X36311890Y-59563569D01*
X36060000Y-59512560D01*
X35060000Y-59512560D01*
X34824683Y-59556838D01*
X34608559Y-59695910D01*
X34463569Y-59908110D01*
X34412560Y-60160000D01*
X34412560Y-61760000D01*
X34456838Y-61995317D01*
X34518600Y-62091298D01*
X34518600Y-62433638D01*
X33808619Y-63143619D01*
X33582872Y-63481473D01*
X33503600Y-63880000D01*
X33503600Y-64998600D01*
X32385000Y-64998600D01*
X31986473Y-65077872D01*
X31648619Y-65303619D01*
X31422872Y-65641473D01*
X31368862Y-65912998D01*
X31210252Y-65912998D01*
X31369000Y-65754250D01*
X31369000Y-65659690D01*
X31272327Y-65426301D01*
X31093698Y-65247673D01*
X30860309Y-65151000D01*
X30765750Y-65151000D01*
X30607000Y-65309750D01*
X30353000Y-65309750D01*
X30194250Y-65151000D01*
X30099691Y-65151000D01*
X29866302Y-65247673D01*
X29687673Y-65426301D01*
X29591000Y-65659690D01*
X18710000Y-65659690D01*
X18710000Y-40640000D01*
X25002968Y-40640000D01*
X25112201Y-41189151D01*
X25423270Y-41654698D01*
X25805356Y-41910000D01*
X25423270Y-42165302D01*
X25112201Y-42630849D01*
X25002968Y-43180000D01*
X25112201Y-43729151D01*
X25423270Y-44194698D01*
X25805356Y-44450000D01*
X25423270Y-44705302D01*
X25112201Y-45170849D01*
X25002968Y-45720000D01*
X25112201Y-46269151D01*
X25423270Y-46734698D01*
X25805356Y-46990000D01*
X25423270Y-47245302D01*
X25112201Y-47710849D01*
X25002968Y-48260000D01*
X25112201Y-48809151D01*
X25423270Y-49274698D01*
X25805356Y-49530000D01*
X25423270Y-49785302D01*
X25112201Y-50250849D01*
X25002968Y-50800000D01*
X25112201Y-51349151D01*
X25423270Y-51814698D01*
X25805356Y-52070000D01*
X25423270Y-52325302D01*
X25112201Y-52790849D01*
X25002968Y-53340000D01*
X25112201Y-53889151D01*
X25423270Y-54354698D01*
X25805356Y-54610000D01*
X25423270Y-54865302D01*
X25112201Y-55330849D01*
X25002968Y-55880000D01*
X25112201Y-56429151D01*
X25423270Y-56894698D01*
X25805356Y-57150000D01*
X25423270Y-57405302D01*
X25112201Y-57870849D01*
X25002968Y-58420000D01*
X25112201Y-58969151D01*
X25423270Y-59434698D01*
X25805356Y-59690000D01*
X25423270Y-59945302D01*
X25112201Y-60410849D01*
X25002968Y-60960000D01*
X25112201Y-61509151D01*
X25423270Y-61974698D01*
X25888817Y-62285767D01*
X26437968Y-62395000D01*
X26902032Y-62395000D01*
X27451183Y-62285767D01*
X27916730Y-61974698D01*
X27967677Y-61898450D01*
X28276900Y-61898450D01*
X28576447Y-61838867D01*
X28636030Y-61827015D01*
X28940484Y-61623584D01*
X29318318Y-61245750D01*
X31425000Y-61245750D01*
X31425000Y-61886310D01*
X31521673Y-62119699D01*
X31700302Y-62298327D01*
X31933691Y-62395000D01*
X32274250Y-62395000D01*
X32433000Y-62236250D01*
X32433000Y-61087000D01*
X32687000Y-61087000D01*
X32687000Y-62236250D01*
X32845750Y-62395000D01*
X33186309Y-62395000D01*
X33419698Y-62298327D01*
X33598327Y-62119699D01*
X33695000Y-61886310D01*
X33695000Y-61245750D01*
X33536250Y-61087000D01*
X32687000Y-61087000D01*
X32433000Y-61087000D01*
X31583750Y-61087000D01*
X31425000Y-61245750D01*
X29318318Y-61245750D01*
X30530378Y-60033690D01*
X31425000Y-60033690D01*
X31425000Y-60674250D01*
X31583750Y-60833000D01*
X32433000Y-60833000D01*
X32433000Y-59683750D01*
X32687000Y-59683750D01*
X32687000Y-60833000D01*
X33536250Y-60833000D01*
X33695000Y-60674250D01*
X33695000Y-60033690D01*
X33598327Y-59800301D01*
X33419698Y-59621673D01*
X33186309Y-59525000D01*
X32845750Y-59525000D01*
X32687000Y-59683750D01*
X32433000Y-59683750D01*
X32274250Y-59525000D01*
X31933691Y-59525000D01*
X31700302Y-59621673D01*
X31521673Y-59800301D01*
X31425000Y-60033690D01*
X30530378Y-60033690D01*
X30963584Y-59600485D01*
X31167014Y-59296030D01*
X31167015Y-59296029D01*
X31238450Y-58936900D01*
X31238450Y-57009409D01*
X38492090Y-57009409D01*
X38763056Y-57600725D01*
X39239682Y-58043336D01*
X39728486Y-58245805D01*
X39986946Y-58126875D01*
X39986946Y-56750949D01*
X40240946Y-56750949D01*
X40240946Y-58126875D01*
X40499406Y-58245805D01*
X41090722Y-57974839D01*
X41533333Y-57498213D01*
X41735802Y-57009409D01*
X41616872Y-56750949D01*
X40240946Y-56750949D01*
X39986946Y-56750949D01*
X38611020Y-56750949D01*
X38492090Y-57009409D01*
X31238450Y-57009409D01*
X31238450Y-56238489D01*
X38492090Y-56238489D01*
X38611020Y-56496949D01*
X39986946Y-56496949D01*
X39986946Y-55121023D01*
X39728486Y-55002093D01*
X39137170Y-55273059D01*
X38694559Y-55749685D01*
X38492090Y-56238489D01*
X31238450Y-56238489D01*
X31238450Y-55869926D01*
X31346431Y-55711890D01*
X31397440Y-55460000D01*
X31397440Y-54895750D01*
X32115000Y-54895750D01*
X32115000Y-55586310D01*
X32211673Y-55819699D01*
X32390302Y-55998327D01*
X32623691Y-56095000D01*
X32914250Y-56095000D01*
X33073000Y-55936250D01*
X33073000Y-54737000D01*
X33327000Y-54737000D01*
X33327000Y-55936250D01*
X33485750Y-56095000D01*
X33776309Y-56095000D01*
X34009698Y-55998327D01*
X34188327Y-55819699D01*
X34285000Y-55586310D01*
X34285000Y-54895750D01*
X34126250Y-54737000D01*
X33327000Y-54737000D01*
X33073000Y-54737000D01*
X32273750Y-54737000D01*
X32115000Y-54895750D01*
X31397440Y-54895750D01*
X31397440Y-54839728D01*
X32115000Y-54122168D01*
X32115000Y-54324250D01*
X32273750Y-54483000D01*
X33073000Y-54483000D01*
X33073000Y-53283750D01*
X33327000Y-53283750D01*
X33327000Y-54483000D01*
X34126250Y-54483000D01*
X34285000Y-54324250D01*
X34285000Y-53633690D01*
X34188327Y-53400301D01*
X34009698Y-53221673D01*
X33776309Y-53125000D01*
X33485750Y-53125000D01*
X33327000Y-53283750D01*
X33073000Y-53283750D01*
X33013209Y-53223959D01*
X33234800Y-53002368D01*
X33311752Y-53002435D01*
X33853411Y-52778627D01*
X34268190Y-52364571D01*
X34492944Y-51823303D01*
X34493455Y-51237228D01*
X34269647Y-50695569D01*
X33855591Y-50280790D01*
X33314323Y-50056036D01*
X32728248Y-50055525D01*
X32186589Y-50279333D01*
X31771810Y-50693389D01*
X31547056Y-51234657D01*
X31546545Y-51820732D01*
X31609569Y-51973263D01*
X30470272Y-53112560D01*
X29850000Y-53112560D01*
X29614683Y-53156838D01*
X29398559Y-53295910D01*
X29253569Y-53508110D01*
X29202560Y-53760000D01*
X29202560Y-55460000D01*
X29246838Y-55695317D01*
X29361550Y-55873584D01*
X29361550Y-58548181D01*
X27935836Y-59973896D01*
X27916730Y-59945302D01*
X27534644Y-59690000D01*
X27916730Y-59434698D01*
X28227799Y-58969151D01*
X28337032Y-58420000D01*
X28227799Y-57870849D01*
X27916730Y-57405302D01*
X27534644Y-57150000D01*
X27916730Y-56894698D01*
X28227799Y-56429151D01*
X28337032Y-55880000D01*
X28227799Y-55330849D01*
X27916730Y-54865302D01*
X27534644Y-54610000D01*
X27916730Y-54354698D01*
X28227799Y-53889151D01*
X28337032Y-53340000D01*
X28227799Y-52790849D01*
X27916730Y-52325302D01*
X27534644Y-52070000D01*
X27916730Y-51814698D01*
X28227799Y-51349151D01*
X28337032Y-50800000D01*
X28227799Y-50250849D01*
X27916730Y-49785302D01*
X27534644Y-49530000D01*
X27916730Y-49274698D01*
X28227799Y-48809151D01*
X28337032Y-48260000D01*
X28227799Y-47710849D01*
X27916730Y-47245302D01*
X27534644Y-46990000D01*
X27916730Y-46734698D01*
X28227799Y-46269151D01*
X28337032Y-45720000D01*
X28227799Y-45170849D01*
X27916730Y-44705302D01*
X27534644Y-44450000D01*
X27916730Y-44194698D01*
X28227799Y-43729151D01*
X28337032Y-43180000D01*
X28227799Y-42630849D01*
X27916730Y-42165302D01*
X27534644Y-41910000D01*
X27916730Y-41654698D01*
X28227799Y-41189151D01*
X28337032Y-40640000D01*
X28227799Y-40090849D01*
X27916730Y-39625302D01*
X27536791Y-39371435D01*
X27559226Y-39364428D01*
X27990637Y-39004424D01*
X28251442Y-38506730D01*
X28261904Y-38449039D01*
X28139915Y-38227000D01*
X26797000Y-38227000D01*
X26797000Y-38247000D01*
X26543000Y-38247000D01*
X26543000Y-38227000D01*
X25200085Y-38227000D01*
X25078096Y-38449039D01*
X25088558Y-38506730D01*
X25349363Y-39004424D01*
X25780774Y-39364428D01*
X25803209Y-39371435D01*
X25423270Y-39625302D01*
X25112201Y-40090849D01*
X25002968Y-40640000D01*
X18710000Y-40640000D01*
X18710000Y-30480000D01*
X25002968Y-30480000D01*
X25112201Y-31029151D01*
X25423270Y-31494698D01*
X25805356Y-31750000D01*
X25423270Y-32005302D01*
X25112201Y-32470849D01*
X25002968Y-33020000D01*
X25112201Y-33569151D01*
X25423270Y-34034698D01*
X25805356Y-34290000D01*
X25423270Y-34545302D01*
X25112201Y-35010849D01*
X25002968Y-35560000D01*
X25112201Y-36109151D01*
X25423270Y-36574698D01*
X25803209Y-36828565D01*
X25780774Y-36835572D01*
X25349363Y-37195576D01*
X25088558Y-37693270D01*
X25078096Y-37750961D01*
X25200085Y-37973000D01*
X26543000Y-37973000D01*
X26543000Y-37953000D01*
X26797000Y-37953000D01*
X26797000Y-37973000D01*
X28139915Y-37973000D01*
X28261904Y-37750961D01*
X28251442Y-37693270D01*
X27990637Y-37195576D01*
X27559226Y-36835572D01*
X27536791Y-36828565D01*
X27876768Y-36601400D01*
X31382420Y-36601400D01*
X31978800Y-37197779D01*
X31978800Y-46488800D01*
X31771810Y-46695429D01*
X31547056Y-47236697D01*
X31546545Y-47822772D01*
X31770353Y-48364431D01*
X32184409Y-48779210D01*
X32725677Y-49003964D01*
X33311752Y-49004475D01*
X33853411Y-48780667D01*
X34062222Y-48572220D01*
X37880504Y-48572220D01*
X37916838Y-48765317D01*
X38055910Y-48981441D01*
X38268110Y-49126431D01*
X38520000Y-49177440D01*
X40220000Y-49177440D01*
X40455317Y-49133162D01*
X40473906Y-49121200D01*
X43340454Y-49121200D01*
X43348110Y-49126431D01*
X43600000Y-49177440D01*
X45300000Y-49177440D01*
X45535317Y-49133162D01*
X45553906Y-49121200D01*
X48180706Y-49121200D01*
X48283270Y-49274698D01*
X48665356Y-49530000D01*
X48283270Y-49785302D01*
X47972201Y-50250849D01*
X47862968Y-50800000D01*
X47972201Y-51349151D01*
X48283270Y-51814698D01*
X48665356Y-52070000D01*
X48322933Y-52298800D01*
X46989997Y-52298800D01*
X46591547Y-52378057D01*
X46253757Y-52603760D01*
X46253755Y-52603763D01*
X43868428Y-54989090D01*
X43543385Y-54988806D01*
X40535892Y-51981313D01*
X40671441Y-51894090D01*
X40816431Y-51681890D01*
X40867440Y-51430000D01*
X40867440Y-50530000D01*
X42952560Y-50530000D01*
X42952560Y-51430000D01*
X42996838Y-51665317D01*
X43135910Y-51881441D01*
X43348110Y-52026431D01*
X43408800Y-52038721D01*
X43408800Y-52705000D01*
X43488057Y-53103450D01*
X43713760Y-53441240D01*
X44051550Y-53666943D01*
X44450000Y-53746200D01*
X44848450Y-53666943D01*
X45186240Y-53441240D01*
X45411943Y-53103450D01*
X45491200Y-52705000D01*
X45491200Y-52041463D01*
X45535317Y-52033162D01*
X45751441Y-51894090D01*
X45896431Y-51681890D01*
X45947440Y-51430000D01*
X45947440Y-50530000D01*
X45903162Y-50294683D01*
X45764090Y-50078559D01*
X45551890Y-49933569D01*
X45300000Y-49882560D01*
X43600000Y-49882560D01*
X43364683Y-49926838D01*
X43148559Y-50065910D01*
X43003569Y-50278110D01*
X42952560Y-50530000D01*
X40867440Y-50530000D01*
X40823162Y-50294683D01*
X40684090Y-50078559D01*
X40471890Y-49933569D01*
X40220000Y-49882560D01*
X38520000Y-49882560D01*
X38284683Y-49926838D01*
X38068559Y-50065910D01*
X37923569Y-50278110D01*
X37872560Y-50530000D01*
X37872560Y-51430000D01*
X37916838Y-51665317D01*
X38055910Y-51881441D01*
X38268110Y-52026431D01*
X38328800Y-52038721D01*
X38328800Y-52287896D01*
X38328799Y-52287901D01*
X38408057Y-52686351D01*
X38633760Y-53024141D01*
X40691124Y-55081505D01*
X40499406Y-55002093D01*
X40240946Y-55121023D01*
X40240946Y-56317341D01*
X40128087Y-56430200D01*
X40307695Y-56609808D01*
X40420554Y-56496949D01*
X41616872Y-56496949D01*
X41735802Y-56238489D01*
X41640809Y-56031190D01*
X42071189Y-56461570D01*
X42070764Y-56947744D01*
X42319154Y-57548892D01*
X42778685Y-58009227D01*
X43379400Y-58258665D01*
X44029843Y-58259233D01*
X44630991Y-58010843D01*
X45091326Y-57551312D01*
X45340764Y-56950597D01*
X45341191Y-56461285D01*
X47421276Y-54381200D01*
X48322933Y-54381200D01*
X48665356Y-54610000D01*
X48283270Y-54865302D01*
X47972201Y-55330849D01*
X47862968Y-55880000D01*
X47895246Y-56042274D01*
X44869872Y-59067648D01*
X44633411Y-58830773D01*
X44032696Y-58581335D01*
X43382253Y-58580767D01*
X42781105Y-58829157D01*
X42320770Y-59288688D01*
X42071332Y-59889403D01*
X42070764Y-60539846D01*
X42319154Y-61140994D01*
X42778685Y-61601329D01*
X43379400Y-61850767D01*
X44029843Y-61851335D01*
X44630991Y-61602945D01*
X44977290Y-61257251D01*
X45193944Y-61257251D01*
X45193949Y-61257252D01*
X45592399Y-61177994D01*
X45930189Y-60952291D01*
X47962433Y-58920046D01*
X47972201Y-58969151D01*
X48283270Y-59434698D01*
X48665356Y-59690000D01*
X48283270Y-59945302D01*
X47972201Y-60410849D01*
X47862968Y-60960000D01*
X47972201Y-61509151D01*
X48283270Y-61974698D01*
X48748817Y-62285767D01*
X49297968Y-62395000D01*
X49762032Y-62395000D01*
X50311183Y-62285767D01*
X50776730Y-61974698D01*
X51087799Y-61509151D01*
X51197032Y-60960000D01*
X51087799Y-60410849D01*
X50776730Y-59945302D01*
X50394644Y-59690000D01*
X50603367Y-59550535D01*
X52676415Y-61623584D01*
X52691053Y-61633365D01*
X52809673Y-61752192D01*
X52966106Y-61817149D01*
X52980870Y-61827014D01*
X52998133Y-61830448D01*
X53153201Y-61894838D01*
X53322588Y-61894986D01*
X53340000Y-61898449D01*
X53357260Y-61895016D01*
X53472122Y-61895116D01*
X52273638Y-63093600D01*
X46803000Y-63093600D01*
X46404473Y-63172872D01*
X46066619Y-63398619D01*
X44475104Y-64990134D01*
X44474090Y-64988559D01*
X44261890Y-64843569D01*
X44010000Y-64792560D01*
X43110000Y-64792560D01*
X42874683Y-64836838D01*
X42658559Y-64975910D01*
X42513569Y-65188110D01*
X42462560Y-65440000D01*
X42462560Y-65918276D01*
X42443400Y-66014600D01*
X42443400Y-66040000D01*
X42462560Y-66136324D01*
X42462560Y-66640000D01*
X42506838Y-66875317D01*
X42645910Y-67091441D01*
X42858110Y-67236431D01*
X43110000Y-67287440D01*
X44010000Y-67287440D01*
X44245317Y-67243162D01*
X44461441Y-67104090D01*
X44476944Y-67081400D01*
X44898000Y-67081400D01*
X45296527Y-67002128D01*
X45634381Y-66776381D01*
X47234362Y-65176400D01*
X52705000Y-65176400D01*
X53103527Y-65097128D01*
X53441381Y-64871381D01*
X57137762Y-61175000D01*
X57179093Y-61175000D01*
X57747378Y-61061961D01*
X58229147Y-60740054D01*
X58551054Y-60258285D01*
X58664093Y-59690000D01*
X58551054Y-59121715D01*
X58229147Y-58639946D01*
X57899974Y-58420000D01*
X58229147Y-58200054D01*
X58551054Y-57718285D01*
X58664093Y-57150000D01*
X58551054Y-56581715D01*
X58229147Y-56099946D01*
X57899974Y-55880000D01*
X58229147Y-55660054D01*
X58551054Y-55178285D01*
X58664093Y-54610000D01*
X58551054Y-54041715D01*
X58229147Y-53559946D01*
X58185223Y-53530597D01*
X58359698Y-53458327D01*
X58538327Y-53279699D01*
X58635000Y-53046310D01*
X58635000Y-52355750D01*
X58476250Y-52197000D01*
X57277000Y-52197000D01*
X57277000Y-52217000D01*
X57023000Y-52217000D01*
X57023000Y-52197000D01*
X55823750Y-52197000D01*
X55665000Y-52355750D01*
X55665000Y-53046310D01*
X55761673Y-53279699D01*
X55940302Y-53458327D01*
X56114777Y-53530597D01*
X56070853Y-53559946D01*
X55748946Y-54041715D01*
X55635907Y-54610000D01*
X55748946Y-55178285D01*
X56070853Y-55660054D01*
X56400026Y-55880000D01*
X56070853Y-56099946D01*
X55748946Y-56581715D01*
X55635907Y-57150000D01*
X55748946Y-57718285D01*
X56070853Y-58200054D01*
X56400026Y-58420000D01*
X56070853Y-58639946D01*
X56064937Y-58648800D01*
X55109199Y-58648800D01*
X53619200Y-57158801D01*
X53619200Y-51108000D01*
X53616354Y-51093690D01*
X55665000Y-51093690D01*
X55665000Y-51784250D01*
X55823750Y-51943000D01*
X57023000Y-51943000D01*
X57023000Y-50743750D01*
X57277000Y-50743750D01*
X57277000Y-51943000D01*
X58476250Y-51943000D01*
X58635000Y-51784250D01*
X58635000Y-51093690D01*
X58538327Y-50860301D01*
X58359698Y-50681673D01*
X58126309Y-50585000D01*
X57435750Y-50585000D01*
X57277000Y-50743750D01*
X57023000Y-50743750D01*
X56864250Y-50585000D01*
X56173691Y-50585000D01*
X55940302Y-50681673D01*
X55761673Y-50860301D01*
X55665000Y-51093690D01*
X53616354Y-51093690D01*
X53539943Y-50709550D01*
X53314240Y-50371760D01*
X53314237Y-50371758D01*
X51195679Y-48253200D01*
X51087799Y-47710849D01*
X50776730Y-47245302D01*
X50396791Y-46991435D01*
X50419226Y-46984428D01*
X50850637Y-46624424D01*
X51111442Y-46126730D01*
X51121904Y-46069039D01*
X50999915Y-45847000D01*
X49657000Y-45847000D01*
X49657000Y-45867000D01*
X49403000Y-45867000D01*
X49403000Y-45847000D01*
X49383000Y-45847000D01*
X49383000Y-45593000D01*
X49403000Y-45593000D01*
X49403000Y-45573000D01*
X49657000Y-45573000D01*
X49657000Y-45593000D01*
X50999915Y-45593000D01*
X51121904Y-45370961D01*
X51111442Y-45313270D01*
X50850637Y-44815576D01*
X50419226Y-44455572D01*
X50396791Y-44448565D01*
X50776730Y-44194698D01*
X50786550Y-44180000D01*
X51842560Y-44180000D01*
X51842560Y-45080000D01*
X51886838Y-45315317D01*
X52025910Y-45531441D01*
X52238110Y-45676431D01*
X52490000Y-45727440D01*
X54190000Y-45727440D01*
X54425317Y-45683162D01*
X54641441Y-45544090D01*
X54747785Y-45388450D01*
X55996282Y-45388450D01*
X56070853Y-45500054D01*
X56400026Y-45720000D01*
X56070853Y-45939946D01*
X55748946Y-46421715D01*
X55635907Y-46990000D01*
X55748946Y-47558285D01*
X56070853Y-48040054D01*
X56552622Y-48361961D01*
X57120907Y-48475000D01*
X57179093Y-48475000D01*
X57747378Y-48361961D01*
X58229147Y-48040054D01*
X58551054Y-47558285D01*
X58664093Y-46990000D01*
X58551054Y-46421715D01*
X58229147Y-45939946D01*
X57899974Y-45720000D01*
X58229147Y-45500054D01*
X58303718Y-45388450D01*
X58666282Y-45388450D01*
X58751550Y-45473719D01*
X58751550Y-48895000D01*
X58754984Y-48912265D01*
X58754838Y-49080167D01*
X58819520Y-49236710D01*
X58822985Y-49254129D01*
X58832766Y-49268767D01*
X58896883Y-49423943D01*
X59016551Y-49543820D01*
X59026416Y-49558584D01*
X59041051Y-49568363D01*
X59159673Y-49687192D01*
X59316105Y-49752148D01*
X59330871Y-49762015D01*
X59348137Y-49765449D01*
X59503201Y-49829838D01*
X59672583Y-49829986D01*
X59690000Y-49833450D01*
X59707265Y-49830016D01*
X59875167Y-49830162D01*
X60031710Y-49765480D01*
X60049129Y-49762015D01*
X60063767Y-49752234D01*
X60218943Y-49688117D01*
X60338820Y-49568449D01*
X60353584Y-49558584D01*
X60363363Y-49543949D01*
X60482192Y-49425327D01*
X60547148Y-49268895D01*
X60557015Y-49254129D01*
X60560449Y-49236863D01*
X60624838Y-49081799D01*
X60624986Y-48912417D01*
X60628450Y-48895000D01*
X60628450Y-45085000D01*
X60557015Y-44725871D01*
X60473946Y-44601550D01*
X60353585Y-44421416D01*
X59718584Y-43786416D01*
X59414130Y-43582985D01*
X59354547Y-43571133D01*
X59055000Y-43511550D01*
X58303718Y-43511550D01*
X58229147Y-43399946D01*
X58185223Y-43370597D01*
X58359698Y-43298327D01*
X58538327Y-43119699D01*
X58635000Y-42886310D01*
X58635000Y-42195750D01*
X58476250Y-42037000D01*
X57277000Y-42037000D01*
X57277000Y-42057000D01*
X57023000Y-42057000D01*
X57023000Y-42037000D01*
X55823750Y-42037000D01*
X55665000Y-42195750D01*
X55665000Y-42886310D01*
X55761673Y-43119699D01*
X55940302Y-43298327D01*
X56114777Y-43370597D01*
X56070853Y-43399946D01*
X55996282Y-43511550D01*
X53520000Y-43511550D01*
X53414375Y-43532560D01*
X52490000Y-43532560D01*
X52254683Y-43576838D01*
X52038559Y-43715910D01*
X51893569Y-43928110D01*
X51842560Y-44180000D01*
X50786550Y-44180000D01*
X51087799Y-43729151D01*
X51197032Y-43180000D01*
X51087799Y-42630849D01*
X50776730Y-42165302D01*
X50552910Y-42015750D01*
X51855000Y-42015750D01*
X51855000Y-42306309D01*
X51951673Y-42539698D01*
X52130301Y-42718327D01*
X52363690Y-42815000D01*
X53054250Y-42815000D01*
X53213000Y-42656250D01*
X53213000Y-41857000D01*
X53467000Y-41857000D01*
X53467000Y-42656250D01*
X53625750Y-42815000D01*
X54316310Y-42815000D01*
X54549699Y-42718327D01*
X54728327Y-42539698D01*
X54825000Y-42306309D01*
X54825000Y-42015750D01*
X54666250Y-41857000D01*
X53467000Y-41857000D01*
X53213000Y-41857000D01*
X52013750Y-41857000D01*
X51855000Y-42015750D01*
X50552910Y-42015750D01*
X50394644Y-41910000D01*
X50776730Y-41654698D01*
X51087799Y-41189151D01*
X51094852Y-41153691D01*
X51855000Y-41153691D01*
X51855000Y-41444250D01*
X52013750Y-41603000D01*
X53213000Y-41603000D01*
X53213000Y-40803750D01*
X53467000Y-40803750D01*
X53467000Y-41603000D01*
X54666250Y-41603000D01*
X54825000Y-41444250D01*
X54825000Y-41153691D01*
X54733873Y-40933690D01*
X55665000Y-40933690D01*
X55665000Y-41624250D01*
X55823750Y-41783000D01*
X57023000Y-41783000D01*
X57023000Y-40583750D01*
X57277000Y-40583750D01*
X57277000Y-41783000D01*
X58476250Y-41783000D01*
X58635000Y-41624250D01*
X58635000Y-40933690D01*
X58538327Y-40700301D01*
X58359698Y-40521673D01*
X58126309Y-40425000D01*
X57435750Y-40425000D01*
X57277000Y-40583750D01*
X57023000Y-40583750D01*
X56864250Y-40425000D01*
X56173691Y-40425000D01*
X55940302Y-40521673D01*
X55761673Y-40700301D01*
X55665000Y-40933690D01*
X54733873Y-40933690D01*
X54728327Y-40920302D01*
X54549699Y-40741673D01*
X54316310Y-40645000D01*
X53625750Y-40645000D01*
X53467000Y-40803750D01*
X53213000Y-40803750D01*
X53054250Y-40645000D01*
X52363690Y-40645000D01*
X52130301Y-40741673D01*
X51951673Y-40920302D01*
X51855000Y-41153691D01*
X51094852Y-41153691D01*
X51197032Y-40640000D01*
X51087799Y-40090849D01*
X50776730Y-39625302D01*
X50394644Y-39370000D01*
X50776730Y-39114698D01*
X51087799Y-38649151D01*
X51197032Y-38100000D01*
X51087799Y-37550849D01*
X50910165Y-37285000D01*
X51663799Y-37285000D01*
X51663800Y-37285005D01*
X51663800Y-39370000D01*
X51743057Y-39768450D01*
X51968760Y-40106240D01*
X52306550Y-40331943D01*
X52705000Y-40411200D01*
X53103450Y-40331943D01*
X53441240Y-40106240D01*
X53666943Y-39768450D01*
X53746200Y-39370000D01*
X53746200Y-38301812D01*
X53845317Y-38283162D01*
X54061441Y-38144090D01*
X54206431Y-37931890D01*
X54257440Y-37680000D01*
X54257440Y-35980000D01*
X54213162Y-35744683D01*
X54074090Y-35528559D01*
X53861890Y-35383569D01*
X53610000Y-35332560D01*
X52710000Y-35332560D01*
X52474683Y-35376838D01*
X52258559Y-35515910D01*
X52113569Y-35728110D01*
X52062560Y-35980000D01*
X52062560Y-36454960D01*
X51968760Y-36548760D01*
X51743057Y-36886550D01*
X51663799Y-37285000D01*
X50910165Y-37285000D01*
X50776730Y-37085302D01*
X50394644Y-36830000D01*
X50776730Y-36574698D01*
X51087799Y-36109151D01*
X51197032Y-35560000D01*
X51087799Y-35010849D01*
X50776730Y-34545302D01*
X50394644Y-34290000D01*
X50776730Y-34034698D01*
X51087799Y-33569151D01*
X51089668Y-33559750D01*
X51689000Y-33559750D01*
X51689000Y-34162310D01*
X51785673Y-34395699D01*
X51964302Y-34574327D01*
X52197691Y-34671000D01*
X52419250Y-34671000D01*
X52578000Y-34512250D01*
X52578000Y-33401000D01*
X52832000Y-33401000D01*
X52832000Y-34512250D01*
X52990750Y-34671000D01*
X53212309Y-34671000D01*
X53445698Y-34574327D01*
X53624327Y-34395699D01*
X53721000Y-34162310D01*
X53721000Y-33559750D01*
X53562250Y-33401000D01*
X52832000Y-33401000D01*
X52578000Y-33401000D01*
X51847750Y-33401000D01*
X51689000Y-33559750D01*
X51089668Y-33559750D01*
X51197032Y-33020000D01*
X51087799Y-32470849D01*
X51030898Y-32385690D01*
X51689000Y-32385690D01*
X51689000Y-32988250D01*
X51847750Y-33147000D01*
X52578000Y-33147000D01*
X52578000Y-32035750D01*
X52832000Y-32035750D01*
X52832000Y-33147000D01*
X53562250Y-33147000D01*
X53721000Y-32988250D01*
X53721000Y-32385690D01*
X53624327Y-32152301D01*
X53445698Y-31973673D01*
X53212309Y-31877000D01*
X52990750Y-31877000D01*
X52832000Y-32035750D01*
X52578000Y-32035750D01*
X52419250Y-31877000D01*
X52197691Y-31877000D01*
X51964302Y-31973673D01*
X51785673Y-32152301D01*
X51689000Y-32385690D01*
X51030898Y-32385690D01*
X50776730Y-32005302D01*
X50394644Y-31750000D01*
X50776730Y-31494698D01*
X51087799Y-31029151D01*
X51197032Y-30480000D01*
X51087799Y-29930849D01*
X50776730Y-29465302D01*
X50396791Y-29211435D01*
X50419226Y-29204428D01*
X50850637Y-28844424D01*
X51111442Y-28346730D01*
X51121904Y-28289039D01*
X50999915Y-28067000D01*
X49657000Y-28067000D01*
X49657000Y-28087000D01*
X49403000Y-28087000D01*
X49403000Y-28067000D01*
X48060085Y-28067000D01*
X47938096Y-28289039D01*
X47948558Y-28346730D01*
X48209363Y-28844424D01*
X48640774Y-29204428D01*
X48663209Y-29211435D01*
X48283270Y-29465302D01*
X47972201Y-29930849D01*
X47862968Y-30480000D01*
X47972201Y-31029151D01*
X48283270Y-31494698D01*
X48665356Y-31750000D01*
X48283270Y-32005302D01*
X47972201Y-32470849D01*
X47908461Y-32791292D01*
X47217440Y-32100272D01*
X47217440Y-31480000D01*
X47173162Y-31244683D01*
X47034090Y-31028559D01*
X46821890Y-30883569D01*
X46570000Y-30832560D01*
X44870000Y-30832560D01*
X44634683Y-30876838D01*
X44418559Y-31015910D01*
X44273569Y-31228110D01*
X44222560Y-31480000D01*
X44222560Y-32380000D01*
X44266838Y-32615317D01*
X44405910Y-32831441D01*
X44618110Y-32976431D01*
X44870000Y-33027440D01*
X45490272Y-33027440D01*
X47889491Y-35426660D01*
X47862968Y-35560000D01*
X47972201Y-36109151D01*
X48283270Y-36574698D01*
X48665356Y-36830000D01*
X48283270Y-37085302D01*
X47972201Y-37550849D01*
X47905143Y-37887975D01*
X41720690Y-31703522D01*
X41720690Y-30568640D01*
X42231310Y-30568640D01*
X42466627Y-30524362D01*
X42682751Y-30385290D01*
X42827741Y-30173090D01*
X42878750Y-29921200D01*
X42878750Y-29315750D01*
X44235000Y-29315750D01*
X44235000Y-29606309D01*
X44331673Y-29839698D01*
X44510301Y-30018327D01*
X44743690Y-30115000D01*
X45434250Y-30115000D01*
X45593000Y-29956250D01*
X45593000Y-29157000D01*
X45847000Y-29157000D01*
X45847000Y-29956250D01*
X46005750Y-30115000D01*
X46696310Y-30115000D01*
X46929699Y-30018327D01*
X47108327Y-29839698D01*
X47205000Y-29606309D01*
X47205000Y-29315750D01*
X47046250Y-29157000D01*
X45847000Y-29157000D01*
X45593000Y-29157000D01*
X44393750Y-29157000D01*
X44235000Y-29315750D01*
X42878750Y-29315750D01*
X42878750Y-28453691D01*
X44235000Y-28453691D01*
X44235000Y-28744250D01*
X44393750Y-28903000D01*
X45593000Y-28903000D01*
X45593000Y-28103750D01*
X45847000Y-28103750D01*
X45847000Y-28903000D01*
X47046250Y-28903000D01*
X47205000Y-28744250D01*
X47205000Y-28453691D01*
X47108327Y-28220302D01*
X46929699Y-28041673D01*
X46760891Y-27971750D01*
X51689000Y-27971750D01*
X51689000Y-28574310D01*
X51785673Y-28807699D01*
X51964302Y-28986327D01*
X52197691Y-29083000D01*
X52419250Y-29083000D01*
X52578000Y-28924250D01*
X52578000Y-27813000D01*
X52832000Y-27813000D01*
X52832000Y-28924250D01*
X52990750Y-29083000D01*
X53212309Y-29083000D01*
X53445698Y-28986327D01*
X53624327Y-28807699D01*
X53721000Y-28574310D01*
X53721000Y-27971750D01*
X53562250Y-27813000D01*
X52832000Y-27813000D01*
X52578000Y-27813000D01*
X51847750Y-27813000D01*
X51689000Y-27971750D01*
X46760891Y-27971750D01*
X46696310Y-27945000D01*
X46005750Y-27945000D01*
X45847000Y-28103750D01*
X45593000Y-28103750D01*
X45434250Y-27945000D01*
X44743690Y-27945000D01*
X44510301Y-28041673D01*
X44331673Y-28220302D01*
X44235000Y-28453691D01*
X42878750Y-28453691D01*
X42878750Y-28422600D01*
X42834472Y-28187283D01*
X42695400Y-27971159D01*
X42508318Y-27843332D01*
X42654220Y-27697430D01*
X42654220Y-26398220D01*
X42908220Y-26398220D01*
X42908220Y-27697430D01*
X43066970Y-27856180D01*
X43607299Y-27856180D01*
X43840688Y-27759507D01*
X44019317Y-27580879D01*
X44115990Y-27347490D01*
X44115990Y-26556970D01*
X43957240Y-26398220D01*
X42908220Y-26398220D01*
X42654220Y-26398220D01*
X41605200Y-26398220D01*
X41446450Y-26556970D01*
X41446450Y-27347490D01*
X41543123Y-27580879D01*
X41721752Y-27759507D01*
X41759542Y-27775160D01*
X41532810Y-27775160D01*
X41324784Y-27814303D01*
X41131490Y-27775160D01*
X40617043Y-27775160D01*
X40569997Y-27661581D01*
X40391368Y-27482953D01*
X40157979Y-27386280D01*
X39968170Y-27386280D01*
X39809420Y-27545030D01*
X39809420Y-28304726D01*
X39785550Y-28422600D01*
X39785550Y-29921200D01*
X39829828Y-30156517D01*
X39843790Y-30178215D01*
X39843790Y-32092240D01*
X39887514Y-32312057D01*
X39915225Y-32451370D01*
X40118656Y-32755824D01*
X47886173Y-40523341D01*
X47862968Y-40640000D01*
X47972201Y-41189151D01*
X48283270Y-41654698D01*
X48665356Y-41910000D01*
X48456633Y-42049464D01*
X39518510Y-33111342D01*
X39518510Y-30183673D01*
X39525741Y-30173090D01*
X39576750Y-29921200D01*
X39576750Y-28422600D01*
X39555420Y-28309241D01*
X39555420Y-27545030D01*
X39396670Y-27386280D01*
X39206861Y-27386280D01*
X38973472Y-27482953D01*
X38794843Y-27661581D01*
X38747797Y-27775160D01*
X38477471Y-27775160D01*
X38477471Y-27669450D01*
X41318321Y-24828600D01*
X41676085Y-24828600D01*
X41543123Y-24961561D01*
X41446450Y-25194950D01*
X41446450Y-25985470D01*
X41605200Y-26144220D01*
X42654220Y-26144220D01*
X42654220Y-26124220D01*
X42908220Y-26124220D01*
X42908220Y-26144220D01*
X43957240Y-26144220D01*
X44115990Y-25985470D01*
X44115990Y-25194950D01*
X44019317Y-24961561D01*
X43886355Y-24828600D01*
X47285838Y-24828600D01*
X47864391Y-25407153D01*
X47972201Y-25949151D01*
X48283270Y-26414698D01*
X48663209Y-26668565D01*
X48640774Y-26675572D01*
X48209363Y-27035576D01*
X47948558Y-27533270D01*
X47938096Y-27590961D01*
X48060085Y-27813000D01*
X49403000Y-27813000D01*
X49403000Y-27793000D01*
X49657000Y-27793000D01*
X49657000Y-27813000D01*
X50999915Y-27813000D01*
X51121904Y-27590961D01*
X51111442Y-27533270D01*
X50850637Y-27035576D01*
X50697383Y-26907688D01*
X50862006Y-26797690D01*
X51689000Y-26797690D01*
X51689000Y-27400250D01*
X51847750Y-27559000D01*
X52578000Y-27559000D01*
X52578000Y-26447750D01*
X52832000Y-26447750D01*
X52832000Y-27559000D01*
X53562250Y-27559000D01*
X53721000Y-27400250D01*
X53721000Y-26797690D01*
X53624327Y-26564301D01*
X53445698Y-26385673D01*
X53212309Y-26289000D01*
X52990750Y-26289000D01*
X52832000Y-26447750D01*
X52578000Y-26447750D01*
X52419250Y-26289000D01*
X52197691Y-26289000D01*
X51964302Y-26385673D01*
X51785673Y-26564301D01*
X51689000Y-26797690D01*
X50862006Y-26797690D01*
X50901381Y-26771381D01*
X51127129Y-26433526D01*
X51206400Y-26035000D01*
X51143246Y-25717498D01*
X51206400Y-25400000D01*
X51127128Y-25001473D01*
X51113789Y-24981510D01*
X51087799Y-24850849D01*
X50776730Y-24385302D01*
X50311183Y-24074233D01*
X49762032Y-23965000D01*
X49367762Y-23965000D01*
X48453581Y-23050819D01*
X48115727Y-22825072D01*
X47717200Y-22745800D01*
X40886959Y-22745800D01*
X40488433Y-22825071D01*
X40150578Y-23050819D01*
X37764969Y-25436428D01*
X37764986Y-25417417D01*
X37768450Y-25400000D01*
X37765016Y-25382735D01*
X37765162Y-25214833D01*
X37700480Y-25058290D01*
X37697015Y-25040871D01*
X37687234Y-25026233D01*
X37623117Y-24871057D01*
X37503449Y-24751180D01*
X37493584Y-24736416D01*
X37478949Y-24726637D01*
X37360327Y-24607808D01*
X37203895Y-24542852D01*
X37189129Y-24532985D01*
X37171863Y-24529551D01*
X37016799Y-24465162D01*
X36847417Y-24465014D01*
X36830000Y-24461550D01*
X36405736Y-24461550D01*
X36046607Y-24532985D01*
X35742152Y-24736415D01*
X34617016Y-25861552D01*
X34413585Y-26166006D01*
X34407482Y-26196688D01*
X34342150Y-26525136D01*
X34342150Y-27775160D01*
X33831530Y-27775160D01*
X33596213Y-27819438D01*
X33380089Y-27958510D01*
X33235099Y-28170710D01*
X33184090Y-28422600D01*
X33184090Y-29921200D01*
X33228368Y-30156517D01*
X33367440Y-30372641D01*
X33579640Y-30517631D01*
X33831530Y-30568640D01*
X34336774Y-30568640D01*
X34467260Y-30771421D01*
X34679460Y-30916411D01*
X34931350Y-30967420D01*
X35482210Y-30967420D01*
X31931030Y-34518600D01*
X27876768Y-34518600D01*
X27534644Y-34290000D01*
X27916730Y-34034698D01*
X28227799Y-33569151D01*
X28337032Y-33020000D01*
X28227799Y-32470849D01*
X27916730Y-32005302D01*
X27534644Y-31750000D01*
X27916730Y-31494698D01*
X28227799Y-31029151D01*
X28337032Y-30480000D01*
X28227799Y-29930849D01*
X27916730Y-29465302D01*
X27536791Y-29211435D01*
X27559226Y-29204428D01*
X27990637Y-28844424D01*
X28251442Y-28346730D01*
X28261904Y-28289039D01*
X28139915Y-28067000D01*
X26797000Y-28067000D01*
X26797000Y-28087000D01*
X26543000Y-28087000D01*
X26543000Y-28067000D01*
X25200085Y-28067000D01*
X25078096Y-28289039D01*
X25088558Y-28346730D01*
X25349363Y-28844424D01*
X25780774Y-29204428D01*
X25803209Y-29211435D01*
X25423270Y-29465302D01*
X25112201Y-29930849D01*
X25002968Y-30480000D01*
X18710000Y-30480000D01*
X18710000Y-25400000D01*
X25002968Y-25400000D01*
X25112201Y-25949151D01*
X25423270Y-26414698D01*
X25803209Y-26668565D01*
X25780774Y-26675572D01*
X25349363Y-27035576D01*
X25088558Y-27533270D01*
X25078096Y-27590961D01*
X25200085Y-27813000D01*
X26543000Y-27813000D01*
X26543000Y-27793000D01*
X26797000Y-27793000D01*
X26797000Y-27813000D01*
X28139915Y-27813000D01*
X28261904Y-27590961D01*
X28251442Y-27533270D01*
X27990637Y-27035576D01*
X27559226Y-26675572D01*
X27536791Y-26668565D01*
X27916730Y-26414698D01*
X28227799Y-25949151D01*
X28246070Y-25857297D01*
X28246070Y-26445790D01*
X28342743Y-26679179D01*
X28521372Y-26857807D01*
X28754761Y-26954480D01*
X29295090Y-26954480D01*
X29453840Y-26795730D01*
X29453840Y-25496520D01*
X29707840Y-25496520D01*
X29707840Y-26795730D01*
X29866590Y-26954480D01*
X30406919Y-26954480D01*
X30640308Y-26857807D01*
X30818937Y-26679179D01*
X30915610Y-26445790D01*
X30915610Y-25655270D01*
X30756860Y-25496520D01*
X29707840Y-25496520D01*
X29453840Y-25496520D01*
X29433840Y-25496520D01*
X29433840Y-25242520D01*
X29453840Y-25242520D01*
X29453840Y-25222520D01*
X29707840Y-25222520D01*
X29707840Y-25242520D01*
X30756860Y-25242520D01*
X30915610Y-25083770D01*
X30915610Y-24293250D01*
X30818937Y-24059861D01*
X30640308Y-23881233D01*
X30406919Y-23784560D01*
X29957919Y-23784560D01*
X31111279Y-22631200D01*
X51003720Y-22631200D01*
X53238760Y-24866239D01*
X53576550Y-25091943D01*
X53975000Y-25171200D01*
X54373449Y-25091943D01*
X54711239Y-24866239D01*
X54936943Y-24528449D01*
X55016200Y-24130000D01*
X54936943Y-23731550D01*
X54711239Y-23393760D01*
X52171240Y-20853760D01*
X51833450Y-20628057D01*
X51435000Y-20548799D01*
X51434995Y-20548800D01*
X30680005Y-20548800D01*
X30680000Y-20548799D01*
X30347658Y-20614907D01*
X30281550Y-20628057D01*
X29943760Y-20853760D01*
X29943758Y-20853763D01*
X26832520Y-23965000D01*
X26437968Y-23965000D01*
X25888817Y-24074233D01*
X25423270Y-24385302D01*
X25112201Y-24850849D01*
X25002968Y-25400000D01*
X18710000Y-25400000D01*
X18710000Y-21069931D01*
X18821046Y-20511662D01*
X19097669Y-20097667D01*
X19511660Y-19821047D01*
X20069931Y-19710000D01*
X55930069Y-19710000D01*
X56488338Y-19821046D01*
X56488338Y-19821046D01*
G37*
X56488338Y-19821046D02*
X56902333Y-20097669D01*
X57178953Y-20511660D01*
X57290000Y-21069931D01*
X57290000Y-26424669D01*
X57147890Y-26327569D01*
X56896000Y-26276560D01*
X56580154Y-26276560D01*
X56515000Y-26263600D01*
X56449846Y-26276560D01*
X56134000Y-26276560D01*
X55898683Y-26320838D01*
X55682559Y-26459910D01*
X55537569Y-26672110D01*
X55486560Y-26924000D01*
X55486560Y-27239846D01*
X55473600Y-27305000D01*
X55473600Y-33274000D01*
X55473800Y-33275005D01*
X55473800Y-35358188D01*
X55374683Y-35376838D01*
X55158559Y-35515910D01*
X55013569Y-35728110D01*
X54962560Y-35980000D01*
X54962560Y-36904375D01*
X54941550Y-37010000D01*
X54941550Y-39370000D01*
X54944984Y-39387265D01*
X54944838Y-39555167D01*
X55009520Y-39711710D01*
X55012985Y-39729129D01*
X55022766Y-39743767D01*
X55086883Y-39898943D01*
X55206551Y-40018820D01*
X55216416Y-40033584D01*
X55231051Y-40043363D01*
X55349673Y-40162192D01*
X55506105Y-40227148D01*
X55520871Y-40237015D01*
X55538137Y-40240449D01*
X55693201Y-40304838D01*
X55862583Y-40304986D01*
X55880000Y-40308450D01*
X55897265Y-40305016D01*
X56065167Y-40305162D01*
X56221710Y-40240480D01*
X56239129Y-40237015D01*
X56253767Y-40227234D01*
X56408943Y-40163117D01*
X56528820Y-40043449D01*
X56543584Y-40033584D01*
X56553363Y-40018949D01*
X56672192Y-39900327D01*
X56737148Y-39743895D01*
X56747015Y-39729129D01*
X56750449Y-39711863D01*
X56814838Y-39556799D01*
X56814986Y-39387417D01*
X56818450Y-39370000D01*
X56818450Y-38236102D01*
X56961441Y-38144090D01*
X57106431Y-37931890D01*
X57157440Y-37680000D01*
X57157440Y-37205039D01*
X57251237Y-37111242D01*
X57251240Y-37111240D01*
X57476943Y-36773450D01*
X57556200Y-36375000D01*
X57556200Y-33629545D01*
X62290000Y-41203625D01*
X62290000Y-65930069D01*
X62178953Y-66488340D01*
X61902333Y-66902331D01*
X61488338Y-67178954D01*
X60930069Y-67290000D01*
X20069931Y-67290000D01*
X19511660Y-67178953D01*
X19097669Y-66902333D01*
X18821046Y-66488338D01*
X18788706Y-66325750D01*
X29591000Y-66325750D01*
X29591000Y-66420310D01*
X29687673Y-66653699D01*
X29866302Y-66832327D01*
X30099691Y-66929000D01*
X30194250Y-66929000D01*
X30353000Y-66770250D01*
X30353000Y-66167000D01*
X29749750Y-66167000D01*
X29591000Y-66325750D01*
X18788706Y-66325750D01*
X18710000Y-65930069D01*
X18710000Y-65659690D01*
X29591000Y-65659690D01*
X29591000Y-65754250D01*
X29749750Y-65913000D01*
X30353000Y-65913000D01*
X30353000Y-65309750D01*
X30607000Y-65309750D01*
X30607000Y-65913000D01*
X30627000Y-65913000D01*
X30627000Y-66167000D01*
X30607000Y-66167000D01*
X30607000Y-66770250D01*
X30765750Y-66929000D01*
X30860309Y-66929000D01*
X31093698Y-66832327D01*
X31272327Y-66653699D01*
X31369000Y-66420310D01*
X31369000Y-66325750D01*
X31210252Y-66167002D01*
X31368862Y-66167002D01*
X31422872Y-66438527D01*
X31648619Y-66776381D01*
X31986473Y-67002128D01*
X32385000Y-67081400D01*
X33624449Y-67081400D01*
X33630910Y-67091441D01*
X33843110Y-67236431D01*
X34095000Y-67287440D01*
X34995000Y-67287440D01*
X35230317Y-67243162D01*
X35446441Y-67104090D01*
X35591431Y-66891890D01*
X35642440Y-66640000D01*
X35642440Y-65440000D01*
X36747560Y-65440000D01*
X36747560Y-66640000D01*
X36791838Y-66875317D01*
X36930910Y-67091441D01*
X37143110Y-67236431D01*
X37395000Y-67287440D01*
X38295000Y-67287440D01*
X38530317Y-67243162D01*
X38746441Y-67104090D01*
X38762081Y-67081200D01*
X39339320Y-67081200D01*
X39345910Y-67091441D01*
X39558110Y-67236431D01*
X39810000Y-67287440D01*
X40710000Y-67287440D01*
X40945317Y-67243162D01*
X41161441Y-67104090D01*
X41306431Y-66891890D01*
X41357440Y-66640000D01*
X41357440Y-65440000D01*
X41313162Y-65204683D01*
X41174090Y-64988559D01*
X40961890Y-64843569D01*
X40710000Y-64792560D01*
X39810000Y-64792560D01*
X39574683Y-64836838D01*
X39358559Y-64975910D01*
X39342919Y-64998800D01*
X38765680Y-64998800D01*
X38759090Y-64988559D01*
X38546890Y-64843569D01*
X38295000Y-64792560D01*
X37395000Y-64792560D01*
X37159683Y-64836838D01*
X36943559Y-64975910D01*
X36798569Y-65188110D01*
X36747560Y-65440000D01*
X35642440Y-65440000D01*
X35598162Y-65204683D01*
X35586400Y-65186404D01*
X35586400Y-64311362D01*
X36296381Y-63601381D01*
X36522129Y-63263526D01*
X36601400Y-62865000D01*
X36601400Y-62092431D01*
X36656431Y-62011890D01*
X36658555Y-62001400D01*
X39369997Y-62001400D01*
X39768524Y-61922128D01*
X39875208Y-61850844D01*
X40437741Y-61851335D01*
X41038889Y-61602945D01*
X41499224Y-61143414D01*
X41748662Y-60542699D01*
X41749230Y-59892256D01*
X41500840Y-59291108D01*
X41041309Y-58830773D01*
X40440594Y-58581335D01*
X39790151Y-58580767D01*
X39189003Y-58829157D01*
X38728668Y-59288688D01*
X38479230Y-59889403D01*
X38479205Y-59918600D01*
X36659248Y-59918600D01*
X36524090Y-59708559D01*
X36311890Y-59563569D01*
X36060000Y-59512560D01*
X35060000Y-59512560D01*
X34824683Y-59556838D01*
X34608559Y-59695910D01*
X34463569Y-59908110D01*
X34412560Y-60160000D01*
X34412560Y-61760000D01*
X34456838Y-61995317D01*
X34518600Y-62091298D01*
X34518600Y-62433638D01*
X33808619Y-63143619D01*
X33582872Y-63481473D01*
X33503600Y-63880000D01*
X33503600Y-64998600D01*
X32385000Y-64998600D01*
X31986473Y-65077872D01*
X31648619Y-65303619D01*
X31422872Y-65641473D01*
X31368862Y-65912998D01*
X31210252Y-65912998D01*
X31369000Y-65754250D01*
X31369000Y-65659690D01*
X31272327Y-65426301D01*
X31093698Y-65247673D01*
X30860309Y-65151000D01*
X30765750Y-65151000D01*
X30607000Y-65309750D01*
X30353000Y-65309750D01*
X30194250Y-65151000D01*
X30099691Y-65151000D01*
X29866302Y-65247673D01*
X29687673Y-65426301D01*
X29591000Y-65659690D01*
X18710000Y-65659690D01*
X18710000Y-40640000D01*
X25002968Y-40640000D01*
X25112201Y-41189151D01*
X25423270Y-41654698D01*
X25805356Y-41910000D01*
X25423270Y-42165302D01*
X25112201Y-42630849D01*
X25002968Y-43180000D01*
X25112201Y-43729151D01*
X25423270Y-44194698D01*
X25805356Y-44450000D01*
X25423270Y-44705302D01*
X25112201Y-45170849D01*
X25002968Y-45720000D01*
X25112201Y-46269151D01*
X25423270Y-46734698D01*
X25805356Y-46990000D01*
X25423270Y-47245302D01*
X25112201Y-47710849D01*
X25002968Y-48260000D01*
X25112201Y-48809151D01*
X25423270Y-49274698D01*
X25805356Y-49530000D01*
X25423270Y-49785302D01*
X25112201Y-50250849D01*
X25002968Y-50800000D01*
X25112201Y-51349151D01*
X25423270Y-51814698D01*
X25805356Y-52070000D01*
X25423270Y-52325302D01*
X25112201Y-52790849D01*
X25002968Y-53340000D01*
X25112201Y-53889151D01*
X25423270Y-54354698D01*
X25805356Y-54610000D01*
X25423270Y-54865302D01*
X25112201Y-55330849D01*
X25002968Y-55880000D01*
X25112201Y-56429151D01*
X25423270Y-56894698D01*
X25805356Y-57150000D01*
X25423270Y-57405302D01*
X25112201Y-57870849D01*
X25002968Y-58420000D01*
X25112201Y-58969151D01*
X25423270Y-59434698D01*
X25805356Y-59690000D01*
X25423270Y-59945302D01*
X25112201Y-60410849D01*
X25002968Y-60960000D01*
X25112201Y-61509151D01*
X25423270Y-61974698D01*
X25888817Y-62285767D01*
X26437968Y-62395000D01*
X26902032Y-62395000D01*
X27451183Y-62285767D01*
X27916730Y-61974698D01*
X27967677Y-61898450D01*
X28276900Y-61898450D01*
X28576447Y-61838867D01*
X28636030Y-61827015D01*
X28940484Y-61623584D01*
X29318318Y-61245750D01*
X31425000Y-61245750D01*
X31425000Y-61886310D01*
X31521673Y-62119699D01*
X31700302Y-62298327D01*
X31933691Y-62395000D01*
X32274250Y-62395000D01*
X32433000Y-62236250D01*
X32433000Y-61087000D01*
X32687000Y-61087000D01*
X32687000Y-62236250D01*
X32845750Y-62395000D01*
X33186309Y-62395000D01*
X33419698Y-62298327D01*
X33598327Y-62119699D01*
X33695000Y-61886310D01*
X33695000Y-61245750D01*
X33536250Y-61087000D01*
X32687000Y-61087000D01*
X32433000Y-61087000D01*
X31583750Y-61087000D01*
X31425000Y-61245750D01*
X29318318Y-61245750D01*
X30530378Y-60033690D01*
X31425000Y-60033690D01*
X31425000Y-60674250D01*
X31583750Y-60833000D01*
X32433000Y-60833000D01*
X32433000Y-59683750D01*
X32687000Y-59683750D01*
X32687000Y-60833000D01*
X33536250Y-60833000D01*
X33695000Y-60674250D01*
X33695000Y-60033690D01*
X33598327Y-59800301D01*
X33419698Y-59621673D01*
X33186309Y-59525000D01*
X32845750Y-59525000D01*
X32687000Y-59683750D01*
X32433000Y-59683750D01*
X32274250Y-59525000D01*
X31933691Y-59525000D01*
X31700302Y-59621673D01*
X31521673Y-59800301D01*
X31425000Y-60033690D01*
X30530378Y-60033690D01*
X30963584Y-59600485D01*
X31167014Y-59296030D01*
X31167015Y-59296029D01*
X31238450Y-58936900D01*
X31238450Y-57009409D01*
X38492090Y-57009409D01*
X38763056Y-57600725D01*
X39239682Y-58043336D01*
X39728486Y-58245805D01*
X39986946Y-58126875D01*
X39986946Y-56750949D01*
X40240946Y-56750949D01*
X40240946Y-58126875D01*
X40499406Y-58245805D01*
X41090722Y-57974839D01*
X41533333Y-57498213D01*
X41735802Y-57009409D01*
X41616872Y-56750949D01*
X40240946Y-56750949D01*
X39986946Y-56750949D01*
X38611020Y-56750949D01*
X38492090Y-57009409D01*
X31238450Y-57009409D01*
X31238450Y-56238489D01*
X38492090Y-56238489D01*
X38611020Y-56496949D01*
X39986946Y-56496949D01*
X39986946Y-55121023D01*
X39728486Y-55002093D01*
X39137170Y-55273059D01*
X38694559Y-55749685D01*
X38492090Y-56238489D01*
X31238450Y-56238489D01*
X31238450Y-55869926D01*
X31346431Y-55711890D01*
X31397440Y-55460000D01*
X31397440Y-54895750D01*
X32115000Y-54895750D01*
X32115000Y-55586310D01*
X32211673Y-55819699D01*
X32390302Y-55998327D01*
X32623691Y-56095000D01*
X32914250Y-56095000D01*
X33073000Y-55936250D01*
X33073000Y-54737000D01*
X33327000Y-54737000D01*
X33327000Y-55936250D01*
X33485750Y-56095000D01*
X33776309Y-56095000D01*
X34009698Y-55998327D01*
X34188327Y-55819699D01*
X34285000Y-55586310D01*
X34285000Y-54895750D01*
X34126250Y-54737000D01*
X33327000Y-54737000D01*
X33073000Y-54737000D01*
X32273750Y-54737000D01*
X32115000Y-54895750D01*
X31397440Y-54895750D01*
X31397440Y-54839728D01*
X32115000Y-54122168D01*
X32115000Y-54324250D01*
X32273750Y-54483000D01*
X33073000Y-54483000D01*
X33073000Y-53283750D01*
X33327000Y-53283750D01*
X33327000Y-54483000D01*
X34126250Y-54483000D01*
X34285000Y-54324250D01*
X34285000Y-53633690D01*
X34188327Y-53400301D01*
X34009698Y-53221673D01*
X33776309Y-53125000D01*
X33485750Y-53125000D01*
X33327000Y-53283750D01*
X33073000Y-53283750D01*
X33013209Y-53223959D01*
X33234800Y-53002368D01*
X33311752Y-53002435D01*
X33853411Y-52778627D01*
X34268190Y-52364571D01*
X34492944Y-51823303D01*
X34493455Y-51237228D01*
X34269647Y-50695569D01*
X33855591Y-50280790D01*
X33314323Y-50056036D01*
X32728248Y-50055525D01*
X32186589Y-50279333D01*
X31771810Y-50693389D01*
X31547056Y-51234657D01*
X31546545Y-51820732D01*
X31609569Y-51973263D01*
X30470272Y-53112560D01*
X29850000Y-53112560D01*
X29614683Y-53156838D01*
X29398559Y-53295910D01*
X29253569Y-53508110D01*
X29202560Y-53760000D01*
X29202560Y-55460000D01*
X29246838Y-55695317D01*
X29361550Y-55873584D01*
X29361550Y-58548181D01*
X27935836Y-59973896D01*
X27916730Y-59945302D01*
X27534644Y-59690000D01*
X27916730Y-59434698D01*
X28227799Y-58969151D01*
X28337032Y-58420000D01*
X28227799Y-57870849D01*
X27916730Y-57405302D01*
X27534644Y-57150000D01*
X27916730Y-56894698D01*
X28227799Y-56429151D01*
X28337032Y-55880000D01*
X28227799Y-55330849D01*
X27916730Y-54865302D01*
X27534644Y-54610000D01*
X27916730Y-54354698D01*
X28227799Y-53889151D01*
X28337032Y-53340000D01*
X28227799Y-52790849D01*
X27916730Y-52325302D01*
X27534644Y-52070000D01*
X27916730Y-51814698D01*
X28227799Y-51349151D01*
X28337032Y-50800000D01*
X28227799Y-50250849D01*
X27916730Y-49785302D01*
X27534644Y-49530000D01*
X27916730Y-49274698D01*
X28227799Y-48809151D01*
X28337032Y-48260000D01*
X28227799Y-47710849D01*
X27916730Y-47245302D01*
X27534644Y-46990000D01*
X27916730Y-46734698D01*
X28227799Y-46269151D01*
X28337032Y-45720000D01*
X28227799Y-45170849D01*
X27916730Y-44705302D01*
X27534644Y-44450000D01*
X27916730Y-44194698D01*
X28227799Y-43729151D01*
X28337032Y-43180000D01*
X28227799Y-42630849D01*
X27916730Y-42165302D01*
X27534644Y-41910000D01*
X27916730Y-41654698D01*
X28227799Y-41189151D01*
X28337032Y-40640000D01*
X28227799Y-40090849D01*
X27916730Y-39625302D01*
X27536791Y-39371435D01*
X27559226Y-39364428D01*
X27990637Y-39004424D01*
X28251442Y-38506730D01*
X28261904Y-38449039D01*
X28139915Y-38227000D01*
X26797000Y-38227000D01*
X26797000Y-38247000D01*
X26543000Y-38247000D01*
X26543000Y-38227000D01*
X25200085Y-38227000D01*
X25078096Y-38449039D01*
X25088558Y-38506730D01*
X25349363Y-39004424D01*
X25780774Y-39364428D01*
X25803209Y-39371435D01*
X25423270Y-39625302D01*
X25112201Y-40090849D01*
X25002968Y-40640000D01*
X18710000Y-40640000D01*
X18710000Y-30480000D01*
X25002968Y-30480000D01*
X25112201Y-31029151D01*
X25423270Y-31494698D01*
X25805356Y-31750000D01*
X25423270Y-32005302D01*
X25112201Y-32470849D01*
X25002968Y-33020000D01*
X25112201Y-33569151D01*
X25423270Y-34034698D01*
X25805356Y-34290000D01*
X25423270Y-34545302D01*
X25112201Y-35010849D01*
X25002968Y-35560000D01*
X25112201Y-36109151D01*
X25423270Y-36574698D01*
X25803209Y-36828565D01*
X25780774Y-36835572D01*
X25349363Y-37195576D01*
X25088558Y-37693270D01*
X25078096Y-37750961D01*
X25200085Y-37973000D01*
X26543000Y-37973000D01*
X26543000Y-37953000D01*
X26797000Y-37953000D01*
X26797000Y-37973000D01*
X28139915Y-37973000D01*
X28261904Y-37750961D01*
X28251442Y-37693270D01*
X27990637Y-37195576D01*
X27559226Y-36835572D01*
X27536791Y-36828565D01*
X27876768Y-36601400D01*
X31382420Y-36601400D01*
X31978800Y-37197779D01*
X31978800Y-46488800D01*
X31771810Y-46695429D01*
X31547056Y-47236697D01*
X31546545Y-47822772D01*
X31770353Y-48364431D01*
X32184409Y-48779210D01*
X32725677Y-49003964D01*
X33311752Y-49004475D01*
X33853411Y-48780667D01*
X34062222Y-48572220D01*
X37880504Y-48572220D01*
X37916838Y-48765317D01*
X38055910Y-48981441D01*
X38268110Y-49126431D01*
X38520000Y-49177440D01*
X40220000Y-49177440D01*
X40455317Y-49133162D01*
X40473906Y-49121200D01*
X43340454Y-49121200D01*
X43348110Y-49126431D01*
X43600000Y-49177440D01*
X45300000Y-49177440D01*
X45535317Y-49133162D01*
X45553906Y-49121200D01*
X48180706Y-49121200D01*
X48283270Y-49274698D01*
X48665356Y-49530000D01*
X48283270Y-49785302D01*
X47972201Y-50250849D01*
X47862968Y-50800000D01*
X47972201Y-51349151D01*
X48283270Y-51814698D01*
X48665356Y-52070000D01*
X48322933Y-52298800D01*
X46989997Y-52298800D01*
X46591547Y-52378057D01*
X46253757Y-52603760D01*
X46253755Y-52603763D01*
X43868428Y-54989090D01*
X43543385Y-54988806D01*
X40535892Y-51981313D01*
X40671441Y-51894090D01*
X40816431Y-51681890D01*
X40867440Y-51430000D01*
X40867440Y-50530000D01*
X42952560Y-50530000D01*
X42952560Y-51430000D01*
X42996838Y-51665317D01*
X43135910Y-51881441D01*
X43348110Y-52026431D01*
X43408800Y-52038721D01*
X43408800Y-52705000D01*
X43488057Y-53103450D01*
X43713760Y-53441240D01*
X44051550Y-53666943D01*
X44450000Y-53746200D01*
X44848450Y-53666943D01*
X45186240Y-53441240D01*
X45411943Y-53103450D01*
X45491200Y-52705000D01*
X45491200Y-52041463D01*
X45535317Y-52033162D01*
X45751441Y-51894090D01*
X45896431Y-51681890D01*
X45947440Y-51430000D01*
X45947440Y-50530000D01*
X45903162Y-50294683D01*
X45764090Y-50078559D01*
X45551890Y-49933569D01*
X45300000Y-49882560D01*
X43600000Y-49882560D01*
X43364683Y-49926838D01*
X43148559Y-50065910D01*
X43003569Y-50278110D01*
X42952560Y-50530000D01*
X40867440Y-50530000D01*
X40823162Y-50294683D01*
X40684090Y-50078559D01*
X40471890Y-49933569D01*
X40220000Y-49882560D01*
X38520000Y-49882560D01*
X38284683Y-49926838D01*
X38068559Y-50065910D01*
X37923569Y-50278110D01*
X37872560Y-50530000D01*
X37872560Y-51430000D01*
X37916838Y-51665317D01*
X38055910Y-51881441D01*
X38268110Y-52026431D01*
X38328800Y-52038721D01*
X38328800Y-52287896D01*
X38328799Y-52287901D01*
X38408057Y-52686351D01*
X38633760Y-53024141D01*
X40691124Y-55081505D01*
X40499406Y-55002093D01*
X40240946Y-55121023D01*
X40240946Y-56317341D01*
X40128087Y-56430200D01*
X40307695Y-56609808D01*
X40420554Y-56496949D01*
X41616872Y-56496949D01*
X41735802Y-56238489D01*
X41640809Y-56031190D01*
X42071189Y-56461570D01*
X42070764Y-56947744D01*
X42319154Y-57548892D01*
X42778685Y-58009227D01*
X43379400Y-58258665D01*
X44029843Y-58259233D01*
X44630991Y-58010843D01*
X45091326Y-57551312D01*
X45340764Y-56950597D01*
X45341191Y-56461285D01*
X47421276Y-54381200D01*
X48322933Y-54381200D01*
X48665356Y-54610000D01*
X48283270Y-54865302D01*
X47972201Y-55330849D01*
X47862968Y-55880000D01*
X47895246Y-56042274D01*
X44869872Y-59067648D01*
X44633411Y-58830773D01*
X44032696Y-58581335D01*
X43382253Y-58580767D01*
X42781105Y-58829157D01*
X42320770Y-59288688D01*
X42071332Y-59889403D01*
X42070764Y-60539846D01*
X42319154Y-61140994D01*
X42778685Y-61601329D01*
X43379400Y-61850767D01*
X44029843Y-61851335D01*
X44630991Y-61602945D01*
X44977290Y-61257251D01*
X45193944Y-61257251D01*
X45193949Y-61257252D01*
X45592399Y-61177994D01*
X45930189Y-60952291D01*
X47962433Y-58920046D01*
X47972201Y-58969151D01*
X48283270Y-59434698D01*
X48665356Y-59690000D01*
X48283270Y-59945302D01*
X47972201Y-60410849D01*
X47862968Y-60960000D01*
X47972201Y-61509151D01*
X48283270Y-61974698D01*
X48748817Y-62285767D01*
X49297968Y-62395000D01*
X49762032Y-62395000D01*
X50311183Y-62285767D01*
X50776730Y-61974698D01*
X51087799Y-61509151D01*
X51197032Y-60960000D01*
X51087799Y-60410849D01*
X50776730Y-59945302D01*
X50394644Y-59690000D01*
X50603367Y-59550535D01*
X52676415Y-61623584D01*
X52691053Y-61633365D01*
X52809673Y-61752192D01*
X52966106Y-61817149D01*
X52980870Y-61827014D01*
X52998133Y-61830448D01*
X53153201Y-61894838D01*
X53322588Y-61894986D01*
X53340000Y-61898449D01*
X53357260Y-61895016D01*
X53472122Y-61895116D01*
X52273638Y-63093600D01*
X46803000Y-63093600D01*
X46404473Y-63172872D01*
X46066619Y-63398619D01*
X44475104Y-64990134D01*
X44474090Y-64988559D01*
X44261890Y-64843569D01*
X44010000Y-64792560D01*
X43110000Y-64792560D01*
X42874683Y-64836838D01*
X42658559Y-64975910D01*
X42513569Y-65188110D01*
X42462560Y-65440000D01*
X42462560Y-65918276D01*
X42443400Y-66014600D01*
X42443400Y-66040000D01*
X42462560Y-66136324D01*
X42462560Y-66640000D01*
X42506838Y-66875317D01*
X42645910Y-67091441D01*
X42858110Y-67236431D01*
X43110000Y-67287440D01*
X44010000Y-67287440D01*
X44245317Y-67243162D01*
X44461441Y-67104090D01*
X44476944Y-67081400D01*
X44898000Y-67081400D01*
X45296527Y-67002128D01*
X45634381Y-66776381D01*
X47234362Y-65176400D01*
X52705000Y-65176400D01*
X53103527Y-65097128D01*
X53441381Y-64871381D01*
X57137762Y-61175000D01*
X57179093Y-61175000D01*
X57747378Y-61061961D01*
X58229147Y-60740054D01*
X58551054Y-60258285D01*
X58664093Y-59690000D01*
X58551054Y-59121715D01*
X58229147Y-58639946D01*
X57899974Y-58420000D01*
X58229147Y-58200054D01*
X58551054Y-57718285D01*
X58664093Y-57150000D01*
X58551054Y-56581715D01*
X58229147Y-56099946D01*
X57899974Y-55880000D01*
X58229147Y-55660054D01*
X58551054Y-55178285D01*
X58664093Y-54610000D01*
X58551054Y-54041715D01*
X58229147Y-53559946D01*
X58185223Y-53530597D01*
X58359698Y-53458327D01*
X58538327Y-53279699D01*
X58635000Y-53046310D01*
X58635000Y-52355750D01*
X58476250Y-52197000D01*
X57277000Y-52197000D01*
X57277000Y-52217000D01*
X57023000Y-52217000D01*
X57023000Y-52197000D01*
X55823750Y-52197000D01*
X55665000Y-52355750D01*
X55665000Y-53046310D01*
X55761673Y-53279699D01*
X55940302Y-53458327D01*
X56114777Y-53530597D01*
X56070853Y-53559946D01*
X55748946Y-54041715D01*
X55635907Y-54610000D01*
X55748946Y-55178285D01*
X56070853Y-55660054D01*
X56400026Y-55880000D01*
X56070853Y-56099946D01*
X55748946Y-56581715D01*
X55635907Y-57150000D01*
X55748946Y-57718285D01*
X56070853Y-58200054D01*
X56400026Y-58420000D01*
X56070853Y-58639946D01*
X56064937Y-58648800D01*
X55109199Y-58648800D01*
X53619200Y-57158801D01*
X53619200Y-51108000D01*
X53616354Y-51093690D01*
X55665000Y-51093690D01*
X55665000Y-51784250D01*
X55823750Y-51943000D01*
X57023000Y-51943000D01*
X57023000Y-50743750D01*
X57277000Y-50743750D01*
X57277000Y-51943000D01*
X58476250Y-51943000D01*
X58635000Y-51784250D01*
X58635000Y-51093690D01*
X58538327Y-50860301D01*
X58359698Y-50681673D01*
X58126309Y-50585000D01*
X57435750Y-50585000D01*
X57277000Y-50743750D01*
X57023000Y-50743750D01*
X56864250Y-50585000D01*
X56173691Y-50585000D01*
X55940302Y-50681673D01*
X55761673Y-50860301D01*
X55665000Y-51093690D01*
X53616354Y-51093690D01*
X53539943Y-50709550D01*
X53314240Y-50371760D01*
X53314237Y-50371758D01*
X51195679Y-48253200D01*
X51087799Y-47710849D01*
X50776730Y-47245302D01*
X50396791Y-46991435D01*
X50419226Y-46984428D01*
X50850637Y-46624424D01*
X51111442Y-46126730D01*
X51121904Y-46069039D01*
X50999915Y-45847000D01*
X49657000Y-45847000D01*
X49657000Y-45867000D01*
X49403000Y-45867000D01*
X49403000Y-45847000D01*
X49383000Y-45847000D01*
X49383000Y-45593000D01*
X49403000Y-45593000D01*
X49403000Y-45573000D01*
X49657000Y-45573000D01*
X49657000Y-45593000D01*
X50999915Y-45593000D01*
X51121904Y-45370961D01*
X51111442Y-45313270D01*
X50850637Y-44815576D01*
X50419226Y-44455572D01*
X50396791Y-44448565D01*
X50776730Y-44194698D01*
X50786550Y-44180000D01*
X51842560Y-44180000D01*
X51842560Y-45080000D01*
X51886838Y-45315317D01*
X52025910Y-45531441D01*
X52238110Y-45676431D01*
X52490000Y-45727440D01*
X54190000Y-45727440D01*
X54425317Y-45683162D01*
X54641441Y-45544090D01*
X54747785Y-45388450D01*
X55996282Y-45388450D01*
X56070853Y-45500054D01*
X56400026Y-45720000D01*
X56070853Y-45939946D01*
X55748946Y-46421715D01*
X55635907Y-46990000D01*
X55748946Y-47558285D01*
X56070853Y-48040054D01*
X56552622Y-48361961D01*
X57120907Y-48475000D01*
X57179093Y-48475000D01*
X57747378Y-48361961D01*
X58229147Y-48040054D01*
X58551054Y-47558285D01*
X58664093Y-46990000D01*
X58551054Y-46421715D01*
X58229147Y-45939946D01*
X57899974Y-45720000D01*
X58229147Y-45500054D01*
X58303718Y-45388450D01*
X58666282Y-45388450D01*
X58751550Y-45473719D01*
X58751550Y-48895000D01*
X58754984Y-48912265D01*
X58754838Y-49080167D01*
X58819520Y-49236710D01*
X58822985Y-49254129D01*
X58832766Y-49268767D01*
X58896883Y-49423943D01*
X59016551Y-49543820D01*
X59026416Y-49558584D01*
X59041051Y-49568363D01*
X59159673Y-49687192D01*
X59316105Y-49752148D01*
X59330871Y-49762015D01*
X59348137Y-49765449D01*
X59503201Y-49829838D01*
X59672583Y-49829986D01*
X59690000Y-49833450D01*
X59707265Y-49830016D01*
X59875167Y-49830162D01*
X60031710Y-49765480D01*
X60049129Y-49762015D01*
X60063767Y-49752234D01*
X60218943Y-49688117D01*
X60338820Y-49568449D01*
X60353584Y-49558584D01*
X60363363Y-49543949D01*
X60482192Y-49425327D01*
X60547148Y-49268895D01*
X60557015Y-49254129D01*
X60560449Y-49236863D01*
X60624838Y-49081799D01*
X60624986Y-48912417D01*
X60628450Y-48895000D01*
X60628450Y-45085000D01*
X60557015Y-44725871D01*
X60473946Y-44601550D01*
X60353585Y-44421416D01*
X59718584Y-43786416D01*
X59414130Y-43582985D01*
X59354547Y-43571133D01*
X59055000Y-43511550D01*
X58303718Y-43511550D01*
X58229147Y-43399946D01*
X58185223Y-43370597D01*
X58359698Y-43298327D01*
X58538327Y-43119699D01*
X58635000Y-42886310D01*
X58635000Y-42195750D01*
X58476250Y-42037000D01*
X57277000Y-42037000D01*
X57277000Y-42057000D01*
X57023000Y-42057000D01*
X57023000Y-42037000D01*
X55823750Y-42037000D01*
X55665000Y-42195750D01*
X55665000Y-42886310D01*
X55761673Y-43119699D01*
X55940302Y-43298327D01*
X56114777Y-43370597D01*
X56070853Y-43399946D01*
X55996282Y-43511550D01*
X53520000Y-43511550D01*
X53414375Y-43532560D01*
X52490000Y-43532560D01*
X52254683Y-43576838D01*
X52038559Y-43715910D01*
X51893569Y-43928110D01*
X51842560Y-44180000D01*
X50786550Y-44180000D01*
X51087799Y-43729151D01*
X51197032Y-43180000D01*
X51087799Y-42630849D01*
X50776730Y-42165302D01*
X50552910Y-42015750D01*
X51855000Y-42015750D01*
X51855000Y-42306309D01*
X51951673Y-42539698D01*
X52130301Y-42718327D01*
X52363690Y-42815000D01*
X53054250Y-42815000D01*
X53213000Y-42656250D01*
X53213000Y-41857000D01*
X53467000Y-41857000D01*
X53467000Y-42656250D01*
X53625750Y-42815000D01*
X54316310Y-42815000D01*
X54549699Y-42718327D01*
X54728327Y-42539698D01*
X54825000Y-42306309D01*
X54825000Y-42015750D01*
X54666250Y-41857000D01*
X53467000Y-41857000D01*
X53213000Y-41857000D01*
X52013750Y-41857000D01*
X51855000Y-42015750D01*
X50552910Y-42015750D01*
X50394644Y-41910000D01*
X50776730Y-41654698D01*
X51087799Y-41189151D01*
X51094852Y-41153691D01*
X51855000Y-41153691D01*
X51855000Y-41444250D01*
X52013750Y-41603000D01*
X53213000Y-41603000D01*
X53213000Y-40803750D01*
X53467000Y-40803750D01*
X53467000Y-41603000D01*
X54666250Y-41603000D01*
X54825000Y-41444250D01*
X54825000Y-41153691D01*
X54733873Y-40933690D01*
X55665000Y-40933690D01*
X55665000Y-41624250D01*
X55823750Y-41783000D01*
X57023000Y-41783000D01*
X57023000Y-40583750D01*
X57277000Y-40583750D01*
X57277000Y-41783000D01*
X58476250Y-41783000D01*
X58635000Y-41624250D01*
X58635000Y-40933690D01*
X58538327Y-40700301D01*
X58359698Y-40521673D01*
X58126309Y-40425000D01*
X57435750Y-40425000D01*
X57277000Y-40583750D01*
X57023000Y-40583750D01*
X56864250Y-40425000D01*
X56173691Y-40425000D01*
X55940302Y-40521673D01*
X55761673Y-40700301D01*
X55665000Y-40933690D01*
X54733873Y-40933690D01*
X54728327Y-40920302D01*
X54549699Y-40741673D01*
X54316310Y-40645000D01*
X53625750Y-40645000D01*
X53467000Y-40803750D01*
X53213000Y-40803750D01*
X53054250Y-40645000D01*
X52363690Y-40645000D01*
X52130301Y-40741673D01*
X51951673Y-40920302D01*
X51855000Y-41153691D01*
X51094852Y-41153691D01*
X51197032Y-40640000D01*
X51087799Y-40090849D01*
X50776730Y-39625302D01*
X50394644Y-39370000D01*
X50776730Y-39114698D01*
X51087799Y-38649151D01*
X51197032Y-38100000D01*
X51087799Y-37550849D01*
X50910165Y-37285000D01*
X51663799Y-37285000D01*
X51663800Y-37285005D01*
X51663800Y-39370000D01*
X51743057Y-39768450D01*
X51968760Y-40106240D01*
X52306550Y-40331943D01*
X52705000Y-40411200D01*
X53103450Y-40331943D01*
X53441240Y-40106240D01*
X53666943Y-39768450D01*
X53746200Y-39370000D01*
X53746200Y-38301812D01*
X53845317Y-38283162D01*
X54061441Y-38144090D01*
X54206431Y-37931890D01*
X54257440Y-37680000D01*
X54257440Y-35980000D01*
X54213162Y-35744683D01*
X54074090Y-35528559D01*
X53861890Y-35383569D01*
X53610000Y-35332560D01*
X52710000Y-35332560D01*
X52474683Y-35376838D01*
X52258559Y-35515910D01*
X52113569Y-35728110D01*
X52062560Y-35980000D01*
X52062560Y-36454960D01*
X51968760Y-36548760D01*
X51743057Y-36886550D01*
X51663799Y-37285000D01*
X50910165Y-37285000D01*
X50776730Y-37085302D01*
X50394644Y-36830000D01*
X50776730Y-36574698D01*
X51087799Y-36109151D01*
X51197032Y-35560000D01*
X51087799Y-35010849D01*
X50776730Y-34545302D01*
X50394644Y-34290000D01*
X50776730Y-34034698D01*
X51087799Y-33569151D01*
X51089668Y-33559750D01*
X51689000Y-33559750D01*
X51689000Y-34162310D01*
X51785673Y-34395699D01*
X51964302Y-34574327D01*
X52197691Y-34671000D01*
X52419250Y-34671000D01*
X52578000Y-34512250D01*
X52578000Y-33401000D01*
X52832000Y-33401000D01*
X52832000Y-34512250D01*
X52990750Y-34671000D01*
X53212309Y-34671000D01*
X53445698Y-34574327D01*
X53624327Y-34395699D01*
X53721000Y-34162310D01*
X53721000Y-33559750D01*
X53562250Y-33401000D01*
X52832000Y-33401000D01*
X52578000Y-33401000D01*
X51847750Y-33401000D01*
X51689000Y-33559750D01*
X51089668Y-33559750D01*
X51197032Y-33020000D01*
X51087799Y-32470849D01*
X51030898Y-32385690D01*
X51689000Y-32385690D01*
X51689000Y-32988250D01*
X51847750Y-33147000D01*
X52578000Y-33147000D01*
X52578000Y-32035750D01*
X52832000Y-32035750D01*
X52832000Y-33147000D01*
X53562250Y-33147000D01*
X53721000Y-32988250D01*
X53721000Y-32385690D01*
X53624327Y-32152301D01*
X53445698Y-31973673D01*
X53212309Y-31877000D01*
X52990750Y-31877000D01*
X52832000Y-32035750D01*
X52578000Y-32035750D01*
X52419250Y-31877000D01*
X52197691Y-31877000D01*
X51964302Y-31973673D01*
X51785673Y-32152301D01*
X51689000Y-32385690D01*
X51030898Y-32385690D01*
X50776730Y-32005302D01*
X50394644Y-31750000D01*
X50776730Y-31494698D01*
X51087799Y-31029151D01*
X51197032Y-30480000D01*
X51087799Y-29930849D01*
X50776730Y-29465302D01*
X50396791Y-29211435D01*
X50419226Y-29204428D01*
X50850637Y-28844424D01*
X51111442Y-28346730D01*
X51121904Y-28289039D01*
X50999915Y-28067000D01*
X49657000Y-28067000D01*
X49657000Y-28087000D01*
X49403000Y-28087000D01*
X49403000Y-28067000D01*
X48060085Y-28067000D01*
X47938096Y-28289039D01*
X47948558Y-28346730D01*
X48209363Y-28844424D01*
X48640774Y-29204428D01*
X48663209Y-29211435D01*
X48283270Y-29465302D01*
X47972201Y-29930849D01*
X47862968Y-30480000D01*
X47972201Y-31029151D01*
X48283270Y-31494698D01*
X48665356Y-31750000D01*
X48283270Y-32005302D01*
X47972201Y-32470849D01*
X47908461Y-32791292D01*
X47217440Y-32100272D01*
X47217440Y-31480000D01*
X47173162Y-31244683D01*
X47034090Y-31028559D01*
X46821890Y-30883569D01*
X46570000Y-30832560D01*
X44870000Y-30832560D01*
X44634683Y-30876838D01*
X44418559Y-31015910D01*
X44273569Y-31228110D01*
X44222560Y-31480000D01*
X44222560Y-32380000D01*
X44266838Y-32615317D01*
X44405910Y-32831441D01*
X44618110Y-32976431D01*
X44870000Y-33027440D01*
X45490272Y-33027440D01*
X47889491Y-35426660D01*
X47862968Y-35560000D01*
X47972201Y-36109151D01*
X48283270Y-36574698D01*
X48665356Y-36830000D01*
X48283270Y-37085302D01*
X47972201Y-37550849D01*
X47905143Y-37887975D01*
X41720690Y-31703522D01*
X41720690Y-30568640D01*
X42231310Y-30568640D01*
X42466627Y-30524362D01*
X42682751Y-30385290D01*
X42827741Y-30173090D01*
X42878750Y-29921200D01*
X42878750Y-29315750D01*
X44235000Y-29315750D01*
X44235000Y-29606309D01*
X44331673Y-29839698D01*
X44510301Y-30018327D01*
X44743690Y-30115000D01*
X45434250Y-30115000D01*
X45593000Y-29956250D01*
X45593000Y-29157000D01*
X45847000Y-29157000D01*
X45847000Y-29956250D01*
X46005750Y-30115000D01*
X46696310Y-30115000D01*
X46929699Y-30018327D01*
X47108327Y-29839698D01*
X47205000Y-29606309D01*
X47205000Y-29315750D01*
X47046250Y-29157000D01*
X45847000Y-29157000D01*
X45593000Y-29157000D01*
X44393750Y-29157000D01*
X44235000Y-29315750D01*
X42878750Y-29315750D01*
X42878750Y-28453691D01*
X44235000Y-28453691D01*
X44235000Y-28744250D01*
X44393750Y-28903000D01*
X45593000Y-28903000D01*
X45593000Y-28103750D01*
X45847000Y-28103750D01*
X45847000Y-28903000D01*
X47046250Y-28903000D01*
X47205000Y-28744250D01*
X47205000Y-28453691D01*
X47108327Y-28220302D01*
X46929699Y-28041673D01*
X46760891Y-27971750D01*
X51689000Y-27971750D01*
X51689000Y-28574310D01*
X51785673Y-28807699D01*
X51964302Y-28986327D01*
X52197691Y-29083000D01*
X52419250Y-29083000D01*
X52578000Y-28924250D01*
X52578000Y-27813000D01*
X52832000Y-27813000D01*
X52832000Y-28924250D01*
X52990750Y-29083000D01*
X53212309Y-29083000D01*
X53445698Y-28986327D01*
X53624327Y-28807699D01*
X53721000Y-28574310D01*
X53721000Y-27971750D01*
X53562250Y-27813000D01*
X52832000Y-27813000D01*
X52578000Y-27813000D01*
X51847750Y-27813000D01*
X51689000Y-27971750D01*
X46760891Y-27971750D01*
X46696310Y-27945000D01*
X46005750Y-27945000D01*
X45847000Y-28103750D01*
X45593000Y-28103750D01*
X45434250Y-27945000D01*
X44743690Y-27945000D01*
X44510301Y-28041673D01*
X44331673Y-28220302D01*
X44235000Y-28453691D01*
X42878750Y-28453691D01*
X42878750Y-28422600D01*
X42834472Y-28187283D01*
X42695400Y-27971159D01*
X42508318Y-27843332D01*
X42654220Y-27697430D01*
X42654220Y-26398220D01*
X42908220Y-26398220D01*
X42908220Y-27697430D01*
X43066970Y-27856180D01*
X43607299Y-27856180D01*
X43840688Y-27759507D01*
X44019317Y-27580879D01*
X44115990Y-27347490D01*
X44115990Y-26556970D01*
X43957240Y-26398220D01*
X42908220Y-26398220D01*
X42654220Y-26398220D01*
X41605200Y-26398220D01*
X41446450Y-26556970D01*
X41446450Y-27347490D01*
X41543123Y-27580879D01*
X41721752Y-27759507D01*
X41759542Y-27775160D01*
X41532810Y-27775160D01*
X41324784Y-27814303D01*
X41131490Y-27775160D01*
X40617043Y-27775160D01*
X40569997Y-27661581D01*
X40391368Y-27482953D01*
X40157979Y-27386280D01*
X39968170Y-27386280D01*
X39809420Y-27545030D01*
X39809420Y-28304726D01*
X39785550Y-28422600D01*
X39785550Y-29921200D01*
X39829828Y-30156517D01*
X39843790Y-30178215D01*
X39843790Y-32092240D01*
X39887514Y-32312057D01*
X39915225Y-32451370D01*
X40118656Y-32755824D01*
X47886173Y-40523341D01*
X47862968Y-40640000D01*
X47972201Y-41189151D01*
X48283270Y-41654698D01*
X48665356Y-41910000D01*
X48456633Y-42049464D01*
X39518510Y-33111342D01*
X39518510Y-30183673D01*
X39525741Y-30173090D01*
X39576750Y-29921200D01*
X39576750Y-28422600D01*
X39555420Y-28309241D01*
X39555420Y-27545030D01*
X39396670Y-27386280D01*
X39206861Y-27386280D01*
X38973472Y-27482953D01*
X38794843Y-27661581D01*
X38747797Y-27775160D01*
X38477471Y-27775160D01*
X38477471Y-27669450D01*
X41318321Y-24828600D01*
X41676085Y-24828600D01*
X41543123Y-24961561D01*
X41446450Y-25194950D01*
X41446450Y-25985470D01*
X41605200Y-26144220D01*
X42654220Y-26144220D01*
X42654220Y-26124220D01*
X42908220Y-26124220D01*
X42908220Y-26144220D01*
X43957240Y-26144220D01*
X44115990Y-25985470D01*
X44115990Y-25194950D01*
X44019317Y-24961561D01*
X43886355Y-24828600D01*
X47285838Y-24828600D01*
X47864391Y-25407153D01*
X47972201Y-25949151D01*
X48283270Y-26414698D01*
X48663209Y-26668565D01*
X48640774Y-26675572D01*
X48209363Y-27035576D01*
X47948558Y-27533270D01*
X47938096Y-27590961D01*
X48060085Y-27813000D01*
X49403000Y-27813000D01*
X49403000Y-27793000D01*
X49657000Y-27793000D01*
X49657000Y-27813000D01*
X50999915Y-27813000D01*
X51121904Y-27590961D01*
X51111442Y-27533270D01*
X50850637Y-27035576D01*
X50697383Y-26907688D01*
X50862006Y-26797690D01*
X51689000Y-26797690D01*
X51689000Y-27400250D01*
X51847750Y-27559000D01*
X52578000Y-27559000D01*
X52578000Y-26447750D01*
X52832000Y-26447750D01*
X52832000Y-27559000D01*
X53562250Y-27559000D01*
X53721000Y-27400250D01*
X53721000Y-26797690D01*
X53624327Y-26564301D01*
X53445698Y-26385673D01*
X53212309Y-26289000D01*
X52990750Y-26289000D01*
X52832000Y-26447750D01*
X52578000Y-26447750D01*
X52419250Y-26289000D01*
X52197691Y-26289000D01*
X51964302Y-26385673D01*
X51785673Y-26564301D01*
X51689000Y-26797690D01*
X50862006Y-26797690D01*
X50901381Y-26771381D01*
X51127129Y-26433526D01*
X51206400Y-26035000D01*
X51143246Y-25717498D01*
X51206400Y-25400000D01*
X51127128Y-25001473D01*
X51113789Y-24981510D01*
X51087799Y-24850849D01*
X50776730Y-24385302D01*
X50311183Y-24074233D01*
X49762032Y-23965000D01*
X49367762Y-23965000D01*
X48453581Y-23050819D01*
X48115727Y-22825072D01*
X47717200Y-22745800D01*
X40886959Y-22745800D01*
X40488433Y-22825071D01*
X40150578Y-23050819D01*
X37764969Y-25436428D01*
X37764986Y-25417417D01*
X37768450Y-25400000D01*
X37765016Y-25382735D01*
X37765162Y-25214833D01*
X37700480Y-25058290D01*
X37697015Y-25040871D01*
X37687234Y-25026233D01*
X37623117Y-24871057D01*
X37503449Y-24751180D01*
X37493584Y-24736416D01*
X37478949Y-24726637D01*
X37360327Y-24607808D01*
X37203895Y-24542852D01*
X37189129Y-24532985D01*
X37171863Y-24529551D01*
X37016799Y-24465162D01*
X36847417Y-24465014D01*
X36830000Y-24461550D01*
X36405736Y-24461550D01*
X36046607Y-24532985D01*
X35742152Y-24736415D01*
X34617016Y-25861552D01*
X34413585Y-26166006D01*
X34407482Y-26196688D01*
X34342150Y-26525136D01*
X34342150Y-27775160D01*
X33831530Y-27775160D01*
X33596213Y-27819438D01*
X33380089Y-27958510D01*
X33235099Y-28170710D01*
X33184090Y-28422600D01*
X33184090Y-29921200D01*
X33228368Y-30156517D01*
X33367440Y-30372641D01*
X33579640Y-30517631D01*
X33831530Y-30568640D01*
X34336774Y-30568640D01*
X34467260Y-30771421D01*
X34679460Y-30916411D01*
X34931350Y-30967420D01*
X35482210Y-30967420D01*
X31931030Y-34518600D01*
X27876768Y-34518600D01*
X27534644Y-34290000D01*
X27916730Y-34034698D01*
X28227799Y-33569151D01*
X28337032Y-33020000D01*
X28227799Y-32470849D01*
X27916730Y-32005302D01*
X27534644Y-31750000D01*
X27916730Y-31494698D01*
X28227799Y-31029151D01*
X28337032Y-30480000D01*
X28227799Y-29930849D01*
X27916730Y-29465302D01*
X27536791Y-29211435D01*
X27559226Y-29204428D01*
X27990637Y-28844424D01*
X28251442Y-28346730D01*
X28261904Y-28289039D01*
X28139915Y-28067000D01*
X26797000Y-28067000D01*
X26797000Y-28087000D01*
X26543000Y-28087000D01*
X26543000Y-28067000D01*
X25200085Y-28067000D01*
X25078096Y-28289039D01*
X25088558Y-28346730D01*
X25349363Y-28844424D01*
X25780774Y-29204428D01*
X25803209Y-29211435D01*
X25423270Y-29465302D01*
X25112201Y-29930849D01*
X25002968Y-30480000D01*
X18710000Y-30480000D01*
X18710000Y-25400000D01*
X25002968Y-25400000D01*
X25112201Y-25949151D01*
X25423270Y-26414698D01*
X25803209Y-26668565D01*
X25780774Y-26675572D01*
X25349363Y-27035576D01*
X25088558Y-27533270D01*
X25078096Y-27590961D01*
X25200085Y-27813000D01*
X26543000Y-27813000D01*
X26543000Y-27793000D01*
X26797000Y-27793000D01*
X26797000Y-27813000D01*
X28139915Y-27813000D01*
X28261904Y-27590961D01*
X28251442Y-27533270D01*
X27990637Y-27035576D01*
X27559226Y-26675572D01*
X27536791Y-26668565D01*
X27916730Y-26414698D01*
X28227799Y-25949151D01*
X28246070Y-25857297D01*
X28246070Y-26445790D01*
X28342743Y-26679179D01*
X28521372Y-26857807D01*
X28754761Y-26954480D01*
X29295090Y-26954480D01*
X29453840Y-26795730D01*
X29453840Y-25496520D01*
X29707840Y-25496520D01*
X29707840Y-26795730D01*
X29866590Y-26954480D01*
X30406919Y-26954480D01*
X30640308Y-26857807D01*
X30818937Y-26679179D01*
X30915610Y-26445790D01*
X30915610Y-25655270D01*
X30756860Y-25496520D01*
X29707840Y-25496520D01*
X29453840Y-25496520D01*
X29433840Y-25496520D01*
X29433840Y-25242520D01*
X29453840Y-25242520D01*
X29453840Y-25222520D01*
X29707840Y-25222520D01*
X29707840Y-25242520D01*
X30756860Y-25242520D01*
X30915610Y-25083770D01*
X30915610Y-24293250D01*
X30818937Y-24059861D01*
X30640308Y-23881233D01*
X30406919Y-23784560D01*
X29957919Y-23784560D01*
X31111279Y-22631200D01*
X51003720Y-22631200D01*
X53238760Y-24866239D01*
X53576550Y-25091943D01*
X53975000Y-25171200D01*
X54373449Y-25091943D01*
X54711239Y-24866239D01*
X54936943Y-24528449D01*
X55016200Y-24130000D01*
X54936943Y-23731550D01*
X54711239Y-23393760D01*
X52171240Y-20853760D01*
X51833450Y-20628057D01*
X51435000Y-20548799D01*
X51434995Y-20548800D01*
X30680005Y-20548800D01*
X30680000Y-20548799D01*
X30347658Y-20614907D01*
X30281550Y-20628057D01*
X29943760Y-20853760D01*
X29943758Y-20853763D01*
X26832520Y-23965000D01*
X26437968Y-23965000D01*
X25888817Y-24074233D01*
X25423270Y-24385302D01*
X25112201Y-24850849D01*
X25002968Y-25400000D01*
X18710000Y-25400000D01*
X18710000Y-21069931D01*
X18821046Y-20511662D01*
X19097669Y-20097667D01*
X19511660Y-19821047D01*
X20069931Y-19710000D01*
X55930069Y-19710000D01*
X56488338Y-19821046D01*
G36*
X37641610Y-33500060D02*
X37675916Y-33672527D01*
X37713045Y-33859190D01*
X37916476Y-34163644D01*
X41775622Y-38022790D01*
X40281860Y-38022790D01*
X40046543Y-38067068D01*
X39830419Y-38206140D01*
X39685429Y-38418340D01*
X39634420Y-38670230D01*
X39634420Y-40069770D01*
X39678698Y-40305087D01*
X39817770Y-40521211D01*
X40029970Y-40666201D01*
X40281860Y-40717210D01*
X42080180Y-40717210D01*
X42315497Y-40672932D01*
X42531621Y-40533860D01*
X42676611Y-40321660D01*
X42727620Y-40069770D01*
X42727620Y-38974788D01*
X47596415Y-43843584D01*
X47747721Y-43944683D01*
X47900871Y-44047015D01*
X48228080Y-44112101D01*
X48283270Y-44194698D01*
X48663209Y-44448565D01*
X48640774Y-44455572D01*
X48209363Y-44815576D01*
X47948558Y-45313270D01*
X47938096Y-45370961D01*
X48060084Y-45592998D01*
X47928450Y-45592998D01*
X47928450Y-45540000D01*
X47857015Y-45180871D01*
X47653585Y-44876416D01*
X46997440Y-44220272D01*
X46997440Y-43600000D01*
X46953162Y-43364683D01*
X46814090Y-43148559D01*
X46601890Y-43003569D01*
X46350000Y-42952560D01*
X45450000Y-42952560D01*
X45214683Y-42996838D01*
X44998559Y-43135910D01*
X44853569Y-43348110D01*
X44802560Y-43600000D01*
X44802560Y-45300000D01*
X44846838Y-45535317D01*
X44985910Y-45751441D01*
X45198110Y-45896431D01*
X45450000Y-45947440D01*
X46051550Y-45947440D01*
X46051550Y-46355000D01*
X46054984Y-46372265D01*
X46054838Y-46540167D01*
X46119520Y-46696710D01*
X46122985Y-46714129D01*
X46132766Y-46728767D01*
X46196883Y-46883943D01*
X46316551Y-47003820D01*
X46326416Y-47018584D01*
X46341051Y-47028363D01*
X46351470Y-47038800D01*
X45559546Y-47038800D01*
X45551890Y-47033569D01*
X45300000Y-46982560D01*
X43600000Y-46982560D01*
X43364683Y-47026838D01*
X43346094Y-47038800D01*
X40479546Y-47038800D01*
X40471890Y-47033569D01*
X40220000Y-46982560D01*
X39745040Y-46982560D01*
X39557260Y-46794780D01*
X39219470Y-46569077D01*
X38821020Y-46489819D01*
X38821015Y-46489820D01*
X34062220Y-46489820D01*
X34061200Y-46488798D01*
X34061200Y-44735750D01*
X35065000Y-44735750D01*
X35065000Y-45326310D01*
X35161673Y-45559699D01*
X35340302Y-45738327D01*
X35573691Y-45835000D01*
X36164250Y-45835000D01*
X36323000Y-45676250D01*
X36323000Y-44577000D01*
X36577000Y-44577000D01*
X36577000Y-45676250D01*
X36735750Y-45835000D01*
X37326309Y-45835000D01*
X37559698Y-45738327D01*
X37738327Y-45559699D01*
X37835000Y-45326310D01*
X37835000Y-44735750D01*
X37676250Y-44577000D01*
X36577000Y-44577000D01*
X36323000Y-44577000D01*
X35223750Y-44577000D01*
X35065000Y-44735750D01*
X34061200Y-44735750D01*
X34061200Y-43573690D01*
X35065000Y-43573690D01*
X35065000Y-44164250D01*
X35223750Y-44323000D01*
X36323000Y-44323000D01*
X36323000Y-43223750D01*
X36577000Y-43223750D01*
X36577000Y-44323000D01*
X37676250Y-44323000D01*
X37835000Y-44164250D01*
X37835000Y-43700000D01*
X38352560Y-43700000D01*
X38352560Y-45200000D01*
X38396838Y-45435317D01*
X38535910Y-45651441D01*
X38748110Y-45796431D01*
X39000000Y-45847440D01*
X40500000Y-45847440D01*
X40735317Y-45803162D01*
X40951441Y-45664090D01*
X41096431Y-45451890D01*
X41109278Y-45388450D01*
X41919203Y-45388450D01*
X41946838Y-45535317D01*
X42085910Y-45751441D01*
X42298110Y-45896431D01*
X42550000Y-45947440D01*
X43450000Y-45947440D01*
X43685317Y-45903162D01*
X43901441Y-45764090D01*
X44046431Y-45551890D01*
X44097440Y-45300000D01*
X44097440Y-43600000D01*
X44053162Y-43364683D01*
X43914090Y-43148559D01*
X43701890Y-43003569D01*
X43450000Y-42952560D01*
X42550000Y-42952560D01*
X42314683Y-42996838D01*
X42098559Y-43135910D01*
X41953569Y-43348110D01*
X41920472Y-43511550D01*
X41111981Y-43511550D01*
X41103162Y-43464683D01*
X40964090Y-43248559D01*
X40751890Y-43103569D01*
X40500000Y-43052560D01*
X39000000Y-43052560D01*
X38764683Y-43096838D01*
X38548559Y-43235910D01*
X38403569Y-43448110D01*
X38352560Y-43700000D01*
X37835000Y-43700000D01*
X37835000Y-43573690D01*
X37738327Y-43340301D01*
X37559698Y-43161673D01*
X37326309Y-43065000D01*
X36735750Y-43065000D01*
X36577000Y-43223750D01*
X36323000Y-43223750D01*
X36164250Y-43065000D01*
X35573691Y-43065000D01*
X35340302Y-43161673D01*
X35161673Y-43340301D01*
X35065000Y-43573690D01*
X34061200Y-43573690D01*
X34061200Y-40672420D01*
X34282380Y-40717210D01*
X36080700Y-40717210D01*
X36316017Y-40672932D01*
X36532141Y-40533860D01*
X36677131Y-40321660D01*
X36728140Y-40069770D01*
X36728140Y-38670230D01*
X36683862Y-38434913D01*
X36544790Y-38218789D01*
X36332590Y-38073799D01*
X36080700Y-38022790D01*
X34282380Y-38022790D01*
X34061200Y-38064408D01*
X34061200Y-36766505D01*
X34061201Y-36766500D01*
X33981943Y-36368051D01*
X33981943Y-36368050D01*
X33756240Y-36030260D01*
X33756237Y-36030258D01*
X33560567Y-35834587D01*
X37641610Y-31753544D01*
X37641610Y-33500060D01*
X37641610Y-33500060D01*
G37*
X37641610Y-33500060D02*
X37675916Y-33672527D01*
X37713045Y-33859190D01*
X37916476Y-34163644D01*
X41775622Y-38022790D01*
X40281860Y-38022790D01*
X40046543Y-38067068D01*
X39830419Y-38206140D01*
X39685429Y-38418340D01*
X39634420Y-38670230D01*
X39634420Y-40069770D01*
X39678698Y-40305087D01*
X39817770Y-40521211D01*
X40029970Y-40666201D01*
X40281860Y-40717210D01*
X42080180Y-40717210D01*
X42315497Y-40672932D01*
X42531621Y-40533860D01*
X42676611Y-40321660D01*
X42727620Y-40069770D01*
X42727620Y-38974788D01*
X47596415Y-43843584D01*
X47747721Y-43944683D01*
X47900871Y-44047015D01*
X48228080Y-44112101D01*
X48283270Y-44194698D01*
X48663209Y-44448565D01*
X48640774Y-44455572D01*
X48209363Y-44815576D01*
X47948558Y-45313270D01*
X47938096Y-45370961D01*
X48060084Y-45592998D01*
X47928450Y-45592998D01*
X47928450Y-45540000D01*
X47857015Y-45180871D01*
X47653585Y-44876416D01*
X46997440Y-44220272D01*
X46997440Y-43600000D01*
X46953162Y-43364683D01*
X46814090Y-43148559D01*
X46601890Y-43003569D01*
X46350000Y-42952560D01*
X45450000Y-42952560D01*
X45214683Y-42996838D01*
X44998559Y-43135910D01*
X44853569Y-43348110D01*
X44802560Y-43600000D01*
X44802560Y-45300000D01*
X44846838Y-45535317D01*
X44985910Y-45751441D01*
X45198110Y-45896431D01*
X45450000Y-45947440D01*
X46051550Y-45947440D01*
X46051550Y-46355000D01*
X46054984Y-46372265D01*
X46054838Y-46540167D01*
X46119520Y-46696710D01*
X46122985Y-46714129D01*
X46132766Y-46728767D01*
X46196883Y-46883943D01*
X46316551Y-47003820D01*
X46326416Y-47018584D01*
X46341051Y-47028363D01*
X46351470Y-47038800D01*
X45559546Y-47038800D01*
X45551890Y-47033569D01*
X45300000Y-46982560D01*
X43600000Y-46982560D01*
X43364683Y-47026838D01*
X43346094Y-47038800D01*
X40479546Y-47038800D01*
X40471890Y-47033569D01*
X40220000Y-46982560D01*
X39745040Y-46982560D01*
X39557260Y-46794780D01*
X39219470Y-46569077D01*
X38821020Y-46489819D01*
X38821015Y-46489820D01*
X34062220Y-46489820D01*
X34061200Y-46488798D01*
X34061200Y-44735750D01*
X35065000Y-44735750D01*
X35065000Y-45326310D01*
X35161673Y-45559699D01*
X35340302Y-45738327D01*
X35573691Y-45835000D01*
X36164250Y-45835000D01*
X36323000Y-45676250D01*
X36323000Y-44577000D01*
X36577000Y-44577000D01*
X36577000Y-45676250D01*
X36735750Y-45835000D01*
X37326309Y-45835000D01*
X37559698Y-45738327D01*
X37738327Y-45559699D01*
X37835000Y-45326310D01*
X37835000Y-44735750D01*
X37676250Y-44577000D01*
X36577000Y-44577000D01*
X36323000Y-44577000D01*
X35223750Y-44577000D01*
X35065000Y-44735750D01*
X34061200Y-44735750D01*
X34061200Y-43573690D01*
X35065000Y-43573690D01*
X35065000Y-44164250D01*
X35223750Y-44323000D01*
X36323000Y-44323000D01*
X36323000Y-43223750D01*
X36577000Y-43223750D01*
X36577000Y-44323000D01*
X37676250Y-44323000D01*
X37835000Y-44164250D01*
X37835000Y-43700000D01*
X38352560Y-43700000D01*
X38352560Y-45200000D01*
X38396838Y-45435317D01*
X38535910Y-45651441D01*
X38748110Y-45796431D01*
X39000000Y-45847440D01*
X40500000Y-45847440D01*
X40735317Y-45803162D01*
X40951441Y-45664090D01*
X41096431Y-45451890D01*
X41109278Y-45388450D01*
X41919203Y-45388450D01*
X41946838Y-45535317D01*
X42085910Y-45751441D01*
X42298110Y-45896431D01*
X42550000Y-45947440D01*
X43450000Y-45947440D01*
X43685317Y-45903162D01*
X43901441Y-45764090D01*
X44046431Y-45551890D01*
X44097440Y-45300000D01*
X44097440Y-43600000D01*
X44053162Y-43364683D01*
X43914090Y-43148559D01*
X43701890Y-43003569D01*
X43450000Y-42952560D01*
X42550000Y-42952560D01*
X42314683Y-42996838D01*
X42098559Y-43135910D01*
X41953569Y-43348110D01*
X41920472Y-43511550D01*
X41111981Y-43511550D01*
X41103162Y-43464683D01*
X40964090Y-43248559D01*
X40751890Y-43103569D01*
X40500000Y-43052560D01*
X39000000Y-43052560D01*
X38764683Y-43096838D01*
X38548559Y-43235910D01*
X38403569Y-43448110D01*
X38352560Y-43700000D01*
X37835000Y-43700000D01*
X37835000Y-43573690D01*
X37738327Y-43340301D01*
X37559698Y-43161673D01*
X37326309Y-43065000D01*
X36735750Y-43065000D01*
X36577000Y-43223750D01*
X36323000Y-43223750D01*
X36164250Y-43065000D01*
X35573691Y-43065000D01*
X35340302Y-43161673D01*
X35161673Y-43340301D01*
X35065000Y-43573690D01*
X34061200Y-43573690D01*
X34061200Y-40672420D01*
X34282380Y-40717210D01*
X36080700Y-40717210D01*
X36316017Y-40672932D01*
X36532141Y-40533860D01*
X36677131Y-40321660D01*
X36728140Y-40069770D01*
X36728140Y-38670230D01*
X36683862Y-38434913D01*
X36544790Y-38218789D01*
X36332590Y-38073799D01*
X36080700Y-38022790D01*
X34282380Y-38022790D01*
X34061200Y-38064408D01*
X34061200Y-36766505D01*
X34061201Y-36766500D01*
X33981943Y-36368051D01*
X33981943Y-36368050D01*
X33756240Y-36030260D01*
X33756237Y-36030258D01*
X33560567Y-35834587D01*
X37641610Y-31753544D01*
X37641610Y-33500060D01*
M02*
