G04 #@! TF.FileFunction,Soldermask,Top*
%FSLAX46Y46*%
G04 Gerber Fmt 4.6, Leading zero omitted, Abs format (unit mm)*
G04 Created by KiCad (PCBNEW 4.0.5) date 04/16/17 14:29:44*
%MOMM*%
%LPD*%
G01*
G04 APERTURE LIST*
%ADD10C,0.100000*%
%ADD11R,1.300000X1.600000*%
%ADD12R,2.100000X2.100000*%
%ADD13O,2.100000X2.100000*%
%ADD14R,2.100000X1.300000*%
%ADD15O,2.400000X2.000000*%
%ADD16R,1.400000X2.000000*%
%ADD17R,1.300000X2.100000*%
%ADD18R,0.908000X0.908000*%
%ADD19C,2.400000*%
%ADD20C,2.076400*%
%ADD21R,1.098500X1.898600*%
%ADD22R,2.198320X1.799540*%
%ADD23R,1.799540X2.299920*%
%ADD24R,1.162000X1.924000*%
%ADD25R,1.900000X1.900000*%
G04 APERTURE END LIST*
D10*
D11*
X34545000Y-66040000D03*
X37845000Y-66040000D03*
D12*
X57150000Y-41910000D03*
D13*
X57150000Y-44450000D03*
X57150000Y-46990000D03*
D14*
X53340000Y-44630000D03*
X53340000Y-41730000D03*
D15*
X49530000Y-60960000D03*
X26670000Y-60960000D03*
X49530000Y-58420000D03*
X26670000Y-58420000D03*
X49530000Y-55880000D03*
X26670000Y-55880000D03*
X49530000Y-53340000D03*
X26670000Y-53340000D03*
X49530000Y-50800000D03*
X26670000Y-50800000D03*
X49530000Y-48260000D03*
X26670000Y-48260000D03*
X49530000Y-45720000D03*
X26670000Y-45720000D03*
X49530000Y-43180000D03*
X26670000Y-43180000D03*
X49530000Y-40640000D03*
X26670000Y-40640000D03*
X49530000Y-38100000D03*
X26670000Y-38100000D03*
X49530000Y-35560000D03*
X26670000Y-35560000D03*
X49530000Y-33020000D03*
X26670000Y-33020000D03*
X49530000Y-30480000D03*
X26670000Y-30480000D03*
X49530000Y-27940000D03*
X26670000Y-27940000D03*
X49530000Y-25400000D03*
X26670000Y-25400000D03*
D16*
X35560000Y-60960000D03*
X32560000Y-60960000D03*
D14*
X44450000Y-48080000D03*
X44450000Y-50980000D03*
X39370000Y-48080000D03*
X39370000Y-50980000D03*
X45720000Y-31930000D03*
X45720000Y-29030000D03*
D17*
X30300000Y-54610000D03*
X33200000Y-54610000D03*
D18*
X32385000Y-66040000D03*
X30480000Y-66040000D03*
D19*
X43706048Y-56623949D03*
X43706048Y-60216051D03*
X40113946Y-60216051D03*
X40113946Y-56623949D03*
D20*
X33020000Y-47531020D03*
X33020000Y-51528980D03*
D21*
X34180780Y-29171900D03*
X35280600Y-29570680D03*
X36380420Y-29171900D03*
X37480240Y-28770580D03*
X38580060Y-29171900D03*
X39682420Y-28770580D03*
X40782240Y-29171900D03*
X41882060Y-29171900D03*
D22*
X41181020Y-39370000D03*
X35181540Y-39370000D03*
D23*
X42781220Y-26271220D03*
X29580840Y-25369520D03*
D17*
X53160000Y-36830000D03*
X56060000Y-36830000D03*
X45900000Y-44450000D03*
X43000000Y-44450000D03*
D24*
X56515000Y-27686000D03*
X56515000Y-33274000D03*
X52705000Y-27686000D03*
X52705000Y-33274000D03*
D12*
X57150000Y-52070000D03*
D13*
X57150000Y-54610000D03*
X57150000Y-57150000D03*
X57150000Y-59690000D03*
D25*
X39750000Y-44450000D03*
X36450000Y-44450000D03*
D11*
X40260000Y-66040000D03*
X43560000Y-66040000D03*
M02*
