%
M48
M72
T01C0.01500
T02C0.02000
T03C0.03150
T04C0.04000
T05C0.12598
%
T01
X37600Y92600
X37600Y102600
T02
X92600Y72600
X32600Y42600
X117600Y52600
X112600Y72600
X162600Y82600
X157600Y62600
X47600Y102600
X177600Y67600
X202600Y72600
X157600Y52600
X162600Y60100
T03
X57600Y117600
X67600Y117600
X77600Y117600
X87600Y117600
X97600Y117600
X107600Y117600
X117600Y117600
X127600Y117600
X137600Y117600
X147600Y117600
X157600Y117600
X167600Y117600
X177600Y117600
X187600Y117600
X197600Y117600
X57600Y27600
X67600Y27600
X77600Y27600
X87600Y27600
X97600Y27600
X107600Y27600
X117600Y27600
X127600Y27600
X137600Y27600
X147600Y27600
X157600Y27600
X167600Y27600
X177600Y27600
X187600Y27600
X197600Y27600
X52600Y72600
X62600Y82600
X72600Y72600
X62600Y62600
T04
X127600Y47600
X137600Y47600
X147600Y47600
X172600Y47600
X182600Y47600
X192600Y47600
X127600Y92600
X137600Y92600
X147600Y92600
X172600Y92600
X182600Y92600
X192600Y92600
T05
X42600Y112600
X42600Y32600
X212600Y32600
X212600Y112600
M30
