G75*
%MOIN*%
%OFA0B0*%
%FSLAX25Y25*%
%IPPOS*%
%LPD*%
%AMOC8*
5,1,8,0,0,1.08239X$1,22.5*
%
%ADD10C,0.00500*%
%ADD11C,0.00800*%
%ADD12C,0.01200*%
%ADD13C,0.00600*%
%ADD14C,0.00300*%
%ADD15R,0.02000X0.02000*%
%ADD16C,0.00400*%
%ADD17R,0.06693X0.02953*%
%ADD18R,0.02953X0.06693*%
%ADD19C,0.00000*%
%ADD20C,0.01000*%
D10*
X0123050Y0036365D02*
X0123050Y0040869D01*
X0125302Y0040869D01*
X0126053Y0040118D01*
X0126053Y0038617D01*
X0125302Y0037866D01*
X0123050Y0037866D01*
X0127654Y0036365D02*
X0129155Y0036365D01*
X0128405Y0036365D02*
X0128405Y0040869D01*
X0129155Y0040869D02*
X0127654Y0040869D01*
X0130723Y0040869D02*
X0132975Y0040869D01*
X0133726Y0040118D01*
X0133726Y0038617D01*
X0132975Y0037866D01*
X0130723Y0037866D01*
X0132224Y0037866D02*
X0133726Y0036365D01*
X0135327Y0036365D02*
X0138330Y0036365D01*
X0136828Y0036365D02*
X0136828Y0040869D01*
X0135327Y0039368D01*
X0130723Y0040869D02*
X0130723Y0036365D01*
X0168050Y0036550D02*
X0168050Y0041054D01*
X0170302Y0041054D01*
X0171053Y0040303D01*
X0171053Y0038802D01*
X0170302Y0038051D01*
X0168050Y0038051D01*
X0172654Y0036550D02*
X0174155Y0036550D01*
X0173405Y0036550D02*
X0173405Y0041054D01*
X0174155Y0041054D02*
X0172654Y0041054D01*
X0175723Y0041054D02*
X0177975Y0041054D01*
X0178726Y0040303D01*
X0178726Y0038802D01*
X0177975Y0038051D01*
X0175723Y0038051D01*
X0175723Y0036550D02*
X0175723Y0041054D01*
X0177224Y0038051D02*
X0178726Y0036550D01*
X0180327Y0036550D02*
X0183330Y0039553D01*
X0183330Y0040303D01*
X0182579Y0041054D01*
X0181078Y0041054D01*
X0180327Y0040303D01*
X0180327Y0036550D02*
X0183330Y0036550D01*
X0182550Y0100050D02*
X0182550Y0103053D01*
X0184051Y0104554D01*
X0185553Y0103053D01*
X0185553Y0100050D01*
X0187154Y0100801D02*
X0187905Y0100050D01*
X0189406Y0100050D01*
X0190156Y0100801D01*
X0190156Y0104554D01*
X0191758Y0104554D02*
X0194760Y0100050D01*
X0196362Y0100050D02*
X0199364Y0103053D01*
X0199364Y0103803D01*
X0198614Y0104554D01*
X0197112Y0104554D01*
X0196362Y0103803D01*
X0194760Y0104554D02*
X0191758Y0100050D01*
X0196362Y0100050D02*
X0199364Y0100050D01*
X0187154Y0100801D02*
X0187154Y0104554D01*
X0185553Y0102302D02*
X0182550Y0102302D01*
X0154364Y0100050D02*
X0151362Y0100050D01*
X0152863Y0100050D02*
X0152863Y0104554D01*
X0151362Y0103053D01*
X0149760Y0104554D02*
X0146758Y0100050D01*
X0145156Y0100801D02*
X0145156Y0104554D01*
X0146758Y0104554D02*
X0149760Y0100050D01*
X0145156Y0100801D02*
X0144406Y0100050D01*
X0142905Y0100050D01*
X0142154Y0100801D01*
X0142154Y0104554D01*
X0140553Y0103053D02*
X0140553Y0100050D01*
X0140553Y0102302D02*
X0137550Y0102302D01*
X0137550Y0103053D02*
X0137550Y0100050D01*
X0137550Y0103053D02*
X0139051Y0104554D01*
X0140553Y0103053D01*
X0041125Y0086250D02*
X0039323Y0086250D01*
X0040224Y0086250D02*
X0040224Y0088952D01*
X0039323Y0088052D01*
X0038178Y0088502D02*
X0038178Y0087601D01*
X0037728Y0087151D01*
X0036377Y0087151D01*
X0036377Y0086250D02*
X0036377Y0088952D01*
X0037728Y0088952D01*
X0038178Y0088502D01*
X0035232Y0088952D02*
X0033430Y0088952D01*
X0034331Y0088952D02*
X0034331Y0086250D01*
D11*
X0049584Y0093000D02*
X0049584Y0097204D01*
X0050985Y0095802D01*
X0052387Y0097204D01*
X0052387Y0093000D01*
X0054188Y0093000D02*
X0056991Y0093000D01*
X0058792Y0093000D02*
X0061595Y0097204D01*
X0063396Y0096503D02*
X0063396Y0095802D01*
X0064097Y0095102D01*
X0066198Y0095102D01*
X0066198Y0093701D02*
X0066198Y0096503D01*
X0065498Y0097204D01*
X0064097Y0097204D01*
X0063396Y0096503D01*
X0063396Y0093701D02*
X0064097Y0093000D01*
X0065498Y0093000D01*
X0066198Y0093701D01*
X0068000Y0093701D02*
X0070802Y0096503D01*
X0070802Y0093701D01*
X0070102Y0093000D01*
X0068701Y0093000D01*
X0068000Y0093701D01*
X0068000Y0096503D01*
X0068701Y0097204D01*
X0070102Y0097204D01*
X0070802Y0096503D01*
X0072604Y0095102D02*
X0074706Y0095102D01*
X0075406Y0094401D01*
X0075406Y0093701D01*
X0074706Y0093000D01*
X0073304Y0093000D01*
X0072604Y0093701D01*
X0072604Y0095102D01*
X0074005Y0096503D01*
X0075406Y0097204D01*
X0077208Y0096503D02*
X0077908Y0097204D01*
X0079310Y0097204D01*
X0080010Y0096503D01*
X0080010Y0095802D01*
X0077208Y0093000D01*
X0080010Y0093000D01*
X0081812Y0093000D02*
X0084614Y0093000D01*
X0083213Y0093000D02*
X0083213Y0097204D01*
X0081812Y0095802D01*
X0061595Y0093000D02*
X0058792Y0097204D01*
X0054188Y0097204D02*
X0054188Y0093000D01*
X0122600Y0095100D02*
X0122600Y0090100D01*
X0125100Y0087600D01*
X0130100Y0087600D01*
X0132600Y0090100D01*
X0135100Y0087600D01*
X0140100Y0087600D01*
X0142600Y0090100D01*
X0145100Y0087600D01*
X0150100Y0087600D01*
X0152600Y0090100D01*
X0152600Y0095100D01*
X0150100Y0097600D01*
X0145100Y0097600D01*
X0142600Y0095100D01*
X0140100Y0097600D01*
X0135100Y0097600D01*
X0132600Y0095100D01*
X0130100Y0097600D01*
X0125100Y0097600D01*
X0122600Y0095100D01*
X0167600Y0095100D02*
X0167600Y0090100D01*
X0170100Y0087600D01*
X0175100Y0087600D01*
X0177600Y0090100D01*
X0180100Y0087600D01*
X0185100Y0087600D01*
X0187600Y0090100D01*
X0190100Y0087600D01*
X0195100Y0087600D01*
X0197600Y0090100D01*
X0197600Y0095100D01*
X0195100Y0097600D01*
X0190100Y0097600D01*
X0187600Y0095100D01*
X0185100Y0097600D01*
X0180100Y0097600D01*
X0177600Y0095100D01*
X0175100Y0097600D01*
X0170100Y0097600D01*
X0167600Y0095100D01*
X0170100Y0052600D02*
X0167600Y0050100D01*
X0167600Y0045100D01*
X0170100Y0042600D01*
X0175100Y0042600D01*
X0177600Y0045100D01*
X0180100Y0042600D01*
X0185100Y0042600D01*
X0187600Y0045100D01*
X0190100Y0042600D01*
X0195100Y0042600D01*
X0197600Y0045100D01*
X0197600Y0050100D01*
X0195100Y0052600D01*
X0190100Y0052600D01*
X0187600Y0050100D01*
X0185100Y0052600D01*
X0180100Y0052600D01*
X0177600Y0050100D01*
X0175100Y0052600D01*
X0170100Y0052600D01*
X0152600Y0050100D02*
X0152600Y0045100D01*
X0150100Y0042600D01*
X0145100Y0042600D01*
X0142600Y0045100D01*
X0140100Y0042600D01*
X0135100Y0042600D01*
X0132600Y0045100D01*
X0130100Y0042600D01*
X0125100Y0042600D01*
X0122600Y0045100D01*
X0122600Y0050100D01*
X0125100Y0052600D01*
X0130100Y0052600D01*
X0132600Y0050100D01*
X0135100Y0052600D01*
X0140100Y0052600D01*
X0142600Y0050100D01*
X0145100Y0052600D01*
X0150100Y0052600D01*
X0152600Y0050100D01*
X0055159Y0049569D02*
X0055159Y0044057D01*
X0050041Y0044057D02*
X0050041Y0049569D01*
X0055159Y0049569D01*
X0055159Y0051143D01*
X0050041Y0051143D02*
X0050041Y0049569D01*
D12*
X0032600Y0017600D02*
X0217600Y0017600D01*
X0217740Y0017602D01*
X0217880Y0017608D01*
X0218020Y0017618D01*
X0218160Y0017631D01*
X0218299Y0017649D01*
X0218438Y0017671D01*
X0218575Y0017696D01*
X0218713Y0017725D01*
X0218849Y0017758D01*
X0218984Y0017795D01*
X0219118Y0017836D01*
X0219251Y0017881D01*
X0219383Y0017929D01*
X0219513Y0017981D01*
X0219642Y0018036D01*
X0219769Y0018095D01*
X0219895Y0018158D01*
X0220019Y0018224D01*
X0220140Y0018293D01*
X0220260Y0018366D01*
X0220378Y0018443D01*
X0220493Y0018522D01*
X0220607Y0018605D01*
X0220717Y0018691D01*
X0220826Y0018780D01*
X0220932Y0018872D01*
X0221035Y0018967D01*
X0221136Y0019064D01*
X0221233Y0019165D01*
X0221328Y0019268D01*
X0221420Y0019374D01*
X0221509Y0019483D01*
X0221595Y0019593D01*
X0221678Y0019707D01*
X0221757Y0019822D01*
X0221834Y0019940D01*
X0221907Y0020060D01*
X0221976Y0020181D01*
X0222042Y0020305D01*
X0222105Y0020431D01*
X0222164Y0020558D01*
X0222219Y0020687D01*
X0222271Y0020817D01*
X0222319Y0020949D01*
X0222364Y0021082D01*
X0222405Y0021216D01*
X0222442Y0021351D01*
X0222475Y0021487D01*
X0222504Y0021625D01*
X0222529Y0021762D01*
X0222551Y0021901D01*
X0222569Y0022040D01*
X0222582Y0022180D01*
X0222592Y0022320D01*
X0222598Y0022460D01*
X0222600Y0022600D01*
X0222600Y0122600D01*
X0222598Y0122740D01*
X0222592Y0122880D01*
X0222582Y0123020D01*
X0222569Y0123160D01*
X0222551Y0123299D01*
X0222529Y0123438D01*
X0222504Y0123575D01*
X0222475Y0123713D01*
X0222442Y0123849D01*
X0222405Y0123984D01*
X0222364Y0124118D01*
X0222319Y0124251D01*
X0222271Y0124383D01*
X0222219Y0124513D01*
X0222164Y0124642D01*
X0222105Y0124769D01*
X0222042Y0124895D01*
X0221976Y0125019D01*
X0221907Y0125140D01*
X0221834Y0125260D01*
X0221757Y0125378D01*
X0221678Y0125493D01*
X0221595Y0125607D01*
X0221509Y0125717D01*
X0221420Y0125826D01*
X0221328Y0125932D01*
X0221233Y0126035D01*
X0221136Y0126136D01*
X0221035Y0126233D01*
X0220932Y0126328D01*
X0220826Y0126420D01*
X0220717Y0126509D01*
X0220607Y0126595D01*
X0220493Y0126678D01*
X0220378Y0126757D01*
X0220260Y0126834D01*
X0220140Y0126907D01*
X0220019Y0126976D01*
X0219895Y0127042D01*
X0219769Y0127105D01*
X0219642Y0127164D01*
X0219513Y0127219D01*
X0219383Y0127271D01*
X0219251Y0127319D01*
X0219118Y0127364D01*
X0218984Y0127405D01*
X0218849Y0127442D01*
X0218713Y0127475D01*
X0218575Y0127504D01*
X0218438Y0127529D01*
X0218299Y0127551D01*
X0218160Y0127569D01*
X0218020Y0127582D01*
X0217880Y0127592D01*
X0217740Y0127598D01*
X0217600Y0127600D01*
X0032600Y0127600D01*
X0032460Y0127598D01*
X0032320Y0127592D01*
X0032180Y0127582D01*
X0032040Y0127569D01*
X0031901Y0127551D01*
X0031762Y0127529D01*
X0031625Y0127504D01*
X0031487Y0127475D01*
X0031351Y0127442D01*
X0031216Y0127405D01*
X0031082Y0127364D01*
X0030949Y0127319D01*
X0030817Y0127271D01*
X0030687Y0127219D01*
X0030558Y0127164D01*
X0030431Y0127105D01*
X0030305Y0127042D01*
X0030181Y0126976D01*
X0030060Y0126907D01*
X0029940Y0126834D01*
X0029822Y0126757D01*
X0029707Y0126678D01*
X0029593Y0126595D01*
X0029483Y0126509D01*
X0029374Y0126420D01*
X0029268Y0126328D01*
X0029165Y0126233D01*
X0029064Y0126136D01*
X0028967Y0126035D01*
X0028872Y0125932D01*
X0028780Y0125826D01*
X0028691Y0125717D01*
X0028605Y0125607D01*
X0028522Y0125493D01*
X0028443Y0125378D01*
X0028366Y0125260D01*
X0028293Y0125140D01*
X0028224Y0125019D01*
X0028158Y0124895D01*
X0028095Y0124769D01*
X0028036Y0124642D01*
X0027981Y0124513D01*
X0027929Y0124383D01*
X0027881Y0124251D01*
X0027836Y0124118D01*
X0027795Y0123984D01*
X0027758Y0123849D01*
X0027725Y0123713D01*
X0027696Y0123575D01*
X0027671Y0123438D01*
X0027649Y0123299D01*
X0027631Y0123160D01*
X0027618Y0123020D01*
X0027608Y0122880D01*
X0027602Y0122740D01*
X0027600Y0122600D01*
X0027600Y0022600D01*
X0027602Y0022460D01*
X0027608Y0022320D01*
X0027618Y0022180D01*
X0027631Y0022040D01*
X0027649Y0021901D01*
X0027671Y0021762D01*
X0027696Y0021625D01*
X0027725Y0021487D01*
X0027758Y0021351D01*
X0027795Y0021216D01*
X0027836Y0021082D01*
X0027881Y0020949D01*
X0027929Y0020817D01*
X0027981Y0020687D01*
X0028036Y0020558D01*
X0028095Y0020431D01*
X0028158Y0020305D01*
X0028224Y0020181D01*
X0028293Y0020060D01*
X0028366Y0019940D01*
X0028443Y0019822D01*
X0028522Y0019707D01*
X0028605Y0019593D01*
X0028691Y0019483D01*
X0028780Y0019374D01*
X0028872Y0019268D01*
X0028967Y0019165D01*
X0029064Y0019064D01*
X0029165Y0018967D01*
X0029268Y0018872D01*
X0029374Y0018780D01*
X0029483Y0018691D01*
X0029593Y0018605D01*
X0029707Y0018522D01*
X0029822Y0018443D01*
X0029940Y0018366D01*
X0030060Y0018293D01*
X0030181Y0018224D01*
X0030305Y0018158D01*
X0030431Y0018095D01*
X0030558Y0018036D01*
X0030687Y0017981D01*
X0030817Y0017929D01*
X0030949Y0017881D01*
X0031082Y0017836D01*
X0031216Y0017795D01*
X0031351Y0017758D01*
X0031487Y0017725D01*
X0031625Y0017696D01*
X0031762Y0017671D01*
X0031901Y0017649D01*
X0032040Y0017631D01*
X0032180Y0017618D01*
X0032320Y0017608D01*
X0032460Y0017602D01*
X0032600Y0017600D01*
D13*
X0056215Y0101900D02*
X0057349Y0101900D01*
X0057916Y0102467D01*
X0057916Y0103601D01*
X0056782Y0103601D01*
X0055648Y0102467D02*
X0056215Y0101900D01*
X0055648Y0102467D02*
X0055648Y0104736D01*
X0056215Y0105303D01*
X0057349Y0105303D01*
X0057916Y0104736D01*
X0059331Y0104169D02*
X0059898Y0104169D01*
X0059898Y0101900D01*
X0059331Y0101900D02*
X0060465Y0101900D01*
X0062353Y0102467D02*
X0062921Y0101900D01*
X0062353Y0102467D02*
X0062353Y0104736D01*
X0061786Y0104169D02*
X0062921Y0104169D01*
X0064242Y0103601D02*
X0064809Y0104169D01*
X0065943Y0104169D01*
X0066510Y0103601D01*
X0066510Y0101900D01*
X0067925Y0102467D02*
X0068492Y0101900D01*
X0070193Y0101900D01*
X0070193Y0104169D01*
X0071608Y0104169D02*
X0073309Y0104169D01*
X0073877Y0103601D01*
X0073877Y0102467D01*
X0073309Y0101900D01*
X0071608Y0101900D01*
X0071608Y0105303D01*
X0075291Y0104169D02*
X0075291Y0103601D01*
X0075858Y0103601D01*
X0075858Y0104169D01*
X0075291Y0104169D01*
X0075291Y0102467D02*
X0075291Y0101900D01*
X0075858Y0101900D01*
X0075858Y0102467D01*
X0075291Y0102467D01*
X0080816Y0101900D02*
X0080816Y0105303D01*
X0084499Y0103601D02*
X0085066Y0104169D01*
X0086200Y0104169D01*
X0086768Y0103601D01*
X0086768Y0103034D01*
X0084499Y0103034D01*
X0084499Y0102467D02*
X0084499Y0103601D01*
X0084499Y0102467D02*
X0085066Y0101900D01*
X0086200Y0101900D01*
X0088182Y0102467D02*
X0088182Y0103601D01*
X0088749Y0104169D01*
X0089884Y0104169D01*
X0090451Y0103601D01*
X0090451Y0103034D01*
X0088182Y0103034D01*
X0088182Y0102467D02*
X0088749Y0101900D01*
X0089884Y0101900D01*
X0091865Y0101900D02*
X0091865Y0104169D01*
X0093567Y0104169D01*
X0094134Y0103601D01*
X0094134Y0101900D01*
X0095548Y0101900D02*
X0096683Y0101900D01*
X0096116Y0101900D02*
X0096116Y0104169D01*
X0095548Y0104169D01*
X0096116Y0105303D02*
X0096116Y0105870D01*
X0098004Y0104169D02*
X0100272Y0101900D01*
X0101687Y0101900D02*
X0103956Y0105303D01*
X0105370Y0105303D02*
X0107639Y0101900D01*
X0107639Y0105303D01*
X0109053Y0103601D02*
X0109620Y0104169D01*
X0110755Y0104169D01*
X0111322Y0103601D01*
X0111322Y0102467D01*
X0110755Y0101900D01*
X0109620Y0101900D01*
X0109053Y0102467D01*
X0109053Y0103601D01*
X0112736Y0103601D02*
X0113304Y0104169D01*
X0115005Y0104169D01*
X0115005Y0105303D02*
X0115005Y0101900D01*
X0113304Y0101900D01*
X0112736Y0102467D01*
X0112736Y0103601D01*
X0116420Y0103601D02*
X0116987Y0104169D01*
X0118121Y0104169D01*
X0118688Y0103601D01*
X0118688Y0103034D01*
X0116420Y0103034D01*
X0116420Y0102467D02*
X0116420Y0103601D01*
X0116420Y0102467D02*
X0116987Y0101900D01*
X0118121Y0101900D01*
X0120103Y0101900D02*
X0120103Y0105303D01*
X0121237Y0104169D01*
X0122371Y0105303D01*
X0122371Y0101900D01*
X0123786Y0102467D02*
X0124353Y0101900D01*
X0125487Y0101900D01*
X0126055Y0102467D01*
X0127469Y0102467D02*
X0128036Y0101900D01*
X0129170Y0101900D01*
X0129738Y0102467D01*
X0129738Y0105303D01*
X0127469Y0105303D02*
X0127469Y0102467D01*
X0126055Y0104736D02*
X0125487Y0105303D01*
X0124353Y0105303D01*
X0123786Y0104736D01*
X0123786Y0102467D01*
X0105370Y0101900D02*
X0105370Y0105303D01*
X0100272Y0104169D02*
X0098004Y0101900D01*
X0083084Y0101900D02*
X0080816Y0101900D01*
X0067925Y0102467D02*
X0067925Y0104169D01*
X0064242Y0105303D02*
X0064242Y0101900D01*
X0059898Y0105303D02*
X0059898Y0105870D01*
X0208397Y0099951D02*
X0208397Y0097682D01*
X0208397Y0099951D02*
X0208964Y0099951D01*
X0211233Y0097682D01*
X0211800Y0097682D01*
X0211800Y0096267D02*
X0211800Y0093999D01*
X0211800Y0095133D02*
X0208397Y0095133D01*
X0209531Y0093999D01*
X0208964Y0092584D02*
X0211233Y0090316D01*
X0211800Y0090883D01*
X0211800Y0092017D01*
X0211233Y0092584D01*
X0208964Y0092584D01*
X0208397Y0092017D01*
X0208397Y0090883D01*
X0208964Y0090316D01*
X0211233Y0090316D01*
X0211800Y0088901D02*
X0211800Y0086633D01*
X0209531Y0088901D01*
X0208964Y0088901D01*
X0208397Y0088334D01*
X0208397Y0087200D01*
X0208964Y0086633D01*
X0209531Y0081535D02*
X0209531Y0079833D01*
X0210099Y0079266D01*
X0211233Y0079266D01*
X0211800Y0079833D01*
X0211800Y0081535D01*
X0212367Y0081535D02*
X0209531Y0081535D01*
X0212367Y0081535D02*
X0212934Y0080968D01*
X0212934Y0080401D01*
X0211800Y0077852D02*
X0210099Y0077852D01*
X0209531Y0077285D01*
X0209531Y0075583D01*
X0211800Y0075583D01*
X0211800Y0074262D02*
X0211800Y0073128D01*
X0211800Y0073695D02*
X0209531Y0073695D01*
X0209531Y0073128D01*
X0208397Y0073695D02*
X0207830Y0073695D01*
X0209531Y0071760D02*
X0209531Y0071193D01*
X0210666Y0070058D01*
X0211800Y0070058D02*
X0209531Y0070058D01*
X0210099Y0068644D02*
X0211800Y0068644D01*
X0210099Y0068644D02*
X0209531Y0068077D01*
X0209531Y0066942D01*
X0210099Y0066375D01*
X0210099Y0064961D02*
X0209531Y0064394D01*
X0209531Y0063259D01*
X0210099Y0062692D01*
X0211233Y0062692D01*
X0211800Y0063259D01*
X0211800Y0064394D01*
X0211233Y0064961D01*
X0210099Y0064961D01*
X0211800Y0066375D02*
X0208397Y0066375D01*
X0208397Y0061278D02*
X0211800Y0061278D01*
X0211800Y0059009D02*
X0208397Y0059009D01*
X0209531Y0060143D01*
X0208397Y0061278D01*
X0208397Y0053438D02*
X0211800Y0053438D01*
X0211800Y0054005D02*
X0211800Y0052870D01*
X0209531Y0051503D02*
X0209531Y0050935D01*
X0210666Y0049801D01*
X0211800Y0049801D02*
X0209531Y0049801D01*
X0210099Y0048387D02*
X0211800Y0048387D01*
X0211800Y0046685D01*
X0211233Y0046118D01*
X0210666Y0046685D01*
X0210666Y0048387D01*
X0210099Y0048387D02*
X0209531Y0047819D01*
X0209531Y0046685D01*
X0208397Y0044703D02*
X0210666Y0042435D01*
X0210099Y0043002D02*
X0211800Y0044703D01*
X0211800Y0042435D02*
X0208397Y0042435D01*
X0208397Y0052870D02*
X0208397Y0053438D01*
D14*
X0179050Y0054781D02*
X0176148Y0054781D01*
X0177599Y0053330D01*
X0177599Y0055265D01*
X0178083Y0056277D02*
X0176148Y0058212D01*
X0176148Y0059223D02*
X0176148Y0061158D01*
X0176631Y0061158D01*
X0178566Y0059223D01*
X0179050Y0059223D01*
X0179050Y0058212D02*
X0177599Y0056760D01*
X0176148Y0056277D02*
X0179050Y0056277D01*
X0173533Y0062876D02*
X0173533Y0066579D01*
X0171681Y0064728D01*
X0174150Y0064728D01*
X0170467Y0064728D02*
X0169850Y0064110D01*
X0167998Y0064110D01*
X0167998Y0062876D02*
X0167998Y0066579D01*
X0169850Y0066579D01*
X0170467Y0065962D01*
X0170467Y0064728D01*
X0169232Y0064110D02*
X0170467Y0062876D01*
X0182750Y0072250D02*
X0182750Y0075953D01*
X0184602Y0075953D01*
X0185219Y0075336D01*
X0185219Y0074102D01*
X0184602Y0073484D01*
X0182750Y0073484D01*
X0183984Y0073484D02*
X0185219Y0072250D01*
X0186433Y0072867D02*
X0186433Y0074102D01*
X0188285Y0074102D01*
X0188902Y0073484D01*
X0188902Y0072867D01*
X0188285Y0072250D01*
X0187050Y0072250D01*
X0186433Y0072867D01*
X0186433Y0074102D02*
X0187668Y0075336D01*
X0188902Y0075953D01*
X0187599Y0078330D02*
X0187599Y0080265D01*
X0188083Y0081277D02*
X0186148Y0083212D01*
X0186148Y0084223D02*
X0186148Y0086158D01*
X0186631Y0086158D01*
X0188566Y0084223D01*
X0189050Y0084223D01*
X0189050Y0083212D02*
X0187599Y0081760D01*
X0186148Y0081277D02*
X0189050Y0081277D01*
X0189050Y0079781D02*
X0186148Y0079781D01*
X0187599Y0078330D01*
X0144050Y0079781D02*
X0141148Y0079781D01*
X0142599Y0078330D01*
X0142599Y0080265D01*
X0143083Y0081277D02*
X0141148Y0083212D01*
X0141148Y0084223D02*
X0141148Y0086158D01*
X0141631Y0086158D01*
X0143566Y0084223D01*
X0144050Y0084223D01*
X0144050Y0083212D02*
X0142599Y0081760D01*
X0141148Y0081277D02*
X0144050Y0081277D01*
X0143902Y0075953D02*
X0141433Y0075953D01*
X0141433Y0074102D01*
X0142668Y0074719D01*
X0143285Y0074719D01*
X0143902Y0074102D01*
X0143902Y0072867D01*
X0143285Y0072250D01*
X0142050Y0072250D01*
X0141433Y0072867D01*
X0140219Y0072250D02*
X0138984Y0073484D01*
X0139602Y0073484D02*
X0137750Y0073484D01*
X0137750Y0072250D02*
X0137750Y0075953D01*
X0139602Y0075953D01*
X0140219Y0075336D01*
X0140219Y0074102D01*
X0139602Y0073484D01*
X0129150Y0065962D02*
X0129150Y0065345D01*
X0128533Y0064728D01*
X0129150Y0064110D01*
X0129150Y0063493D01*
X0128533Y0062876D01*
X0127298Y0062876D01*
X0126681Y0063493D01*
X0125467Y0062876D02*
X0124232Y0064110D01*
X0124850Y0064110D02*
X0122998Y0064110D01*
X0122998Y0062876D02*
X0122998Y0066579D01*
X0124850Y0066579D01*
X0125467Y0065962D01*
X0125467Y0064728D01*
X0124850Y0064110D01*
X0126681Y0065962D02*
X0127298Y0066579D01*
X0128533Y0066579D01*
X0129150Y0065962D01*
X0128533Y0064728D02*
X0127916Y0064728D01*
X0131148Y0061158D02*
X0131631Y0061158D01*
X0133566Y0059223D01*
X0134050Y0059223D01*
X0134050Y0058212D02*
X0132599Y0056760D01*
X0133083Y0056277D02*
X0131148Y0058212D01*
X0131148Y0059223D02*
X0131148Y0061158D01*
X0131148Y0056277D02*
X0134050Y0056277D01*
X0134050Y0054781D02*
X0131148Y0054781D01*
X0132599Y0053330D01*
X0132599Y0055265D01*
X0108508Y0058943D02*
X0106039Y0058943D01*
X0108508Y0061412D01*
X0108508Y0062029D01*
X0107891Y0062646D01*
X0106657Y0062646D01*
X0106039Y0062029D01*
X0104825Y0062029D02*
X0104825Y0060794D01*
X0104208Y0060177D01*
X0102356Y0060177D01*
X0102356Y0058943D02*
X0102356Y0062646D01*
X0104208Y0062646D01*
X0104825Y0062029D01*
X0103591Y0060177D02*
X0104825Y0058943D01*
X0088823Y0059691D02*
X0086354Y0059691D01*
X0085140Y0059691D02*
X0083906Y0060925D01*
X0084523Y0060925D02*
X0082671Y0060925D01*
X0082671Y0059691D02*
X0082671Y0063394D01*
X0084523Y0063394D01*
X0085140Y0062777D01*
X0085140Y0061543D01*
X0084523Y0060925D01*
X0086354Y0062160D02*
X0087589Y0063394D01*
X0087589Y0059691D01*
X0086158Y0049052D02*
X0084223Y0049052D01*
X0083212Y0049052D02*
X0081277Y0047117D01*
X0081760Y0047601D02*
X0083212Y0046150D01*
X0084223Y0046150D02*
X0084223Y0046634D01*
X0086158Y0048569D01*
X0086158Y0049052D01*
X0081277Y0049052D02*
X0081277Y0046150D01*
X0079781Y0046150D02*
X0079781Y0049052D01*
X0078330Y0047601D01*
X0080265Y0047601D01*
X0093330Y0047601D02*
X0095265Y0047601D01*
X0096277Y0047117D02*
X0098212Y0049052D01*
X0099223Y0049052D02*
X0101158Y0049052D01*
X0101158Y0048569D01*
X0099223Y0046634D01*
X0099223Y0046150D01*
X0098212Y0046150D02*
X0096760Y0047601D01*
X0096277Y0049052D02*
X0096277Y0046150D01*
X0094781Y0046150D02*
X0094781Y0049052D01*
X0093330Y0047601D01*
X0060450Y0047567D02*
X0060450Y0050036D01*
X0060450Y0048801D02*
X0056747Y0048801D01*
X0057981Y0047567D01*
X0057364Y0046352D02*
X0056747Y0045735D01*
X0056747Y0043884D01*
X0060450Y0043884D01*
X0060450Y0045735D01*
X0059833Y0046352D01*
X0057364Y0046352D01*
X0048650Y0046915D02*
X0045748Y0046915D01*
X0047199Y0045464D01*
X0047199Y0047399D01*
X0046715Y0048410D02*
X0045748Y0049378D01*
X0048650Y0049378D01*
X0048650Y0050345D02*
X0048650Y0048410D01*
X0047199Y0051357D02*
X0047199Y0053292D01*
X0047683Y0054303D02*
X0047199Y0054787D01*
X0047199Y0055755D01*
X0047683Y0056238D01*
X0048166Y0056238D01*
X0048650Y0055755D01*
X0048650Y0054787D01*
X0048166Y0054303D01*
X0047683Y0054303D01*
X0047199Y0054787D02*
X0046715Y0054303D01*
X0046231Y0054303D01*
X0045748Y0054787D01*
X0045748Y0055755D01*
X0046231Y0056238D01*
X0046715Y0056238D01*
X0047199Y0055755D01*
X0048650Y0052808D02*
X0045748Y0052808D01*
X0047199Y0051357D01*
X0042402Y0050250D02*
X0039933Y0050250D01*
X0041168Y0050250D02*
X0041168Y0053953D01*
X0039933Y0052719D01*
X0038719Y0053336D02*
X0038102Y0053953D01*
X0036867Y0053953D01*
X0036250Y0053336D01*
X0036250Y0050867D01*
X0036867Y0050250D01*
X0038102Y0050250D01*
X0038719Y0050867D01*
X0045748Y0044452D02*
X0048650Y0044452D01*
X0045748Y0042517D01*
X0048650Y0042517D01*
X0048650Y0041506D02*
X0048650Y0039571D01*
X0048650Y0040538D02*
X0045748Y0040538D01*
X0046715Y0039571D01*
X0040697Y0063650D02*
X0040697Y0066552D01*
X0042631Y0066552D01*
X0041664Y0065101D02*
X0040697Y0065101D01*
X0039685Y0065585D02*
X0039685Y0063650D01*
X0038234Y0063650D01*
X0037750Y0064134D01*
X0037750Y0065585D01*
X0036738Y0066069D02*
X0034803Y0064134D01*
X0035287Y0063650D01*
X0036255Y0063650D01*
X0036738Y0064134D01*
X0036738Y0066069D01*
X0036255Y0066552D01*
X0035287Y0066552D01*
X0034803Y0066069D01*
X0034803Y0064134D01*
X0033792Y0063650D02*
X0031857Y0063650D01*
X0032824Y0063650D02*
X0032824Y0066552D01*
X0031857Y0065585D01*
X0092831Y0086400D02*
X0096007Y0086078D01*
X0096348Y0085011D01*
X0096861Y0084014D01*
X0094844Y0081540D01*
X0096540Y0079844D01*
X0099014Y0081861D01*
X0100010Y0081348D01*
X0101423Y0084758D01*
X0100891Y0085042D01*
X0100425Y0085425D01*
X0100042Y0085891D01*
X0099758Y0086423D01*
X0099583Y0087000D01*
X0099524Y0087600D01*
X0099589Y0088228D01*
X0099781Y0088830D01*
X0100091Y0089380D01*
X0100508Y0089855D01*
X0101012Y0090235D01*
X0101584Y0090503D01*
X0102198Y0090650D01*
X0102830Y0090667D01*
X0103451Y0090556D01*
X0104037Y0090320D01*
X0104562Y0089969D01*
X0105005Y0089518D01*
X0105346Y0088986D01*
X0105571Y0088396D01*
X0105671Y0087773D01*
X0105642Y0087142D01*
X0105484Y0086530D01*
X0105204Y0085964D01*
X0104815Y0085466D01*
X0104333Y0085059D01*
X0103777Y0084758D01*
X0105190Y0081348D01*
X0106186Y0081861D01*
X0108660Y0079844D01*
X0110356Y0081540D01*
X0108339Y0084014D01*
X0108852Y0085011D01*
X0109193Y0086078D01*
X0112369Y0086400D01*
X0112369Y0088800D01*
X0109193Y0089122D01*
X0108852Y0090189D01*
X0108339Y0091186D01*
X0110356Y0093660D01*
X0108660Y0095356D01*
X0106186Y0093339D01*
X0105189Y0093852D01*
X0104122Y0094193D01*
X0103800Y0097369D01*
X0101400Y0097369D01*
X0101078Y0094193D01*
X0100011Y0093852D01*
X0099014Y0093339D01*
X0096540Y0095356D01*
X0094844Y0093660D01*
X0096861Y0091186D01*
X0096348Y0090189D01*
X0096007Y0089122D01*
X0092831Y0088800D01*
X0092831Y0086400D01*
X0092831Y0086631D02*
X0099695Y0086631D01*
X0099605Y0086929D02*
X0092831Y0086929D01*
X0092831Y0087228D02*
X0099561Y0087228D01*
X0099531Y0087526D02*
X0092831Y0087526D01*
X0092831Y0087825D02*
X0099547Y0087825D01*
X0099578Y0088123D02*
X0092831Y0088123D01*
X0092831Y0088422D02*
X0099651Y0088422D01*
X0099746Y0088720D02*
X0092831Y0088720D01*
X0094991Y0089019D02*
X0099887Y0089019D01*
X0100056Y0089317D02*
X0096069Y0089317D01*
X0096165Y0089616D02*
X0100298Y0089616D01*
X0100587Y0089914D02*
X0096260Y0089914D01*
X0096360Y0090213D02*
X0100984Y0090213D01*
X0101618Y0090511D02*
X0096514Y0090511D01*
X0096668Y0090810D02*
X0108532Y0090810D01*
X0108378Y0091108D02*
X0096822Y0091108D01*
X0096681Y0091407D02*
X0108519Y0091407D01*
X0108762Y0091705D02*
X0096438Y0091705D01*
X0096194Y0092004D02*
X0109006Y0092004D01*
X0109249Y0092303D02*
X0095951Y0092303D01*
X0095707Y0092601D02*
X0109493Y0092601D01*
X0109736Y0092900D02*
X0095464Y0092900D01*
X0095221Y0093198D02*
X0109979Y0093198D01*
X0110223Y0093497D02*
X0106380Y0093497D01*
X0106746Y0093795D02*
X0110221Y0093795D01*
X0109922Y0094094D02*
X0107112Y0094094D01*
X0107478Y0094392D02*
X0109624Y0094392D01*
X0109325Y0094691D02*
X0107844Y0094691D01*
X0108210Y0094989D02*
X0109027Y0094989D01*
X0108728Y0095288D02*
X0108576Y0095288D01*
X0105879Y0093497D02*
X0099321Y0093497D01*
X0098820Y0093497D02*
X0094977Y0093497D01*
X0094979Y0093795D02*
X0098454Y0093795D01*
X0098088Y0094094D02*
X0095278Y0094094D01*
X0095576Y0094392D02*
X0097722Y0094392D01*
X0097356Y0094691D02*
X0095875Y0094691D01*
X0096173Y0094989D02*
X0096990Y0094989D01*
X0096624Y0095288D02*
X0096472Y0095288D01*
X0099901Y0093795D02*
X0105299Y0093795D01*
X0104434Y0094094D02*
X0100766Y0094094D01*
X0101098Y0094392D02*
X0104102Y0094392D01*
X0104072Y0094691D02*
X0101128Y0094691D01*
X0101159Y0094989D02*
X0104041Y0094989D01*
X0104011Y0095288D02*
X0101189Y0095288D01*
X0101219Y0095586D02*
X0103981Y0095586D01*
X0103950Y0095885D02*
X0101250Y0095885D01*
X0101280Y0096183D02*
X0103920Y0096183D01*
X0103890Y0096482D02*
X0101310Y0096482D01*
X0101341Y0096780D02*
X0103859Y0096780D01*
X0103829Y0097079D02*
X0101371Y0097079D01*
X0103561Y0090511D02*
X0108686Y0090511D01*
X0108840Y0090213D02*
X0104197Y0090213D01*
X0104616Y0089914D02*
X0108940Y0089914D01*
X0109035Y0089616D02*
X0104909Y0089616D01*
X0105133Y0089317D02*
X0109131Y0089317D01*
X0110209Y0089019D02*
X0105325Y0089019D01*
X0105447Y0088720D02*
X0112369Y0088720D01*
X0112369Y0088422D02*
X0105561Y0088422D01*
X0105615Y0088123D02*
X0112369Y0088123D01*
X0112369Y0087825D02*
X0105663Y0087825D01*
X0105660Y0087526D02*
X0112369Y0087526D01*
X0112369Y0087228D02*
X0105646Y0087228D01*
X0105587Y0086929D02*
X0112369Y0086929D01*
X0112369Y0086631D02*
X0105510Y0086631D01*
X0105386Y0086332D02*
X0111699Y0086332D01*
X0109179Y0086034D02*
X0105239Y0086034D01*
X0105026Y0085735D02*
X0109084Y0085735D01*
X0108988Y0085437D02*
X0104781Y0085437D01*
X0104427Y0085138D02*
X0108893Y0085138D01*
X0108764Y0084840D02*
X0103928Y0084840D01*
X0103867Y0084541D02*
X0108610Y0084541D01*
X0108456Y0084243D02*
X0103991Y0084243D01*
X0104114Y0083944D02*
X0108396Y0083944D01*
X0108639Y0083646D02*
X0104238Y0083646D01*
X0104362Y0083347D02*
X0108882Y0083347D01*
X0109126Y0083049D02*
X0104485Y0083049D01*
X0104609Y0082750D02*
X0109369Y0082750D01*
X0109613Y0082452D02*
X0104733Y0082452D01*
X0104856Y0082153D02*
X0109856Y0082153D01*
X0110099Y0081855D02*
X0106194Y0081855D01*
X0106173Y0081855D02*
X0104980Y0081855D01*
X0105104Y0081556D02*
X0105593Y0081556D01*
X0106560Y0081556D02*
X0110343Y0081556D01*
X0110073Y0081258D02*
X0106926Y0081258D01*
X0107292Y0080959D02*
X0109775Y0080959D01*
X0109476Y0080661D02*
X0107659Y0080661D01*
X0108025Y0080362D02*
X0109178Y0080362D01*
X0108879Y0080064D02*
X0108391Y0080064D01*
X0100838Y0083347D02*
X0096318Y0083347D01*
X0096561Y0083646D02*
X0100962Y0083646D01*
X0101086Y0083944D02*
X0096804Y0083944D01*
X0096744Y0084243D02*
X0101209Y0084243D01*
X0101333Y0084541D02*
X0096590Y0084541D01*
X0096436Y0084840D02*
X0101270Y0084840D01*
X0100774Y0085138D02*
X0096307Y0085138D01*
X0096212Y0085437D02*
X0100415Y0085437D01*
X0100170Y0085735D02*
X0096116Y0085735D01*
X0096021Y0086034D02*
X0099966Y0086034D01*
X0099807Y0086332D02*
X0093501Y0086332D01*
X0096074Y0083049D02*
X0100715Y0083049D01*
X0100591Y0082750D02*
X0095831Y0082750D01*
X0095587Y0082452D02*
X0100467Y0082452D01*
X0100344Y0082153D02*
X0095344Y0082153D01*
X0095101Y0081855D02*
X0099006Y0081855D01*
X0099027Y0081855D02*
X0100220Y0081855D01*
X0100096Y0081556D02*
X0099607Y0081556D01*
X0098640Y0081556D02*
X0094857Y0081556D01*
X0095127Y0081258D02*
X0098274Y0081258D01*
X0097908Y0080959D02*
X0095425Y0080959D01*
X0095724Y0080661D02*
X0097541Y0080661D01*
X0097175Y0080362D02*
X0096022Y0080362D01*
X0096321Y0080064D02*
X0096809Y0080064D01*
D15*
X0127600Y0092600D03*
X0137600Y0092600D03*
X0147600Y0092600D03*
X0172600Y0092600D03*
X0182600Y0092600D03*
X0192600Y0092600D03*
X0192600Y0047600D03*
X0182600Y0047600D03*
X0172600Y0047600D03*
X0147600Y0047600D03*
X0137600Y0047600D03*
X0127600Y0047600D03*
D16*
X0128801Y0054502D02*
X0136399Y0054502D01*
X0136399Y0060698D02*
X0128801Y0060698D01*
X0100698Y0051399D02*
X0100698Y0043801D01*
X0094502Y0043801D02*
X0094502Y0051399D01*
X0085698Y0051399D02*
X0085698Y0043801D01*
X0079502Y0043801D02*
X0079502Y0051399D01*
X0040698Y0061301D02*
X0040698Y0068899D01*
X0034502Y0068899D02*
X0034502Y0061301D01*
X0138801Y0079502D02*
X0146399Y0079502D01*
X0146399Y0085698D02*
X0138801Y0085698D01*
X0173801Y0060698D02*
X0181399Y0060698D01*
X0181399Y0054502D02*
X0173801Y0054502D01*
X0183801Y0079502D02*
X0191399Y0079502D01*
X0191399Y0085698D02*
X0183801Y0085698D01*
D17*
X0097596Y0052823D03*
X0082596Y0052823D03*
X0082604Y0042377D03*
X0097604Y0042377D03*
X0037604Y0059877D03*
X0037596Y0070323D03*
D18*
X0127377Y0057596D03*
X0137823Y0057604D03*
X0172377Y0057596D03*
X0182823Y0057604D03*
X0182377Y0082596D03*
X0192823Y0082604D03*
X0147823Y0082604D03*
X0137377Y0082596D03*
D19*
X0206301Y0112600D02*
X0206303Y0112758D01*
X0206309Y0112916D01*
X0206319Y0113074D01*
X0206333Y0113232D01*
X0206351Y0113389D01*
X0206372Y0113546D01*
X0206398Y0113702D01*
X0206428Y0113858D01*
X0206461Y0114013D01*
X0206499Y0114166D01*
X0206540Y0114319D01*
X0206585Y0114471D01*
X0206634Y0114622D01*
X0206687Y0114771D01*
X0206743Y0114919D01*
X0206803Y0115065D01*
X0206867Y0115210D01*
X0206935Y0115353D01*
X0207006Y0115495D01*
X0207080Y0115635D01*
X0207158Y0115772D01*
X0207240Y0115908D01*
X0207324Y0116042D01*
X0207413Y0116173D01*
X0207504Y0116302D01*
X0207599Y0116429D01*
X0207696Y0116554D01*
X0207797Y0116676D01*
X0207901Y0116795D01*
X0208008Y0116912D01*
X0208118Y0117026D01*
X0208231Y0117137D01*
X0208346Y0117246D01*
X0208464Y0117351D01*
X0208585Y0117453D01*
X0208708Y0117553D01*
X0208834Y0117649D01*
X0208962Y0117742D01*
X0209092Y0117832D01*
X0209225Y0117918D01*
X0209360Y0118002D01*
X0209496Y0118081D01*
X0209635Y0118158D01*
X0209776Y0118230D01*
X0209918Y0118300D01*
X0210062Y0118365D01*
X0210208Y0118427D01*
X0210355Y0118485D01*
X0210504Y0118540D01*
X0210654Y0118591D01*
X0210805Y0118638D01*
X0210957Y0118681D01*
X0211110Y0118720D01*
X0211265Y0118756D01*
X0211420Y0118787D01*
X0211576Y0118815D01*
X0211732Y0118839D01*
X0211889Y0118859D01*
X0212047Y0118875D01*
X0212204Y0118887D01*
X0212363Y0118895D01*
X0212521Y0118899D01*
X0212679Y0118899D01*
X0212837Y0118895D01*
X0212996Y0118887D01*
X0213153Y0118875D01*
X0213311Y0118859D01*
X0213468Y0118839D01*
X0213624Y0118815D01*
X0213780Y0118787D01*
X0213935Y0118756D01*
X0214090Y0118720D01*
X0214243Y0118681D01*
X0214395Y0118638D01*
X0214546Y0118591D01*
X0214696Y0118540D01*
X0214845Y0118485D01*
X0214992Y0118427D01*
X0215138Y0118365D01*
X0215282Y0118300D01*
X0215424Y0118230D01*
X0215565Y0118158D01*
X0215704Y0118081D01*
X0215840Y0118002D01*
X0215975Y0117918D01*
X0216108Y0117832D01*
X0216238Y0117742D01*
X0216366Y0117649D01*
X0216492Y0117553D01*
X0216615Y0117453D01*
X0216736Y0117351D01*
X0216854Y0117246D01*
X0216969Y0117137D01*
X0217082Y0117026D01*
X0217192Y0116912D01*
X0217299Y0116795D01*
X0217403Y0116676D01*
X0217504Y0116554D01*
X0217601Y0116429D01*
X0217696Y0116302D01*
X0217787Y0116173D01*
X0217876Y0116042D01*
X0217960Y0115908D01*
X0218042Y0115772D01*
X0218120Y0115635D01*
X0218194Y0115495D01*
X0218265Y0115353D01*
X0218333Y0115210D01*
X0218397Y0115065D01*
X0218457Y0114919D01*
X0218513Y0114771D01*
X0218566Y0114622D01*
X0218615Y0114471D01*
X0218660Y0114319D01*
X0218701Y0114166D01*
X0218739Y0114013D01*
X0218772Y0113858D01*
X0218802Y0113702D01*
X0218828Y0113546D01*
X0218849Y0113389D01*
X0218867Y0113232D01*
X0218881Y0113074D01*
X0218891Y0112916D01*
X0218897Y0112758D01*
X0218899Y0112600D01*
X0218897Y0112442D01*
X0218891Y0112284D01*
X0218881Y0112126D01*
X0218867Y0111968D01*
X0218849Y0111811D01*
X0218828Y0111654D01*
X0218802Y0111498D01*
X0218772Y0111342D01*
X0218739Y0111187D01*
X0218701Y0111034D01*
X0218660Y0110881D01*
X0218615Y0110729D01*
X0218566Y0110578D01*
X0218513Y0110429D01*
X0218457Y0110281D01*
X0218397Y0110135D01*
X0218333Y0109990D01*
X0218265Y0109847D01*
X0218194Y0109705D01*
X0218120Y0109565D01*
X0218042Y0109428D01*
X0217960Y0109292D01*
X0217876Y0109158D01*
X0217787Y0109027D01*
X0217696Y0108898D01*
X0217601Y0108771D01*
X0217504Y0108646D01*
X0217403Y0108524D01*
X0217299Y0108405D01*
X0217192Y0108288D01*
X0217082Y0108174D01*
X0216969Y0108063D01*
X0216854Y0107954D01*
X0216736Y0107849D01*
X0216615Y0107747D01*
X0216492Y0107647D01*
X0216366Y0107551D01*
X0216238Y0107458D01*
X0216108Y0107368D01*
X0215975Y0107282D01*
X0215840Y0107198D01*
X0215704Y0107119D01*
X0215565Y0107042D01*
X0215424Y0106970D01*
X0215282Y0106900D01*
X0215138Y0106835D01*
X0214992Y0106773D01*
X0214845Y0106715D01*
X0214696Y0106660D01*
X0214546Y0106609D01*
X0214395Y0106562D01*
X0214243Y0106519D01*
X0214090Y0106480D01*
X0213935Y0106444D01*
X0213780Y0106413D01*
X0213624Y0106385D01*
X0213468Y0106361D01*
X0213311Y0106341D01*
X0213153Y0106325D01*
X0212996Y0106313D01*
X0212837Y0106305D01*
X0212679Y0106301D01*
X0212521Y0106301D01*
X0212363Y0106305D01*
X0212204Y0106313D01*
X0212047Y0106325D01*
X0211889Y0106341D01*
X0211732Y0106361D01*
X0211576Y0106385D01*
X0211420Y0106413D01*
X0211265Y0106444D01*
X0211110Y0106480D01*
X0210957Y0106519D01*
X0210805Y0106562D01*
X0210654Y0106609D01*
X0210504Y0106660D01*
X0210355Y0106715D01*
X0210208Y0106773D01*
X0210062Y0106835D01*
X0209918Y0106900D01*
X0209776Y0106970D01*
X0209635Y0107042D01*
X0209496Y0107119D01*
X0209360Y0107198D01*
X0209225Y0107282D01*
X0209092Y0107368D01*
X0208962Y0107458D01*
X0208834Y0107551D01*
X0208708Y0107647D01*
X0208585Y0107747D01*
X0208464Y0107849D01*
X0208346Y0107954D01*
X0208231Y0108063D01*
X0208118Y0108174D01*
X0208008Y0108288D01*
X0207901Y0108405D01*
X0207797Y0108524D01*
X0207696Y0108646D01*
X0207599Y0108771D01*
X0207504Y0108898D01*
X0207413Y0109027D01*
X0207324Y0109158D01*
X0207240Y0109292D01*
X0207158Y0109428D01*
X0207080Y0109565D01*
X0207006Y0109705D01*
X0206935Y0109847D01*
X0206867Y0109990D01*
X0206803Y0110135D01*
X0206743Y0110281D01*
X0206687Y0110429D01*
X0206634Y0110578D01*
X0206585Y0110729D01*
X0206540Y0110881D01*
X0206499Y0111034D01*
X0206461Y0111187D01*
X0206428Y0111342D01*
X0206398Y0111498D01*
X0206372Y0111654D01*
X0206351Y0111811D01*
X0206333Y0111968D01*
X0206319Y0112126D01*
X0206309Y0112284D01*
X0206303Y0112442D01*
X0206301Y0112600D01*
X0206301Y0032600D02*
X0206303Y0032758D01*
X0206309Y0032916D01*
X0206319Y0033074D01*
X0206333Y0033232D01*
X0206351Y0033389D01*
X0206372Y0033546D01*
X0206398Y0033702D01*
X0206428Y0033858D01*
X0206461Y0034013D01*
X0206499Y0034166D01*
X0206540Y0034319D01*
X0206585Y0034471D01*
X0206634Y0034622D01*
X0206687Y0034771D01*
X0206743Y0034919D01*
X0206803Y0035065D01*
X0206867Y0035210D01*
X0206935Y0035353D01*
X0207006Y0035495D01*
X0207080Y0035635D01*
X0207158Y0035772D01*
X0207240Y0035908D01*
X0207324Y0036042D01*
X0207413Y0036173D01*
X0207504Y0036302D01*
X0207599Y0036429D01*
X0207696Y0036554D01*
X0207797Y0036676D01*
X0207901Y0036795D01*
X0208008Y0036912D01*
X0208118Y0037026D01*
X0208231Y0037137D01*
X0208346Y0037246D01*
X0208464Y0037351D01*
X0208585Y0037453D01*
X0208708Y0037553D01*
X0208834Y0037649D01*
X0208962Y0037742D01*
X0209092Y0037832D01*
X0209225Y0037918D01*
X0209360Y0038002D01*
X0209496Y0038081D01*
X0209635Y0038158D01*
X0209776Y0038230D01*
X0209918Y0038300D01*
X0210062Y0038365D01*
X0210208Y0038427D01*
X0210355Y0038485D01*
X0210504Y0038540D01*
X0210654Y0038591D01*
X0210805Y0038638D01*
X0210957Y0038681D01*
X0211110Y0038720D01*
X0211265Y0038756D01*
X0211420Y0038787D01*
X0211576Y0038815D01*
X0211732Y0038839D01*
X0211889Y0038859D01*
X0212047Y0038875D01*
X0212204Y0038887D01*
X0212363Y0038895D01*
X0212521Y0038899D01*
X0212679Y0038899D01*
X0212837Y0038895D01*
X0212996Y0038887D01*
X0213153Y0038875D01*
X0213311Y0038859D01*
X0213468Y0038839D01*
X0213624Y0038815D01*
X0213780Y0038787D01*
X0213935Y0038756D01*
X0214090Y0038720D01*
X0214243Y0038681D01*
X0214395Y0038638D01*
X0214546Y0038591D01*
X0214696Y0038540D01*
X0214845Y0038485D01*
X0214992Y0038427D01*
X0215138Y0038365D01*
X0215282Y0038300D01*
X0215424Y0038230D01*
X0215565Y0038158D01*
X0215704Y0038081D01*
X0215840Y0038002D01*
X0215975Y0037918D01*
X0216108Y0037832D01*
X0216238Y0037742D01*
X0216366Y0037649D01*
X0216492Y0037553D01*
X0216615Y0037453D01*
X0216736Y0037351D01*
X0216854Y0037246D01*
X0216969Y0037137D01*
X0217082Y0037026D01*
X0217192Y0036912D01*
X0217299Y0036795D01*
X0217403Y0036676D01*
X0217504Y0036554D01*
X0217601Y0036429D01*
X0217696Y0036302D01*
X0217787Y0036173D01*
X0217876Y0036042D01*
X0217960Y0035908D01*
X0218042Y0035772D01*
X0218120Y0035635D01*
X0218194Y0035495D01*
X0218265Y0035353D01*
X0218333Y0035210D01*
X0218397Y0035065D01*
X0218457Y0034919D01*
X0218513Y0034771D01*
X0218566Y0034622D01*
X0218615Y0034471D01*
X0218660Y0034319D01*
X0218701Y0034166D01*
X0218739Y0034013D01*
X0218772Y0033858D01*
X0218802Y0033702D01*
X0218828Y0033546D01*
X0218849Y0033389D01*
X0218867Y0033232D01*
X0218881Y0033074D01*
X0218891Y0032916D01*
X0218897Y0032758D01*
X0218899Y0032600D01*
X0218897Y0032442D01*
X0218891Y0032284D01*
X0218881Y0032126D01*
X0218867Y0031968D01*
X0218849Y0031811D01*
X0218828Y0031654D01*
X0218802Y0031498D01*
X0218772Y0031342D01*
X0218739Y0031187D01*
X0218701Y0031034D01*
X0218660Y0030881D01*
X0218615Y0030729D01*
X0218566Y0030578D01*
X0218513Y0030429D01*
X0218457Y0030281D01*
X0218397Y0030135D01*
X0218333Y0029990D01*
X0218265Y0029847D01*
X0218194Y0029705D01*
X0218120Y0029565D01*
X0218042Y0029428D01*
X0217960Y0029292D01*
X0217876Y0029158D01*
X0217787Y0029027D01*
X0217696Y0028898D01*
X0217601Y0028771D01*
X0217504Y0028646D01*
X0217403Y0028524D01*
X0217299Y0028405D01*
X0217192Y0028288D01*
X0217082Y0028174D01*
X0216969Y0028063D01*
X0216854Y0027954D01*
X0216736Y0027849D01*
X0216615Y0027747D01*
X0216492Y0027647D01*
X0216366Y0027551D01*
X0216238Y0027458D01*
X0216108Y0027368D01*
X0215975Y0027282D01*
X0215840Y0027198D01*
X0215704Y0027119D01*
X0215565Y0027042D01*
X0215424Y0026970D01*
X0215282Y0026900D01*
X0215138Y0026835D01*
X0214992Y0026773D01*
X0214845Y0026715D01*
X0214696Y0026660D01*
X0214546Y0026609D01*
X0214395Y0026562D01*
X0214243Y0026519D01*
X0214090Y0026480D01*
X0213935Y0026444D01*
X0213780Y0026413D01*
X0213624Y0026385D01*
X0213468Y0026361D01*
X0213311Y0026341D01*
X0213153Y0026325D01*
X0212996Y0026313D01*
X0212837Y0026305D01*
X0212679Y0026301D01*
X0212521Y0026301D01*
X0212363Y0026305D01*
X0212204Y0026313D01*
X0212047Y0026325D01*
X0211889Y0026341D01*
X0211732Y0026361D01*
X0211576Y0026385D01*
X0211420Y0026413D01*
X0211265Y0026444D01*
X0211110Y0026480D01*
X0210957Y0026519D01*
X0210805Y0026562D01*
X0210654Y0026609D01*
X0210504Y0026660D01*
X0210355Y0026715D01*
X0210208Y0026773D01*
X0210062Y0026835D01*
X0209918Y0026900D01*
X0209776Y0026970D01*
X0209635Y0027042D01*
X0209496Y0027119D01*
X0209360Y0027198D01*
X0209225Y0027282D01*
X0209092Y0027368D01*
X0208962Y0027458D01*
X0208834Y0027551D01*
X0208708Y0027647D01*
X0208585Y0027747D01*
X0208464Y0027849D01*
X0208346Y0027954D01*
X0208231Y0028063D01*
X0208118Y0028174D01*
X0208008Y0028288D01*
X0207901Y0028405D01*
X0207797Y0028524D01*
X0207696Y0028646D01*
X0207599Y0028771D01*
X0207504Y0028898D01*
X0207413Y0029027D01*
X0207324Y0029158D01*
X0207240Y0029292D01*
X0207158Y0029428D01*
X0207080Y0029565D01*
X0207006Y0029705D01*
X0206935Y0029847D01*
X0206867Y0029990D01*
X0206803Y0030135D01*
X0206743Y0030281D01*
X0206687Y0030429D01*
X0206634Y0030578D01*
X0206585Y0030729D01*
X0206540Y0030881D01*
X0206499Y0031034D01*
X0206461Y0031187D01*
X0206428Y0031342D01*
X0206398Y0031498D01*
X0206372Y0031654D01*
X0206351Y0031811D01*
X0206333Y0031968D01*
X0206319Y0032126D01*
X0206309Y0032284D01*
X0206303Y0032442D01*
X0206301Y0032600D01*
X0036301Y0032600D02*
X0036303Y0032758D01*
X0036309Y0032916D01*
X0036319Y0033074D01*
X0036333Y0033232D01*
X0036351Y0033389D01*
X0036372Y0033546D01*
X0036398Y0033702D01*
X0036428Y0033858D01*
X0036461Y0034013D01*
X0036499Y0034166D01*
X0036540Y0034319D01*
X0036585Y0034471D01*
X0036634Y0034622D01*
X0036687Y0034771D01*
X0036743Y0034919D01*
X0036803Y0035065D01*
X0036867Y0035210D01*
X0036935Y0035353D01*
X0037006Y0035495D01*
X0037080Y0035635D01*
X0037158Y0035772D01*
X0037240Y0035908D01*
X0037324Y0036042D01*
X0037413Y0036173D01*
X0037504Y0036302D01*
X0037599Y0036429D01*
X0037696Y0036554D01*
X0037797Y0036676D01*
X0037901Y0036795D01*
X0038008Y0036912D01*
X0038118Y0037026D01*
X0038231Y0037137D01*
X0038346Y0037246D01*
X0038464Y0037351D01*
X0038585Y0037453D01*
X0038708Y0037553D01*
X0038834Y0037649D01*
X0038962Y0037742D01*
X0039092Y0037832D01*
X0039225Y0037918D01*
X0039360Y0038002D01*
X0039496Y0038081D01*
X0039635Y0038158D01*
X0039776Y0038230D01*
X0039918Y0038300D01*
X0040062Y0038365D01*
X0040208Y0038427D01*
X0040355Y0038485D01*
X0040504Y0038540D01*
X0040654Y0038591D01*
X0040805Y0038638D01*
X0040957Y0038681D01*
X0041110Y0038720D01*
X0041265Y0038756D01*
X0041420Y0038787D01*
X0041576Y0038815D01*
X0041732Y0038839D01*
X0041889Y0038859D01*
X0042047Y0038875D01*
X0042204Y0038887D01*
X0042363Y0038895D01*
X0042521Y0038899D01*
X0042679Y0038899D01*
X0042837Y0038895D01*
X0042996Y0038887D01*
X0043153Y0038875D01*
X0043311Y0038859D01*
X0043468Y0038839D01*
X0043624Y0038815D01*
X0043780Y0038787D01*
X0043935Y0038756D01*
X0044090Y0038720D01*
X0044243Y0038681D01*
X0044395Y0038638D01*
X0044546Y0038591D01*
X0044696Y0038540D01*
X0044845Y0038485D01*
X0044992Y0038427D01*
X0045138Y0038365D01*
X0045282Y0038300D01*
X0045424Y0038230D01*
X0045565Y0038158D01*
X0045704Y0038081D01*
X0045840Y0038002D01*
X0045975Y0037918D01*
X0046108Y0037832D01*
X0046238Y0037742D01*
X0046366Y0037649D01*
X0046492Y0037553D01*
X0046615Y0037453D01*
X0046736Y0037351D01*
X0046854Y0037246D01*
X0046969Y0037137D01*
X0047082Y0037026D01*
X0047192Y0036912D01*
X0047299Y0036795D01*
X0047403Y0036676D01*
X0047504Y0036554D01*
X0047601Y0036429D01*
X0047696Y0036302D01*
X0047787Y0036173D01*
X0047876Y0036042D01*
X0047960Y0035908D01*
X0048042Y0035772D01*
X0048120Y0035635D01*
X0048194Y0035495D01*
X0048265Y0035353D01*
X0048333Y0035210D01*
X0048397Y0035065D01*
X0048457Y0034919D01*
X0048513Y0034771D01*
X0048566Y0034622D01*
X0048615Y0034471D01*
X0048660Y0034319D01*
X0048701Y0034166D01*
X0048739Y0034013D01*
X0048772Y0033858D01*
X0048802Y0033702D01*
X0048828Y0033546D01*
X0048849Y0033389D01*
X0048867Y0033232D01*
X0048881Y0033074D01*
X0048891Y0032916D01*
X0048897Y0032758D01*
X0048899Y0032600D01*
X0048897Y0032442D01*
X0048891Y0032284D01*
X0048881Y0032126D01*
X0048867Y0031968D01*
X0048849Y0031811D01*
X0048828Y0031654D01*
X0048802Y0031498D01*
X0048772Y0031342D01*
X0048739Y0031187D01*
X0048701Y0031034D01*
X0048660Y0030881D01*
X0048615Y0030729D01*
X0048566Y0030578D01*
X0048513Y0030429D01*
X0048457Y0030281D01*
X0048397Y0030135D01*
X0048333Y0029990D01*
X0048265Y0029847D01*
X0048194Y0029705D01*
X0048120Y0029565D01*
X0048042Y0029428D01*
X0047960Y0029292D01*
X0047876Y0029158D01*
X0047787Y0029027D01*
X0047696Y0028898D01*
X0047601Y0028771D01*
X0047504Y0028646D01*
X0047403Y0028524D01*
X0047299Y0028405D01*
X0047192Y0028288D01*
X0047082Y0028174D01*
X0046969Y0028063D01*
X0046854Y0027954D01*
X0046736Y0027849D01*
X0046615Y0027747D01*
X0046492Y0027647D01*
X0046366Y0027551D01*
X0046238Y0027458D01*
X0046108Y0027368D01*
X0045975Y0027282D01*
X0045840Y0027198D01*
X0045704Y0027119D01*
X0045565Y0027042D01*
X0045424Y0026970D01*
X0045282Y0026900D01*
X0045138Y0026835D01*
X0044992Y0026773D01*
X0044845Y0026715D01*
X0044696Y0026660D01*
X0044546Y0026609D01*
X0044395Y0026562D01*
X0044243Y0026519D01*
X0044090Y0026480D01*
X0043935Y0026444D01*
X0043780Y0026413D01*
X0043624Y0026385D01*
X0043468Y0026361D01*
X0043311Y0026341D01*
X0043153Y0026325D01*
X0042996Y0026313D01*
X0042837Y0026305D01*
X0042679Y0026301D01*
X0042521Y0026301D01*
X0042363Y0026305D01*
X0042204Y0026313D01*
X0042047Y0026325D01*
X0041889Y0026341D01*
X0041732Y0026361D01*
X0041576Y0026385D01*
X0041420Y0026413D01*
X0041265Y0026444D01*
X0041110Y0026480D01*
X0040957Y0026519D01*
X0040805Y0026562D01*
X0040654Y0026609D01*
X0040504Y0026660D01*
X0040355Y0026715D01*
X0040208Y0026773D01*
X0040062Y0026835D01*
X0039918Y0026900D01*
X0039776Y0026970D01*
X0039635Y0027042D01*
X0039496Y0027119D01*
X0039360Y0027198D01*
X0039225Y0027282D01*
X0039092Y0027368D01*
X0038962Y0027458D01*
X0038834Y0027551D01*
X0038708Y0027647D01*
X0038585Y0027747D01*
X0038464Y0027849D01*
X0038346Y0027954D01*
X0038231Y0028063D01*
X0038118Y0028174D01*
X0038008Y0028288D01*
X0037901Y0028405D01*
X0037797Y0028524D01*
X0037696Y0028646D01*
X0037599Y0028771D01*
X0037504Y0028898D01*
X0037413Y0029027D01*
X0037324Y0029158D01*
X0037240Y0029292D01*
X0037158Y0029428D01*
X0037080Y0029565D01*
X0037006Y0029705D01*
X0036935Y0029847D01*
X0036867Y0029990D01*
X0036803Y0030135D01*
X0036743Y0030281D01*
X0036687Y0030429D01*
X0036634Y0030578D01*
X0036585Y0030729D01*
X0036540Y0030881D01*
X0036499Y0031034D01*
X0036461Y0031187D01*
X0036428Y0031342D01*
X0036398Y0031498D01*
X0036372Y0031654D01*
X0036351Y0031811D01*
X0036333Y0031968D01*
X0036319Y0032126D01*
X0036309Y0032284D01*
X0036303Y0032442D01*
X0036301Y0032600D01*
X0036301Y0112600D02*
X0036303Y0112758D01*
X0036309Y0112916D01*
X0036319Y0113074D01*
X0036333Y0113232D01*
X0036351Y0113389D01*
X0036372Y0113546D01*
X0036398Y0113702D01*
X0036428Y0113858D01*
X0036461Y0114013D01*
X0036499Y0114166D01*
X0036540Y0114319D01*
X0036585Y0114471D01*
X0036634Y0114622D01*
X0036687Y0114771D01*
X0036743Y0114919D01*
X0036803Y0115065D01*
X0036867Y0115210D01*
X0036935Y0115353D01*
X0037006Y0115495D01*
X0037080Y0115635D01*
X0037158Y0115772D01*
X0037240Y0115908D01*
X0037324Y0116042D01*
X0037413Y0116173D01*
X0037504Y0116302D01*
X0037599Y0116429D01*
X0037696Y0116554D01*
X0037797Y0116676D01*
X0037901Y0116795D01*
X0038008Y0116912D01*
X0038118Y0117026D01*
X0038231Y0117137D01*
X0038346Y0117246D01*
X0038464Y0117351D01*
X0038585Y0117453D01*
X0038708Y0117553D01*
X0038834Y0117649D01*
X0038962Y0117742D01*
X0039092Y0117832D01*
X0039225Y0117918D01*
X0039360Y0118002D01*
X0039496Y0118081D01*
X0039635Y0118158D01*
X0039776Y0118230D01*
X0039918Y0118300D01*
X0040062Y0118365D01*
X0040208Y0118427D01*
X0040355Y0118485D01*
X0040504Y0118540D01*
X0040654Y0118591D01*
X0040805Y0118638D01*
X0040957Y0118681D01*
X0041110Y0118720D01*
X0041265Y0118756D01*
X0041420Y0118787D01*
X0041576Y0118815D01*
X0041732Y0118839D01*
X0041889Y0118859D01*
X0042047Y0118875D01*
X0042204Y0118887D01*
X0042363Y0118895D01*
X0042521Y0118899D01*
X0042679Y0118899D01*
X0042837Y0118895D01*
X0042996Y0118887D01*
X0043153Y0118875D01*
X0043311Y0118859D01*
X0043468Y0118839D01*
X0043624Y0118815D01*
X0043780Y0118787D01*
X0043935Y0118756D01*
X0044090Y0118720D01*
X0044243Y0118681D01*
X0044395Y0118638D01*
X0044546Y0118591D01*
X0044696Y0118540D01*
X0044845Y0118485D01*
X0044992Y0118427D01*
X0045138Y0118365D01*
X0045282Y0118300D01*
X0045424Y0118230D01*
X0045565Y0118158D01*
X0045704Y0118081D01*
X0045840Y0118002D01*
X0045975Y0117918D01*
X0046108Y0117832D01*
X0046238Y0117742D01*
X0046366Y0117649D01*
X0046492Y0117553D01*
X0046615Y0117453D01*
X0046736Y0117351D01*
X0046854Y0117246D01*
X0046969Y0117137D01*
X0047082Y0117026D01*
X0047192Y0116912D01*
X0047299Y0116795D01*
X0047403Y0116676D01*
X0047504Y0116554D01*
X0047601Y0116429D01*
X0047696Y0116302D01*
X0047787Y0116173D01*
X0047876Y0116042D01*
X0047960Y0115908D01*
X0048042Y0115772D01*
X0048120Y0115635D01*
X0048194Y0115495D01*
X0048265Y0115353D01*
X0048333Y0115210D01*
X0048397Y0115065D01*
X0048457Y0114919D01*
X0048513Y0114771D01*
X0048566Y0114622D01*
X0048615Y0114471D01*
X0048660Y0114319D01*
X0048701Y0114166D01*
X0048739Y0114013D01*
X0048772Y0113858D01*
X0048802Y0113702D01*
X0048828Y0113546D01*
X0048849Y0113389D01*
X0048867Y0113232D01*
X0048881Y0113074D01*
X0048891Y0112916D01*
X0048897Y0112758D01*
X0048899Y0112600D01*
X0048897Y0112442D01*
X0048891Y0112284D01*
X0048881Y0112126D01*
X0048867Y0111968D01*
X0048849Y0111811D01*
X0048828Y0111654D01*
X0048802Y0111498D01*
X0048772Y0111342D01*
X0048739Y0111187D01*
X0048701Y0111034D01*
X0048660Y0110881D01*
X0048615Y0110729D01*
X0048566Y0110578D01*
X0048513Y0110429D01*
X0048457Y0110281D01*
X0048397Y0110135D01*
X0048333Y0109990D01*
X0048265Y0109847D01*
X0048194Y0109705D01*
X0048120Y0109565D01*
X0048042Y0109428D01*
X0047960Y0109292D01*
X0047876Y0109158D01*
X0047787Y0109027D01*
X0047696Y0108898D01*
X0047601Y0108771D01*
X0047504Y0108646D01*
X0047403Y0108524D01*
X0047299Y0108405D01*
X0047192Y0108288D01*
X0047082Y0108174D01*
X0046969Y0108063D01*
X0046854Y0107954D01*
X0046736Y0107849D01*
X0046615Y0107747D01*
X0046492Y0107647D01*
X0046366Y0107551D01*
X0046238Y0107458D01*
X0046108Y0107368D01*
X0045975Y0107282D01*
X0045840Y0107198D01*
X0045704Y0107119D01*
X0045565Y0107042D01*
X0045424Y0106970D01*
X0045282Y0106900D01*
X0045138Y0106835D01*
X0044992Y0106773D01*
X0044845Y0106715D01*
X0044696Y0106660D01*
X0044546Y0106609D01*
X0044395Y0106562D01*
X0044243Y0106519D01*
X0044090Y0106480D01*
X0043935Y0106444D01*
X0043780Y0106413D01*
X0043624Y0106385D01*
X0043468Y0106361D01*
X0043311Y0106341D01*
X0043153Y0106325D01*
X0042996Y0106313D01*
X0042837Y0106305D01*
X0042679Y0106301D01*
X0042521Y0106301D01*
X0042363Y0106305D01*
X0042204Y0106313D01*
X0042047Y0106325D01*
X0041889Y0106341D01*
X0041732Y0106361D01*
X0041576Y0106385D01*
X0041420Y0106413D01*
X0041265Y0106444D01*
X0041110Y0106480D01*
X0040957Y0106519D01*
X0040805Y0106562D01*
X0040654Y0106609D01*
X0040504Y0106660D01*
X0040355Y0106715D01*
X0040208Y0106773D01*
X0040062Y0106835D01*
X0039918Y0106900D01*
X0039776Y0106970D01*
X0039635Y0107042D01*
X0039496Y0107119D01*
X0039360Y0107198D01*
X0039225Y0107282D01*
X0039092Y0107368D01*
X0038962Y0107458D01*
X0038834Y0107551D01*
X0038708Y0107647D01*
X0038585Y0107747D01*
X0038464Y0107849D01*
X0038346Y0107954D01*
X0038231Y0108063D01*
X0038118Y0108174D01*
X0038008Y0108288D01*
X0037901Y0108405D01*
X0037797Y0108524D01*
X0037696Y0108646D01*
X0037599Y0108771D01*
X0037504Y0108898D01*
X0037413Y0109027D01*
X0037324Y0109158D01*
X0037240Y0109292D01*
X0037158Y0109428D01*
X0037080Y0109565D01*
X0037006Y0109705D01*
X0036935Y0109847D01*
X0036867Y0109990D01*
X0036803Y0110135D01*
X0036743Y0110281D01*
X0036687Y0110429D01*
X0036634Y0110578D01*
X0036585Y0110729D01*
X0036540Y0110881D01*
X0036499Y0111034D01*
X0036461Y0111187D01*
X0036428Y0111342D01*
X0036398Y0111498D01*
X0036372Y0111654D01*
X0036351Y0111811D01*
X0036333Y0111968D01*
X0036319Y0112126D01*
X0036309Y0112284D01*
X0036303Y0112442D01*
X0036301Y0112600D01*
D20*
X0052600Y0072600D02*
X0052603Y0072845D01*
X0052612Y0073091D01*
X0052627Y0073336D01*
X0052648Y0073580D01*
X0052675Y0073824D01*
X0052708Y0074067D01*
X0052747Y0074310D01*
X0052792Y0074551D01*
X0052843Y0074791D01*
X0052900Y0075030D01*
X0052962Y0075267D01*
X0053031Y0075503D01*
X0053105Y0075737D01*
X0053185Y0075969D01*
X0053270Y0076199D01*
X0053361Y0076427D01*
X0053458Y0076652D01*
X0053560Y0076876D01*
X0053668Y0077096D01*
X0053781Y0077314D01*
X0053899Y0077529D01*
X0054023Y0077741D01*
X0054151Y0077950D01*
X0054285Y0078156D01*
X0054424Y0078358D01*
X0054568Y0078557D01*
X0054717Y0078752D01*
X0054870Y0078944D01*
X0055028Y0079132D01*
X0055190Y0079316D01*
X0055358Y0079495D01*
X0055529Y0079671D01*
X0055705Y0079842D01*
X0055884Y0080010D01*
X0056068Y0080172D01*
X0056256Y0080330D01*
X0056448Y0080483D01*
X0056643Y0080632D01*
X0056842Y0080776D01*
X0057044Y0080915D01*
X0057250Y0081049D01*
X0057459Y0081177D01*
X0057671Y0081301D01*
X0057886Y0081419D01*
X0058104Y0081532D01*
X0058324Y0081640D01*
X0058548Y0081742D01*
X0058773Y0081839D01*
X0059001Y0081930D01*
X0059231Y0082015D01*
X0059463Y0082095D01*
X0059697Y0082169D01*
X0059933Y0082238D01*
X0060170Y0082300D01*
X0060409Y0082357D01*
X0060649Y0082408D01*
X0060890Y0082453D01*
X0061133Y0082492D01*
X0061376Y0082525D01*
X0061620Y0082552D01*
X0061864Y0082573D01*
X0062109Y0082588D01*
X0062355Y0082597D01*
X0062600Y0082600D01*
X0062845Y0082597D01*
X0063091Y0082588D01*
X0063336Y0082573D01*
X0063580Y0082552D01*
X0063824Y0082525D01*
X0064067Y0082492D01*
X0064310Y0082453D01*
X0064551Y0082408D01*
X0064791Y0082357D01*
X0065030Y0082300D01*
X0065267Y0082238D01*
X0065503Y0082169D01*
X0065737Y0082095D01*
X0065969Y0082015D01*
X0066199Y0081930D01*
X0066427Y0081839D01*
X0066652Y0081742D01*
X0066876Y0081640D01*
X0067096Y0081532D01*
X0067314Y0081419D01*
X0067529Y0081301D01*
X0067741Y0081177D01*
X0067950Y0081049D01*
X0068156Y0080915D01*
X0068358Y0080776D01*
X0068557Y0080632D01*
X0068752Y0080483D01*
X0068944Y0080330D01*
X0069132Y0080172D01*
X0069316Y0080010D01*
X0069495Y0079842D01*
X0069671Y0079671D01*
X0069842Y0079495D01*
X0070010Y0079316D01*
X0070172Y0079132D01*
X0070330Y0078944D01*
X0070483Y0078752D01*
X0070632Y0078557D01*
X0070776Y0078358D01*
X0070915Y0078156D01*
X0071049Y0077950D01*
X0071177Y0077741D01*
X0071301Y0077529D01*
X0071419Y0077314D01*
X0071532Y0077096D01*
X0071640Y0076876D01*
X0071742Y0076652D01*
X0071839Y0076427D01*
X0071930Y0076199D01*
X0072015Y0075969D01*
X0072095Y0075737D01*
X0072169Y0075503D01*
X0072238Y0075267D01*
X0072300Y0075030D01*
X0072357Y0074791D01*
X0072408Y0074551D01*
X0072453Y0074310D01*
X0072492Y0074067D01*
X0072525Y0073824D01*
X0072552Y0073580D01*
X0072573Y0073336D01*
X0072588Y0073091D01*
X0072597Y0072845D01*
X0072600Y0072600D01*
X0072597Y0072355D01*
X0072588Y0072109D01*
X0072573Y0071864D01*
X0072552Y0071620D01*
X0072525Y0071376D01*
X0072492Y0071133D01*
X0072453Y0070890D01*
X0072408Y0070649D01*
X0072357Y0070409D01*
X0072300Y0070170D01*
X0072238Y0069933D01*
X0072169Y0069697D01*
X0072095Y0069463D01*
X0072015Y0069231D01*
X0071930Y0069001D01*
X0071839Y0068773D01*
X0071742Y0068548D01*
X0071640Y0068324D01*
X0071532Y0068104D01*
X0071419Y0067886D01*
X0071301Y0067671D01*
X0071177Y0067459D01*
X0071049Y0067250D01*
X0070915Y0067044D01*
X0070776Y0066842D01*
X0070632Y0066643D01*
X0070483Y0066448D01*
X0070330Y0066256D01*
X0070172Y0066068D01*
X0070010Y0065884D01*
X0069842Y0065705D01*
X0069671Y0065529D01*
X0069495Y0065358D01*
X0069316Y0065190D01*
X0069132Y0065028D01*
X0068944Y0064870D01*
X0068752Y0064717D01*
X0068557Y0064568D01*
X0068358Y0064424D01*
X0068156Y0064285D01*
X0067950Y0064151D01*
X0067741Y0064023D01*
X0067529Y0063899D01*
X0067314Y0063781D01*
X0067096Y0063668D01*
X0066876Y0063560D01*
X0066652Y0063458D01*
X0066427Y0063361D01*
X0066199Y0063270D01*
X0065969Y0063185D01*
X0065737Y0063105D01*
X0065503Y0063031D01*
X0065267Y0062962D01*
X0065030Y0062900D01*
X0064791Y0062843D01*
X0064551Y0062792D01*
X0064310Y0062747D01*
X0064067Y0062708D01*
X0063824Y0062675D01*
X0063580Y0062648D01*
X0063336Y0062627D01*
X0063091Y0062612D01*
X0062845Y0062603D01*
X0062600Y0062600D01*
X0062355Y0062603D01*
X0062109Y0062612D01*
X0061864Y0062627D01*
X0061620Y0062648D01*
X0061376Y0062675D01*
X0061133Y0062708D01*
X0060890Y0062747D01*
X0060649Y0062792D01*
X0060409Y0062843D01*
X0060170Y0062900D01*
X0059933Y0062962D01*
X0059697Y0063031D01*
X0059463Y0063105D01*
X0059231Y0063185D01*
X0059001Y0063270D01*
X0058773Y0063361D01*
X0058548Y0063458D01*
X0058324Y0063560D01*
X0058104Y0063668D01*
X0057886Y0063781D01*
X0057671Y0063899D01*
X0057459Y0064023D01*
X0057250Y0064151D01*
X0057044Y0064285D01*
X0056842Y0064424D01*
X0056643Y0064568D01*
X0056448Y0064717D01*
X0056256Y0064870D01*
X0056068Y0065028D01*
X0055884Y0065190D01*
X0055705Y0065358D01*
X0055529Y0065529D01*
X0055358Y0065705D01*
X0055190Y0065884D01*
X0055028Y0066068D01*
X0054870Y0066256D01*
X0054717Y0066448D01*
X0054568Y0066643D01*
X0054424Y0066842D01*
X0054285Y0067044D01*
X0054151Y0067250D01*
X0054023Y0067459D01*
X0053899Y0067671D01*
X0053781Y0067886D01*
X0053668Y0068104D01*
X0053560Y0068324D01*
X0053458Y0068548D01*
X0053361Y0068773D01*
X0053270Y0069001D01*
X0053185Y0069231D01*
X0053105Y0069463D01*
X0053031Y0069697D01*
X0052962Y0069933D01*
X0052900Y0070170D01*
X0052843Y0070409D01*
X0052792Y0070649D01*
X0052747Y0070890D01*
X0052708Y0071133D01*
X0052675Y0071376D01*
X0052648Y0071620D01*
X0052627Y0071864D01*
X0052612Y0072109D01*
X0052603Y0072355D01*
X0052600Y0072600D01*
X0044588Y0072600D02*
X0044593Y0073042D01*
X0044610Y0073484D01*
X0044637Y0073925D01*
X0044675Y0074365D01*
X0044723Y0074805D01*
X0044783Y0075243D01*
X0044853Y0075679D01*
X0044934Y0076114D01*
X0045026Y0076546D01*
X0045128Y0076977D01*
X0045240Y0077404D01*
X0045364Y0077829D01*
X0045497Y0078250D01*
X0045641Y0078668D01*
X0045795Y0079082D01*
X0045959Y0079493D01*
X0046133Y0079899D01*
X0046317Y0080301D01*
X0046511Y0080698D01*
X0046715Y0081091D01*
X0046928Y0081478D01*
X0047151Y0081860D01*
X0047382Y0082236D01*
X0047624Y0082607D01*
X0047874Y0082971D01*
X0048133Y0083330D01*
X0048400Y0083682D01*
X0048677Y0084027D01*
X0048961Y0084365D01*
X0049254Y0084696D01*
X0049555Y0085020D01*
X0049864Y0085336D01*
X0050180Y0085645D01*
X0050504Y0085946D01*
X0050835Y0086239D01*
X0051173Y0086523D01*
X0051518Y0086800D01*
X0051870Y0087067D01*
X0052229Y0087326D01*
X0052593Y0087576D01*
X0052964Y0087818D01*
X0053340Y0088049D01*
X0053722Y0088272D01*
X0054109Y0088485D01*
X0054502Y0088689D01*
X0054899Y0088883D01*
X0055301Y0089067D01*
X0055707Y0089241D01*
X0056118Y0089405D01*
X0056532Y0089559D01*
X0056950Y0089703D01*
X0057371Y0089836D01*
X0057796Y0089960D01*
X0058223Y0090072D01*
X0058654Y0090174D01*
X0059086Y0090266D01*
X0059521Y0090347D01*
X0059957Y0090417D01*
X0060395Y0090477D01*
X0060835Y0090525D01*
X0061275Y0090563D01*
X0061716Y0090590D01*
X0062158Y0090607D01*
X0062600Y0090612D01*
X0063042Y0090607D01*
X0063484Y0090590D01*
X0063925Y0090563D01*
X0064365Y0090525D01*
X0064805Y0090477D01*
X0065243Y0090417D01*
X0065679Y0090347D01*
X0066114Y0090266D01*
X0066546Y0090174D01*
X0066977Y0090072D01*
X0067404Y0089960D01*
X0067829Y0089836D01*
X0068250Y0089703D01*
X0068668Y0089559D01*
X0069082Y0089405D01*
X0069493Y0089241D01*
X0069899Y0089067D01*
X0070301Y0088883D01*
X0070698Y0088689D01*
X0071091Y0088485D01*
X0071478Y0088272D01*
X0071860Y0088049D01*
X0072236Y0087818D01*
X0072607Y0087576D01*
X0072971Y0087326D01*
X0073330Y0087067D01*
X0073682Y0086800D01*
X0074027Y0086523D01*
X0074365Y0086239D01*
X0074696Y0085946D01*
X0075020Y0085645D01*
X0075336Y0085336D01*
X0075645Y0085020D01*
X0075946Y0084696D01*
X0076239Y0084365D01*
X0076523Y0084027D01*
X0076800Y0083682D01*
X0077067Y0083330D01*
X0077326Y0082971D01*
X0077576Y0082607D01*
X0077818Y0082236D01*
X0078049Y0081860D01*
X0078272Y0081478D01*
X0078485Y0081091D01*
X0078689Y0080698D01*
X0078883Y0080301D01*
X0079067Y0079899D01*
X0079241Y0079493D01*
X0079405Y0079082D01*
X0079559Y0078668D01*
X0079703Y0078250D01*
X0079836Y0077829D01*
X0079960Y0077404D01*
X0080072Y0076977D01*
X0080174Y0076546D01*
X0080266Y0076114D01*
X0080347Y0075679D01*
X0080417Y0075243D01*
X0080477Y0074805D01*
X0080525Y0074365D01*
X0080563Y0073925D01*
X0080590Y0073484D01*
X0080607Y0073042D01*
X0080612Y0072600D01*
X0080607Y0072158D01*
X0080590Y0071716D01*
X0080563Y0071275D01*
X0080525Y0070835D01*
X0080477Y0070395D01*
X0080417Y0069957D01*
X0080347Y0069521D01*
X0080266Y0069086D01*
X0080174Y0068654D01*
X0080072Y0068223D01*
X0079960Y0067796D01*
X0079836Y0067371D01*
X0079703Y0066950D01*
X0079559Y0066532D01*
X0079405Y0066118D01*
X0079241Y0065707D01*
X0079067Y0065301D01*
X0078883Y0064899D01*
X0078689Y0064502D01*
X0078485Y0064109D01*
X0078272Y0063722D01*
X0078049Y0063340D01*
X0077818Y0062964D01*
X0077576Y0062593D01*
X0077326Y0062229D01*
X0077067Y0061870D01*
X0076800Y0061518D01*
X0076523Y0061173D01*
X0076239Y0060835D01*
X0075946Y0060504D01*
X0075645Y0060180D01*
X0075336Y0059864D01*
X0075020Y0059555D01*
X0074696Y0059254D01*
X0074365Y0058961D01*
X0074027Y0058677D01*
X0073682Y0058400D01*
X0073330Y0058133D01*
X0072971Y0057874D01*
X0072607Y0057624D01*
X0072236Y0057382D01*
X0071860Y0057151D01*
X0071478Y0056928D01*
X0071091Y0056715D01*
X0070698Y0056511D01*
X0070301Y0056317D01*
X0069899Y0056133D01*
X0069493Y0055959D01*
X0069082Y0055795D01*
X0068668Y0055641D01*
X0068250Y0055497D01*
X0067829Y0055364D01*
X0067404Y0055240D01*
X0066977Y0055128D01*
X0066546Y0055026D01*
X0066114Y0054934D01*
X0065679Y0054853D01*
X0065243Y0054783D01*
X0064805Y0054723D01*
X0064365Y0054675D01*
X0063925Y0054637D01*
X0063484Y0054610D01*
X0063042Y0054593D01*
X0062600Y0054588D01*
X0062158Y0054593D01*
X0061716Y0054610D01*
X0061275Y0054637D01*
X0060835Y0054675D01*
X0060395Y0054723D01*
X0059957Y0054783D01*
X0059521Y0054853D01*
X0059086Y0054934D01*
X0058654Y0055026D01*
X0058223Y0055128D01*
X0057796Y0055240D01*
X0057371Y0055364D01*
X0056950Y0055497D01*
X0056532Y0055641D01*
X0056118Y0055795D01*
X0055707Y0055959D01*
X0055301Y0056133D01*
X0054899Y0056317D01*
X0054502Y0056511D01*
X0054109Y0056715D01*
X0053722Y0056928D01*
X0053340Y0057151D01*
X0052964Y0057382D01*
X0052593Y0057624D01*
X0052229Y0057874D01*
X0051870Y0058133D01*
X0051518Y0058400D01*
X0051173Y0058677D01*
X0050835Y0058961D01*
X0050504Y0059254D01*
X0050180Y0059555D01*
X0049864Y0059864D01*
X0049555Y0060180D01*
X0049254Y0060504D01*
X0048961Y0060835D01*
X0048677Y0061173D01*
X0048400Y0061518D01*
X0048133Y0061870D01*
X0047874Y0062229D01*
X0047624Y0062593D01*
X0047382Y0062964D01*
X0047151Y0063340D01*
X0046928Y0063722D01*
X0046715Y0064109D01*
X0046511Y0064502D01*
X0046317Y0064899D01*
X0046133Y0065301D01*
X0045959Y0065707D01*
X0045795Y0066118D01*
X0045641Y0066532D01*
X0045497Y0066950D01*
X0045364Y0067371D01*
X0045240Y0067796D01*
X0045128Y0068223D01*
X0045026Y0068654D01*
X0044934Y0069086D01*
X0044853Y0069521D01*
X0044783Y0069957D01*
X0044723Y0070395D01*
X0044675Y0070835D01*
X0044637Y0071275D01*
X0044610Y0071716D01*
X0044593Y0072158D01*
X0044588Y0072600D01*
X0073850Y0058850D02*
X0076350Y0056350D01*
X0078850Y0058850D01*
X0076350Y0061350D01*
M02*
